<?xml version="1.0" encoding="utf-8"?>
<!-- Generator: Adobe Illustrator 24.3.0, SVG Export Plug-In . SVG Version: 6.00 Build 0)  -->
<svg version="1.1" id="Heart" xmlns="http://www.w3.org/2000/svg" xmlns:xlink="http://www.w3.org/1999/xlink" x="0px" y="0px"
	 viewBox="0 0 64 64" style="enable-background:new 0 0 64 64;" xml:space="preserve">
<style type="text/css">
	#Background {fill:  #ca83a7;}
	#Background2 {fill: url(#gradient1) #ce3691;}
	#Background3 {fill: url(#gradient2) #75caec;}
	#Background4 {fill: url(#gradient3) #fe7f7c;}
	#Background5 {fill: url(#gradient4) #f3be98;}
	#Shade {opacity:0.25;fill:#FFFFFF;}
	#Shine {opacity:0.41;}

	.ShadeShape{clip-path:url(#ShadeShapeClip);fill:#FFFFFF;}
</style>
<defs>
  <linearGradient spreadMethod="pad" id="gradient1" x1="0%" y1="0%" x2="100%" y2="100%">
  	<stop offset="0%" style="stop-color:#ce3691;stop-opacity:1;" />
    <stop offset="50%" style="stop-color:#ce3691;stop-opacity:0;" />
  </linearGradient>
	<linearGradient spreadMethod="pad" id="gradient2" x1="70%" y1="0%" x2="0%" y2="70%">
		<stop offset="0%" style="stop-color:#75caec;stop-opacity:1;" />
		<stop offset="50%" style="stop-color:#75caec;stop-opacity:0;" />
	</linearGradient>
	<linearGradient spreadMethod="pad" id="gradient3" x1="0%" y1="70%" x2="70%" y2="0%">
		<stop offset="0%" style="stop-color:#fe7f7c;stop-opacity:1;" />
		<stop offset="50%" style="stop-color:#fe7f7c;stop-opacity:0;" />
	</linearGradient>
	<linearGradient spreadMethod="pad" id="gradient4" x1="100%" y1="100%" x2="0%" y2="0%">
		<stop offset="0%" style="stop-color:#f3be98;stop-opacity:1;" />
		<stop offset="50%" style="stop-color:#f3be98;stop-opacity:0;" />
	</linearGradient>
</defs>
<path id="Background" class="st0" d="M31.9,13.2c0,0,4.2-13.1,17.9-13.1c11.2,0.1,22,19.2,5.8,40.3C39.1,59.6,31.9,63.9,31.9,63.9
	s-7-3.3-23.2-23.4C-7.7,21.2,1.9-0.1,15.3,0.1C28.7,0.2,31.9,13.2,31.9,13.2z"/>
<path id="Background2" class="st0" d="M31.9,13.2c0,0,4.2-13.1,17.9-13.1c11.2,0.1,22,19.2,5.8,40.3C39.1,59.6,31.9,63.9,31.9,63.9
	s-7-3.3-23.2-23.4C-7.7,21.2,1.9-0.1,15.3,0.1C28.7,0.2,31.9,13.2,31.9,13.2z"/>
<path id="Background3" class="st0" d="M31.9,13.2c0,0,4.2-13.1,17.9-13.1c11.2,0.1,22,19.2,5.8,40.3C39.1,59.6,31.9,63.9,31.9,63.9
	s-7-3.3-23.2-23.4C-7.7,21.2,1.9-0.1,15.3,0.1C28.7,0.2,31.9,13.2,31.9,13.2z"/>
<path id="Background4" class="st0" d="M31.9,13.2c0,0,4.2-13.1,17.9-13.1c11.2,0.1,22,19.2,5.8,40.3C39.1,59.6,31.9,63.9,31.9,63.9
	s-7-3.3-23.2-23.4C-7.7,21.2,1.9-0.1,15.3,0.1C28.7,0.2,31.9,13.2,31.9,13.2z"/>
<path id="Background5" class="st0" d="M31.9,13.2c0,0,4.2-13.1,17.9-13.1c11.2,0.1,22,19.2,5.8,40.3C39.1,59.6,31.9,63.9,31.9,63.9
	s-7-3.3-23.2-23.4C-7.7,21.2,1.9-0.1,15.3,0.1C28.7,0.2,31.9,13.2,31.9,13.2z"/>
<path id="Shade" class="st1" d="M31.7,26.5c0,0,0.1-23.9,18.1-23.9c10.9,0,17.4,20.5,3.8,36.3C37,58.3,31.7,61.1,31.7,61.1
	S25.3,57.5,10.6,39C-3.2,21.7,2.7,2.5,15.5,2.7C31.9,2.9,31.7,26.5,31.7,26.5z"/>
<g id="Shine" class="st2">
	<g>
		<defs>
			<path id="ShadeClip" d="M31.7,26.5c0,0,0.1-23.9,18.1-23.9c10.9,0,17.4,20.5,3.8,36.3C37,58.3,31.7,61.1,31.7,61.1
				S25.3,57.5,10.6,39C-3.2,21.7,2.7,2.5,15.5,2.7C31.9,2.9,31.7,26.5,31.7,26.5z"/>
		</defs>
		<clipPath id="ShadeShapeClip">
			<use xlink:href="#ShadeClip"  style="overflow:visible;"/>
		</clipPath>
		<path class="ShadeShape" d="M65.3-3.8c0,36.4-15.1,38.4-33.8,38.4s-33.8-2-33.8-38.4c0-21.2,15.1-38.4,33.8-38.4
			C50.2-42.2,65.3-25,65.3-3.8z"/>
	</g>
</g>
</svg>
