<?xml version="1.0" encoding="UTF-8" standalone="no"?>
<svg
   xmlns:dc="http://purl.org/dc/elements/1.1/"
   xmlns:cc="http://creativecommons.org/ns#"
   xmlns:rdf="http://www.w3.org/1999/02/22-rdf-syntax-ns#"
   xmlns:svg="http://www.w3.org/2000/svg"
   xmlns="http://www.w3.org/2000/svg"
   xmlns:xlink="http://www.w3.org/1999/xlink"
   xmlns:sodipodi="http://sodipodi.sourceforge.net/DTD/sodipodi-0.dtd"
   xmlns:inkscape="http://www.inkscape.org/namespaces/inkscape"
   version="1.1"
   id="Heart"
   x="0px"
   y="0px"
   viewBox="0 0 512 512"
   style="enable-background:new 0 0 512 512;"
   xml:space="preserve"
   sodipodi:docname="among_us.svg"
   inkscape:version="1.0.1 (3bc2e813f5, 2020-09-07)"><metadata
   id="metadata56"><rdf:RDF><cc:Work
       rdf:about=""><dc:format>image/svg+xml</dc:format><dc:type
         rdf:resource="http://purl.org/dc/dcmitype/StillImage" /><dc:title></dc:title></cc:Work></rdf:RDF></metadata><defs
   id="defs54" /><sodipodi:namedview
   pagecolor="#ffffff"
   bordercolor="#666666"
   borderopacity="1"
   objecttolerance="10"
   gridtolerance="10"
   guidetolerance="10"
   inkscape:pageopacity="0"
   inkscape:pageshadow="2"
   inkscape:window-width="2046"
   inkscape:window-height="2068"
   id="namedview52"
   showgrid="false"
   inkscape:zoom="1.96875"
   inkscape:cx="145.01587"
   inkscape:cy="314.62383"
   inkscape:window-x="-10"
   inkscape:window-y="0"
   inkscape:window-maximized="0"
   inkscape:current-layer="Heart" />
<style
   type="text/css"
   id="style34">
	.st0{fill:#C527FE;}
	.st5{opacity:0.25;fill:#FFFFFF;enable-background:new    ;}
	.st6{opacity:0.41;}
	.st7{clip-path:url(#SVGID_2_);fill:#FFFFFF;}
</style>
<path
   id="Background"
   class="st0"
   d="M255.6,107c0,0,33.3-103.8,141.8-103.8c88.7,0.8,174.3,152.2,45.9,319.5  C312.6,474.8,255.6,508.9,255.6,508.9s-55.5-26.2-183.8-185.5C-58.1,170.4,17.9,1.5,124.1,3.1C230.2,3.9,255.6,107,255.6,107z" />
<path
   id="Shade"
   class="st5"
   d="M254,212.4c0,0,0.8-189.5,143.4-189.5c86.4,0,137.8,162.5,30.1,287.8C296,464.5,254,486.7,254,486.7  s-50.7-28.5-167.2-175.2C-22.5,174.4,24.3,22.1,125.7,23.7C255.6,25.3,254,212.4,254,212.4z" />
<path
   d="m 359.38018,32.718941 c -2.21911,1.032799 -8.0788,4.192557 -12.71132,7.045564 -8.11973,4.724316 -9.15259,5.982123 -15.24766,17.414878 -4.22361,7.96611 -7.72117,16.92418 -9.81773,25.05398 l -3.24198,12.58837 -4.6836,0.0408 c -9.22402,-0.0411 -22.81471,2.79121 -26.09739,5.480637 -6.26877,5.00047 -8.29371,12.19967 -12.58948,45.43472 -4.3469,33.89975 -4.65393,44.84178 -1.84205,58.69834 2.41313,12.08744 3.46636,14.04066 9.87809,19.34819 4.91871,3.85539 6.73896,4.53036 14.84832,5.15434 l 9.30584,0.71605 0.31686,6.30958 c 0.12263,3.62008 0.22472,10.98293 0.32686,16.60734 l 0.0202,10.16486 -6.5039,1.10427 c -3.66095,0.65466 -9.25476,2.09616 -12.41469,3.19029 -4.67341,1.64631 -5.96191,2.75071 -6.16652,5.40952 -0.19434,2.52586 0.8896,4.08027 4.59143,6.37103 12.27127,7.36315 45.70055,14.34839 83.32268,17.24325 69.7937,5.37033 113.17349,-5.73434 77.07532,-19.74504 -5.07215,-1.86129 -9.34667,-3.66121 -9.60231,-3.8146 -0.12273,-0.14319 1.15562,-2.85307 2.73053,-5.94135 1.70784,-3.07805 4.01912,-10.52268 5.28733,-16.57657 1.26816,-6.05387 2.61816,-11.43284 2.92495,-11.94415 0.43972,-0.50106 1.41132,-4.43812 2.1477,-8.79447 0.72616,-4.2234 1.74889,-8.82516 2.26024,-10.25683 0.5011,-1.29872 1.23744,-3.91661 1.65677,-5.89025 0.27614,-1.85095 1.70794,-8.2934 3.10909,-14.33707 2.40339,-10.37953 2.57733,-14.37797 2.63938,-44.72931 1.8e-4,-8.69229 0.30702,-10.94204 2.12731,-12.00553 1.12486,-0.71583 3.77354,-3.85519 5.74728,-6.91279 2.76118,-4.60172 3.6816,-7.87409 4.28511,-15.71756 0.66491,-8.64112 0.20479,-11.35108 -2.92424,-19.34803 -2.48483,-5.941487 -5.69574,-11.136467 -9.30552,-14.623677 -3.59954,-3.62014 -5.86967,-7.13801 -6.42181,-10.38997 -2.56648,-13.57022 -20.77895,-30.617705 -41.0471,-38.328723 -10.13406,-3.855499 -48.03231,-6.637874 -53.98404,-4.020115 z m 77.8815,54.936912 c 10.91126,4.18277 18.20239,10.22661 21.51553,17.569097 2.72003,6.36076 2.70979,6.49369 0.11228,8.96838 -4.33599,4.21309 -14.06115,5.47069 -36.06791,4.71346 -19.34796,-0.55265 -20.93301,-0.80833 -26.44487,-3.90702 -3.20076,-1.851 -6.96392,-5.08255 -8.27282,-7.18919 -2.14743,-3.37469 -7.07605,-21.004767 -6.21703,-21.741037 0.15338,-0.25565 6.10505,-1.13498 13.12025,-1.93246 14.99163,-1.92218 31.86484,-0.49015 42.25457,3.51877 z M 382.66062,237.64229 c 3.92683,1.10451 4.03931,1.38062 3.9982,10.60465 -0.0103,5.34832 0.35766,10.9932 0.63373,12.61917 0.70555,2.99628 0.42944,3.10876 -6.88229,2.54615 -6.38115,-0.491 -7.41396,-0.97165 -6.61629,-2.64873 0.49089,-1.16578 1.35002,-7.11741 1.82055,-13.23266 0.47057,-6.11527 1.39103,-11.12608 2.05574,-11.07493 0.6647,0.0512 2.89399,0.62386 4.99036,1.18635 z"
   id="path100"
   style="fill:#58007b;fill-opacity:1;stroke:#000000;stroke-width:5.033;stroke-linejoin:round;stroke-miterlimit:4;stroke-dasharray:none;stroke-opacity:1;paint-order:normal" /><path
   d="m 139.64206,28.698626 c 2.3093,0.81132 8.44936,3.3842 13.33818,5.77154 8.54197,3.90943 9.69265,5.06043 16.87428,15.84384 4.9808,7.51595 9.33582,16.08997 12.2157,23.97636 l 4.45492,12.21194 4.66523,-0.41644 c 9.176,-0.94103 22.97821,0.55159 26.50765,2.90784 6.72682,4.36488 9.44462,11.332114 16.96305,43.989364 7.63419,33.31378 9.00752,44.17362 7.56121,58.23844 -1.22207,12.26522 -2.07969,14.3119 -7.94288,20.21978 -4.51902,4.31698 -6.26471,5.16635 -14.27448,6.57869 l -9.19155,1.62071 0.30035,6.31039 c 0.23121,3.61476 0.8481,10.95246 1.29529,16.56 l 0.97179,10.11831 6.58061,0.46434 c 3.70738,0.29402 9.41514,1.18305 12.66675,1.9636 4.81176,1.18241 6.20191,2.15581 6.66497,4.78196 0.43991,2.49485 -0.48718,4.14761 -3.94781,6.78867 -11.49419,8.52546 -44.08228,18.7395 -81.24237,25.29183 -68.936542,12.15537 -113.192922,5.33682 -78.634242,-12.12959 4.86632,-2.34735 8.94479,-4.55579 9.18424,-4.7334 0.10816,-0.15446 -1.42852,-2.7267 -3.29726,-5.64655 -2.00007,-2.8967 -5.02679,-10.08025 -6.87968,-15.9815 -1.85289,-5.90124 -3.72133,-11.12278 -4.07655,-11.60171 -0.48653,-0.45576 -1.83767,-4.27923 -2.99564,-8.54292 -1.13482,-4.13239 -2.60172,-8.6124 -3.25033,-9.98732 -0.62546,-1.24362 -1.61374,-3.77716 -2.22366,-5.70047 -0.45545,-1.81516 -2.5091,-8.08716 -4.4933,-13.96525 -3.40479,-10.09547 -3.96807,-14.05785 -6.99159,-44.25829 -0.84841,-8.65077 -1.37332,-10.85986 -3.2887,-11.74063 -1.18938,-0.60263 -4.13174,-3.46856 -6.39442,-6.31895 -3.19705,-4.31033 -4.43241,-7.47725 -5.79845,-15.22441 -1.50495,-8.53499 -1.31148,-11.27691 1.02227,-19.54104 1.89318,-6.15561 4.58182,-11.639124 7.83408,-15.461954 3.22909,-3.95413 5.14511,-7.67674 5.37728,-10.96704 1.23,-13.7559 17.69201,-32.49925 37.11097,-42.15128 9.70948,-4.82603 47.155342,-11.29334 53.334092,-9.26886 z m -72.148912,62.27462 c -10.45102,5.22755 -17.11758,11.954054 -19.69839,19.584804 -2.08635,6.59582 -2.0632,6.72713 0.76341,8.93653 4.72643,3.76987 14.52788,4.07246 36.35573,1.17136 19.201682,-2.43805 20.754222,-2.84719 25.937382,-6.46893 3.00487,-2.15452 6.43473,-5.73788 7.53181,-7.96218 1.80787,-3.56814 4.99258,-21.595034 4.06582,-22.243954 -0.17761,-0.23947 -6.18669,-0.53381 -13.24621,-0.64293 -15.107682,-0.45008 -31.760602,2.62167 -41.709552,7.6253 z M 136.46974,234.91573 c -3.80031,1.48244 -3.88531,1.7682 -2.94429,10.9442 0.5322,5.32178 0.71679,10.97563 0.6007,12.62078 -0.40978,3.05083 -0.12402,3.13583 7.09791,1.86241 6.30277,-1.11135 7.28377,-1.69049 6.32624,-3.28173 -0.6023,-1.11231 -2.03811,-6.95169 -3.10315,-12.99185 -1.06505,-6.04016 -2.4701,-10.93724 -3.12663,-10.82147 -0.65654,0.11576 -2.81932,0.90329 -4.85078,1.66766 z"
   id="path937"
   style="fill:#58007b;fill-opacity:1;stroke:#000000;stroke-width:5.033;stroke-linejoin:round;stroke-miterlimit:4;stroke-dasharray:none;stroke-opacity:1;paint-order:normal" /><g
   id="Shine"
   class="st6">
	<g
   id="g48">
		<g
   id="g46">
			<defs
   id="defs39">
				<path
   id="SVGID_1_"
   d="M254,212.4c0,0,0.8-189.5,143.4-189.5c86.4,0,137.8,162.5,30.1,287.8C296,464.5,254,486.7,254,486.7      s-50.7-28.5-167.2-175.2C-22.5,174.4,24.3,22.1,125.7,23.7C255.6,25.3,254,212.4,254,212.4z" />
			</defs>
			<clipPath
   id="SVGID_2_">
				<use
   xlink:href="#SVGID_1_"
   style="overflow:visible;"
   id="use41" />
			</clipPath>
			<path
   class="st7"
   d="M520.2-27.8c0,288.6-119.6,304.4-267.8,304.4S-15.3,260.8-15.3-27.8c0-168.1,119.6-304.4,267.8-304.4     S520.2-195.9,520.2-27.8z"
   clip-path="url(#SVGID_2_)"
   id="path44" />
		</g>
	</g>
</g>
<text
   xml:space="preserve"
   style="font-style:normal;font-weight:normal;font-size:99.8959px;line-height:1.25;font-family:sans-serif;fill:#000000;fill-opacity:1;stroke:none;stroke-width:2.4974"
   x="166.22379"
   y="360.68646"
   id="text941"
   transform="scale(0.94407642,1.0592363)"><tspan
     sodipodi:role="line"
     id="tspan939"
     x="166.22379"
     y="360.68646"
     style="stroke-width:2.4974">SUS</tspan></text></svg>
