<?xml version="1.0" encoding="UTF-8" standalone="no"?>
<svg
   xmlns:dc="http://purl.org/dc/elements/1.1/"
   xmlns:cc="http://creativecommons.org/ns#"
   xmlns:rdf="http://www.w3.org/1999/02/22-rdf-syntax-ns#"
   xmlns:svg="http://www.w3.org/2000/svg"
   xmlns="http://www.w3.org/2000/svg"
   xmlns:xlink="http://www.w3.org/1999/xlink"
   xmlns:sodipodi="http://sodipodi.sourceforge.net/DTD/sodipodi-0.dtd"
   xmlns:inkscape="http://www.inkscape.org/namespaces/inkscape"
   sodipodi:docname="canada_heart.svg"
   xml:space="preserve"
   style="enable-background:new 0 0 512 512;"
   viewBox="0 0 512 512"
   y="0px"
   x="0px"
   id="Heart"
   version="1.1"
   inkscape:version="1.0.2 (e86c870879, 2021-01-15, custom)"><metadata
   id="metadata3973"><rdf:RDF><cc:Work
       rdf:about=""><dc:format>image/svg+xml</dc:format><dc:type
         rdf:resource="http://purl.org/dc/dcmitype/StillImage" /><dc:title></dc:title></cc:Work></rdf:RDF></metadata><defs
   id="defs3971" /><sodipodi:namedview
   pagecolor="#ffffff"
   bordercolor="#666666"
   borderopacity="1"
   objecttolerance="10"
   gridtolerance="10"
   guidetolerance="10"
   inkscape:pageopacity="0"
   inkscape:pageshadow="2"
   inkscape:window-width="1366"
   inkscape:window-height="715"
   id="namedview3969"
   showgrid="false"
   inkscape:zoom="1.0269724"
   inkscape:cx="253.77041"
   inkscape:cy="228.14432"
   inkscape:window-x="-8"
   inkscape:window-y="-8"
   inkscape:window-maximized="1"
   inkscape:current-layer="g1113"
   inkscape:document-rotation="0" />
<style
   type="text/css"
   id="style3745">
	.st0{clip-path:url(#SVGID_2_);}
	.st1{fill:#FFFFFF;}
	.st2{fill:#B22234;}
	.st3{stroke:#E6E6E6;stroke-width:40;}
	.st4{fill:#3C3B6E;}
	.st5{fill:#E6E6E6;}
	.st6{opacity:0.25;fill:#FFFFFF;enable-background:new    ;}
	.st7{opacity:0.41;}
	.st8{clip-path:url(#SVGID_4_);fill:#FFFFFF;}
</style>
<g
   id="Heart_1_">
	<g
   id="g3965">
		<g
   id="g3963">
			<g
   id="g3961">
				<g
   id="g3959">
					<defs
   id="defs3748">
						<path
   id="SVGID_1_"
   d="m 255.6,107 c 0,0 33.3,-103.8 141.8,-103.8 88.7,0.8 174.3,152.2 45.9,319.5 -130.7,152.1 -187.7,186.2 -187.7,186.2 0,0 -55.5,-26.2 -183.8,-185.5 C -58.1,170.4 17.9,1.5 124.1,3.1 230.2,3.9 255.6,107 255.6,107 Z" />
					</defs>
					<clipPath
   id="SVGID_2_">
						<use
   xlink:href="#SVGID_1_"
   style="overflow:visible"
   id="use3750"
   x="0"
   y="0"
   width="100%"
   height="100%" />
					</clipPath>
					<g
   id="HeartContents"
   class="st0"
   clip-path="url(#SVGID_2_)"
   style="display:inline">
						<path
   id="Background"
   class="st1"
   d="m 255.6,107 c 0,0 33.3,-103.8 141.8,-103.8 88.7,0.8 174.3,152.2 45.9,319.5 -130.7,152.1 -187.7,186.2 -187.7,186.2 0,0 -55.5,-26.2 -183.8,-185.5 C -58.1,170.4 17.9,1.5 124.1,3.1 230.2,3.9 255.6,107 255.6,107 Z"
   style="display:inline" />
						<g
   style="fill:none"
   id="g1113"
   transform="matrix(0.89882625,0,0,0.89882625,-34.717627,125.53494)"><path
     d="m 608.2573,-139.66541 -569.631782,14.54915 1.70472,446.20338 C 53.115635,497.75545 597.17662,406.3036 597.17662,406.3036 Z"
     fill="#fcfcfc"
     id="path1093"
     style="stroke:none;stroke-width:0.968067;stroke-miterlimit:4;stroke-dasharray:none"
     sodipodi:nodetypes="ccccc" /><path
     d="M 152,-139.26856 H 0 v 488.5757 h 152 z"
     fill="#ff0000"
     id="path1095"
     style="stroke-width:1.25541" /><path
     d="M 642,-139.26856 H 490 v 488.5757 h 152 z"
     fill="#ff0000"
     id="path1097"
     style="stroke-width:1.25541" /><path
     d="M 299.863,64.259 321.646,20 343.208,62.643 c 2.699,4.489 4.882,4.142 9.181,1.962 l 18.536,-9.162 -12.058,59.55 c -2.518,11.709 4.142,15.106 11.333,7.18 l 26.44,-28.21 7.018,15.981 c 2.349,4.851 5.934,4.122 10.636,3.248 l 27.319,-5.746 -9.178,34.523 -0.185,0.726 c -1.064,4.509 -3.219,8.268 1.825,10.452 l 9.697,4.847 -56.305,47.684 c -5.745,5.911 -3.771,7.72 -1.616,14.377 l 5.214,15.988 -52.531,-9.509 c -6.445,-1.608 -10.954,-1.608 -11.147,3.606 l 2.167,60.243 h -15.84 l 2.183,-60.078 c 0,-5.935 -4.512,-5.745 -15.132,-3.566 l -48.557,9.316 6.292,-15.988 c 2.156,-6.125 2.7,-10.279 -2.163,-14.377 l -57.558,-46.979 10.624,-6.467 c 3.053,-2.341 3.247,-4.867 1.619,-10.089 l -10.797,-35.084 27.698,5.931 c 7.743,1.797 9.898,0 11.88,-4.287 l 7.739,-15.856 27.335,30.958 c 4.863,5.722 11.699,1.999 9.532,-6.29 L 271.287,52.92 291.588,64.605 c 3.235,1.983 6.659,2.527 8.65,-1.249"
     fill="#ff0000"
     id="path1099" /></g>
						<path
   id="Shade"
   class="st6"
   d="m 254,212.4 c 0,0 0.8,-189.5 143.4,-189.5 86.4,0 137.8,162.5 30.1,287.8 C 296,464.5 254,486.7 254,486.7 254,486.7 203.3,458.2 86.8,311.5 -22.5,174.4 24.3,22.1 125.7,23.7 255.6,25.3 254,212.4 254,212.4 Z" />
						<g
   id="Shine"
   class="st7">
							<g
   id="g3955">
								<g
   id="g3953">
									<g
   id="g3951">
										<g
   id="g3949">
											<g
   id="g3947">
												<g
   id="g3945">
													<defs
   id="defs3938">
														<path
   id="SVGID_3_"
   d="m 254,212.4 c 0,0 0.8,-189.5 143.4,-189.5 86.4,0 137.8,162.5 30.1,287.8 C 296,464.5 254,486.7 254,486.7 254,486.7 203.3,458.2 86.8,311.5 -22.5,174.4 24.3,22.1 125.7,23.7 255.6,25.3 254,212.4 254,212.4 Z" />
													</defs>
													<clipPath
   id="SVGID_4_">
														<use
   xlink:href="#SVGID_3_"
   style="overflow:visible"
   id="use3940"
   x="0"
   y="0"
   width="100%"
   height="100%" />
													</clipPath>
													<path
   class="st8"
   d="m 520.2,-27.8 c 0,288.6 -119.6,304.4 -267.8,304.4 -148.2,0 -267.7,-15.8 -267.7,-304.4 0,-168.1 119.6,-304.4 267.8,-304.4 148.2,0 267.7,136.3 267.7,304.4 z"
   clip-path="url(#SVGID_4_)"
   id="path3943" />
												</g>
											</g>
										</g>
									</g>
								</g>
							</g>
						</g>
					</g>
				</g>
			</g>
		</g>
	</g>
</g>
</svg>
