<svg width="512" height="512" viewBox="0 0 512 512" fill="none" xmlns="http://www.w3.org/2000/svg">
<path d="M255.6 107C255.6 107 288.9 3.20015 397.4 3.20015C486.1 4.00015 571.7 155.4 443.3 322.7C312.6 474.8 255.6 508.9 255.6 508.9C255.6 508.9 200.1 482.7 71.8 323.4C-58.1 170.4 17.9 1.50015 124.1 3.10015C230.2 3.90015 255.6 107 255.6 107Z" fill="white"/>
<mask id="mask0_404:1211" style="mask-type:alpha" maskUnits="userSpaceOnUse" x="3" y="3" width="506" height="506">
<path d="M255.6 107C255.6 107 288.9 3.20015 397.4 3.20015C486.1 4.00015 571.7 155.4 443.3 322.7C312.6 474.8 255.6 508.9 255.6 508.9C255.6 508.9 200.1 482.7 71.8 323.4C-58.1 170.4 17.9 1.50015 124.1 3.10015C230.2 3.90015 255.6 107 255.6 107Z" fill="white"/>
</mask>
<g mask="url(#mask0_404:1211)">
<path d="M576.999 101H-64.9849V411H576.999V101Z" fill="white"/>
<path d="M87 -27H-65V411H87V-27Z" fill="#FF0000"/>
<path d="M577 -27H425V411H577V-27Z" fill="#FF0000"/>
<path d="M234.863 165.437L256.646 121.178L278.208 163.821C280.907 168.31 283.09 167.963 287.389 165.783L305.925 156.621L293.867 216.171C291.349 227.88 298.009 231.277 305.2 223.351L331.64 195.141L338.658 211.122C341.007 215.973 344.592 215.244 349.294 214.37L376.613 208.624L367.435 243.147L367.25 243.873C366.186 248.382 364.031 252.141 369.075 254.325L378.772 259.172L322.467 306.856C316.722 312.767 318.696 314.576 320.851 321.233L326.065 337.221L273.534 327.712C267.089 326.104 262.58 326.104 262.387 331.318L264.554 391.561H248.714L250.897 331.483C250.897 325.548 246.385 325.738 235.765 327.917L187.208 337.233L193.5 321.245C195.656 315.12 196.2 310.966 191.337 306.868L133.779 259.889L144.403 253.422C147.456 251.081 147.65 248.555 146.022 243.333L135.225 208.249L162.923 214.18C170.666 215.977 172.821 214.18 174.803 209.893L182.542 194.037L209.877 224.995C214.74 230.717 221.576 226.994 219.409 218.705L206.287 154.098L226.588 165.783C229.823 167.766 233.247 168.31 235.238 164.534" fill="#FF0000"/>
<path opacity="0.41" d="M520.2 -27.7999C520.2 260.8 400.6 276.6 252.4 276.6C104.2 276.6 -15.3 260.8 -15.3 -27.7999C-15.3 -195.9 104.3 -332.2 252.5 -332.2C400.7 -332.2 520.2 -195.9 520.2 -27.7999Z" fill="white"/>
</g>
<path opacity="0.25" d="M254 212.4C254 212.4 254.8 22.9001 397.4 22.9001C483.8 22.9001 535.2 185.4 427.5 310.7C296 464.5 254 486.7 254 486.7C254 486.7 203.3 458.2 86.8 311.5C-22.5 174.4 24.3 22.1001 125.7 23.7001C255.6 25.3001 254 212.4 254 212.4Z" fill="white"/>
</svg>
