<?xml version="1.0" encoding="utf-8"?>
<!-- Generator: Adobe Illustrator 25.4.1, SVG Export Plug-In . SVG Version: 6.00 Build 0)  -->
<svg version="1.1" xmlns="http://www.w3.org/2000/svg" xmlns:xlink="http://www.w3.org/1999/xlink" x="0px" y="0px"
	 viewBox="0 0 512 512" style="enable-background:new 0 0 512 512;" xml:space="preserve">
<style type="text/css">
	.st0{fill:#EA4C44;}
	.st1{opacity:0.42;fill:#FFFFFF;}
	.st2{opacity:0.25;fill:#FFFFFF;enable-background:new    ;}
	.st3{opacity:0.2;}
	.st4{clip-path:url(#SVGID_00000002365462719218348060000009131455877394158265_);fill:#FFFFFF;}
</style>
<g id="Heart">
	<path id="Background" class="st0" d="M255.6,107c0,0,33.3-103.8,141.8-103.8c88.7,0.8,174.3,152.2,45.9,319.5
		C312.6,474.8,255.6,508.9,255.6,508.9s-55.5-26.2-183.8-185.5C-58.1,170.4,17.9,1.5,124.1,3.1C230.2,3.9,255.6,107,255.6,107z"/>
	<path class="st1" d="M305.3,146.8c2.9,0,5.3,0,8.2,0c0,79.5,0,158.9,0,238.6c-2.7,0-5.2,0-8.2,0
		C305.3,306.1,305.3,226.7,305.3,146.8z"/>
	<path class="st1" d="M209.3,171.8c2.9,0,5.3,0,8.2,0c0,62.8,0,125.6,0,188.6c-2.6,0-5.2,0-8.2,0C209.3,297.7,209.3,235,209.3,171.8
		z"/>
	<path class="st1" d="M281.6,360.5c-2.8,0-5.4,0-8.3,0c0-62.8,0-125.5,0-188.5c2.7,0,5.3,0,8.3,0
		C281.6,234.7,281.6,297.5,281.6,360.5z"/>
	<path class="st1" d="M230.5,183.7c2.7,0,5.4,0,8.3,0c0,54.9,0,109.7,0,164.8c-2.8,0-5.3,0-8.3,0
		C230.5,293.6,230.5,238.8,230.5,183.7z"/>
	<path class="st1" d="M302.8,348.6c-2.9,0-5.4,0-8.2,0c0-55,0-109.8,0-164.9c2.7,0,5.3,0,8.2,0C302.8,238.6,302.8,293.6,302.8,348.6
		z"/>
	<path class="st1" d="M315.8,183.7c2.8,0,5.4,0,8.3,0c0,55,0,109.7,0,164.8c-2.7,0-5.3,0-8.3,0C315.8,293.8,315.8,239,315.8,183.7z"
		/>
	<path class="st1" d="M377.6,348.6c-3,0-5.4,0-8.3,0c0-54.9,0-109.6,0-164.8c2.6,0,5.3,0,8.3,0C377.6,238.6,377.6,293.4,377.6,348.6
		z"/>
	<path class="st1" d="M228.1,343.8c-2.9,0-5.5,0-8.4,0c0-51.7,0-103.1,0-154.9c2.7,0,5.4,0,8.4,0
		C228.1,240.3,228.1,291.8,228.1,343.8z"/>
	<path class="st1" d="M262.5,193.9c2.9,0,5.5,0,8.4,0c0,48.3,0,96.3,0,144.6c-2.9,0-5.4,0-8.4,0
		C262.5,290.4,262.5,242.4,262.5,193.9z"/>
	<path class="st1" d="M388.1,334.3c-2.9,0-5.5,0-8.4,0c0-45.3,0-90.4,0-135.9c2.7,0,5.3,0,8.4,0
		C388.1,243.6,388.1,288.8,388.1,334.3z"/>
	<path class="st1" d="M206.9,332.8c-2.8,0-5.5,0-8.4,0c0-44.4,0-88.8,0-133.5c2.7,0,5.4,0,8.4,0
		C206.9,243.8,206.9,288.2,206.9,332.8z"/>
	<path class="st1" d="M283.7,204.1c2.9,0,5.5,0,8.4,0c0,41.5,0,82.7,0,124.1c-2.9,0-5.5,0-8.4,0
		C283.7,286.9,283.7,245.9,283.7,204.1z"/>
	<path class="st1" d="M366.8,325.4c-2.9,0-5.3,0-8.2,0c0-39.3,0-78.4,0-118.1c2.5,0,5.2,0,8.2,0
		C366.8,246.5,366.8,285.7,366.8,325.4z"/>
	<path class="st1" d="M334.7,320.3c-2.7,0-5.3,0-8.2,0c0-36,0-71.8,0-108.1c2.6,0,5.1,0,8.2,0C334.7,248.1,334.7,284,334.7,320.3z"
		/>
	<path class="st1" d="M390.6,215.1c2.7,0,5.3,0,8.2,0c0,34,0,67.8,0,102.1c-2.6,0-5.2,0-8.2,0C390.6,283.4,390.6,249.4,390.6,215.1z
		"/>
	<path class="st1" d="M123.7,217.8c2.9,0,5.4,0,8.3,0c0,31.2,0,62.4,0,93.9c-2.6,0-5.3,0-8.3,0C123.7,280.4,123.7,249.4,123.7,217.8
		z"/>
	<path class="st1" d="M251.8,219.8c2.9,0,5.4,0,8.2,0c0,30.9,0,61.7,0,92.7c-2.7,0-5.3,0-8.2,0C251.8,281.7,251.8,251,251.8,219.8z"
		/>
	<path class="st1" d="M337.4,219.8c2.9,0,5.4,0,8.2,0c0,30.9,0,61.6,0,92.6c-2.6,0-5.2,0-8.2,0C337.4,281.7,337.4,250.7,337.4,219.8
		z"/>
	<path class="st1" d="M113.3,226.1c3,0,5.5,0,8.3,0c0,25.9,0,51.5,0,77.5c-2.8,0-5.3,0-8.3,0C113.3,277.8,113.3,252.1,113.3,226.1z"
		/>
	<path class="st1" d="M134.5,231.6c2.7,0,5.3,0,8.3,0c0,22.2,0,44.5,0,66.9c-2.7,0-5.3,0-8.3,0C134.5,276.3,134.5,254.1,134.5,231.6
		z"/>
	<path class="st1" d="M241.3,232.9c2.9,0,5.5,0,8.4,0c0,22.3,0,44.3,0,66.6c-2.9,0-5.4,0-8.4,0C241.3,277.4,241.3,255.4,241.3,232.9
		z"/>
	<path class="st1" d="M166.5,234.1c2.8,0,5.4,0,8.3,0c0,20.5,0,40.8,0,61.4c-2.8,0-5.4,0-8.3,0C166.5,275.1,166.5,254.8,166.5,234.1
		z"/>
	<path class="st1" d="M196.1,296.5c-2.9,0-5.5,0-8.3,0c0-20.3,0-40.3,0-60.6c2.8,0,5.4,0,8.3,0C196.1,256,196.1,276,196.1,296.5z"/>
	<path class="st1" d="M110.8,293.9c-2.8,0-5.5,0-8.4,0c0-19.3,0-38.4,0-57.9c2.6,0,5.3,0,8.4,0C110.8,255.2,110.8,274.5,110.8,293.9
		z"/>
	<path class="st1" d="M164,291.4c-3,0-5.4,0-8.6,0c0-3,0-5.7,0-8.5c0-12.3,0-24.6,0-36.9c0-8.2,0-8.2,8.6-7.4
		C164,256.1,164,273.5,164,291.4z"/>
	<path class="st1" d="M356,289.9c-2.9,0-5.4,0-8.2,0c0-15.8,0-31.3,0-47.2c2.6,0,5.2,0,8.2,0C356,258.2,356,273.9,356,289.9z"/>
	<path class="st1" d="M401.4,245.6c2.7,0,5.3,0,8.2,0c0,13.7,0,27.3,0,41.2c-2.7,0-5.3,0-8.2,0C401.4,273.2,401.4,259.5,401.4,245.6
		z"/>
	<path class="st1" d="M422.5,286.9c0-14.1,0-27.6,0-41.4c2.9,0,5.5,0,8.4,0c0,13.8,0,27.5,0,41.4C428,286.9,425.4,286.9,422.5,286.9
		z"/>
	<path class="st1" d="M420,282.9c-2.9,0-5.4,0-8.2,0c0-11.1,0-22,0-33.2c2.6,0,5.2,0,8.2,0C420,260.5,420,271.5,420,282.9z"/>
	<path class="st1" d="M185.7,249.7c0,10.2,0,20.3,0,30.6c-2.8,0-5.4,0-8.3,0c0-10.1,0-20.2,0-30.6
		C180,249.7,182.7,249.7,185.7,249.7z"/>
	<path class="st1" d="M153.6,278.6c-3,0-5.6,0-8.4,0c0-9,0-17.7,0-26.9c2.8,0,5.4,0,8.4,0C153.6,260.6,153.6,269.3,153.6,278.6z"/>
	<path class="st1" d="M91.7,253c2.9,0,5.3,0,8.3,0c0,7.7,0,15.4,0,23.4c-2.6,0-5.3,0-8.3,0C91.7,268.7,91.7,261.2,91.7,253z"/>
	<path class="st1" d="M70.4,276.6c0-8,0-15.6,0-23.5c2.8,0,5.4,0,8.4,0c0,7.8,0,15.5,0,23.5C76.1,276.6,73.5,276.6,70.4,276.6z"/>
	<path class="st1" d="M441.7,255.2c0,7.4,0,14.5,0,22c-2.8,0-5.5,0-8.5,0c0-7.3,0-14.5,0-22C436,255.2,438.6,255.2,441.7,255.2z"/>
	<path class="st1" d="M81.2,274.2c0-6.2,0-12.3,0-18.6c2.8,0,5.4,0,8.3,0c0,6.2,0,12.2,0,18.6C87,274.2,84.5,274.2,81.2,274.2z"/>
	<path class="st1" d="M443.6,272.4c0-4.4,0-8.3,0-12.9c2.6-0.1,5.3-0.3,8.4-0.4c0,4.5,0,8.7,0,13.3
		C449.4,272.4,446.8,272.4,443.6,272.4z"/>
	<path class="st1" d="M59.7,271.3c0-4.4,0-8.3,0-12.4c2.9,0,5.4,0,8.4,0c0,4.1,0,8.1,0,12.4C65.3,271.3,62.7,271.3,59.7,271.3z"/>
	<path id="Shade" class="st2" d="M254,212.4c0,0,0.8-189.5,143.4-189.5c86.4,0,137.8,162.5,30.1,287.8
		C296,464.5,254,486.7,254,486.7s-50.7-28.5-167.2-175.2C-22.5,174.4,24.3,22.1,125.7,23.7C255.6,25.3,254,212.4,254,212.4z"/>
	<g id="Shine" class="st3">
		<g>
			<g>
				<g>
					<defs>
						<path id="SVGID_1_" d="M254,212.4c0,0,0.8-189.5,143.4-189.5c86.4,0,137.8,162.5,30.1,287.8C296,464.5,254,486.7,254,486.7
							s-50.7-28.5-167.2-175.2C-22.5,174.4,24.3,22.1,125.7,23.7C255.6,25.3,254,212.4,254,212.4z"/>
					</defs>
					<clipPath id="SVGID_00000108996002896762359890000006413310311593618365_">
						<use xlink:href="#SVGID_1_"  style="overflow:visible;"/>
					</clipPath>
					<path style="clip-path:url(#SVGID_00000108996002896762359890000006413310311593618365_);fill:#FFFFFF;" d="M520.2-27.8
						c0,288.6-119.6,304.4-267.8,304.4S-15.3,260.8-15.3-27.8c0-168.1,119.6-304.4,267.8-304.4S520.2-195.9,520.2-27.8z"/>
				</g>
			</g>
		</g>
	</g>
</g>
<g id="Layer_2">
</g>
</svg>
