<?xml version="1.0" encoding="utf-8"?>
<!-- Generator: Adobe Illustrator 24.3.0, SVG Export Plug-In . SVG Version: 6.00 Build 0)  -->
<svg version="1.1" id="Heart" xmlns="http://www.w3.org/2000/svg" xmlns:xlink="http://www.w3.org/1999/xlink" x="0px" y="0px"
	 viewBox="0 0 512 512" style="enable-background:new 0 0 512 512;" xml:space="preserve">
<style type="text/css">
	.st0{clip-path:url(#SVGID_2_);}
	.st1{fill:#CA83A7;}
	.st2{fill:#003399;}
	.st3{opacity:0.25;fill:#FFFFFF;enable-background:new    ;}
	.st4{opacity:0.41;}
	.st5{clip-path:url(#SVGID_4_);fill:#FFFFFF;}
	.st6{fill:#FFCC00;}
</style>
<g id="Heart_1_">
	<g>
		<g>
			<g>
				<g>
					<defs>
						<path id="SVGID_1_" d="M255.6,107c0,0,33.3-103.8,141.8-103.8c88.7,0.8,174.3,152.2,45.9,319.5
							C312.6,474.8,255.6,508.9,255.6,508.9s-55.5-26.2-183.8-185.5C-58.1,170.4,17.9,1.5,124.1,3.1C230.2,3.9,255.6,107,255.6,107z
							"/>
					</defs>
					<clipPath id="SVGID_2_">
						<use xlink:href="#SVGID_1_"  style="overflow:visible;"/>
					</clipPath>
					<g id="HeartContents" class="st0">
						<path id="Background" class="st1" d="M255.6,107c0,0,33.3-103.8,141.8-103.8c88.7,0.8,174.3,152.2,45.9,319.5
							C312.6,474.8,255.6,508.9,255.6,508.9s-55.5-26.2-183.8-185.5C-58.1,170.4,17.9,1.5,124.1,3.1C230.2,3.9,255.6,107,255.6,107z
							"/>
						<g>
							<rect x="-148.5" y="-13.5" class="st2" width="810" height="540"/>
						</g>
						<path id="Shade" class="st3" d="M254,212.4c0,0,0.8-189.5,143.4-189.5c86.4,0,137.8,162.5,30.1,287.8
							C296,464.5,254,486.7,254,486.7s-50.7-28.5-167.2-175.2C-22.5,174.4,24.3,22.1,125.7,23.7C255.6,25.3,254,212.4,254,212.4z"/>
						<g id="Shine" class="st4">
							<g>
								<g>
									<g>
										<g>
											<g>
												<g>
													<defs>
														<path id="SVGID_3_" d="M254,212.4c0,0,0.8-189.5,143.4-189.5c86.4,0,137.8,162.5,30.1,287.8
															C296,464.5,254,486.7,254,486.7s-50.7-28.5-167.2-175.2C-22.5,174.4,24.3,22.1,125.7,23.7
															C255.6,25.3,254,212.4,254,212.4z"/>
													</defs>
													<clipPath id="SVGID_4_">
														<use xlink:href="#SVGID_3_"  style="overflow:visible;"/>
													</clipPath>
													<path class="st5" d="M520.2-27.8c0,288.6-119.6,304.4-267.8,304.4S-15.3,260.8-15.3-27.8
														c0-168.1,119.6-304.4,267.8-304.4S520.2-195.9,520.2-27.8z"/>
												</g>
											</g>
										</g>
									</g>
								</g>
							</g>
						</g>
					</g>
				</g>
			</g>
		</g>
	</g>
</g>
<g>
	<polygon class="st6" points="255.5,110 250.2,126.2 233.3,126.2 247,136.2 241.8,152.3 255.5,142.3 269.2,152.3 264,136.2 
		277.7,126.2 260.8,126.2 	"/>
	<polygon class="st6" points="260.8,406.8 255.5,390.7 250.2,406.8 233.3,406.8 247,416.8 241.8,433 255.5,423 269.2,433 264,416.8 
		277.7,406.8 	"/>
	<polygon class="st6" points="115.2,282.7 128.9,292.7 123.7,276.5 137.4,266.5 120.4,266.5 115.2,250.3 109.9,266.5 92.9,266.5 
		106.7,276.5 101.4,292.7 	"/>
	<polygon class="st6" points="185.3,128.8 180.1,145 163.1,145 176.8,155 171.6,171.1 185.3,161.1 199.1,171.1 193.8,155 207.6,145 
		190.6,145 	"/>
	<polygon class="st6" points="134,180.2 128.7,196.3 111.7,196.3 125.5,206.3 120.2,222.5 134,212.5 147.7,222.5 142.5,206.3 
		156.2,196.3 139.2,196.3 	"/>
	<polygon class="st6" points="139.2,336.7 134,320.5 128.7,336.7 111.7,336.7 125.5,346.7 120.2,362.8 134,352.8 147.7,362.8 
		142.5,346.7 156.2,336.7 	"/>
	<polygon class="st6" points="190.6,388 185.3,371.9 180.1,388 163.1,388 176.8,398 171.6,414.2 185.3,404.2 199.1,414.2 193.8,398 
		207.6,388 	"/>
	<polygon class="st6" points="418.1,266.5 401.1,266.5 395.8,250.3 390.6,266.5 373.6,266.5 387.3,276.5 382.1,292.7 395.8,282.7 
		409.6,292.7 404.3,276.5 	"/>
	<polygon class="st6" points="325.7,128.8 320.4,145 303.4,145 317.2,155 311.9,171.1 325.7,161.1 339.4,171.1 334.2,155 347.9,145 
		330.9,145 	"/>
	<polygon class="st6" points="368.5,206.3 363.3,222.5 377,212.5 390.8,222.5 385.5,206.3 399.3,196.3 382.3,196.3 377,180.2 
		371.8,196.3 354.8,196.3 	"/>
	<polygon class="st6" points="382.3,336.7 377,320.5 371.8,336.7 354.8,336.7 368.5,346.7 363.3,362.8 377,352.8 390.8,362.8 
		385.5,346.7 399.3,336.7 	"/>
	<polygon class="st6" points="330.9,388 325.7,371.9 320.4,388 303.4,388 317.2,398 311.9,414.2 325.7,404.2 339.4,414.2 334.2,398 
		347.9,388 	"/>
</g>
</svg>
