<?xml version="1.0" encoding="utf-8"?>
<!-- Generator: Adobe Illustrator 24.3.0, SVG Export Plug-In . SVG Version: 6.00 Build 0)  -->
<svg version="1.1" id="Heart" xmlns="http://www.w3.org/2000/svg" xmlns:xlink="http://www.w3.org/1999/xlink" x="0px" y="0px"
	 viewBox="0 0 512 512" style="enable-background:new 0 0 512 512;" xml:space="preserve">
<style type="text/css">
	.st0{clip-path:url(#SVGID_2_);}
	.st1{fill:#CA83A7;}
	.st2{fill:#003399;}
	.st3{opacity:0.25;fill:#FFFFFF;enable-background:new    ;}
	.st4{opacity:0.41;}
	.st5{clip-path:url(#SVGID_4_);fill:#FFFFFF;}
	.st6{fill:#FFCC00;}
</style>
<g id="Heart_1_">
	<g>
		<g>
			<g>
				<g>
					<defs>
						<path id="SVGID_1_" d="M255.6,107c0,0,33.3-103.8,141.8-103.8c88.7,0.8,174.3,152.2,45.9,319.5
							C312.6,474.8,255.6,508.9,255.6,508.9s-55.5-26.2-183.8-185.5C-58.1,170.4,17.9,1.5,124.1,3.1C230.2,3.9,255.6,107,255.6,107z
							"/>
					</defs>
					<clipPath id="SVGID_2_">
						<use xlink:href="#SVGID_1_"  style="overflow:visible;"/>
					</clipPath>
					<g id="HeartContents" class="st0">
						<path id="Background" class="st1" d="M255.6,107c0,0,33.3-103.8,141.8-103.8c88.7,0.8,174.3,152.2,45.9,319.5
							C312.6,474.8,255.6,508.9,255.6,508.9s-55.5-26.2-183.8-185.5C-58.1,170.4,17.9,1.5,124.1,3.1C230.2,3.9,255.6,107,255.6,107z
							"/>
						<g>
							<rect x="-148.5" y="-13.5" class="st2" width="810" height="540"/>
						</g>
						<path id="Shade" class="st3" d="M254,212.4c0,0,0.8-189.5,143.4-189.5c86.4,0,137.8,162.5,30.1,287.8
							C296,464.5,254,486.7,254,486.7s-50.7-28.5-167.2-175.2C-22.5,174.4,24.3,22.1,125.7,23.7C255.6,25.3,254,212.4,254,212.4z"/>
						<g id="Shine" class="st4">
							<g>
								<g>
									<g>
										<g>
											<g>
												<g>
													<defs>
														<path id="SVGID_3_" d="M254,212.4c0,0,0.8-189.5,143.4-189.5c86.4,0,137.8,162.5,30.1,287.8
															C296,464.5,254,486.7,254,486.7s-50.7-28.5-167.2-175.2C-22.5,174.4,24.3,22.1,125.7,23.7
															C255.6,25.3,254,212.4,254,212.4z"/>
													</defs>
													<clipPath id="SVGID_4_">
														<use xlink:href="#SVGID_3_"  style="overflow:visible;"/>
													</clipPath>
													<path class="st5" d="M520.2-27.8c0,288.6-119.6,304.4-267.8,304.4S-15.3,260.8-15.3-27.8
														c0-168.1,119.6-304.4,267.8-304.4S520.2-195.9,520.2-27.8z"/>
												</g>
											</g>
										</g>
									</g>
								</g>
							</g>
						</g>
					</g>
				</g>
			</g>
		</g>
	</g>
</g>
<g>
	<polygon class="st6" points="256,33 248.3,55.3 223.3,55.3 243.5,69.1 235.8,91.4 256,77.6 276.2,91.4 268.5,69.1 288.7,55.3 
		263.7,55.3 	"/>
	<polygon class="st6" points="263.7,442.9 256,420.6 248.3,442.9 223.3,442.9 243.5,456.7 235.8,479 256,465.2 276.2,479 
		268.5,456.7 288.7,442.9 	"/>
	<polygon class="st6" points="49.5,271.4 69.7,285.2 62,262.9 82.2,249.1 57.2,249.1 49.5,226.8 41.8,249.1 16.7,249.1 37,262.9 
		29.2,285.2 	"/>
	<polygon class="st6" points="152.7,59 145,81.3 120,81.3 140.2,95.1 132.5,117.4 152.7,103.6 173,117.4 165.2,95.1 185.5,81.3 
		160.5,81.3 	"/>
	<polygon class="st6" points="77.1,129.9 69.4,152.2 44.4,152.2 64.6,166 56.9,188.3 77.1,174.5 97.4,188.3 89.7,166 109.9,152.2 
		84.9,152.2 	"/>
	<polygon class="st6" points="84.9,346 77.1,323.7 69.4,346 44.4,346 64.6,359.8 56.9,382.1 77.1,368.3 97.4,382.1 89.7,359.8 
		109.9,346 	"/>
	<polygon class="st6" points="160.5,416.9 152.7,394.6 145,416.9 120,416.9 140.2,430.7 132.5,453 152.7,439.2 173,453 165.2,430.7 
		185.5,416.9 	"/>
	<polygon class="st6" points="495.3,249.1 470.2,249.1 462.5,226.8 454.8,249.1 429.8,249.1 450,262.9 442.3,285.2 462.5,271.4 
		482.8,285.2 475,262.9 	"/>
	<polygon class="st6" points="359.3,59 351.5,81.3 326.5,81.3 346.8,95.1 339,117.4 359.3,103.6 379.5,117.4 371.8,95.1 392,81.3 
		367,81.3 	"/>
	<polygon class="st6" points="422.3,166 414.6,188.3 434.9,174.5 455.1,188.3 447.4,166 467.6,152.2 442.6,152.2 434.9,129.9 
		427.1,152.2 402.1,152.2 	"/>
	<polygon class="st6" points="442.6,346 434.9,323.7 427.1,346 402.1,346 422.3,359.8 414.6,382.1 434.9,368.3 455.1,382.1 
		447.4,359.8 467.6,346 	"/>
	<polygon class="st6" points="367,416.9 359.3,394.6 351.5,416.9 326.5,416.9 346.8,430.7 339,453 359.3,439.2 379.5,453 
		371.8,430.7 392,416.9 	"/>
</g>
</svg>
