<?xml version="1.0" encoding="UTF-8" standalone="no"?>
<!-- Generator: Adobe Illustrator 24.3.0, SVG Export Plug-In . SVG Version: 6.00 Build 0)  -->

<svg
   version="1.1"
   id="Heart"
   x="0px"
   y="0px"
   viewBox="0 0 512 512"
   style="enable-background:new 0 0 512 512;"
   xml:space="preserve"
   xmlns:xlink="http://www.w3.org/1999/xlink"
   xmlns="http://www.w3.org/2000/svg"
   xmlns:svg="http://www.w3.org/2000/svg"><defs
   id="defs34">
	

		
	
			
		
				<defs
   id="defs7">
					<path
   id="SVGID_1_"
   d="m 254,212.4 c 0,0 0.8,-189.5 143.4,-189.5 86.4,0 137.8,162.5 30.1,287.8 C 296,464.5 254,486.7 254,486.7 254,486.7 203.3,458.2 86.8,311.5 -22.5,174.4 24.3,22.1 125.7,23.7 255.6,25.3 254,212.4 254,212.4 Z" />
				</defs>
				<clipPath
   id="SVGID_2_">
					<use
   xlink:href="#SVGID_1_"
   style="overflow:visible"
   id="use9"
   x="0"
   y="0"
   width="100%"
   height="100%" />
				</clipPath>
				
			</defs>
<style
   type="text/css"
   id="style2">
	.st0{fill:#072540;}
	.st1{opacity:0.25;fill:#FFFFFF;enable-background:new    ;}
	.st2{opacity:0.41;}
	.st3{clip-path:url(#SVGID_2_);fill:#FFFFFF;}
	.st4{fill:#93C2DB;}
	.st5{fill:#9C4668;}
</style>
<path
   id="Background"
   class="st0"
   d="M255.6,107c0,0,33.3-103.8,141.8-103.8c88.7,0.8,174.3,152.2,45.9,319.5  C312.6,474.8,255.6,508.9,255.6,508.9s-55.5-26.2-183.8-185.5C-58.1,170.4,17.9,1.5,124.1,3.1C230.2,3.9,255.6,107,255.6,107z"
   style="fill:#b53a25;fill-opacity:1" /><path
   d="m 115.97947,316.89215 c 7.81616,-1.93317 12.71082,-9.74652 10.79358,-17.56715 -1.86443,-7.61049 -9.23484,-12.19405 -16.93568,-10.75684 -7.89056,1.47282 -13.215925,8.90516 -11.825012,16.80984 1.444149,8.20773 9.875492,13.51519 17.967112,11.51415 z"
   stroke="#a88771"
   stroke-width="10.1302"
   stroke-linecap="round"
   stroke-linejoin="round"
   class="htQlthQL_0"
   id="path2623"
   style="fill:none" /><path
   d="m 190.326,350.16103 c 1.2371,-2.5066 26.46995,-5.67817 39.00667,23.6399 12.54006,29.31752 -16.086,80.37541 -9.88276,98.07267 6.20324,17.69727 8.09993,15.40825 13.29027,25.28084 0,0 -11.44409,-1.2604 -20.13267,-13.43805 -8.68849,-12.17733 -10.97358,-15.77372 -10.67234,-29.78372 0.3045,-14.01087 8.85109,-57.90315 3.97994,-74.8953 -4.86781,-16.99269 -16.82295,-26.3706 -15.58911,-28.87634 z"
   stroke="#a88771"
   stroke-width="5.74047"
   stroke-linecap="round"
   stroke-linejoin="round"
   class="htQlthQL_2"
   id="path2627"
   style="fill:none" /><path
   d="m 196.89323,351.43401 c 0.85586,-2.37684 18.96894,-5.04775 28.40665,23.12903 9.44098,28.1759 -10.43876,76.53189 -5.72556,93.52162 4.71636,16.98853 6.04663,14.82961 9.92452,24.33128 0,0 -8.25605,-1.36547 -14.68087,-13.11842 -6.42147,-11.75349 -8.11938,-15.21986 -8.09915,-28.59557 0.0169,-13.37517 5.54847,-55.17275 1.80388,-71.47009 -3.74459,-16.29733 -12.48216,-25.42221 -11.62947,-27.79785 z"
   stroke="#a88771"
   stroke-width="5.74047"
   stroke-linecap="round"
   stroke-linejoin="round"
   class="htQlthQL_3"
   id="path2629"
   style="fill:none" /><path
   d="m 202.10406,354.28561 c 0.51175,-2.30422 12.29648,-4.56069 19.01338,23.14255 6.71681,27.70291 -5.33544,74.54639 -1.924,91.2312 3.41469,16.68393 4.24111,14.60164 6.95785,23.95787 0,0 -5.42054,-1.49459 -9.84778,-13.09864 -4.42723,-11.60406 -5.602,-15.02287 -5.8479,-28.08711 -0.24916,-13.06336 2.55191,-53.77902 -0.21197,-69.76931 -2.76389,-15.99029 -8.65134,-25.07235 -8.13958,-27.37656 z"
   stroke="#a88771"
   stroke-width="5.74047"
   stroke-linecap="round"
   stroke-linejoin="round"
   class="htQlthQL_4"
   id="path2631"
   style="fill:none" /><path
   id="path2625"
   style="color:#000000;fill:#a88771;stroke-linecap:round;stroke-linejoin:round;-inkscape-stroke:none"
   d="M 143.6875 407.62695 C 147.23837 415.25858 151.01086 422.56458 155.01953 429.03711 C 163.42225 442.60487 169.4948 454.89175 177.35352 466 C 185.21223 477.10825 194.98899 486.93719 210.12695 494.76562 A 5.0656067 5.0656067 0 0 0 210.12695 494.76758 C 222.68345 501.2601 234.46764 506.80889 246.79688 509.2207 C 259.12612 511.63252 272.00647 510.69381 285.64648 504.49414 C 298.11435 498.827 307.75678 486.42844 314.79492 475.58398 C 321.83306 464.73953 326.10742 455.13281 326.10742 455.13281 A 5.0651002 5.0651002 0 0 0 325.19336 449.6543 C 319.64346 455.01613 315.02547 459.22635 310.16992 463.72461 C 308.99434 465.74513 307.73708 467.85424 306.29883 470.07031 C 299.72636 480.19726 290.40371 491.20504 281.45312 495.27344 L 281.45312 495.27148 C 277.0282 497.28271 272.83155 498.63594 268.75781 499.43945 C 260.13433 506.04925 255.59961 508.90039 255.59961 508.90039 C 255.59961 508.90039 248.71819 505.33275 235.52539 495.35742 C 228.94427 492.85006 222.09876 489.5512 214.78125 485.76758 C 201.09384 478.68928 192.85059 470.36648 185.62305 460.15039 C 180.90815 453.48591 176.62753 445.88893 171.84766 437.57812 C 163.22905 428.76382 153.73695 418.64114 143.6875 407.62695 z " /><path
   d="m 322.38767,453.15878 c 7.81616,-1.93317 12.71405,-9.74752 10.79686,-17.56796 -1.8677,-7.60962 -9.23487,-12.19419 -16.93895,-10.75599 -7.89057,1.47278 -13.2159,8.90525 -11.82504,16.80973 1.44739,8.20677 9.87877,13.51439 17.96713,11.51422 z"
   stroke="#a88771"
   stroke-width="10.1302"
   stroke-linecap="round"
   stroke-linejoin="round"
   class="htQlthQL_6"
   id="path2635"
   style="fill:none" /><path
   d="m 143.23666,394.11554 c 0,0 -14.74624,-22.11674 -29.62745,-26.81097 -12.57062,-3.96429 -33.699513,1.82897 -33.699513,1.82897"
   stroke="#a88771"
   stroke-width="10.1302"
   stroke-linecap="round"
   stroke-linejoin="round"
   class="htQlthQL_7"
   id="path2637"
   style="fill:none" /><path
   d="m 15.730058,437.86755 c -2.166387,1.76523 0.379729,27.06709 31.757452,32.73801 31.377811,5.67125 74.74957,-33.6441 93.38404,-31.55106 18.63772,2.09216 16.82959,4.45078 27.61291,7.30266 0,0 -3.787,-10.87158 -17.59733,-16.61834 -13.81034,-5.74676 -17.82782,-7.17158 -31.4144,-3.74641 -13.58993,3.42572 -54.46247,21.56499 -72.112043,20.61654 -17.652748,-0.94725 -29.464241,-10.50663 -31.630629,-8.7414 z"
   stroke="#a88771"
   stroke-width="5.74047"
   stroke-linecap="round"
   stroke-linejoin="round"
   class="htQlthQL_8"
   id="path2639"
   style="fill:none" /><path
   d="m 18.438488,443.98324 c -2.127018,1.3642 -0.680053,19.6154 28.890241,22.52016 29.573644,2.90422 72.266721,-27.2802 89.876711,-26.47951 17.61324,0.79983 15.80734,2.57963 25.93397,4.23325 0,0 -3.17494,-7.73933 -16.06653,-11.375 -12.89159,-3.63568 -16.64761,-4.51528 -29.68177,-1.50731 -13.03407,3.00829 -52.537427,17.73788 -69.26017,17.73038 -16.722744,-0.007 -27.568694,-6.48529 -29.692452,-5.12197 z"
   stroke="#a88771"
   stroke-width="5.74047"
   stroke-linecap="round"
   stroke-linejoin="round"
   class="htQlthQL_9"
   id="path2641"
   style="fill:none" /><path
   d="m 22.383187,448.42421 c -2.13331,1.01455 -1.699543,13.00556 26.803353,13.36188 28.50607,0.35512 71.47132,-21.85963 88.49661,-22.26251 17.0253,-0.40288 15.17803,0.87027 24.90591,1.42711 0,0 -2.66841,-4.94866 -14.96689,-6.67091 -12.30174,-1.72138 -15.89656,-2.10371 -28.68367,0.57377 -12.79028,2.67868 -51.850895,14.50728 -68.052932,15.3863 -16.205212,0.88021 -26.372332,-2.82931 -28.502381,-1.81564 z"
   stroke="#a88771"
   stroke-width="5.74047"
   stroke-linecap="round"
   stroke-linejoin="round"
   class="htQlthQL_10"
   id="path2643"
   style="fill:none" /><path
   d="m 23.089256,452.651 c -2.189314,0.67507 -2.794021,6.44203 25.267291,4.15878 28.064486,-2.28444 72.325493,-16.74088 89.139343,-18.40259 16.81384,-1.66172 14.88553,-0.88669 24.42378,-1.45505 0,0 -2.20246,-2.166 -14.17794,-1.93915 -11.97232,0.22565 -15.48365,0.35057 -28.31764,2.74871 -12.83734,2.39868 -52.355016,11.49083 -68.398923,13.31226 -16.047168,1.82231 -25.749772,0.90317 -27.935911,1.57704 z"
   stroke="#a88771"
   stroke-width="5.74047"
   stroke-linecap="round"
   stroke-linejoin="round"
   class="htQlthQL_11"
   id="path2645"
   style="fill:none" /><path
   d="m 69.365787,389.51117 c 7.816156,-1.93317 12.71078,-9.74665 10.793589,-17.56708 -1.864431,-7.61049 -9.234867,-12.19419 -16.935681,-10.75687 -7.890575,1.47278 -13.215902,8.90525 -11.825042,16.80973 1.444123,8.20764 9.87551,13.51526 17.967134,11.51422 z"
   stroke="#a88771"
   stroke-width="10.1302"
   stroke-linecap="round"
   stroke-linejoin="round"
   class="htQlthQL_12"
   id="path2647"
   style="fill:none" /><path
   d="m 261.04825,418.51616 c -2.62785,8.79741 0.40092,21.58828 2.75697,22.68358 2.35279,1.09619 11.29882,-10.01924 12.98737,-16.76425 1.60546,-6.4158 0.13017,-13.36986 -5.55127,-14.76832 -4.87636,-1.19888 -7.56849,0.0525 -10.19307,8.84899 z"
   stroke="#f74700"
   stroke-width="4.0521"
   stroke-linecap="round"
   stroke-linejoin="round"
   class="htQlthQL_13"
   id="path2649"
   style="fill:none" /><path
   d="m 262.89864,419.95531 c -1.95286,6.5414 0.29863,16.05306 2.04826,16.86828 1.74963,0.81522 8.40376,-7.45083 9.65739,-12.46596 1.19654,-4.77155 0.0977,-9.94221 -4.12771,-10.98199 -3.6264,-0.89161 -5.62517,0.0379 -7.57794,6.57967 z"
   stroke="#f74700"
   stroke-width="4.0521"
   stroke-linecap="round"
   stroke-linejoin="round"
   class="htQlthQL_14"
   id="path2651"
   style="fill:none" /><path
   d="m 264.50773,420.57222 c -1.34492,4.08731 -0.65483,10.48547 0.21131,11.17385 0.86606,0.68805 4.73576,-4.10094 5.63842,-7.25557 0.86312,-3.00209 0.55301,-6.4687 -1.58639,-7.52523 -1.83357,-0.90669 -2.92168,-0.47949 -4.26334,3.60695 z"
   stroke="#f74700"
   stroke-width="7.09117"
   stroke-linecap="round"
   stroke-linejoin="round"
   class="htQlthQL_15"
   id="path2653"
   style="fill:none" /><path
   d="m 42.5822,324.58401 c 7.819837,4.81269 20.958974,5.19726 22.624782,3.20773 1.669103,-1.99027 -6.751611,-13.50746 -12.830256,-16.88407 -5.782749,-3.21168 -12.8821,-3.58722 -15.7031,1.54077 -2.41866,4.39855 -1.908001,7.322 5.908574,12.13557 z"
   stroke="#f74700"
   stroke-width="4.0521"
   stroke-linecap="round"
   stroke-linejoin="round"
   class="htQlthQL_16"
   id="path2655"
   style="fill:none" /><path
   d="m 44.451151,323.16996 c 5.81471,3.57885 15.585343,3.8647 16.824951,2.3851 1.239617,-1.47957 -5.022957,-10.04375 -9.541336,-12.55514 -4.300107,-2.38826 -9.576954,-2.66815 -11.676844,1.1457 -1.797968,3.27067 -1.418219,5.44462 4.393229,9.02434 z"
   stroke="#f74700"
   stroke-width="4.0521"
   stroke-linecap="round"
   stroke-linejoin="round"
   class="htQlthQL_17"
   id="path2657"
   style="fill:none" /><path
   d="m 45.464991,321.7741 c 3.599198,2.3557 9.958167,3.3472 10.847704,2.68774 0.889537,-0.65947 -2.736905,-5.63486 -5.549675,-7.3257 -2.675315,-1.6084 -6.104794,-2.20867 -7.67967,-0.41469 -1.349661,1.53855 -1.217565,2.69693 2.381641,5.05265 z"
   stroke="#f74700"
   stroke-width="7.09117"
   stroke-linecap="round"
   stroke-linejoin="round"
   class="htQlthQL_18"
   id="path2659"
   style="fill:none" /><path
   d="m 323.01385,459.61846 c 0,0 32.32259,31.16796 60.10565,23.72351 75.34502,-20.18864 49.8227,-135.33161 49.8227,-135.33161"
   stroke="#a88771"
   stroke-width="10.1302"
   stroke-linecap="round"
   stroke-linejoin="round"
   class="htQlthQL_19"
   id="path2661"
   style="fill:none" /><path
   d="m 501.82903,459.17579 c 1.00644,-0.84502 -0.3681,-12.72324 -15.16079,-15.17049 -14.79283,-2.44722 -34.9092,16.34017 -43.68589,15.48641 -8.77668,-0.85377 -7.94342,-1.97523 -13.03307,-3.24093 0,0 1.85603,5.08512 8.38975,7.69057 6.53373,2.60544 8.4318,3.24753 14.79672,1.54206 6.36491,-1.70547 25.45508,-10.51928 33.76079,-10.19686 8.30556,0.32247 13.92588,4.7343 14.93249,3.88924 z"
   stroke="#a88771"
   stroke-width="2.69929"
   stroke-linecap="round"
   stroke-linejoin="round"
   class="htQlthQL_28"
   id="path2679"
   style="fill:none" /><path
   d="m 500.51296,456.31934 c 0.98968,-0.65608 0.18313,-9.22739 -13.74161,-10.38634 -13.92458,-1.15898 -33.78565,13.33042 -42.07244,13.07738 -8.28663,-0.25307 -7.44957,-1.10267 -12.22288,-1.80925 0,0 1.5473,3.6164 7.63388,5.23586 6.08657,1.61945 7.85941,2.00644 13.96632,0.50128 6.10677,-1.50513 24.57761,-8.70642 32.43981,-8.81962 7.86219,-0.1132 13.00705,2.85667 13.99692,2.20069 z"
   stroke="#a88771"
   stroke-width="2.69929"
   stroke-linecap="round"
   stroke-linejoin="round"
   class="htQlthQL_29"
   id="path2681"
   style="fill:none" /><path
   d="m 498.6275,454.2587 c 0.9951,-0.49168 0.70731,-6.12638 -12.6967,-6.09467 -13.40401,0.0317 -33.44985,10.77634 -41.45177,11.08461 -8.00177,0.30824 -7.14325,-0.303 -11.72037,-0.497 0,0 1.28913,2.30805 7.08405,3.03168 5.79511,0.72375 7.48813,0.87849 13.48217,-0.47003 5.99409,-1.34835 24.27629,-7.18256 31.88865,-7.70914 7.61216,-0.52669 12.41887,1.14622 13.41397,0.65455 z"
   stroke="#a88771"
   stroke-width="2.69929"
   stroke-linecap="round"
   stroke-linejoin="round"
   class="htQlthQL_30"
   id="path2683"
   style="fill:none" /><path
   d="m 498.26596,452.27629 c 1.02412,-0.33244 1.26858,-3.04829 -11.90974,-1.77859 -13.17832,1.26971 -33.88745,8.37574 -41.78176,9.27458 -7.89416,0.8988 -6.99301,0.52089 -11.47389,0.85475 0,0 1.05117,1.00283 6.67955,0.8129 5.62853,-0.18997 7.27803,-0.2731 13.29604,-1.49045 6.01805,-1.21719 24.53422,-5.76779 32.06593,-6.73649 7.5317,-0.96869 12.09974,-0.60426 13.12387,-0.9367 z"
   stroke="#a88771"
   stroke-width="2.69929"
   stroke-linecap="round"
   stroke-linejoin="round"
   class="htQlthQL_31"
   id="path2685"
   style="fill:none" /><path
   id="Shade"
   class="st1"
   d="M254,212.4c0,0,0.8-189.5,143.4-189.5c86.4,0,137.8,162.5,30.1,287.8C296,464.5,254,486.7,254,486.7  s-50.7-28.5-167.2-175.2C-22.5,174.4,24.3,22.1,125.7,23.7C255.6,25.3,254,212.4,254,212.4z"
   style="fill:#a88771;fill-opacity:1;opacity:0.27831715" /><g
   id="g3289"><path
     d="m 384.53386,326.03175 c -9.09042,21.69241 40.19323,15.01753 40.66494,17.40291 0.47171,2.38539 -50.12383,1.03954 -38.26196,22.81082 11.86196,21.7716 40.32958,-18.84398 42.79048,-17.15905 2.46058,1.68502 -35.04972,34.1741 -11.51314,43.27273 23.53658,9.09863 15.36861,-42.63128 18.34829,-42.75987 2.97968,-0.1286 -3.23098,49.18457 20.87503,39.78536 24.10561,-9.39945 -18.34462,-40.96574 -16.16855,-42.21862 2.17607,-1.25289 35.06932,34.64239 44.32451,11.06386 9.25487,-23.57844 -41.90027,-13.89031 -42.02877,-16.86967 -0.1286,-2.97968 50.80973,-2.22803 39.72894,-24.20895 -11.08078,-21.98092 -40.18123,20.6462 -42.41338,18.56507 -2.23249,-2.08104 35.5181,-34.2996 12.12653,-44.1069 -23.39123,-9.80739 -15.92405,39.93342 -18.82,40.37449 -2.89595,0.44106 0.15197,-46.92695 -22.25425,-37.40603 -22.40599,9.52051 16.94194,38.82946 15.52794,41.05031 -1.414,2.22085 -33.83652,-31.28878 -42.92661,-9.59646 z"
     stroke="#f74700"
     stroke-width="2.02605"
     stroke-linecap="round"
     stroke-linejoin="round"
     class="htQlthQL_20"
     id="path2663"
     style="fill:none" /><path
     d="m 427.28443,342.95063 c -0.1759,-0.88871 -0.84092,-1.31705 -1.1167,-1.46689 -0.32313,-0.17526 -0.66211,-0.27006 -0.9175,-0.32818 -0.52969,-0.12026 -1.19232,-0.18742 -1.88766,-0.23183 -1.38544,-0.0888 -3.29199,-0.10934 -5.44882,-0.13236 l -0.1346,-10e-4 c -4.48307,-0.0482 -10.20862,-0.11479 -15.62332,-0.7604 -5.49423,-0.65541 -10.30372,-1.8722 -13.18032,-3.98655 -1.3861,-1.01891 -2.23748,-2.18318 -2.57899,-3.53862 -0.34545,-1.37011 -0.23166,-3.18034 0.77947,-5.59354 1.00678,-2.4033 2.27368,-3.89849 3.6364,-4.7999 1.36053,-0.90047 2.96113,-1.30418 4.80073,-1.28041 3.774,0.0491 8.29617,1.89483 12.87119,4.51197 4.47968,2.56262 8.75088,5.70933 12.0751,8.15821 l 0.0993,0.073 c 1.64084,1.20898 3.09562,2.2794 4.18455,2.97206 0.5284,0.33595 1.08459,0.65816 1.5906,0.84664 0.24035,0.0894 0.62968,0.21163 1.07821,0.20122 0.51247,-0.0118 1.26739,-0.21864 1.74173,-0.96381 0.45,-0.70683 0.33292,-1.42428 0.24343,-1.75827 -0.0971,-0.36377 -0.26577,-0.68005 -0.40563,-0.91106 -0.28738,-0.47499 -0.70756,-0.99935 -1.16312,-1.52402 -0.92715,-1.06742 -2.28489,-2.45539 -3.8129,-4.01693 l -0.0342,-0.0349 c -3.09483,-3.16232 -7.02277,-7.17674 -10.31002,-11.39115 -3.3477,-4.2926 -5.79059,-8.50009 -6.23081,-12.01783 -0.21169,-1.69156 0.049,-3.14649 0.83404,-4.40489 0.79655,-1.27653 2.25083,-2.53947 4.7651,-3.60785 2.50866,-1.06583 4.49723,-1.2676 6.08673,-0.97301 1.57668,0.29243 2.93968,1.10638 4.15167,2.39532 2.50223,2.66109 4.1977,7.17127 5.36547,12.3266 1.10228,4.86525 1.67259,9.99574 2.12847,14.0938 0.0211,0.19082 0.0421,0.37886 0.0629,0.56485 0.22896,2.0561 0.43954,3.8857 0.69021,5.18786 0.1217,0.63161 0.27717,1.27968 0.50771,1.79823 0.11136,0.25122 0.30394,0.62157 0.63585,0.93921 0.37837,0.36182 1.01321,0.71015 1.81429,0.58814 0.80303,-0.12253 1.27659,-0.6462 1.50159,-0.98197 0.22525,-0.33617 0.35157,-0.69584 0.42922,-0.96835 0.15943,-0.55835 0.24915,-1.24766 0.30952,-1.95392 0.12339,-1.4391 0.16017,-3.42062 0.19561,-5.6472 0.003,-0.16083 0.005,-0.3233 0.008,-0.48692 0.07,-4.44208 0.15705,-9.97524 0.81539,-15.20282 0.69338,-5.50125 1.97967,-10.26924 4.22458,-13.0735 1.07757,-1.34589 2.33239,-2.18552 3.84075,-2.49774 1.53554,-0.31776 3.54658,-0.13297 6.18994,0.97519 2.62843,1.10203 4.2344,2.44831 5.17421,3.86437 0.93318,1.4056 1.31343,3.03347 1.22317,4.89368 -0.1858,3.83511 -2.35775,8.41076 -5.39316,13.05557 -2.86629,4.38624 -6.32336,8.57421 -9.09289,11.92946 -0.12851,0.15574 -0.25551,0.30933 -0.38082,0.46141 -1.39177,1.68668 -2.6237,3.19103 -3.43398,4.34329 -0.39566,0.56258 -0.76728,1.14703 -0.99394,1.6867 -0.11058,0.26315 -0.24291,0.6447 -0.26203,1.08086 -0.0199,0.47099 0.0954,1.16758 0.68298,1.71525 0.61563,0.57407 1.35528,0.61815 1.83605,0.54281 0.44017,-0.069 0.81029,-0.25067 1.05905,-0.39214 0.51357,-0.29213 1.06035,-0.73823 1.58648,-1.20922 1.07831,-0.96608 2.4719,-2.40853 4.03873,-4.04597 0.20189,-0.21071 0.4069,-0.4254 0.61554,-0.64352 3.08127,-3.22379 6.89536,-7.21446 10.93394,-10.66994 4.36666,-3.73671 8.72509,-6.60389 12.47561,-7.36133 1.81575,-0.36662 3.39344,-0.21918 4.76945,0.47766 1.38535,0.70168 2.77637,2.0664 4.01259,4.51821 1.23514,2.45036 1.5196,4.40699 1.26893,5.98297 -0.24901,1.56785 -1.06231,2.97367 -2.41819,4.26723 -2.79537,2.6665 -7.62697,4.60016 -13.1572,6.03095 -5.19643,1.34448 -10.70695,2.17429 -15.13378,2.84096 -0.2268,0.0342 -0.45091,0.068 -0.672,0.10141 -2.23341,0.33695 -4.21179,0.64332 -5.62843,0.96383 -0.69351,0.15681 -1.36992,0.34224 -1.90435,0.58263 -0.26046,0.11733 -0.60829,0.30003 -0.91471,0.58769 -0.31707,0.29751 -0.752,0.8727 -0.71623,1.69898 0.0371,0.86402 0.56078,1.41309 0.95006,1.68389 0.36136,0.25137 0.74984,0.37695 1.02412,0.44819 0.56807,0.14738 1.26998,0.2124 1.97891,0.24618 1.45285,0.069 3.46864,0.025 5.74335,-0.0339 0.23989,-0.006 0.48322,-0.0127 0.72974,-0.019 4.50206,-0.11841 10.09526,-0.26525 15.41819,0.14486 5.69815,0.43926 10.68859,1.49639 13.68393,3.59851 1.43729,1.00903 2.33926,2.20555 2.71168,3.65548 0.37933,1.47569 0.2712,3.45187 -0.77232,6.11076 -1.04086,2.6519 -2.35008,4.30876 -3.74958,5.30776 -1.38922,0.99171 -3.00846,1.43677 -4.86105,1.42452 -3.81637,-0.0258 -8.41496,-1.99374 -13.10634,-4.84678 -4.63369,-2.81781 -9.0789,-6.32167 -12.5597,-9.09916 -0.18058,-0.14423 -0.35933,-0.28686 -0.53551,-0.42773 -1.49711,-1.19576 -2.82303,-2.25491 -3.85405,-3.00154 -0.56926,-0.41275 -1.12184,-0.78417 -1.6059,-1.03552 -0.23633,-0.12266 -0.54075,-0.26203 -0.87524,-0.34265 -0.27617,-0.0665 -0.95884,-0.1902 -1.64969,0.20746 -0.38615,0.22233 -0.71172,0.57945 -0.88376,1.04505 -0.15771,0.42645 -0.13876,0.81291 -0.0979,1.06451 0.0753,0.46226 0.28749,0.83678 0.41196,1.03905 0.27935,0.45547 0.70788,0.96536 1.16033,1.46534 0.87102,0.9636 2.15774,2.2444 3.62931,3.70885 0.10347,0.10302 0.20785,0.20685 0.31282,0.31156 3.24946,3.23451 7.45345,7.44939 10.9808,11.88927 3.58116,4.50762 6.21604,8.94892 6.69244,12.63561 0.22875,1.77089 -0.0514,3.28135 -0.89464,4.5753 -0.85814,1.3168 -2.43092,2.60974 -5.15547,3.67224 -2.7252,1.06267 -4.84919,1.22872 -6.51463,0.88036 -1.64596,-0.34483 -3.02185,-1.22908 -4.20544,-2.5973 -2.44973,-2.83177 -3.93941,-7.57853 -4.83189,-13.002 -0.85286,-5.18168 -1.11348,-10.64371 -1.32062,-14.98636 -0.007,-0.14322 -0.0138,-0.28506 -0.0204,-0.42591 -0.10363,-2.16764 -0.20084,-4.09473 -0.37085,-5.47549 -0.083,-0.6724 -0.19757,-1.34925 -0.38981,-1.89449 -0.0936,-0.26439 -0.25335,-0.64282 -0.54403,-0.98269 -0.32201,-0.37587 -0.91163,-0.81114 -1.74069,-0.77532 -0.86229,0.037 -1.40722,0.5592 -1.67365,0.93088 -0.25194,0.35137 -0.38519,0.73212 -0.46356,1.00587 -0.16174,0.56667 -0.24721,1.27057 -0.30223,1.98763 -0.11211,1.46684 -0.12838,3.50405 -0.13854,5.8067 -10e-4,0.22126 -0.002,0.44587 -0.003,0.67302 -0.0191,4.56687 -0.0425,10.26057 -0.62723,15.68587 -0.62181,5.77224 -1.8479,10.86669 -4.08857,13.95683 -1.0824,1.49226 -2.34597,2.44016 -3.84889,2.84182 -1.5189,0.40594 -3.51239,0.31538 -6.15297,-0.70544 -2.64643,-1.02309 -4.26109,-2.30657 -5.20849,-3.66221 -0.93834,-1.34269 -1.3327,-2.91364 -1.26246,-4.72723 0.14516,-3.74802 2.26357,-8.27296 5.24873,-12.88613 2.83061,-4.37458 6.25597,-8.55825 8.97833,-11.88338 0.11197,-0.13663 0.22257,-0.27184 0.33212,-0.40572 1.36257,-1.66521 2.56721,-3.14617 3.34901,-4.26773 0.37911,-0.54346 0.74341,-1.12001 0.95828,-1.65407 0.103,-0.25622 0.23933,-0.66332 0.23106,-1.13514 -0.009,-0.54946 -0.23072,-1.26941 -0.92255,-1.743 -0.65073,-0.44546 -1.3354,-0.40568 -1.73435,-0.32115 -0.39634,0.0838 -0.73751,0.25354 -0.98494,0.39605 -0.50459,0.29042 -1.04684,0.72343 -1.57735,1.1872 -1.08112,0.94516 -2.47044,2.33962 -4.02893,3.91295 -0.12138,0.12236 -0.24404,0.24647 -0.36783,0.37158 -3.10496,3.1354 -6.97964,7.04862 -11.10261,10.39142 -4.33897,3.51779 -8.68881,6.17956 -12.48613,6.80411 -1.84351,0.30345 -3.48849,0.11496 -4.95543,-0.63162 -1.47496,-0.75039 -2.94479,-2.15482 -4.27057,-4.58858 -1.33101,-2.44285 -1.68541,-4.37479 -1.5009,-5.90543 0.1823,-1.51152 0.91651,-2.85245 2.18589,-4.08263 2.63404,-2.5523 7.31551,-4.37827 12.73672,-5.68755 5.34362,-1.29094 11.05425,-2.00411 15.48276,-2.54574 l 0.3067,-0.0374 c 2.05604,-0.25132 3.86392,-0.4725 5.15628,-0.70238 0.66174,-0.11753 1.30574,-0.25688 1.80759,-0.44274 0.23346,-0.0863 0.5954,-0.23854 0.91963,-0.5093 0.33853,-0.28263 0.9333,-0.97757 0.73203,-1.99617 z m 17.25532,-3.07488 c 3.3e-4,-9e-5 0.005,0.001 0.0123,0.004 -0.008,-0.003 -0.0123,-0.004 -0.0123,-0.004 z m 0.24388,2.59711 c -3.3e-4,8e-5 0.002,-0.001 0.008,-0.005 -0.005,0.003 -0.008,0.005 -0.008,0.005 z m -1.862,4.07414 c 3.3e-4,-9e-5 0.004,0.007 0.0112,0.0208 -0.008,-0.0139 -0.0115,-0.0207 -0.0112,-0.0208 z m -4.91255,3.88473 c 3.3e-4,-9e-5 -10e-4,0.004 -0.004,0.0108 0.002,-0.007 0.004,-0.0108 0.004,-0.0108 z m -2.67771,0.054 c 0,0 0.002,0.004 0.005,0.0133 -0.004,-0.008 -0.006,-0.0132 -0.005,-0.0133 z m -5.18229,0.11994 c 0,0 -0.002,9.4e-4 -0.006,0.003 0.004,-0.002 0.006,-0.003 0.006,-0.003 z m -1.93123,-1.79434 c 8e-5,3.2e-4 -10e-4,0.005 -0.005,0.0154 0.003,-0.0103 0.005,-0.0157 0.005,-0.0154 z m -3.83468,-6.85499 c 6.5e-4,-1.7e-4 -0.004,0.002 -0.0146,0.007 0.009,-0.004 0.014,-0.007 0.0146,-0.007 z m 16.26395,-7.93977 c -8e-5,-3.3e-4 0.004,-0.003 0.0117,-0.006 -0.008,0.004 -0.012,0.006 -0.0117,0.006 z m 1.96496,1.73496 c -1.5e-4,7.4e-4 9.3e-4,-0.003 0.004,-0.0116 -0.002,0.007 -0.004,0.0111 -0.004,0.0116 z m -14.87855,-1.83881 c 0.0102,0.003 0.0156,0.005 0.0157,0.005 5e-4,5.6e-4 -0.005,-8.2e-4 -0.0157,-0.005 z m 5.19051,-2.94261 c 2.4e-4,-4.2e-4 0.001,-0.002 0.003,-0.006 -0.002,0.005 -0.002,0.007 -0.003,0.006 z m 2.60472,-0.11762 c 0.005,0.009 0.007,0.0138 0.007,0.0136 -5e-4,-5.6e-4 -0.003,-0.005 -0.007,-0.0136 z"
     stroke="#f74700"
     stroke-width="3.71442"
     stroke-linecap="round"
     stroke-linejoin="round"
     class="htQlthQL_21"
     id="path2665"
     style="fill:none" /><path
     d="m 431.42388,342.12603 c -0.0996,-0.50469 -0.25466,-0.9543 -0.44337,-1.35331 0.64246,-0.40602 1.25815,-0.97721 1.76234,-1.76883 0.18402,-0.28913 0.33324,-0.57767 0.45386,-0.86204 0.57804,0.10241 1.2089,0.12145 1.88506,0.0186 0.0407,-0.006 0.0812,-0.0127 0.12163,-0.0197 0.28344,0.68859 0.72817,1.39201 1.40945,2.02714 0.23666,0.22045 0.47922,0.41206 0.72513,0.57829 -0.0226,0.25217 -0.0294,0.51514 -0.0177,0.78852 0.0102,0.23638 0.0334,0.4637 0.0682,0.68231 -0.40762,0.30918 -0.7814,0.67817 -1.10296,1.10238 -0.031,6e-4 -0.0617,0.002 -0.0932,0.003 l 0.005,0.11573 -0.005,-0.11573 c -1.03197,0.0444 -1.89181,0.3398 -2.58878,0.73421 -0.10326,-0.0814 -0.21125,-0.16084 -0.32344,-0.23775 -0.58826,-0.40276 -1.18182,-0.65833 -1.7473,-0.81305 -0.0135,-0.28269 -0.0488,-0.57599 -0.10892,-0.88009 z m 32.1626,-10.81474 c -4.03223,1.04337 -8.29946,1.74594 -12.082,2.32389 2.69246,-2.80918 5.78355,-5.97547 9.0187,-8.74373 4.03059,-3.44879 7.47539,-5.55203 9.95808,-6.0533 1.06359,-0.21473 1.62746,-0.0687 1.98022,0.11019 0.3806,0.19272 1.17197,0.7599 2.06959,2.54035 0.89483,1.77524 0.90456,2.79134 0.82686,3.28025 -0.074,0.46486 -0.32105,1.05893 -1.12705,1.82794 -1.86207,1.77633 -5.55252,3.39723 -10.6444,4.71441 z m -57.8907,21.12333 c 4.69157,-1.13335 9.75095,-1.77725 13.88821,-2.28384 -2.7856,2.80862 -6.02562,6.02705 -9.43175,8.78868 -3.97969,3.22646 -7.39634,5.15819 -9.90926,5.57143 -1.09154,0.17956 -1.77656,0.0328 -2.28425,-0.22589 -0.53221,-0.27061 -1.40606,-0.93945 -2.37524,-2.71819 -0.98431,-1.80651 -1.01845,-2.81326 -0.96669,-3.24244 0.0448,-0.37172 0.21433,-0.85833 0.91036,-1.53286 1.67712,-1.62504 5.17497,-3.15064 10.16862,-4.35689 z m 37.44544,5.20361 c 2.69117,2.7087 5.71093,5.85828 8.29869,9.11522 3.30862,4.16499 5.16957,7.61493 5.4711,9.94838 0.12286,0.94907 -0.0527,1.40408 -0.24819,1.70397 -0.24002,0.36845 -0.95381,1.16065 -3.01303,1.96377 -2.06182,0.80382 -3.28064,0.77976 -3.92804,0.6442 -0.5892,-0.1232 -1.1731,-0.43274 -1.82842,-1.19019 -1.55733,-1.80015 -2.82658,-5.32893 -3.64484,-10.29929 -0.65481,-3.97938 -0.92092,-8.17549 -1.10727,-11.88606 z m 8.28417,-10.27037 c 4.15764,-0.10827 9.03088,-0.21917 13.64642,0.13682 5.27618,0.40655 9.02527,1.36072 10.91587,2.68772 0.76556,0.53739 0.95518,0.94629 1.0316,1.24323 0.0961,0.37419 0.20385,1.37659 -0.57954,3.37289 -0.77523,1.97453 -1.60614,2.8502 -2.17335,3.25528 -0.53589,0.38236 -1.22945,0.62903 -2.30324,0.6217 -2.48166,-0.0167 -6.03574,-1.38078 -10.31647,-3.98378 -3.63888,-2.21285 -7.18605,-4.92885 -10.22129,-7.33386 z m -29.20612,21.4558 c 2.43007,-3.75582 5.37246,-7.38183 7.8817,-10.44815 -0.023,3.97187 -0.094,8.50021 -0.55842,12.81271 -0.57458,5.33274 -1.65825,9.21826 -3.12402,11.23938 -0.61824,0.8526 -1.11496,1.1098 -1.49438,1.21112 -0.42728,0.11449 -1.44289,0.22126 -3.39471,-0.53314 -1.96988,-0.7618 -2.77893,-1.56196 -3.12196,-2.05281 -0.31583,-0.45199 -0.53479,-1.06173 -0.49486,-2.08692 0.0935,-2.41448 1.5685,-5.91054 4.30665,-10.14219 z m 18.3917,-42.87709 c 0.002,-0.15411 0.005,-0.30864 0.007,-0.46307 0.002,-0.1306 0.004,-0.26194 0.006,-0.39393 0.0662,-4.2044 0.14518,-9.20542 0.73532,-13.89035 0.63969,-5.0754 1.75916,-8.6003 3.1484,-10.33558 0.559,-0.69794 0.99901,-0.90324 1.38494,-0.98287 0.466,-0.0965 1.5448,-0.1423 3.54233,0.69529 1.95216,0.81828 2.7746,1.65926 3.13815,2.20718 0.34271,0.51575 0.56369,1.19696 0.51124,2.2811 -0.12165,2.51152 -1.65349,6.06825 -4.43425,10.32356 -2.48027,3.79548 -5.47669,7.45205 -8.03981,10.55867 z m -13.38355,0.41501 c -2.88724,-2.95121 -6.33471,-6.49413 -9.20356,-10.17252 -3.08408,-3.95457 -4.78384,-7.19041 -5.05831,-9.38114 -0.11167,-0.89298 0.0492,-1.33251 0.23095,-1.62348 0.21591,-0.34627 0.85347,-1.09287 2.71271,-1.88296 1.84201,-0.78267 2.9324,-0.77734 3.50699,-0.67086 0.53638,0.0996 1.11439,0.3754 1.79787,1.10224 1.60114,1.70276 3.01401,5.05777 4.08239,9.77303 0.98406,4.34318 1.49758,8.96031 1.92912,12.83836 5e-4,0.006 0.001,0.0115 0.002,0.0173 z m -8.24929,10.65361 -0.17876,-0.002 c -4.22747,-0.0454 -9.39083,-0.10913 -14.22739,-0.68591 -5.07491,-0.60521 -8.70252,-1.67094 -10.53563,-3.01823 -0.76011,-0.55878 -0.91669,-0.95136 -0.97058,-1.16555 -0.0655,-0.25896 -0.17908,-1.08713 0.54895,-2.82423 0.71535,-1.70748 1.47034,-2.44116 1.9879,-2.78364 0.51197,-0.33855 1.21957,-0.57849 2.33477,-0.56408 2.51534,0.0329 6.04001,1.33804 10.20846,3.72292 3.93009,2.24808 7.71631,5.02518 10.83228,7.32046 z"
     stroke="#f74700"
     stroke-width="11.1433"
     stroke-linecap="round"
     stroke-linejoin="round"
     class="htQlthQL_22"
     id="path2667"
     style="fill:none" /><path
     d="m 428.45107,342.83345 c -0.17378,-0.87949 -0.83088,-1.29912 -1.0935,-1.44165 -0.30934,-0.16811 -0.62913,-0.25652 -0.85993,-0.30899 -0.48093,-0.10921 -1.07364,-0.16853 -1.68191,-0.20761 -1.21324,-0.0776 -2.87893,-0.0956 -4.75246,-0.11549 l -0.12305,-10e-4 c -3.90633,-0.0419 -8.88046,-0.1001 -13.5816,-0.66074 -4.78059,-0.5701 -8.91439,-1.62535 -11.36571,-3.42716 -1.17361,-0.86259 -1.87478,-1.83289 -2.15588,-2.94722 -0.2848,-1.12941 -0.19942,-2.65167 0.6676,-4.72071 0.86277,-2.05882 1.93907,-3.31941 3.07813,-4.07314 1.13727,-0.75255 2.48178,-1.09569 4.04602,-1.07539 3.22287,0.0419 7.11716,1.62274 11.09407,3.89813 3.88965,2.22501 7.60061,4.95865 10.49762,7.09306 l 0.0828,0.061 c 1.42645,1.05074 2.70101,1.98871 3.65805,2.5975 0.46233,0.29423 0.96436,0.58655 1.43031,0.7599 0.22049,0.0818 0.59271,0.20021 1.02806,0.19018 0.49962,-0.0115 1.24487,-0.214 1.71354,-0.95031 0.44466,-0.69806 0.32705,-1.40313 0.24166,-1.72179 -0.093,-0.34844 -0.25283,-0.64611 -0.37963,-0.8558 -0.26151,-0.43193 -0.63866,-0.9014 -1.0375,-1.36051 -0.81298,-0.93615 -2.00161,-2.15095 -3.33034,-3.50894 l -0.026,-0.0266 c -2.69738,-2.75668 -6.11101,-6.24504 -8.96545,-9.90492 -2.91246,-3.73417 -5.00325,-7.3543 -5.37815,-10.34909 -0.17895,-1.42975 0.043,-2.63936 0.6924,-3.67965 0.66016,-1.05889 1.88157,-2.13149 4.04028,-3.04866 2.153,-0.91495 3.83686,-1.07843 5.16376,-0.83233 1.31432,0.24352 2.45757,0.92233 3.48507,2.01459 2.13268,2.26825 3.59817,6.14193 4.61407,10.6248 0.95658,4.22364 1.45224,8.6802 1.84954,12.25174 0.0183,0.16499 0.0365,0.32793 0.0544,0.48883 0.19921,1.78719 0.3833,3.39141 0.6039,4.53698 0.10662,0.55314 0.24607,1.14014 0.4584,1.61811 0.10242,0.2309 0.28532,0.58602 0.60724,0.89374 0.36813,0.35233 0.99242,0.6965 1.78206,0.57616 0.79167,-0.12054 1.25471,-0.6365 1.47078,-0.95868 0.2163,-0.32259 0.3345,-0.66295 0.40536,-0.91127 0.14525,-0.50946 0.22477,-1.12856 0.27761,-1.7468 0.10857,-1.26349 0.14064,-2.99904 0.17139,-4.93525 0.002,-0.13871 0.004,-0.27905 0.007,-0.42023 0.0608,-3.87117 0.13626,-8.67899 0.70837,-13.21855 0.60286,-4.78622 1.71816,-8.87983 3.62853,-11.26655 0.91023,-1.13673 1.95706,-1.83149 3.20666,-2.09046 1.27654,-0.26409 2.97758,-0.11685 5.24998,0.83587 2.25738,0.94625 3.61294,2.09255 4.39946,3.277 0.77954,1.17409 1.10197,2.53918 1.02549,4.11813 -0.15866,3.27234 -2.01866,7.21171 -4.65831,11.25127 -2.48898,3.80865 -5.4921,7.44674 -7.90594,10.37073 -0.1111,0.13465 -0.22116,0.26796 -0.3296,0.39945 -1.2102,1.46672 -2.28963,2.78479 -3.002,3.79754 -0.34655,0.49279 -0.6827,1.01914 -0.89061,1.51394 -0.10112,0.24104 -0.22846,0.60342 -0.24644,1.02425 -0.0196,0.45517 0.0918,1.13986 0.67059,1.67941 0.60672,0.56562 1.33412,0.60704 1.79977,0.534 0.42506,-0.0667 0.77664,-0.24061 1.0039,-0.36967 0.47049,-0.26765 0.96237,-0.67073 1.42306,-1.08328 0.94717,-0.84879 2.16808,-2.11247 3.53094,-3.53655 0.17531,-0.18331 0.35328,-0.36978 0.53463,-0.55926 2.68485,-2.80888 5.99899,-6.27651 9.50658,-9.27787 3.79941,-3.25086 7.55568,-5.71163 10.75763,-6.35844 1.54146,-0.31131 2.85837,-0.18209 3.9981,0.39487 1.14916,0.58214 2.32857,1.72599 3.38889,3.8292 1.05947,2.10135 1.29132,3.75465 1.08288,5.06552 -0.20719,1.30249 -0.88302,2.48165 -2.03519,3.58044 -2.38712,2.27744 -6.54277,3.94958 -11.35377,5.19429 -4.51358,1.16746 -9.30161,1.88862 -13.15912,2.46987 -0.1969,0.0297 -0.39119,0.0587 -0.5827,0.0876 -1.94239,0.29323 -3.67519,0.56106 -4.91909,0.84262 -0.60742,0.13759 -1.21577,0.30304 -1.70426,0.52308 -0.23714,0.10654 -0.56754,0.27862 -0.86218,0.55544 -0.30529,0.28666 -0.73451,0.85054 -0.69919,1.6647 0.0368,0.85222 0.55353,1.39126 0.93029,1.65318 0.3481,0.24233 0.71819,0.36061 0.96804,0.42545 0.52003,0.13509 1.15202,0.19228 1.77274,0.22173 1.27587,0.0609 3.04103,0.0221 5.0196,-0.0292 0.20828,-0.005 0.41935,-0.011 0.63312,-0.0169 3.92314,-0.10278 8.78316,-0.2304 13.40649,0.12594 4.95853,0.38225 9.24721,1.30056 11.79868,3.09127 1.21548,0.85312 1.95995,1.85062 2.26725,3.04707 0.3142,1.22221 0.23291,2.8902 -0.66365,5.17516 -0.89398,2.27764 -2.0097,3.67814 -3.182,4.51524 -1.16178,0.82939 -2.52063,1.20642 -4.09274,1.19593 -3.2553,-0.022 -7.21325,-1.70607 -11.2919,-4.18632 -4.02137,-2.44526 -7.88194,-5.48806 -10.91406,-7.90753 -0.15742,-0.12562 -0.31318,-0.25029 -0.46702,-0.37302 -1.30234,-1.0403 -2.46187,-1.96644 -3.36495,-2.62046 -0.49802,-0.36087 -0.99081,-0.69308 -1.42892,-0.92038 -0.21328,-0.111 -0.49799,-0.24202 -0.81667,-0.31849 -0.25982,-0.0629 -0.93004,-0.18708 -1.61205,0.20577 -0.38193,0.2198 -0.70461,0.57334 -0.87533,1.03475 -0.15582,0.42175 -0.13679,0.80329 -0.0969,1.04884 0.0733,0.44985 0.27849,0.80844 0.39093,0.99191 0.25569,0.41671 0.64239,0.87488 1.03701,1.3117 0.76301,0.84361 1.88845,1.96347 3.16751,3.23654 0.091,0.0903 0.1826,0.1818 0.27466,0.27355 2.83094,2.81807 6.48298,6.47992 9.54514,10.33444 3.11598,3.92225 5.37278,7.74576 5.77881,10.88672 0.19368,1.49783 -0.0449,2.7535 -0.74233,3.82343 -0.71201,1.09236 -2.03413,2.19229 -4.37637,3.10551 -2.34282,0.91371 -4.14447,1.04723 -5.53783,0.75532 -1.37363,-0.28742 -2.52778,-1.02518 -3.53044,-2.18388 -2.08719,-2.41292 -3.3768,-6.48999 -4.15319,-11.20624 -0.74055,-4.49897 -0.96683,-9.24445 -1.14746,-13.02892 -0.006,-0.12326 -0.0117,-0.24578 -0.0176,-0.36691 -0.0901,-1.88495 -0.17511,-3.5734 -0.32478,-4.78691 -0.0725,-0.58886 -0.17467,-1.19983 -0.35108,-1.70036 -0.0855,-0.24208 -0.23688,-0.60354 -0.51787,-0.93202 -0.31199,-0.36458 -0.89135,-0.79419 -1.70839,-0.75915 -0.85042,0.037 -1.38498,0.55219 -1.64204,0.91053 -0.24273,0.33876 -0.36811,0.70062 -0.43935,0.95009 -0.1479,0.51786 -0.22367,1.15099 -0.27184,1.77882 -0.0986,1.28772 -0.11247,3.07154 -0.12154,5.0743 -6.2e-4,0.19209 -0.002,0.38673 -0.002,0.58373 -0.0165,3.97921 -0.0372,8.92724 -0.54484,13.63969 -0.54098,5.02239 -1.605,9.40395 -3.51698,12.04035 -0.91764,1.26563 -1.97531,2.05173 -3.21981,2.3845 -1.2605,0.33705 -2.94356,0.26994 -5.21058,-0.60661 -2.2732,-0.87874 -3.6353,-1.97119 -4.42626,-3.10307 -0.78199,-1.11925 -1.11592,-2.43336 -1.0566,-3.97066 0.12358,-3.19582 1.93691,-7.09017 4.5332,-11.10238 2.45778,-3.79854 5.43361,-7.43281 7.80587,-10.33063 0.0966,-0.11819 0.19255,-0.23513 0.28742,-0.35074 1.18446,-1.44794 2.24032,-2.74571 2.92766,-3.73183 0.33184,-0.47591 0.66252,-0.99661 0.86041,-1.48836 0.0947,-0.23512 0.22638,-0.6242 0.21868,-1.08219 -0.009,-0.53521 -0.22588,-1.24483 -0.90785,-1.71163 -0.64096,-0.43898 -1.31257,-0.39746 -1.6957,-0.31648 -0.3801,0.0805 -0.70224,0.24165 -0.92784,0.37167 -0.46062,0.26536 -0.947,0.65508 -1.4118,1.06139 -0.94938,0.83015 -2.16624,2.0515 -3.52136,3.41966 -0.10511,0.10612 -0.21102,0.21316 -0.31806,0.3212 -2.70571,2.73232 -6.07226,6.13218 -9.65301,9.03534 -3.77339,3.05966 -7.52102,5.34262 -10.76247,5.87591 -1.56605,0.25741 -2.94527,0.0953 -4.16849,-0.52716 -1.23141,-0.62686 -2.47996,-1.80953 -3.61767,-3.8976 -1.14303,-2.09748 -1.43293,-3.72998 -1.27967,-5.0002 0.15072,-1.251 0.75784,-2.37084 1.83242,-3.41214 2.24468,-2.17495 6.26668,-3.7536 10.98256,-4.89276 4.6387,-1.12058 9.59938,-1.74013 13.45783,-2.21221 l 0.27081,-0.0331 c 1.78654,-0.21861 3.36734,-0.41181 4.49988,-0.61319 0.57827,-0.10286 1.15709,-0.22719 1.61539,-0.39684 0.21181,-0.0784 0.55742,-0.22242 0.87139,-0.48449 0.32828,-0.27394 0.91844,-0.95995 0.71906,-1.96892 z m 11.29475,-7.94825 c -9e-5,-3.3e-4 0.004,-0.003 0.0126,-0.007 -0.009,0.005 -0.0126,0.007 -0.0126,0.007 z m 3.57061,5.08796 c 0,0 0.005,10e-4 0.0137,0.004 -0.009,-0.003 -0.0141,-0.004 -0.0137,-0.004 z m 0.25131,2.70314 c -9e-5,-3.3e-4 0.003,-0.002 0.0107,-0.006 -0.007,0.004 -0.0107,0.006 -0.0107,0.006 z m -5.78454,6.79761 c 8e-5,3.2e-4 -0.001,0.005 -0.005,0.0128 0.003,-0.009 0.004,-0.0134 0.005,-0.0128 z m -2.78127,0.0576 c 1.6e-4,-7.4e-4 0.002,0.003 0.005,0.0129 -0.003,-0.008 -0.005,-0.0126 -0.005,-0.0129 z m -4.18474,0.2302 c -2.4e-4,4.1e-4 -0.003,0.002 -0.009,0.005 0.006,-0.003 0.01,-0.005 0.009,-0.005 z m -2.01646,-1.85017 c -3.9e-4,10e-4 -10e-4,0.003 -0.002,0.004 0.005,-0.0161 0.007,-0.0184 0.002,-0.004 z m -3.07784,-3.19414 c -3.2e-4,9e-5 -0.003,-6.9e-4 -0.007,-0.002 0.005,0.002 0.008,0.002 0.007,0.002 z m -0.12668,-2.92426 c 9.8e-4,-2.6e-4 -0.004,0.002 -0.016,0.007 0.01,-0.004 0.0154,-0.007 0.016,-0.007 z m 1.24287,-4.90527 c 0,0 -0.001,-0.002 -0.004,-0.007 0.003,0.005 0.004,0.007 0.004,0.007 z m 1.84414,-2.10678 c 0.0175,0.005 0.0198,0.007 0.004,0.002 -0.001,-7.2e-4 -0.003,-0.001 -0.004,-0.002 z m 4.21924,-2.41597 c -9e-5,-3.3e-4 10e-4,-0.004 0.003,-0.01 -0.002,0.007 -0.004,0.0104 -0.003,0.01 z m 2.71016,-0.12595 c 0.007,0.0135 0.007,0.0159 0.002,0.004 -3.5e-4,-0.001 -10e-4,-0.003 -0.002,-0.004 z m 6.17792,4.45296 c 0,0 10e-4,-0.004 0.005,-0.0121 -0.003,0.008 -0.004,0.0124 -0.005,0.0121 z"
     stroke="#f74700"
     stroke-width="3.71442"
     stroke-linecap="round"
     stroke-linejoin="round"
     class="htQlthQL_23"
     id="path2669"
     style="fill:none" /><path
     d="m 428.01893,342.6493 c -0.17324,-0.87615 -0.8275,-1.29304 -1.08484,-1.43279 -0.30478,-0.16549 -0.61765,-0.25155 -0.8399,-0.30212 -0.46309,-0.10525 -1.03053,-0.16156 -1.60747,-0.19854 -1.15109,-0.074 -2.7301,-0.0907 -4.50163,-0.10963 l -0.11888,-0.001 c -3.69873,-0.0395 -8.40209,-0.0944 -12.84618,-0.62462 -4.52345,-0.53938 -8.41406,-1.53638 -10.7122,-3.22577 -1.09698,-0.80621 -1.74415,-1.70674 -2.00339,-2.73427 -0.26253,-1.04239 -0.18753,-2.46119 0.62743,-4.40617 0.81072,-1.93475 1.81841,-3.11088 2.87735,-3.81133 1.05674,-0.69952 2.3089,-1.0207 3.77385,-1.00177 3.02469,0.0394 6.69245,1.52504 10.45416,3.67701 3.67668,2.10344 7.18602,4.6887 9.92918,6.70946 l 0.0767,0.0567 c 1.34931,0.9938 2.55902,1.88413 3.46845,2.46267 0.43865,0.2789 0.92142,0.56066 1.37261,0.72852 0.21324,0.0795 0.57946,0.19642 1.01022,0.18622 0.49479,-0.0113 1.23662,-0.21214 1.70338,-0.94514 0.44266,-0.69508 0.32448,-1.3958 0.2409,-1.70901 -0.0915,-0.34289 -0.24853,-0.63397 -0.37045,-0.83588 -0.25208,-0.41628 -0.61373,-0.86578 -0.99195,-1.3014 -0.77205,-0.88909 -1.89992,-2.04151 -3.15689,-3.32609 l -0.0232,-0.0238 c -2.55395,-2.61018 -5.78222,-5.90909 -8.4807,-9.36919 -2.75583,-3.53318 -4.7197,-6.94191 -5.07096,-9.74796 -0.16704,-1.33576 0.0408,-2.457 0.64102,-3.41872 0.61135,-0.9801 1.74865,-1.98436 3.77934,-2.84696 2.02491,-0.86069 3.59883,-1.01045 4.83115,-0.78201 1.22017,0.22611 2.28429,0.85619 3.245,1.87791 1.99997,2.12656 3.38264,5.77073 4.34344,10.01142 0.90453,3.99288 1.37284,8.20646 1.74901,11.58825 0.0173,0.15583 0.0344,0.30962 0.0513,0.46136 0.18873,1.69071 0.36368,3.21383 0.57325,4.30257 0.10091,0.52531 0.23475,1.09004 0.44044,1.55371 0.0994,0.22334 0.27871,0.57311 0.59689,0.87729 0.36471,0.3487 0.98504,0.69113 1.77035,0.5716 0.78759,-0.12014 1.24732,-0.63277 1.46011,-0.95022 0.2127,-0.31779 0.32823,-0.65114 0.3962,-0.89064 0.14024,-0.49169 0.21633,-1.08575 0.2665,-1.67217 0.10308,-1.20048 0.13346,-2.84713 0.16243,-4.67904 0.002,-0.13101 0.004,-0.263 0.006,-0.39638 0.0575,-3.66545 0.12897,-8.21175 0.66995,-12.5035 0.5704,-4.52897 1.62394,-8.37949 3.41381,-10.61576 0.84998,-1.06152 1.82192,-1.70439 2.97823,-1.94361 1.18308,-0.24499 2.77282,-0.11127 4.91133,0.78538 2.1235,0.89018 3.38955,1.96468 4.12053,3.06578 0.724,1.09073 1.02591,2.36099 0.95444,3.83862 -0.14896,3.06978 -1.89667,6.77979 -4.39379,10.60112 -2.35314,3.60061 -5.19291,7.04076 -7.47839,9.80975 -0.10475,0.127 -0.20879,0.25276 -0.31114,0.37702 -1.14477,1.38732 -2.16947,2.63828 -2.84631,3.60097 -0.32879,0.46774 -0.65243,0.97292 -0.8535,1.45154 -0.0976,0.23312 -0.22305,0.58834 -0.24113,1.0036 -0.019,0.44976 0.091,1.1303 0.66644,1.66655 0.60348,0.56264 1.32685,0.60339 1.78646,0.53128 0.41966,-0.066 0.76466,-0.23706 0.98429,-0.36198 0.45499,-0.25895 0.92699,-0.64621 1.36395,-1.03772 0.90046,-0.80656 2.05897,-2.00563 3.34801,-3.35295 0.16573,-0.1734 0.33453,-0.34973 0.50574,-0.52879 2.54197,-2.65978 5.67621,-5.93902 8.99275,-8.77663 3.59488,-3.07614 7.13409,-5.39066 10.13817,-5.99703 1.44293,-0.29155 2.66569,-0.16927 3.72058,0.36506 1.06415,0.53884 2.16736,1.60313 3.16429,3.5807 0.99617,1.97602 1.20882,3.5198 1.01564,4.73499 -0.19184,1.20713 -0.81858,2.30462 -1.8969,3.33328 -2.24049,2.13712 -6.15258,3.71499 -10.70431,4.89267 -4.26769,1.10402 -8.79557,1.78624 -12.44817,2.33636 -0.18555,0.0277 -0.3693,0.0556 -0.55011,0.0827 -1.83789,0.27747 -3.48172,0.5316 -4.66369,0.79902 -0.57641,0.13068 -1.16047,0.28892 -1.63214,0.5013 -0.229,0.10297 -0.55308,0.27125 -0.84352,0.54415 -0.30086,0.28233 -0.72802,0.84216 -0.6931,1.65223 0.0367,0.84805 0.55102,1.3832 0.92315,1.64216 0.34378,0.23929 0.70678,0.35458 0.94841,0.41743 0.50233,0.13039 1.10914,0.18489 1.69796,0.21274 1.2125,0.0579 2.88727,0.021 4.75923,-0.0276 0.1965,-0.005 0.39611,-0.0104 0.59809,-0.0159 3.71453,-0.0972 8.31066,-0.21811 12.68163,0.11881 4.69255,0.36157 8.72844,1.23015 11.11977,2.90855 1.13582,0.79721 1.82339,1.72327 2.10729,2.82845 0.29071,1.13062 0.21951,2.68753 -0.62468,4.83786 -0.84096,2.14282 -1.88665,3.45114 -2.97712,4.22961 -1.0802,0.77117 -2.34526,1.12377 -3.8162,1.11379 -3.05329,-0.0209 -6.78066,-1.60244 -10.63844,-3.94855 -3.8005,-2.31113 -7.45079,-5.18758 -10.32119,-7.47839 -0.14936,-0.11904 -0.29665,-0.23689 -0.44244,-0.35304 -1.2321,-0.98431 -2.33202,-1.8628 -3.18875,-2.48343 -0.47198,-0.34198 -0.94389,-0.66021 -1.36498,-0.87878 -0.20509,-0.10656 -0.4828,-0.23491 -0.79557,-0.31016 -0.25413,-0.0613 -0.91985,-0.18562 -1.59886,0.20537 -0.38039,0.21904 -0.70202,0.57126 -0.87179,1.03101 -0.15552,0.42027 -0.1366,0.8001 -0.097,1.04327 0.0729,0.44543 0.27546,0.79841 0.38352,0.97467 0.24751,0.40317 0.61875,0.84276 0.99283,1.25642 0.72429,0.80085 1.79125,1.86296 3.00117,3.06716 0.0862,0.0856 0.17311,0.17246 0.26083,0.25977 2.67992,2.66802 6.1334,6.13032 9.02796,9.7742 2.9486,3.71121 5.06921,7.31216 5.44949,10.25657 0.18098,1.39949 -0.0424,2.56334 -0.68733,3.55244 -0.65947,1.01186 -1.89151,2.04221 -4.09574,2.90166 -2.20513,0.86005 -3.89042,0.98161 -5.18564,0.71024 -1.27622,-0.26701 -2.35044,-0.95173 -3.28786,-2.03527 -1.95654,-2.26195 -3.17411,-6.09754 -3.90854,-10.55934 -0.69979,-4.25294 -0.91411,-8.73979 -1.08497,-12.32342 -0.006,-0.1163 -0.011,-0.23162 -0.0166,-0.3462 -0.0854,-1.78272 -0.16564,-3.38541 -0.30782,-4.53836 -0.0689,-0.55869 -0.16688,-1.14597 -0.33771,-1.63087 -0.0826,-0.23378 -0.23057,-0.58915 -0.50838,-0.91359 -0.30848,-0.36062 -0.8838,-0.78818 -1.69665,-0.75321 -0.84601,0.0365 -1.377,0.54936 -1.6307,0.9033 -0.23946,0.33404 -0.36208,0.68922 -0.43077,0.92996 -0.14287,0.50008 -0.21497,1.10776 -0.26057,1.70343 -0.0938,1.22351 -0.10698,2.91591 -0.11533,4.81046 -9.6e-4,0.18169 -0.002,0.36543 -0.003,0.55162 -0.0154,3.76778 -0.0348,8.44696 -0.51506,12.90282 -0.51202,4.75209 -1.5172,8.87702 -3.3107,11.35023 -0.85882,1.18379 -1.84218,1.91189 -2.9935,2.21933 -1.16753,0.31214 -2.73847,0.25379 -4.87127,-0.57063 -2.13864,-0.8267 -3.40966,-1.85056 -4.14447,-2.90205 -0.72574,-1.03853 -1.03806,-2.2602 -0.98246,-3.69791 0.11602,-2.99699 1.81924,-6.66432 4.27534,-10.45997 2.32358,-3.59094 5.13736,-7.02762 7.38386,-9.77114 0.0913,-0.11186 0.18171,-0.22208 0.27095,-0.33129 1.12092,-1.36939 2.12276,-2.60129 2.77636,-3.53852 0.31488,-0.45179 0.63352,-0.95213 0.82504,-1.42854 0.0914,-0.22761 0.22203,-0.61044 0.21392,-1.06343 -0.009,-0.53006 -0.22385,-1.23594 -0.90233,-1.70018 -0.63748,-0.43642 -1.3045,-0.39473 -1.68158,-0.31467 -0.37456,0.079 -0.68979,0.23727 -0.90719,0.36264 -0.44489,0.25625 -0.91129,0.63048 -1.35228,1.01607 -0.90207,0.78882 -2.05667,1.94769 -3.3389,3.24213 -0.0991,0.1 -0.19894,0.20083 -0.29985,0.30304 -2.56211,2.58721 -5.74567,5.8024 -9.13087,8.54689 -3.56984,2.8943 -7.10016,5.04107 -10.14173,5.54143 -1.4659,0.24107 -2.74929,0.0882 -3.88511,-0.48982 -1.1435,-0.5819 -2.31264,-1.68481 -3.38241,-3.64846 -1.07508,-1.97306 -1.34163,-3.4975 -1.19997,-4.67406 0.13952,-1.15711 0.70055,-2.19714 1.70518,-3.17074 2.10452,-2.03917 5.8886,-3.52854 10.3506,-4.60667 4.38491,-1.05922 9.07529,-1.64515 12.72832,-2.0919 l 0.2583,-0.0315 c 1.68944,-0.20658 3.18834,-0.38971 4.26305,-0.58119 0.54831,-0.0973 1.1037,-0.21638 1.54645,-0.38012 0.20383,-0.0756 0.5436,-0.21662 0.85386,-0.47559 0.32455,-0.27085 0.91323,-0.95331 0.71439,-1.95893 z m 10.54888,-7.59283 c 0,0 0.004,-0.002 0.0126,-0.007 -0.008,0.005 -0.0126,0.007 -0.0126,0.007 z m 3.45436,4.80937 c 3.2e-4,-8e-5 0.005,0.001 0.0141,0.004 -0.01,-0.003 -0.0144,-0.004 -0.0141,-0.004 z m 0.25401,2.74192 c 3.3e-4,-9e-5 0.004,-0.002 0.0115,-0.006 -0.008,0.004 -0.0114,0.006 -0.0115,0.006 z m -1.39249,2.92475 c -0.0144,-0.0238 -0.0106,-0.0213 0.002,0.004 -6.7e-4,-0.001 -0.001,-0.002 -0.002,-0.004 z m -4.03396,3.45319 c 2.4e-4,-4.1e-4 -0.001,0.004 -0.005,0.0131 0.003,-0.008 0.004,-0.0127 0.005,-0.0131 z m -2.81472,0.0697 c 1.7e-4,6.6e-4 3.5e-4,10e-4 5.2e-4,0.002 -0.007,-0.0157 -0.006,-0.0176 -5.2e-4,-0.002 z m -3.82827,0.25984 c 0,0 -0.003,0.002 -0.01,0.005 0.006,-0.003 0.01,-0.005 0.01,-0.005 z m -2.04598,-1.87686 c -6.3e-4,0.002 -10e-4,0.004 -0.002,0.006 0.005,-0.0146 0.007,-0.0168 0.002,-0.006 z m -2.84881,-2.89125 c -4.1e-4,-2.4e-4 -0.003,-9.3e-4 -0.009,-0.003 0.006,0.002 0.009,0.003 0.009,0.003 z m -0.13006,-2.95516 c 3.2e-4,-9e-5 -0.005,0.002 -0.0163,0.007 0.0102,-0.005 0.0159,-0.007 0.0163,-0.007 z m 1.12656,-4.50564 c -3.3e-4,8e-5 -0.002,-0.003 -0.004,-0.008 0.003,0.006 0.004,0.008 0.004,0.008 z m 1.86579,-2.13426 c 0.0156,0.005 0.0179,0.007 0.006,0.002 -0.002,-6.3e-4 -0.004,-0.002 -0.006,-0.002 z m 3.86729,-2.22518 c -9e-5,-3.3e-4 10e-4,-0.004 0.004,-0.0108 -0.002,0.007 -0.003,0.0107 -0.004,0.0108 z m 2.7495,-0.12915 c 0.006,0.0117 0.006,0.0144 0.003,0.006 -8.5e-4,-0.002 -0.002,-0.004 -0.003,-0.006 z"
     stroke="#f74700"
     stroke-width="3.71442"
     stroke-linecap="round"
     stroke-linejoin="round"
     class="htQlthQL_24"
     id="path2671"
     style="fill:none" /><path
     d="m 428.2831,342.50405 c -0.17251,-0.87214 -0.82344,-1.28573 -1.0754,-1.42238 -0.29909,-0.16247 -0.60388,-0.2458 -0.8161,-0.29417 -0.44294,-0.1005 -0.98199,-0.15393 -1.5226,-0.18841 -1.07992,-0.0693 -2.55972,-0.085 -4.21451,-0.10267 l -0.11396,-10e-4 c -3.46033,-0.037 -7.85344,-0.0886 -12.00313,-0.58343 -4.2288,-0.50436 -7.84037,-1.43455 -9.96301,-2.99477 -1.00916,-0.742 -1.59461,-1.56223 -1.82868,-2.49058 -0.23759,-0.9428 -0.17444,-2.24271 0.58108,-4.04556 0.75118,-1.79294 1.68039,-2.87184 2.6469,-3.51152 0.96472,-0.6385 2.11107,-0.93447 3.46206,-0.91682 2.79733,0.0363 6.20606,1.41241 9.72097,3.42355 3.43312,1.96419 6.71106,4.37863 9.2779,6.26975 l 0.0697,0.0516 c 1.26081,0.92837 2.39622,1.76449 3.25125,2.30832 0.41124,0.26142 0.87176,0.53061 1.30673,0.69268 0.20458,0.0759 0.56414,0.19144 0.98941,0.18166 0.48914,-0.0115 1.22732,-0.21035 1.69185,-0.93995 0.43985,-0.69118 0.32191,-1.38707 0.23967,-1.69399 -0.0898,-0.33637 -0.24297,-0.61974 -0.35966,-0.81256 -0.24113,-0.39894 -0.58512,-0.82555 -0.94003,-1.23421 -0.72502,-0.83492 -1.78273,-1.91594 -2.95735,-3.11631 l -0.0202,-0.0205 c -2.38977,-2.44232 -5.40577,-5.52438 -7.92577,-8.75543 -2.57601,-3.30309 -4.39451,-6.46936 -4.71871,-9.05962 -0.15384,-1.22778 0.0383,-2.24727 0.58217,-3.11909 0.55536,-0.89029 1.59659,-1.81602 3.4804,-2.61618 1.87803,-0.79827 3.32607,-0.93247 4.45027,-0.724 1.11171,0.20622 2.08528,0.78017 2.96967,1.7206 1.84751,1.96465 3.13534,5.34618 4.03322,9.30902 0.84447,3.72825 1.28197,7.66378 1.63409,10.82793 0.0161,0.14496 0.0319,0.28861 0.0478,0.43013 0.17614,1.57978 0.3401,3.0097 0.53728,4.03394 0.0949,0.49265 0.22206,1.03226 0.42042,1.47902 0.0955,0.21529 0.27094,0.55841 0.58495,0.85881 0.36056,0.34492 0.97651,0.68538 1.75708,0.56642 0.78261,-0.11916 1.2383,-0.6286 1.44733,-0.94051 0.20894,-0.31223 0.32101,-0.63766 0.38644,-0.86704 0.13452,-0.47128 0.2061,-1.03652 0.25336,-1.58685 0.0967,-1.1278 0.12533,-2.67261 0.15247,-4.38481 0.002,-0.12184 0.004,-0.24506 0.006,-0.36894 0.0542,-3.42998 0.12093,-7.67682 0.62582,-11.68447 0.53343,-4.2338 1.51572,-7.80619 3.16793,-9.86994 0.78083,-0.97516 1.66703,-1.55836 2.71632,-1.77554 1.07616,-0.22263 2.53794,-0.10462 4.52327,0.72785 1.97031,0.82601 3.13307,1.8177 3.80076,2.82355 0.66055,0.99482 0.93869,2.15678 0.8728,3.51825 -0.13738,2.8377 -1.75657,6.28499 -4.09055,9.8567 -2.19686,3.36192 -4.84951,6.57539 -6.98809,9.16588 -0.0979,0.11853 -0.19451,0.23565 -0.28994,0.35177 -1.0698,1.2966 -2.03191,2.47067 -2.66827,3.37566 -0.30855,0.43891 -0.61728,0.92016 -0.81071,1.3803 -0.0939,0.22372 -0.21711,0.57137 -0.23448,0.98015 -0.019,0.44312 0.0893,1.11886 0.66111,1.65189 0.59973,0.5591 1.31784,0.59846 1.7715,0.5276 0.41329,-0.065 0.75063,-0.23329 0.96117,-0.35298 0.43747,-0.24867 0.88692,-0.61835 1.29684,-0.98549 0.84632,-0.75814 1.93333,-1.88352 3.13825,-3.14292 0.15488,-0.16176 0.3124,-0.32667 0.47242,-0.494 2.37849,-2.48838 5.30603,-5.55141 8.40349,-8.20202 3.36088,-2.87571 6.65145,-5.02222 9.42933,-5.58302 1.32954,-0.2685 2.44471,-0.15375 3.40203,0.33086 0.96666,0.48945 1.98258,1.46281 2.90674,3.29662 0.92363,1.83186 1.1145,3.25003 0.93857,4.35607 -0.17435,1.09757 -0.74434,2.10154 -1.73858,3.04999 -2.07176,1.9762 -5.70512,3.44617 -9.96,4.54711 -3.9855,1.0312 -8.21541,1.66819 -11.6328,2.1829 -0.17337,0.0262 -0.34446,0.0518 -0.51341,0.0774 -1.71763,0.25923 -3.26008,0.49773 -4.37089,0.74888 -0.54051,0.12245 -1.09661,0.27285 -1.54925,0.47664 -0.21966,0.0987 -0.53651,0.26262 -0.82197,0.53068 -0.29609,0.27791 -0.72063,0.83319 -0.68595,1.63843 0.0364,0.8429 0.54783,1.37391 0.91473,1.62903 0.33833,0.23587 0.6939,0.34824 0.92532,0.40824 0.48276,0.12515 1.06043,0.17661 1.61287,0.20303 1.13945,0.0541 2.71096,0.0193 4.46045,-0.0258 0.18364,-0.005 0.36966,-0.01 0.55821,-0.0146 3.47562,-0.0912 7.76907,-0.20408 11.85126,0.11059 4.38737,0.33811 8.13348,1.1494 10.34147,2.69934 1.04406,0.73265 1.66692,1.57641 1.92416,2.57687 0.26349,1.0264 0.20325,2.45592 -0.57999,4.45148 -0.78056,1.98854 -1.7462,3.19117 -2.74303,3.90294 -0.9863,0.70406 -2.14356,1.02848 -3.49891,1.01934 -2.82179,-0.0193 -6.28449,-1.48333 -9.88961,-3.67586 -3.54753,-2.15762 -6.95658,-4.84351 -9.64159,-6.98648 -0.13956,-0.11118 -0.27788,-0.22164 -0.41405,-0.33059 -1.15197,-0.92012 -2.18331,-1.74358 -2.98714,-2.32595 -0.44255,-0.32085 -0.88977,-0.62262 -1.29186,-0.8316 -0.19567,-0.10139 -0.46513,-0.22636 -0.77115,-0.29993 -0.2478,-0.0598 -0.90828,-0.18417 -1.58373,0.20447 -0.37852,0.21819 -0.69911,0.56908 -0.86833,1.02693 -0.15489,0.41871 -0.1356,0.79599 -0.0963,1.0368 0.0718,0.44012 0.27125,0.7866 0.37484,0.95531 0.23766,0.38729 0.59158,0.8053 0.94187,1.19282 0.67964,0.75164 1.67979,1.74705 2.81048,2.87215 0.0811,0.0807 0.1627,0.16231 0.24509,0.24406 2.50731,2.49613 5.73261,5.73046 8.43544,9.13241 2.75664,3.46969 4.72085,6.81575 5.07252,9.53465 0.16623,1.28704 -0.0403,2.34534 -0.62474,3.24201 -0.59926,0.91953 -1.72755,1.86999 -3.77416,2.66798 -2.04717,0.79849 -3.59943,0.90643 -4.78236,0.65881 -1.16369,-0.24368 -2.14654,-0.86793 -3.00903,-1.86492 -1.80743,-2.08901 -2.94212,-5.64791 -3.62848,-9.8181 -0.65369,-3.97129 -0.85368,-8.16204 -1.01355,-11.51544 -0.005,-0.10803 -0.0105,-0.21532 -0.0156,-0.32164 -0.0797,-1.66609 -0.15523,-3.17041 -0.28871,-4.25437 -0.0646,-0.5242 -0.15732,-1.08421 -0.32177,-1.55054 -0.0791,-0.22458 -0.22375,-0.5728 -0.49723,-0.89281 -0.30471,-0.35569 -0.87556,-0.78094 -1.68359,-0.74622 -0.84118,0.0363 -1.36804,0.54626 -1.61757,0.89488 -0.23561,0.32882 -0.35509,0.67616 -0.42092,0.9067 -0.13707,0.48 -0.20539,1.0587 -0.24801,1.61722 -0.0881,1.14961 -0.10057,2.73764 -0.10813,4.50858 -8.4e-4,0.16907 -0.002,0.34061 -0.002,0.51419 -0.0147,3.52531 -0.0327,7.89648 -0.48127,12.05825 -0.47848,4.44281 -1.41678,8.27329 -3.07451,10.55911 -0.79085,1.09041 -1.689,1.75163 -2.7339,2.03091 -1.06087,0.28356 -2.50371,0.23493 -4.48217,-0.53016 -1.98455,-0.76696 -3.15161,-1.71206 -3.8218,-2.67109 -0.66111,-0.94607 -0.94855,-2.06185 -0.89743,-3.3858 0.10725,-2.76879 1.68445,-6.17582 3.98017,-9.72329 2.16981,-3.35328 4.79787,-6.5633 6.89965,-9.13065 0.0851,-0.1039 0.16943,-0.20656 0.25258,-0.30855 1.04739,-1.27976 1.98809,-2.43585 2.6025,-3.31714 0.2952,-0.42344 0.59998,-0.90119 0.78466,-1.36004 0.0878,-0.21895 0.21648,-0.59462 0.20897,-1.04148 -0.009,-0.52439 -0.22179,-1.22565 -0.89647,-1.68741 -0.63325,-0.43371 -1.29486,-0.39137 -1.66565,-0.31264 -0.36786,0.0779 -0.67528,0.23268 -0.8837,0.3525 -0.42671,0.24578 -0.87023,0.60234 -1.28401,0.96421 -0.84743,0.74096 -1.9309,1.82869 -3.1292,3.03842 -0.0921,0.0932 -0.18549,0.18709 -0.27956,0.28221 -2.39723,2.42104 -5.37091,5.42407 -8.53202,7.98721 -3.33663,2.70526 -6.61836,4.69558 -9.43065,5.15793 -1.35129,0.22259 -2.52483,0.0805 -3.55986,-0.44624 -1.04321,-0.53116 -2.12094,-1.54215 -3.11304,-3.36335 -0.99741,-1.83061 -1.23779,-3.23132 -1.10891,-4.30028 0.12667,-1.04984 0.63526,-1.99856 1.55978,-2.89407 1.94349,-1.88344 5.45529,-3.27085 9.62647,-4.27839 4.09368,-0.98888 8.47442,-1.53659 11.8922,-1.95457 l 0.24376,-0.0297 c 1.5781,-0.19283 2.98316,-0.3648 3.99189,-0.5442 0.51384,-0.0915 1.04198,-0.20404 1.46691,-0.36124 0.19528,-0.0723 0.52831,-0.20973 0.8342,-0.46544 0.32028,-0.26725 0.90713,-0.94608 0.70901,-1.9477 z m 9.70347,-7.19011 c -0.0143,0.008 -0.013,0.006 0.002,-10e-4 -5.7e-4,5e-4 -10e-4,6.8e-4 -0.002,10e-4 z m 3.31105,4.49504 c 2.4e-4,-4.1e-4 0.005,8.2e-4 0.0136,0.004 0,0 -3.3e-4,8e-5 -3.3e-4,8e-5 -0.009,-0.002 -0.0133,-0.004 -0.0133,-0.004 z m 0.2574,2.78716 c -4.2e-4,-2.4e-4 0.003,-0.002 0.011,-0.006 -0.007,0.004 -0.011,0.006 -0.011,0.006 z m -1.25389,2.56529 c -0.0119,-0.0195 -0.008,-0.0163 0.004,0.007 -0.002,-0.002 -0.003,-0.004 -0.004,-0.007 z m -1.97589,2.29485 c 0,0 0.002,6.3e-4 0.005,0.002 -0.003,-10e-4 -0.005,-0.002 -0.005,-0.002 z m -1.78558,1.03499 c 8e-5,3.2e-4 -0.001,0.005 -0.004,0.0133 0.002,-0.009 0.004,-0.0133 0.004,-0.0133 z m -2.86021,0.0683 c 3.5e-4,10e-4 0.001,0.003 0.002,0.004 -0.006,-0.0135 -0.006,-0.016 -0.002,-0.004 z m -3.41256,0.30961 c -3.2e-4,9e-5 -0.004,0.002 -0.01,0.005 0.007,-0.004 0.0104,-0.006 0.01,-0.005 z m -4.66616,-4.45111 c 3.2e-4,-9e-5 -0.003,-9.4e-4 -0.01,-0.003 0.007,0.002 0.01,0.003 0.01,0.003 z m -0.15014,-2.9844 c 0,0 -3.3e-4,9e-5 -3.3e-4,9e-5 0.0103,-0.005 0.016,-0.007 0.0164,-0.007 0,0 -0.005,0.002 -0.0161,0.006 z m 1.00919,-4.05259 c -4.2e-4,-2.4e-4 -0.002,-0.003 -0.005,-0.009 0.003,0.006 0.005,0.009 0.005,0.009 z m 5.35443,-4.17303 c -8e-5,-3.3e-4 10e-4,-0.004 0.004,-0.0111 -0.002,0.008 -0.004,0.0115 -0.004,0.0111 z m 8.27376,3.96654 c 4.8e-4,-8.2e-4 6.3e-4,-0.002 0.001,-0.002 -0.005,0.0139 -0.006,0.0153 -0.001,0.002 z"
     stroke="#f74700"
     stroke-width="3.71442"
     stroke-linecap="round"
     stroke-linejoin="round"
     class="htQlthQL_25"
     id="path2673"
     style="fill:none" /><path
     d="m 431.23804,341.99089 c -0.0799,-0.4037 -0.20635,-0.76099 -0.36023,-1.07564 0.5037,-0.30941 0.98815,-0.75069 1.38261,-1.36993 0.14931,-0.23473 0.26864,-0.46911 0.36313,-0.69964 0.45154,0.0856 0.94625,0.10408 1.47796,0.0231 0.0477,-0.007 0.0948,-0.0153 0.14155,-0.0236 0.21373,0.53668 0.55562,1.08726 1.08728,1.5828 0.18923,0.17653 0.3837,0.32823 0.5806,0.459 -0.0199,0.20216 -0.0265,0.41401 -0.0169,0.63484 0.008,0.19251 0.028,0.37705 0.0576,0.55438 -0.3282,0.24421 -0.62835,0.53962 -0.88389,0.88147 -0.033,8e-4 -0.0666,0.002 -0.10053,0.003 -0.8,0.0347 -1.46389,0.26814 -1.99839,0.57742 -0.0883,-0.0711 -0.18116,-0.13989 -0.27836,-0.20649 l -0.58687,0.85748 c 0,0 0,0 0,0 l 0.58687,-0.85748 c -0.46105,-0.31554 -0.92658,-0.51207 -1.36805,-0.628 -0.009,-0.22805 -0.0357,-0.46588 -0.0844,-0.71292 z m -8.90553,6.07787 c 0.0118,-0.002 0.0233,-0.003 0.0351,-0.005 -2.16966,2.18876 -4.70902,4.72129 -7.3823,6.88838 -3.06035,2.48125 -5.69785,3.97559 -7.64658,4.29604 -0.84943,0.13985 -1.3899,0.0263 -1.79431,-0.17959 -0.423,-0.21527 -1.10291,-0.7396 -1.85226,-2.11545 -0.76117,-1.39645 -0.79235,-2.18341 -0.7505,-2.52953 0.0366,-0.3031 0.17532,-0.68951 0.71845,-1.21575 1.3022,-1.26169 4.00542,-2.43768 7.84564,-3.36528 3.6649,-0.88518 7.62048,-1.38224 10.82672,-1.7743 z m 1.83817,14.39986 c 1.90628,-2.94601 4.22181,-5.78807 6.17447,-8.17354 -0.0166,3.09549 -0.0665,6.64982 -0.43058,10.0321 -0.44189,4.10055 -1.2761,7.10224 -2.41309,8.66996 -0.48168,0.66428 -0.87478,0.87239 -1.1831,0.95465 -0.34476,0.0924 -1.13918,0.17135 -2.64835,-0.41185 -1.52254,-0.58871 -2.15584,-1.21048 -2.42852,-1.60062 -0.25188,-0.36075 -0.42243,-0.84328 -0.39148,-1.64234 0.0723,-1.87392 1.21462,-4.57363 3.32065,-7.82836 z m 22.39361,-26.92801 c 2.09925,-2.19192 4.52387,-4.68426 7.06427,-6.85804 3.09949,-2.65221 5.75828,-4.27845 7.68341,-4.66739 0.82784,-0.16693 1.27638,-0.0546 1.56272,0.0903 0.30741,0.1557 0.9241,0.60328 1.61827,1.98063 0.6923,1.37296 0.70378,2.16729 0.64141,2.55946 -0.0593,0.37352 -0.25753,0.84194 -0.8848,1.44036 -1.44359,1.37719 -4.29425,2.6266 -8.21019,3.63951 -3.16718,0.81963 -6.52268,1.36565 -9.47509,1.8152 z m -0.0625,10.41031 c 3.23303,-0.0846 7.05345,-0.17804 10.6684,0.10066 4.05717,0.31263 6.95446,1.04687 8.42275,2.07766 0.59795,0.41939 0.75457,0.74554 0.8175,0.99087 0.0784,0.30412 0.15772,1.0883 -0.44793,2.63111 -0.59889,1.5263 -1.24413,2.21029 -1.69253,2.5304 -0.42427,0.30316 -0.97057,0.49534 -1.80697,0.48942 -1.92551,-0.013 -4.6703,-1.06915 -7.96292,-3.07134 -2.85427,-1.73614 -5.63503,-3.87373 -7.9983,-5.74878 z m -6.26571,7.79386 c 2.09787,2.10837 4.47068,4.57482 6.49887,7.12765 2.54418,3.20255 3.98473,5.86635 4.21892,7.67843 0.0959,0.74131 -0.0404,1.10679 -0.20054,1.3521 -0.19371,0.29732 -0.75475,0.9133 -2.34589,1.53366 -1.59278,0.62081 -2.54221,0.60533 -3.05472,0.49829 -0.46854,-0.0982 -0.92892,-0.34469 -1.4399,-0.93527 -1.20932,-1.39768 -2.1871,-4.1257 -2.81634,-7.94832 -0.51348,-3.12057 -0.7164,-6.41418 -0.8604,-9.30654 z M 421.92349,338.1141 c -0.0571,-4.3e-4 -0.11461,-0.001 -0.1717,-0.002 l -0.15853,-0.002 c -3.24962,-0.0347 -7.22184,-0.0838 -10.94433,-0.52769 -3.9023,-0.46529 -6.70521,-1.28565 -8.1283,-2.33169 -0.59299,-0.43611 -0.72407,-0.74917 -0.76997,-0.9309 -0.0543,-0.21582 -0.13818,-0.86665 0.42495,-2.21068 0.55384,-1.32127 1.1413,-1.89608 1.55136,-2.16747 0.40626,-0.26862 0.96281,-0.45515 1.83001,-0.44385 1.95045,0.0252 4.67146,1.03563 7.87787,2.87004 3.08203,1.76286 6.04862,3.94819 8.46907,5.73136 z m 16.37267,-8.39645 c 0.003,-0.17697 0.006,-0.35534 0.009,-0.53371 0.002,-0.10077 0.003,-0.20188 0.005,-0.30372 0.0507,-3.23154 0.11157,-7.07896 0.56565,-10.68391 0.49165,-3.90308 1.35419,-6.62815 2.43352,-7.97661 0.43723,-0.54574 0.78712,-0.71291 1.10081,-0.77774 0.37392,-0.0775 1.21632,-0.10917 2.75974,0.53792 1.50886,0.63293 2.15236,1.28623 2.44019,1.71985 0.27195,0.40956 0.44433,0.94718 0.40331,1.79089 -0.0946,1.94842 -1.28007,4.69465 -3.41896,7.96762 -1.94549,2.97714 -4.30298,5.84269 -6.29794,8.25941 z m -10.14136,0.31501 c -2.24433,-2.29356 -4.95605,-5.06982 -7.20598,-7.95443 -2.37191,-3.04105 -3.6883,-5.54025 -3.9014,-7.24228 -0.0873,-0.69779 0.0376,-1.05079 0.18637,-1.28887 0.17459,-0.27995 0.67651,-0.86086 2.11399,-1.47152 1.42423,-0.60535 2.27504,-0.60435 2.73155,-0.51972 0.42776,0.0791 0.88352,0.29918 1.41604,0.8658 1.24319,1.32184 2.33206,3.91521 3.15385,7.54187 0.75713,3.34229 1.15247,6.89478 1.48406,9.8753 0.007,0.0648 0.0144,0.12934 0.0215,0.19385 z"
     stroke="#f74700"
     stroke-width="8.44187"
     stroke-linecap="round"
     stroke-linejoin="round"
     class="htQlthQL_26"
     id="path2675"
     style="fill:none" /><path
     d="m 438.42677,344.7418 c -1.85588,1.8764 -5.05871,1.73059 -6.67019,-0.15293 -1.54422,-1.80471 -1.45879,-4.40056 0.33878,-6.17883 1.7904,-1.77111 4.34563,-1.84121 6.14321,-0.30296 1.87852,1.60676 2.03917,4.76348 0.1882,6.63472 z"
     stroke="#a88771"
     stroke-width="9.11722"
     stroke-linecap="round"
     stroke-linejoin="round"
     class="htQlthQL_27"
     id="path2677"
     style="fill:none" /></g>

<path
   class="st3"
   d="m 520.2,-27.8 c 0,288.6 -119.6,304.4 -267.8,304.4 -148.2,0 -267.7,-15.8 -267.7,-304.4 0,-168.1 119.6,-304.4 267.8,-304.4 148.2,0 267.7,136.3 267.7,304.4 z"
   clip-path="url(#SVGID_2_)"
   id="path12"
   style="opacity:0.41;fill:#f74700;fill-opacity:1" /><g
   id="g3190"
   transform="translate(-13.68667,-93.37576)"><path
     d="m 437.27075,558.44526 c -4.23258,3.23513 -8.37476,-0.33944 -13.63305,0.51717 -5.34125,0.87184 -8.35222,6.13236 -13.29334,3.92201 -4.58051,-2.05178 -3.26698,-7.18259 -6.18871,-11.26317 -3.46878,-4.84362 -10.02052,-5.09331 -10.54096,-11.02793 -0.47814,-5.48974 5.32662,-6.97101 7.12673,-12.17766 1.46868,-4.23864 -0.95164,-7.9222 1.98573,-11.31124 3.77621,-4.35772 8.99512,-0.76228 14.63447,-1.9685 5.02926,-1.07596 7.75831,-5.19155 12.65876,-3.63137 5.68953,1.8109 4.33831,8.34317 8.16661,12.9251 3.19884,3.82838 8.37115,3.92297 9.22339,8.83878 0.88314,5.09246 -4.26847,6.89513 -6.22964,11.67684 -2.08239,5.07814 0.44916,10.1645 -3.90999,13.49997 z"
     stroke="#f74700"
     stroke-width="8.44187"
     stroke-linecap="round"
     stroke-linejoin="round"
     class="htQlthQL_33"
     id="path2689"
     style="fill:none" /><path
     d="m 433.63595,553.62654 c -3.33679,2.55463 -6.58068,-0.23635 -10.71668,0.45239 -4.20167,0.69934 -6.58471,4.84073 -10.45898,3.1206 -3.59484,-1.59574 -2.54536,-5.62452 -4.83035,-8.81611 -2.71065,-3.7886 -7.86128,-3.96275 -8.24855,-8.61756 -0.35992,-4.30486 4.20741,-5.48567 5.64203,-9.57744 1.1656,-3.32926 -0.72398,-6.21149 1.59579,-8.8799 2.98301,-3.43134 7.07349,-0.62774 11.50996,-1.5924 3.95651,-0.86018 6.11492,-4.09818 9.96206,-2.89026 4.46588,1.40219 3.38233,6.53151 6.37677,10.11367 2.50166,2.993 6.56666,3.05043 7.22067,6.90418 0.67788,3.99243 -3.37773,5.42347 -4.9346,9.18163 -1.65356,3.98963 0.32016,7.97394 -3.11812,10.6012 z"
     stroke="#f74700"
     stroke-width="8.44187"
     stroke-linecap="round"
     stroke-linejoin="round"
     class="htQlthQL_34"
     id="path2691"
     style="fill:none" /><path
     d="m 430.36184,549.75995 c -2.55369,1.95325 -5.0222,-0.16452 -8.17977,0.37391 -3.2088,0.54167 -5.03824,3.70271 -7.99115,2.40341 -2.74019,-1.20598 -1.92816,-4.28003 -3.66181,-6.70693 -2.06154,-2.87951 -5.99145,-2.999 -6.27407,-6.54569 -0.26347,-3.2795 3.22578,-4.19137 4.32903,-7.31234 0.89882,-2.54007 -0.53617,-4.73167 1.24113,-6.7709 2.28523,-2.62245 5.3999,-0.49638 8.78841,-1.24281 3.02175,-0.66565 4.67724,-3.13859 7.60994,-2.22786 3.40476,1.05727 2.56504,4.96867 4.84099,7.69074 1.90155,2.27459 5.00395,2.30783 5.49326,5.24295 0.50706,3.04047 -2.59174,4.14138 -3.78943,7.00904 -1.27178,3.04517 0.22365,6.07427 -2.40653,8.08648 z"
     stroke="#b8cdb4"
     stroke-width="4.72745"
     stroke-linecap="round"
     stroke-linejoin="round"
     class="htQlthQL_35"
     id="path2693"
     style="fill:none" /><path
     d="m 428.39982,547.00655 c -2.00181,1.5327 -3.9273,-0.11496 -6.39864,0.31126 -2.51046,0.43286 -3.9493,2.90543 -6.2558,1.89718 -2.13858,-0.93474 -1.49685,-3.33705 -2.84765,-5.22749 -1.60288,-2.24415 -4.67485,-2.3282 -4.88876,-5.09659 -0.2,-2.55992 2.53176,-3.28106 3.40319,-5.72115 0.70918,-1.9862 -0.40739,-3.69399 0.98778,-5.29103 1.79368,-2.05376 4.22422,-0.40124 6.87642,-0.99269 2.36487,-0.52739 3.66556,-2.46268 5.95728,-1.7588 2.66008,0.81702 1.9934,3.87381 3.76645,5.9937 1.48181,1.77144 3.90796,1.78976 4.2834,4.08069 0.38877,2.37335 -2.03738,3.24087 -2.98134,5.48331 -1.00249,2.38152 0.15974,4.74374 -1.90233,6.32161 z"
     stroke="#b8cdb4"
     stroke-width="4.72745"
     stroke-linecap="round"
     stroke-linejoin="round"
     class="htQlthQL_36"
     id="path2695"
     style="fill:none" /><path
     d="m 426.59244,544.99338 c -1.56683,1.19906 -3.0753,-0.0926 -5.01032,0.23992 -1.9658,0.33761 -3.0912,2.27347 -4.89759,1.48255 -1.67559,-0.73333 -1.17434,-2.61487 -2.23313,-4.09658 -1.25643,-1.75877 -3.66317,-1.82599 -3.8321,-3.99466 -0.15645,-2.00596 1.98175,-2.5691 2.66288,-4.47996 0.554,-1.55553 -0.32128,-2.89379 0.77002,-4.14408 1.40351,-1.60766 3.30785,-0.31161 5.38403,-0.77353 1.85184,-0.41195 2.8694,-1.92704 4.664,-1.37452 2.08385,0.64177 1.56328,3.03574 2.95315,4.69757 1.16109,1.38858 3.06108,1.4042 3.35634,3.19888 0.30592,1.85928 -1.59347,2.53742 -2.33142,4.29361 -0.78372,1.86459 0.12795,3.71573 -1.48586,4.9508 z"
     stroke="#b8cdb4"
     stroke-width="4.72745"
     stroke-linecap="round"
     stroke-linejoin="round"
     class="htQlthQL_37"
     id="path2697"
     style="fill:none" /><path
     d="m 424.14124,541.52855 c -2.54176,2.05389 -6.46015,1.45552 -8.20892,-1.12045 -1.6631,-2.4493 -1.18055,-5.65182 1.25784,-7.57873 2.42805,-1.91854 5.6083,-1.66914 7.62133,0.48399 2.11971,2.26682 1.86351,6.16799 -0.67025,8.21519 z"
     stroke="#f74700"
     stroke-width="8.77955"
     stroke-linecap="round"
     stroke-linejoin="round"
     class="htQlthQL_38"
     id="path2699"
     style="fill:none" /><path
     d="m 419.2616,538.0551 c 0.51965,0.76514 1.62572,0.91379 2.34526,0.33225 0.71583,-0.57845 0.808,-1.67742 0.17934,-2.34973 -0.58171,-0.62231 -1.50789,-0.67758 -2.17641,-0.14957 -0.67246,0.53152 -0.8297,1.45811 -0.34819,2.16705 z"
     stroke="#b8cdb4"
     stroke-width="3.37675"
     stroke-linecap="round"
     stroke-linejoin="round"
     class="htQlthQL_39"
     id="path2701"
     style="fill:none" /></g><g
   id="g3279"
   transform="translate(-252.94024,-284.2178)"><path
     d="m 312.95667,357.32049 c -4.66864,2.564 -8.22869,-1.58955 -13.55488,-1.53173 -5.41316,0.0594 -9.17767,4.81047 -13.73056,1.88327 -4.21988,-2.7151 -2.15292,-7.59123 -4.42818,-12.06421 -2.70542,-5.30861 -9.1457,-6.53834 -8.77056,-12.4836 0.35119,-5.49976 6.30997,-6.0931 8.87278,-10.97135 2.08596,-3.9702 0.24721,-7.97529 3.65902,-10.88527 4.38795,-3.74207 9.00765,0.59565 14.76661,0.24813 5.133,-0.30915 8.44874,-3.96912 13.05836,-1.69127 5.35435,2.64359 3.03834,8.8995 6.13643,14.0036 2.58998,4.26456 7.68924,5.13417 7.79509,10.12168 0.10872,5.16783 -5.25609,6.17743 -7.91344,10.61151 -2.81828,4.70759 -1.07869,10.11697 -5.89067,12.75924 z"
     stroke="#b8cdb4"
     stroke-width="8.44187"
     stroke-linecap="round"
     stroke-linejoin="round"
     class="htQlthQL_40"
     id="path2703"
     style="fill:none" /><path
     d="m 310.08738,352.01349 c -3.68108,2.02252 -6.46973,-1.22219 -10.66231,-1.16084 -4.25884,0.062 -7.2366,3.79605 -10.81207,1.51587 -3.31451,-2.11518 -1.67263,-5.94227 -3.45239,-9.44018 -2.10909,-4.1529 -7.17603,-5.09759 -6.86199,-9.75748 0.28897,-4.30988 4.98377,-4.79316 7.01304,-8.62267 1.65374,-3.11745 0.2166,-6.24992 2.91001,-8.54021 3.46529,-2.94529 7.08867,0.44003 11.619,0.15184 4.04218,-0.25737 6.66215,-3.13487 10.28312,-1.3633 4.20421,2.05647 2.36599,6.9643 4.78828,10.95532 2.02601,3.33405 6.03615,4.00083 6.10443,7.90874 0.0711,4.04908 -4.15257,4.85535 -6.2573,8.33801 -2.23251,3.69729 -0.87793,7.9307 -4.67182,10.0149 z"
     stroke="#b8cdb4"
     stroke-width="8.44187"
     stroke-linecap="round"
     stroke-linejoin="round"
     class="htQlthQL_41"
     id="path2705"
     style="fill:none" /><path
     d="m 307.43153,347.69877 c -2.81868,1.54882 -4.94349,-0.9145 -8.14482,-0.85901 -3.2534,0.0569 -5.53817,2.90677 -8.25979,1.17773 -2.52702,-1.60289 -1.26691,-4.51944 -2.61582,-7.17913 -1.60431,-3.15619 -5.47162,-3.86403 -5.22325,-7.41212 0.23221,-3.28226 3.81907,-3.66024 5.37881,-6.58052 1.26845,-2.37657 0.17919,-4.7587 2.2415,-6.50792 2.65508,-2.25066 5.41321,0.31914 8.87544,0.0892 3.08782,-0.20511 5.09665,-2.40182 7.85753,-1.0612 3.21,1.55553 1.79323,5.29643 3.63374,8.32955 1.53895,2.53395 4.60199,3.0322 4.64419,6.00777 0.0462,3.08181 -3.1813,3.70505 -4.79775,6.36155 -1.71265,2.81931 -0.68899,6.03949 -3.58978,7.63409 z"
     stroke="#f74700"
     stroke-width="4.72745"
     stroke-linecap="round"
     stroke-linejoin="round"
     class="htQlthQL_42"
     id="path2707"
     style="fill:none" /><path
     d="m 305.90304,344.68203 c -2.20907,1.21453 -3.86601,-0.70295 -6.37299,-0.65243 -2.54848,0.0522 -4.33932,2.27965 -6.46788,0.93741 -1.97653,-1.24455 -0.98256,-3.52345 -2.03407,-5.59512 -1.24635,-2.45959 -4.27265,-3.00334 -4.07063,-5.77201 0.19101,-2.56191 2.99755,-2.86436 4.22492,-5.14637 0.99861,-1.85715 0.15164,-3.71339 1.77032,-5.08296 2.08012,-1.76099 4.23749,0.2367 6.94907,0.0495 2.41649,-0.16646 3.99081,-1.88422 6.15342,-0.84545 2.50497,1.20748 1.38952,4.12896 2.82312,6.49153 1.20001,1.9735 3.59566,2.35552 3.62332,4.67671 0.0291,2.40471 -2.49905,2.89823 -3.77107,4.97442 -1.34631,2.20341 -0.55133,4.71368 -2.82753,5.96473 z"
     stroke="#f74700"
     stroke-width="4.72745"
     stroke-linecap="round"
     stroke-linejoin="round"
     class="htQlthQL_43"
     id="path2709"
     style="fill:none" /><path
     d="m 304.41944,342.4199 c -1.7308,0.95109 -3.02856,-0.55224 -4.99007,-0.51433 -1.99597,0.0398 -3.39872,1.78466 -5.06528,0.73148 -1.54797,-0.97588 -0.76792,-2.76153 -1.59442,-4.38484 -0.97791,-1.92743 -3.3473,-2.35495 -3.18763,-4.52497 0.14416,-2.0061 2.34283,-2.2418 3.30411,-4.02951 0.78136,-1.4546 0.11546,-2.90909 1.38373,-3.98165 1.62671,-1.37871 3.31551,0.18799 5.43716,0.0432 1.89158,-0.12929 3.12519,-1.47469 4.81879,-0.65984 1.96325,0.94711 1.09075,3.23577 2.21278,5.08787 0.94218,1.54617 2.81626,1.84737 2.83858,3.66588 0.0258,1.88365 -1.95436,2.2695 -2.94851,3.89543 -1.05471,1.72605 -0.42982,3.69284 -2.20924,4.67129 z"
     stroke="#f74700"
     stroke-width="4.72745"
     stroke-linecap="round"
     stroke-linejoin="round"
     class="htQlthQL_44"
     id="path2711"
     style="fill:none" /><path
     d="m 302.51512,338.62675 c -2.82303,1.64997 -6.60695,0.47056 -7.95043,-2.33846 -1.27514,-2.67141 -0.31782,-5.76552 2.3811,-7.30463 2.6901,-1.5329 5.79609,-0.80914 7.4646,1.62123 1.75546,2.55915 0.9155,6.37832 -1.89527,8.02186 z"
     stroke="#b8cdb4"
     stroke-width="8.77955"
     stroke-linecap="round"
     stroke-linejoin="round"
     class="htQlthQL_45"
     id="path2713"
     style="fill:none" /><path
     d="m 298.21063,334.46082 c 0.39854,0.835 1.47148,1.14705 2.26938,0.6805 0.79489,-0.4647 1.04937,-1.53724 0.52794,-2.29597 -0.4819,-0.70254 -1.38691,-0.89668 -2.12682,-0.47468 -0.74618,0.42472 -1.03859,1.31656 -0.6705,2.09015 z"
     stroke="#f74700"
     stroke-width="3.37675"
     stroke-linecap="round"
     stroke-linejoin="round"
     class="htQlthQL_46"
     id="path2715"
     style="fill:none" /></g>





<path
   id="path3951"
   style="color:#000000;fill:#a88771;stroke-linecap:round;stroke-linejoin:round;-inkscape-stroke:none"
   d="M 117.33398 313.05469 A 5.0651002 5.0651002 0 0 0 113.60742 319.17188 C 113.60742 319.17188 130.32476 389.16415 155.01953 429.03711 C 163.42225 442.60487 169.4948 454.89175 177.35352 466 C 185.21223 477.10825 194.98899 486.93719 210.12695 494.76562 A 5.0656067 5.0656067 0 0 0 210.12695 494.76758 C 212.32917 495.90626 214.48468 496.96636 216.64648 498.03516 C 219.08364 495.23492 221.04697 493.01269 223.53516 490.14648 C 220.68419 488.77799 217.77472 487.31539 214.78125 485.76758 C 201.09384 478.68928 192.85059 470.36648 185.62305 460.15039 C 178.39551 449.9343 172.31477 437.72492 163.63086 423.70312 C 140.69628 386.67222 123.45117 316.7832 123.45117 316.7832 A 5.0651002 5.0651002 0 0 0 117.33398 313.05469 z " /><g
   id="g3181"
   transform="rotate(43.337693,241.34191,483.45048)"><path
     d="m 198.12476,551.61405 c -2.21147,-12.16735 3.67985,-14.96948 3.67985,-14.96948 0,0 -8.95503,-12.2849 -13.82559,-11.15288 -5.06475,1.17706 -4.76374,8.96735 -7.76324,10.81982 -2.9995,1.85248 -5.2438,-19.57013 -17.46113,-22.76386 -10.31177,-2.69682 2.82605,21.94982 -4.39302,18.83124 -9.48859,-4.09969 -13.25377,-33.15528 -29.37027,-31.98315 -16.37372,1.1907 0.2553,22.47994 -4.65124,30.26199 -10.34989,16.41797 -20.73996,-18.03985 -27.586373,-13.58346 -4.402524,2.86571 -0.369054,13.46989 -8.115117,16.68229 -8.337587,3.45761 -14.369415,-2.0927 -14.840685,3.97655 -0.704055,9.04928 16.148586,10.18085 21.508548,15.03722 5.359957,4.85636 -3.671277,13.04445 3.601248,19.31108 7.508379,6.46841 10.411119,-9.41817 21.192409,-3.75576 2.64447,1.38893 -5.44246,14.97996 6.09121,18.81868 18.03923,6.0036 18.00952,-27.28518 33.64369,-23.17306 9.83854,2.58765 6.29104,17.34652 15.62266,13.29326 8.37965,-3.63982 2.07471,-20.30757 3.85066,-26.72641 1.85551,-6.70899 20.06073,7.92477 18.81639,1.07593 z"
     stroke="#b53a25"
     stroke-width="8.44187"
     stroke-linecap="round"
     stroke-linejoin="round"
     class="htQlthQL_56"
     id="path2735"
     style="fill:none" /><path
     d="m 194.66049,549.73582 c -1.81852,-10.17897 2.67294,-14.85245 2.67294,-14.85245 0,0 -7.04988,-7.94067 -11.65077,-6.88511 -4.78212,1.09678 -4.66553,7.63778 -7.52418,9.25919 -2.85548,1.62021 -4.50678,-16.33678 -15.91646,-18.76038 -9.634,-2.04606 2.1862,18.38768 -4.52972,15.9205 -8.82897,-3.24271 -11.74649,-27.58226 -26.91218,-26.25379 -15.4082,1.34974 -0.23885,18.88749 -5.01641,25.53309 -10.07316,14.01942 -19.09875,-14.7198 -25.62791,-10.8277 -4.19593,2.50167 -0.635073,11.32897 -7.978018,14.1932 -7.906484,3.0834 -13.456648,-1.45212 -14.027513,3.65833 -0.856025,7.62103 14.953417,8.21235 19.886331,12.17948 4.93291,3.96713 -3.728879,11.04208 2.97189,16.1534 6.91301,5.27713 9.98176,-8.13725 19.99081,-3.60859 2.4546,1.11085 -5.43295,12.70615 5.31855,15.68717 16.8228,4.66026 17.50333,-23.31634 32.10328,-20.19365 9.18926,1.96492 5.54149,14.44478 14.39524,10.83909 7.94911,-3.23745 2.38215,-17.11188 4.18812,-22.54453 1.88694,-5.67844 18.67748,6.23285 17.656,0.50275 z"
     stroke="#b53a25"
     stroke-width="9.11722"
     stroke-linecap="round"
     stroke-linejoin="round"
     class="htQlthQL_57"
     id="path2737"
     style="fill:none" /><path
     d="m 189.47279,534.28906 c 0.41453,0.32067 0.81345,0.64831 1.18218,0.96762 -0.18729,0.39697 -0.37271,0.82701 -0.54921,1.29031 -0.84263,2.20444 -1.46954,5.08347 -1.37258,8.6418 -0.41536,-0.14111 -0.86267,-0.29707 -1.34837,-0.46583 -0.0844,-0.0281 -0.16903,-0.0568 -0.25381,-0.0862 -2.01155,-0.69679 -4.65575,-1.60197 -6.98671,-1.87304 -1.16566,-0.13618 -2.70411,-0.17632 -4.21094,0.35818 -1.7336,0.61449 -3.21445,1.9244 -3.90385,3.91789 -0.76254,2.20326 -0.67259,4.8091 -0.54751,6.77627 0.0635,0.96776 0.13823,1.8336 0.21053,2.66442 0.10608,1.21785 0.20272,2.36133 0.24523,3.64201 0.0684,2.02955 -0.0725,3.49991 -0.42577,4.50384 -0.28932,0.81201 -0.64933,1.19059 -1.29948,1.45184 -0.38517,0.15425 -0.66323,0.23854 -0.85389,0.28369 -0.13151,-0.21682 -0.35258,-0.61134 -0.67416,-1.30266 -0.0798,-0.16739 -0.1639,-0.35076 -0.25176,-0.54816 -1.19295,-2.62562 -3.46485,-7.63403 -9.87872,-8.93481 -5.13114,-1.04076 -9.1565,0.68841 -12.26406,3.37703 -2.56251,2.21782 -4.68842,5.26917 -6.46648,7.8183 -0.18878,0.27397 -0.37878,0.54337 -0.56066,0.80395 -2.07417,2.95744 -3.78917,5.19392 -5.72043,6.5581 -1.64642,1.16165 -3.50945,1.73671 -6.36912,0.97981 -1.78393,-0.47358 -2.16794,-1.09782 -2.27833,-1.30107 -0.19921,-0.36508 -0.35068,-1.04778 -0.22104,-2.3253 0.0926,-0.90683 0.25171,-1.6308 0.43494,-2.47346 0.10457,-0.48388 0.21944,-1.00757 0.33303,-1.62741 0.11926,-0.63779 0.29338,-1.67098 0.19687,-2.70961 -0.0973,-1.09366 -0.6407,-3.29134 -2.9924,-4.31824 -3.34105,-1.45749 -6.39249,-1.5341 -9.13926,-0.72154 -2.54269,0.75227 -4.58693,2.21664 -5.97822,3.22149 -1.66704,1.20214 -2.34495,1.67289 -2.92259,1.85249 -0.003,10e-4 -0.009,0.005 -0.0152,0.009 -0.044,0.0314 -0.16465,0.11613 -0.76165,-0.32449 -0.78101,-0.5794 -0.8302,-0.93259 -0.85974,-1.12114 l 0.002,-0.006 c -0.0657,-0.46693 0.0146,-1.15895 0.37247,-2.55006 0.0382,-0.14448 0.0789,-0.3057 0.12906,-0.4838 0.30004,-1.12426 0.76545,-2.85777 0.79056,-4.48623 0.0379,-2.32442 -0.74902,-4.81762 -3.17593,-6.71232 -1.857583,-1.45296 -4.401139,-2.37392 -6.49193,-3.05333 -1.133698,-0.36918 -2.114175,-0.6623 -3.056441,-0.94329 -1.166693,-0.34881 -2.275983,-0.67908 -3.542662,-1.11401 -1.316947,-0.45292 -2.362234,-0.88355 -3.155402,-1.29958 2.35701,0.0812 5.740385,0.0137 9.499065,-1.43218 2.668559,-1.02617 4.530651,-2.67456 5.77184,-4.67012 1.16799,-1.87736 1.66093,-3.87344 1.96496,-5.37423 0.1303,-0.64878 0.22534,-1.16822 0.30647,-1.60911 0.0936,-0.52465 0.1681,-0.93824 0.26304,-1.32759 0.1151,0.1034 0.23731,0.22027 0.37024,0.35106 0.77622,0.75722 1.62931,1.73611 2.62582,2.92407 0.19931,0.23501 0.40441,0.4786 0.61153,0.72969 0.80151,0.956 1.67622,2.00251 2.56234,2.98723 2.08223,2.31742 5.04527,5.29971 8.70205,6.27861 2.02968,0.54267 4.22079,0.46141 6.37808,-0.51586 2.0638,-0.93474 3.81024,-2.55808 5.32801,-4.60433 2.33804,-3.15993 1.91158,-7.04773 1.4061,-9.63872 -0.28113,-1.42754 -0.68027,-2.878 -1.04931,-4.19005 -0.0582,-0.20429 -0.1155,-0.40498 -0.16873,-0.60362 -0.31887,-1.12483 -0.61031,-2.14724 -0.84629,-3.14535 -0.60737,-2.56683 -0.51783,-3.71999 -0.31748,-4.17255 l -2.6e-4,-9.8e-4 c 0.0327,-0.0738 0.0804,-0.1827 0.36858,-0.34662 0.36387,-0.20762 1.14661,-0.50894 2.65849,-0.64626 4.65837,-0.42354 7.8208,2.71578 11.47747,8.79553 0.59239,0.98442 1.24161,2.12876 1.91197,3.31287 1.09746,1.93001 2.25134,3.96621 3.31405,5.5839 1.76016,2.66801 4.20366,5.77273 7.77887,7.03428 1.25838,0.4431 3.84165,1.00348 5.95732,-0.93799 1.76177,-1.61835 1.82795,-3.8633 1.82418,-4.72542 -0.002,-1.14392 -0.20139,-2.36938 -0.39308,-3.39789 -0.1166,-0.63087 -0.27078,-1.36285 -0.41412,-2.05437 -0.0856,-0.4109 -0.16741,-0.80744 -0.23722,-1.1593 -0.18708,-0.91997 -0.33253,-1.73679 -0.41591,-2.45242 2.82076,1.10747 4.89269,3.94749 6.72141,7.70636 0.48996,1.00662 0.92692,1.99808 1.35115,2.96813 0.0258,0.0571 0.0515,0.11413 0.0742,0.17272 0.38497,0.8757 0.78604,1.79846 1.17764,2.58148 0.36747,0.73216 0.96599,1.85687 1.85466,2.72065 0.47818,0.46686 1.29324,1.1081 2.46237,1.38773 1.29972,0.31037 2.54648,0.0578 3.55065,-0.50007 l -2.05441,-3.68791 2.05441,3.68791 c 1.7341,-0.96491 2.73047,-2.47816 3.31446,-3.5212 0.38341,-0.6827 0.80386,-1.59241 1.12314,-2.2796 0.12418,-0.26715 0.23297,-0.50046 0.31607,-0.67305 0.824,-1.69989 1.22981,-1.90756 1.53446,-1.98395 0.0185,0.004 0.34184,-0.003 1.08314,0.324 0.8478,0.37203 1.82984,0.99719 2.83017,1.76882 z m 2.6512,11.83838 c 7.8e-4,0.003 -0.0339,0.004 -0.11303,-0.004 0.0693,-0.002 0.11215,0.001 0.11303,0.004 z m -23.11296,20.2811 c -4.3e-4,-0.002 0.0235,-0.004 0.0601,0.002 -0.0414,0.002 -0.0629,7e-5 -0.0601,-0.002 z m -85.770705,-25.1657 c 0.0022,-0.005 0.0016,-0.007 0.0016,-0.007 0,0 6.12e-4,0.002 -0.0016,0.007 z m 19.768195,-14.08093 c 1.8e-4,6.5e-4 -0.005,0.008 -0.0155,0.0206 0.01,-0.0152 0.0152,-0.0216 0.0155,-0.0206 z m 57.48627,-3.95234 c -9e-5,-3.3e-4 0.007,-7.7e-4 0.0207,-10e-4 -0.0137,10e-4 -0.0206,10e-4 -0.0207,10e-4 z"
     stroke="#b53a25"
     stroke-width="8.44187"
     stroke-linecap="round"
     stroke-linejoin="round"
     class="htQlthQL_58"
     id="path2739"
     style="fill:none" /><path
     d="m 149.50799,534.95432 c -6.6e-4,0.10191 -0.0138,0.0789 -0.002,-0.0318 -2.1e-4,0.0123 -8.5e-4,0.023 0.002,0.0318 z m 27.67396,1.85513 c 0.064,0.0433 0.12165,0.0887 0.18252,0.13322 -0.0257,0.0607 -0.0513,0.12177 -0.0766,0.18379 -0.62689,1.52227 -1.11759,3.42231 -1.2255,5.69418 -0.0572,-0.0179 -0.11463,-0.0364 -0.17204,-0.0549 l -0.0762,-0.0233 c -1.47981,-0.47361 -3.48576,-1.11038 -5.33171,-1.34569 1.1931,-0.8182 1.92155,-1.88316 2.36348,-2.6214 0.33035,-0.55451 0.71616,-1.33259 0.97464,-1.85527 0.0911,-0.18173 0.16609,-0.33256 0.21635,-0.43202 0.32105,-0.6153 0.51476,-0.88395 0.64341,-1.01701 0.006,-0.005 0.0112,-0.0103 0.0136,-0.0145 0.0896,0.0214 0.24091,0.0641 0.4571,0.15335 0.57717,0.23618 1.28312,0.65286 2.0309,1.19956 z m 2.28086,6.97278 c 0.0698,-5.2e-4 0.11285,0.004 0.11364,0.007 7.9e-4,0.003 -0.0341,0.003 -0.11364,-0.007 z m -15.26189,-2.78801 c 0.34802,0.32031 0.87163,0.72187 1.57363,1.00641 -1.24102,0.61325 -2.3289,1.66754 -2.90465,3.21107 -0.71768,1.91402 -0.64428,4.10583 -0.56095,5.57799 0.0444,0.79181 0.0974,1.4593 0.14932,2.08373 0.0716,0.88031 0.13487,1.67754 0.15731,2.6224 0.0358,1.47721 -0.0934,2.40431 -0.30181,2.95727 -0.13556,0.35514 -0.24619,0.46414 -0.56266,0.58775 -0.003,10e-4 -0.006,0.003 -0.0127,0.005 -0.0323,-0.0683 -0.0696,-0.14218 -0.10877,-0.22326 -0.0601,-0.11989 -0.12085,-0.25533 -0.19146,-0.40142 -0.93458,-2.00057 -2.90566,-6.21246 -8.44899,-7.22598 -4.30406,-0.78519 -7.70561,0.63665 -10.32764,2.8019 -2.13555,1.76291 -3.91295,4.17097 -5.33089,6.09399 -0.15693,0.2102 -0.30838,0.41473 -0.4517,0.61045 -1.6761,2.25123 -2.9689,3.83238 -4.38352,4.78929 -1.15107,0.77932 -2.43737,1.18446 -4.4823,0.68923 -0.76592,-0.18386 -1.07508,-0.38524 -1.17929,-0.47407 -0.0189,-0.0705 -0.0822,-0.34608 -0.004,-1.00547 0.0739,-0.62425 0.18303,-1.07822 0.32384,-1.66166 0.09,-0.3688 0.19069,-0.78872 0.30288,-1.33547 0.098,-0.48246 0.27943,-1.40995 0.19766,-2.38051 -0.0912,-1.0841 -0.65554,-3.22933 -2.98962,-4.1774 -2.80871,-1.14077 -5.39075,-1.17466 -7.71274,-0.499 -2.14366,0.62369 -3.86096,1.80783 -4.9729,2.57667 -1.18587,0.81906 -1.67068,1.13634 -1.99113,1.27115 -0.0247,-0.014 -0.0504,-0.0316 -0.0802,-0.0516 -0.0955,-0.0695 -0.16194,-0.12161 -0.20327,-0.15843 0.002,-0.0562 0.009,-0.13759 0.0276,-0.24931 0.0426,-0.27151 0.12122,-0.6044 0.2568,-1.08995 0.0277,-0.0924 0.0581,-0.20083 0.0948,-0.32465 0.24354,-0.8263 0.67828,-2.30897 0.7198,-3.70656 0.0268,-0.93078 -0.0953,-2.03877 -0.60148,-3.1711 -0.51572,-1.15493 -1.32379,-2.09624 -2.3138,-2.82939 -1.61182,-1.1881 -3.75911,-1.89572 -5.3935,-2.38524 -0.94235,-0.28131 -1.71958,-0.49431 -2.45885,-0.69615 -0.113493,-0.0322 -0.230075,-0.0628 -0.343395,-0.0943 0.895075,-0.18215 1.836215,-0.44027 2.808335,-0.80458 2.2525,-0.84372 3.88533,-2.1996 4.99969,-3.8857 1.0448,-1.58041 1.48767,-3.24146 1.74959,-4.41668 0.0614,-0.27969 0.11505,-0.52305 0.15921,-0.73659 0.37007,0.38956 0.77401,0.84031 1.22997,1.35474 0.15064,0.17078 0.30699,0.34983 0.46835,0.53452 0.6283,0.71401 1.32883,1.51493 2.0367,2.26495 1.64137,1.74197 4.13781,4.1571 7.29541,4.92996 1.75787,0.42847 3.64954,0.33865 5.51054,-0.47882 1.78612,-0.78378 3.28121,-2.11884 4.56611,-3.75555 2.17749,-2.78061 1.78692,-6.15609 1.39307,-8.17395 -0.22222,-1.1294 -0.54002,-2.26325 -0.8214,-3.24815 -0.0454,-0.15634 -0.0865,-0.30997 -0.13002,-0.45913 -0.24397,-0.8453 -0.45559,-1.58286 -0.6275,-2.30274 -0.33003,-1.38823 -0.32449,-2.03295 -0.30328,-2.26691 0.22456,-0.11436 0.73938,-0.29356 1.7889,-0.39509 3.20629,-0.31097 5.39212,1.59729 8.18158,6.05835 0.42187,0.67423 0.90896,1.50054 1.42582,2.3727 0.87201,1.48002 1.82179,3.09372 2.66527,4.32374 1.40803,2.04535 3.48524,4.60498 6.6075,5.62433 1.08774,0.35423 3.44458,0.83929 5.43251,-0.90049 1.73035,-1.51381 1.8141,-3.61489 1.8187,-4.35445 0.009,-0.98503 -0.15575,-2.00335 -0.30277,-2.78688 -0.0876,-0.48344 -0.21214,-1.06568 -0.32305,-1.59705 -0.0568,-0.27737 -0.1101,-0.54137 -0.1571,-0.76895 1.25248,0.9299 2.31426,2.45277 3.33705,4.48249 0.36652,0.72856 0.69605,1.44956 1.02389,2.1773 0.0192,0.0455 0.0385,0.0914 0.0611,0.13674 0.29251,0.64807 0.61499,1.36885 0.93417,1.986 0.29349,0.5604 0.83387,1.55946 1.67998,2.3427 z m -3.16479,18.26162 c 0,0 0.007,-0.001 0.0206,-0.001 -0.0136,0.002 -0.0205,0.002 -0.0206,0.001 z m -34.24296,6.40245 c -8e-5,-3.3e-4 0.0134,0.0108 0.0311,0.0378 -0.0237,-0.0234 -0.0342,-0.0363 -0.0311,-0.0378 z m -16.66935,-7.08835 c 0,0 -2.7e-4,-9.8e-4 -0.004,-0.003 0.004,10e-4 0.004,0.003 0.004,0.003 z m -0.48601,-0.35256 c 9e-5,3.3e-4 0.005,0.005 0.0107,0.0139 -0.009,-0.009 -0.0107,-0.0139 -0.0107,-0.0139 z M 129.87753,522.399 c -0.004,-0.003 0.0141,-0.0258 0.0709,-0.0616 -0.0366,0.0462 -0.0666,0.0644 -0.0709,0.0616 z m 24.92035,6.47791 c -9e-5,-3.3e-4 0.007,-1.2e-4 0.0213,0.001 -0.014,-9e-5 -0.0212,-9.6e-4 -0.0213,-0.001 z m 19.97141,6.53462 c -0.01,0.002 -0.0198,0.004 -0.0298,0.006 0.006,-0.003 0.01,-0.003 0.0164,-0.004 0.003,-5.5e-4 0.007,-7.7e-4 0.0134,-0.002 z"
     stroke="#b53a25"
     stroke-width="8.44187"
     stroke-linecap="round"
     stroke-linejoin="round"
     class="htQlthQL_59"
     id="path2741"
     style="fill:none" /><path
     d="m 174.50142,550.44632 c -1.07896,-6.03596 1.58677,-8.80791 1.58677,-8.80791 0,0 -4.18077,-4.70878 -6.91101,-4.08244 -2.83567,0.6504 -2.76477,4.52894 -4.46133,5.49044 -1.69321,0.96094 -2.67269,-9.68756 -9.43788,-11.12529 -5.71224,-1.21332 1.29617,10.90414 -2.68607,9.44122 -5.23477,-1.92332 -6.96611,-16.35635 -15.95966,-15.56861 -9.13701,0.8003 -0.1416,11.20059 -2.9732,15.1409 -5.9769,8.31463 -11.3267,-8.72861 -15.19711,-6.42114 -2.48991,1.48415 -0.3777,6.71853 -4.73285,8.41721 -4.69075,1.82916 -7.98103,-0.86094 -8.31912,2.16968 -0.50562,4.51895 8.86659,4.87043 11.79356,7.2223 2.92379,2.35306 -2.20987,6.54769 1.76264,9.57902 4.10013,3.12927 5.91896,-4.8256 11.85444,-2.13986 1.45596,0.65863 -3.2214,7.53468 3.15341,9.30285 9.97648,2.76323 10.37995,-13.82685 19.0389,-11.97539 5.44768,1.16535 3.28469,8.56641 8.53575,6.42771 4.71209,-1.91913 1.4131,-10.1475 2.48312,-13.36899 1.11844,-3.36696 11.07601,3.69637 10.46964,0.2983 z"
     stroke="#b53a25"
     stroke-width="8.44187"
     stroke-linecap="round"
     stroke-linejoin="round"
     class="htQlthQL_60"
     id="path2743"
     style="fill:none" /><path
     d="m 166.23136,549.65478 c -0.78559,-4.40614 1.15801,-6.42875 1.15801,-6.42875 0,0 -3.0499,-3.43691 -5.04245,-2.97991 -2.06826,0.47448 -2.01924,3.30593 -3.25428,4.00672 -1.23822,0.702 -1.9537,-7.06953 -6.89135,-8.11879 -4.17009,-0.8854 0.94724,7.95799 -1.96066,6.89064 -3.81964,-1.40406 -5.08306,-11.93803 -11.64803,-11.363 -6.66746,0.58396 -0.10289,8.17469 -2.17081,11.05109 -4.35914,6.06749 -8.26539,-6.37115 -11.08981,-4.68724 -1.8177,1.08345 -0.2766,4.90401 -3.45433,6.14352 -3.42144,1.33453 -5.82469,-0.6284 -6.07105,1.58338 -0.37118,3.29853 6.47234,3.55429 8.60697,5.27141 2.13462,1.71713 -1.61408,4.77891 1.28596,6.99116 2.99267,2.28392 4.32104,-3.52208 8.65321,-1.56212 1.06227,0.48096 -2.3542,5.5002 2.3017,6.78961 7.28058,2.01733 7.574,-10.09092 13.89306,-8.73955 3.97881,0.84996 2.3988,6.25179 6.23156,4.69099 3.43868,-1.40068 1.03238,-7.40645 1.81136,-9.7571 0.81675,-2.4576 8.08507,2.69742 7.64094,0.21794 z"
     stroke="#b53a25"
     stroke-width="8.44187"
     stroke-linecap="round"
     stroke-linejoin="round"
     class="htQlthQL_61"
     id="path2745"
     style="fill:none" /><path
     d="m 156.43188,548.26974 c -0.50343,-2.80514 0.735,-4.09344 0.735,-4.09344 0,0 -1.94286,-2.18871 -3.21084,-1.8979 -1.31744,0.30197 -1.28522,2.10524 -2.07435,2.55231 -0.78587,0.4462 -1.24158,-4.50315 -4.38848,-5.17085 -2.65419,-0.56411 0.60293,5.06826 -1.2469,4.38791 -2.43155,-0.89434 -3.23638,-7.6033 -7.41711,-7.23679 -4.24903,0.37258 -0.0662,5.20632 -1.38285,7.03785 -2.7784,3.86489 -5.26469,-4.05721 -7.06431,-2.98455 -1.15757,0.68982 -0.17362,3.12253 -2.19931,3.91247 -2.1808,0.85038 -3.70808,-0.40057 -3.86549,1.00814 -0.23758,2.10105 4.11998,2.26397 5.47924,3.35754 1.35935,1.09389 -1.02682,3.04351 0.81906,4.45276 1.90683,1.45409 2.75154,-2.24295 5.512,-0.99521 0.67641,0.30643 -1.4981,3.5026 1.46627,4.32409 4.63706,1.28432 4.82229,-6.42651 8.84927,-5.56638 2.53284,0.54174 1.52499,3.98219 3.96784,2.98783 2.19049,-0.89248 0.65548,-4.71641 1.15271,-6.21373 0.5209,-1.56554 5.14826,1.71786 4.86825,0.13795 z"
     stroke="#b53a25"
     stroke-width="8.44187"
     stroke-linecap="round"
     stroke-linejoin="round"
     class="htQlthQL_62"
     id="path2747"
     style="fill:none" /><path
     d="m 152.61141,543.41827 c -0.41584,-2.3217 0.60943,-3.38788 0.60943,-3.38788 0,0 -1.60748,-1.81118 -2.65809,-1.57022 -1.09011,0.25014 -1.06435,1.74227 -1.71359,2.1113 -0.65249,0.36991 -1.02978,-3.72579 -3.63202,-4.27864 -2.19803,-0.46644 0.49804,4.19408 -1.03355,3.63157 -2.01269,-0.74019 -2.67871,-6.2918 -6.13872,-5.98836 -3.51472,0.30797 -0.0551,4.3084 -1.14199,5.82317 -2.29979,3.19828 -4.35698,-3.35725 -5.84608,-2.46952 -0.95864,0.57114 -0.14647,2.58458 -1.82077,3.23772 -1.80411,0.70365 -3.07063,-0.33086 -3.19896,0.83409 -0.19495,1.73829 3.41053,1.8734 4.53409,2.77877 1.12681,0.90449 -0.84948,2.51811 0.67949,3.68401 1.57751,1.20358 2.27503,-1.85552 4.55836,-0.82288 0.56075,0.25317 -1.23716,2.89781 1.21389,3.57788 3.83668,1.06319 3.99357,-5.31826 7.32372,-4.60596 2.09525,0.44818 1.26383,3.29461 3.28096,2.4727 1.81563,-0.7389 0.54473,-3.90332 0.95726,-5.14267 0.42914,-1.29484 4.26127,1.42137 4.02657,0.11492 z"
     stroke="#b53a25"
     stroke-width="8.44187"
     stroke-linecap="round"
     stroke-linejoin="round"
     class="htQlthQL_63"
     id="path2749"
     style="fill:none" /><path
     d="m 229.34622,503.74499 c 0,0 -8.54729,37.24891 -83.38911,48.63017 -26.36811,4.00992 -65.816014,-12.49624 -65.816014,-12.49624"
     stroke="#8d1202"
     stroke-width="2.36372"
     stroke-linecap="round"
     stroke-linejoin="round"
     class="htQlthQL_64"
     id="path2751"
     style="fill:none" /><path
     d="m 176.56028,544.83543 c 0,0 -6.99346,-5.51217 -9.27814,-10.47695 -2.32913,-5.06544 -1.86639,-14.15423 -1.86639,-14.15423"
     stroke="#8d1202"
     stroke-width="1.68837"
     stroke-linecap="round"
     stroke-linejoin="round"
     class="htQlthQL_65"
     id="path2753"
     style="fill:none" /><path
     d="m 171.34181,546.90003 c 0,0 -3.51846,6.06072 -3.16527,9.97514 0.36368,3.99272 5.08403,9.37145 5.08403,9.37145"
     stroke="#8d1202"
     stroke-width="1.68837"
     stroke-linecap="round"
     stroke-linejoin="round"
     class="htQlthQL_66"
     id="path2755"
     style="fill:none" /><path
     d="m 160.61136,549.25541 c 0,0 -18.25229,-11.3651 -22.23114,-19.03864 -2.56399,-4.95041 -4.80681,-17.93929 -4.80681,-17.93929"
     stroke="#8d1202"
     stroke-width="1.68837"
     stroke-linecap="round"
     stroke-linejoin="round"
     class="htQlthQL_67"
     id="path2757"
     style="fill:none" /><path
     d="m 147.3823,552.72322 c 0,0 -13.50696,11.57647 -15.33873,17.12161 -1.17791,3.57552 -0.95434,10.02003 -0.95434,10.02003"
     stroke="#8d1202"
     stroke-width="1.68837"
     stroke-linecap="round"
     stroke-linejoin="round"
     class="htQlthQL_68"
     id="path2759"
     style="fill:none" /><path
     d="m 124.28044,551.59684 c 0,0 -16.94709,-10.94294 -20.22991,-17.07567 -2.11586,-3.95636 -3.18867,-11.90027 -3.18867,-11.90027"
     stroke="#8d1202"
     stroke-width="1.68837"
     stroke-linecap="round"
     stroke-linejoin="round"
     class="htQlthQL_69"
     id="path2761"
     style="fill:none" /><path
     d="m 129.01041,552.65385 c 0,0 -16.10597,2.56835 -22.17949,5.94298 -3.91603,2.17636 -6.33017,8.91408 -6.33017,8.91408"
     stroke="#8d1202"
     stroke-width="1.68837"
     stroke-linecap="round"
     stroke-linejoin="round"
     class="htQlthQL_70"
     id="path2763"
     style="fill:none" /></g><path
   d="m 206.38076,354.02937 c 0.16776,-2.28336 5.65604,-4.16296 9.69973,23.70107 4.04686,27.86283 -0.15398,74.23545 1.98438,90.99639 2.13828,16.76061 2.46235,14.7084 4.04023,24.13277 0,0 -2.60283,-1.66403 -5.05852,-13.38595 -2.45577,-11.72224 -3.11789,-15.17179 -3.64919,-28.21829 -0.5313,-13.0465 -0.49993,-53.59613 -2.31068,-69.64325 -1.81084,-16.04744 -4.87362,-25.29906 -4.70595,-27.58274 z"
   stroke="#a88771"
   stroke-width="5.74047"
   stroke-linecap="round"
   stroke-linejoin="round"
   class="htQlthQL_5"
   id="path2633"
   style="fill:none" /></svg>
