<?xml version="1.0" encoding="utf-8"?>
<!-- Generator: Adobe Illustrator 24.3.0, SVG Export Plug-In . SVG Version: 6.00 Build 0)  -->
<svg version="1.1" id="Heart" xmlns="http://www.w3.org/2000/svg" xmlns:xlink="http://www.w3.org/1999/xlink" x="0px" y="0px"
	 viewBox="0 0 512 512" style="enable-background:new 0 0 512 512;" xml:space="preserve">
<style type="text/css">
	.st0{fill:#122147;}
	.st1{opacity:1;fill:#4C92FC;enable-background:new    ;}
	.st2{opacity:.25;fill:#c62cb6;enable-background:new}
	.st3{clip-path:url(#SVGID_2_);fill:#FFFFFF;}
	.st4{fill:#DA0DAE;}
	.st5{fill:#FFE82D;}
  .st6{fill:#96E8FF}
</style>
<path id="Background" class="st0" d="M255.6,107c0,0,33.3-103.8,141.8-103.8c88.7,0.8,174.3,152.2,45.9,319.5
	C312.6,474.8,255.6,508.9,255.6,508.9s-55.5-26.2-183.8-185.5C-58.1,170.4,17.9,1.5,124.1,3.1C230.2,3.9,255.6,107,255.6,107z"/>
<path id="Shade" class="st1" d="M254,212.4c0,0,0.8-189.5,143.4-189.5c86.4,0,137.8,162.5,30.1,287.8C296,464.5,254,486.7,254,486.7
	s-50.7-28.5-167.2-175.2C-22.5,174.4,24.3,22.1,125.7,23.7C255.6,25.3,254,212.4,254,212.4z"/>

<g id="Shine" class="st2">
	<g>
		<g>
			<g>
				<defs>
					<path id="SVGID_1_" d="M254,212.4c0,0,0.8-189.5,143.4-189.5c86.4,0,137.8,162.5,30.1,287.8C296,464.5,254,486.7,254,486.7
						s-50.7-28.5-167.2-175.2C-22.5,174.4,24.3,22.1,125.7,23.7C255.6,25.3,254,212.4,254,212.4z"/>
				</defs>
				<clipPath id="SVGID_2_">
					<use xlink:href="#SVGID_1_"  style="overflow:visible;"/>
				</clipPath>
				<path class="st3" d="M520.2-27.8c0,288.6-119.6,304.4-267.8,304.4S-15.3,260.8-15.3-27.8c0-168.1,119.6-304.4,267.8-304.4
					S520.2-195.9,520.2-27.8z"/>
			</g>
		</g>
	</g>
</g>

<line x1="460" x2="509" y1="100" y2="100" style="stroke:#96E8FF;stroke-width:20;" />

<line x1="460" x2="500" y1="130" y2="130" style="stroke:#F30BA5;stroke-width:20;opacity:.5" />
<line x1="435" x2="455" y1="130" y2="130" style="stroke:#F30BA5;stroke-width:20; " />

<line x1="50" x2="70" y1="350" y2="350" style="stroke:#F30BA7;stroke-width:20" />
<line x1="75" x2="95" y1="350" y2="350" style="stroke:#96E8FF;stroke-width:20" />
<line x1="100" x2="150" y1="350" y2="350" style="stroke:#96E8FF;stroke-width:20; opacity:.8" />

<line x1="90" x2="165" y1="380" y2="380" style="stroke:#FFE82D;stroke-width:20" />

<line x1="295" x2="278" y1="424" y2="424" style="stroke:#F30BA5;stroke-width:20; opacity:.5" />
<line x1="300" x2="340" y1="424" y2="424" style="stroke:#F30BA5;stroke-width:20" />

<line x1="330" x2="400" y1="400" y2="400" style="stroke:#FFE82D;stroke-width:20" />

<circle cx="420" cy="300" r="6" stroke="#F30BA5" stroke-width="4" fill="none" />
<line x1="425" x2="466" y1="300" y2="300" style="stroke:#F30BA5;stroke-width:6" />
<circle cx="470" cy="300" r="6" stroke="#F30BA5" stroke-width="4" fill="none" />

<line x1="3" x2="25" y1="180" y2="180" style="stroke:#F30BA5;stroke-width:6" />
<circle cx="30" cy="180" r="4" stroke="#F30BA5" stroke-width="4" fill="none" />
<line x1="33" x2="55" y1="180" y2="180" style="stroke:#F30BA5;stroke-width:6" />
<line x1="33" x2="55" y1="178" y2="160" style="stroke:#F30BA5;stroke-width:6" />
<circle cx="58" cy="158" r="4" stroke="#F30BA5" stroke-width="4" fill="none" />
<circle cx="57" cy="180" r="4" stroke="#F30BA5" stroke-width="4" fill="none" />


<line x1="2" x2="60" y1="110" y2="110" style="stroke:#FFE82D;stroke-width:20;" />
<line x1="68" x2="88" y1="110" y2="110" style="stroke:#FFE82D;stroke-width:20; opacity:.5" />

<path class="st4" d="M466.9,220.2v-10.7h-10.7v10.7H466.9z"/>
<path class="st4" d="M66.9,220.2v-10.7h-10.7v10.7H466.9z"/>
<path class="st5" d="M430.2,250v-10.7h-10.7V250H430.2z"/>
<path class="st6" d="M40.2,250v-10.7h-10.7V250H430.2z"/>
</svg>
