<svg xmlns="http://www.w3.org/2000/svg" viewBox="0 0 512 512">
  <defs>
    <style>
      .a {
        fill: #677662;
        stroke: #677662;
      }

      .a,
      .b,
      .c {
        stroke-miterlimit: 10;
      }

      .b {
        fill: #91a88c;
        stroke: #91a88c;
      }

      .c {
        fill: #f74700;
        stroke: #f74700;
      }

      .d {
        fill: #b53a25
      }
    </style>
  </defs>
  <g>
    <path class="a"
      d="M403.94,240.9H361.5V271H301.2v30.2H271.1v.05h0v-.05H210.8V271H150.6V240.9H90.4V271h30.1v60.3h15.05v.05h15v30h30.1v30.1h30.2v30.1H241v30.1h30.1V421.6h30.1V391.5h30.1V361.4h30.1V331.3h30.2V271h30.1V240.9ZM331.3,301.1v.1h0v-.1Zm-180.7,0h0v.15h0v-.15Zm210.8.1v-.1h.1v.1Z" />
    <path class="a"
      d="M407.25,240.9H363.86v31.47H302.21v31.56H271.44V304h0v-.06H209.79V272.37H148.24V240.9H86.69v31.47h30.77v63h15.39v.05h15.39v31.41H179v31.47h30.88v31.46h30.77v31.47h30.78V429.79h30.77V398.33H333V366.86h30.78V335.4h30.87v-63h30.78V240.9ZM333,303.83v.1h0v-.1Zm-184.74,0h0V304h0v-.16Zm215.52.1v-.1h.1v.1Z" />
    <path class="b"
      d="M430.82,90.3H421.7V60.2H361.5V90.3H331.3v30.2H301.2v30.1H271.1v30.1H241V150.6H210.8V120.5H180.7V90.3H150.6V60.2H90.4V90.3H60.3V210.8H90.4v30.1h60.2V271h60.3v30.1h90.3V271h60.2V240.9h60.3V210.8h30.1V90.3ZM391.6,120.5h0v-.1h0Zm-30.1-.1v.1h-.1v-.1Zm-210.9,0v.1h0v-.1Z" />
    <path class="b"
      d="M433.24,87.36H424V56.84H362.87V87.36H332.21V118H301.66V148.5H271.1V179H240.54V148.5H209.88V118H179.33V87.36H148.77V56.84H87.66V87.36H57.1V209.54H87.66v30.52h61.11v30.52H210V301.1h91.68V270.58h61.11V240.06H424V209.54h30.56V87.36ZM393.43,118h0v-.1h0Zm-30.56-.1v.1h-.1v-.1Zm-214.1,0v.1h0v-.1Z" />
    <path class="c"
      d="M460.44,60.2H451.8V30.1H331.3V60.2H301.2V90.3H271.1v30.2H241V90.3H210.8V60.2H180.7V30.1H60.3V60.2H30.2V240.9H60.3v60.2H90.4v60.3h30.1v30.1h30.1v30.1h30.1v30.1h30.2v30.2h90.3V451.7h30.1V421.6h30.1V391.5h30.2V361.4h30.1V301.1h30.1V240.9h30.1V165.65h0V60.2Zm-8.64,60.2v45.25h0V210.8H421.7v30.1h0V271H391.6v60.3H361.5v30.1H331.3v30.1H301.2v30.1H271.1v30.2H241V421.6H210.8V391.5H180.7V361.4H150.6V331.3H120.5V271H90.4V240.9h0V210.8H60.3V90.3H90.4V60.2h60.2V90.3h30.1v30.1h30.2v30.2H241v30.1h30.1V150.6h30.1V120.4h30.1V90.3h30.1V60.2h60.3V90.3h30.1v30.1Z" />
    <g>
      <polygon class="d"
        points="0 80.3 0 90.3 0 110.4 0 120.4 0 120.5 0 138.1 0 140.5 0 150.6 0 168.2 0 180.7 0 198.3 0 210.8 0 228.4 0 240.9 30.1 240.9 30.1 228.4 30.1 210.8 30.1 198.3 30.1 180.7 30.1 168.2 30.1 150.6 30.1 140.5 30.1 138.1 30.1 120.5 30.1 120.4 30.1 110.4 30.1 90.3 30.1 80.3 30.1 60.2 0 60.2 0 80.3" />
      <rect class="d" x="30.2" y="30.1" width="30.1" height="30.1" />
      <polygon class="d"
        points="30.2 259 30.2 271 30.2 289.1 30.2 301.1 60.3 301.1 60.3 289.1 60.3 271 60.3 259 60.3 240.9 30.2 240.9 30.2 259" />
      <polygon class="d"
        points="90.4 331.3 90.4 316.3 90.4 301.2 60.3 301.2 60.3 316.3 60.3 331.3 60.3 346.4 60.3 361.4 90.4 361.4 90.4 346.4 90.4 331.3" />
      <rect class="d" x="90.4" y="361.4" width="30.1" height="30.1" />
      <polygon class="d"
        points="165.7 0 150.6 0 150.6 0 135.6 0 135.6 0 120.5 0 109.6 0 105.5 0 90.4 0 79.5 0 60.3 0 60.3 30.1 79.5 30.1 90.4 30.1 105.5 30.1 109.6 30.1 120.5 30.1 135.6 30.1 135.6 30.1 150.6 30.1 150.6 30.1 165.7 30.1 180.7 30.1 180.7 0 165.7 0" />
      <rect class="d" x="120.5" y="391.5" width="30.1" height="30.1" />
      <rect class="d" x="180.7" y="30.1" width="30.1" height="30.1" />
      <rect class="d" x="150.6" y="421.6" width="30.1" height="30.1" />
      <rect class="d" x="210.9" y="60.2" width="30.1" height="30.1" />
      <rect class="d" x="180.7" y="451.8" width="30.1" height="30.1" />
      <rect class="d" x="241" y="90.3" width="30.1" height="30.1" />
      <rect class="d" x="271.1" y="60.2" width="30.1" height="30.1" />
      <rect class="d" x="301.2" y="30.1" width="30.1" height="30.1" />
      <polygon class="d"
        points="271.1 481.9 271.1 481.9 259.1 481.9 254 481.9 241 481.9 229 481.9 210.9 481.9 210.9 512 229 512 241 512 254 512 259.1 512 271.1 512 271.1 512 284.1 512 301.2 512 301.2 481.9 284.1 481.9 271.1 481.9" />
      <rect class="d" x="301.2" y="451.8" width="30.1" height="30.1" />
      <rect class="d" x="331.3" y="421.6" width="30.1" height="30.1" />
      <rect class="d" x="361.5" y="391.5" width="30.1" height="30.1" />
      <polygon class="d"
        points="421.7 0 413.1 0 410.7 0 391.6 0 391.6 0 380.6 0 380.6 0 361.5 0 361.4 0 350.5 0 331.3 0 331.3 30.1 350.5 30.1 361.4 30.1 361.5 30.1 380.6 30.1 380.6 30.1 391.6 30.1 391.6 30.1 410.7 30.1 413.1 30.1 421.7 30.1 443.2 30.1 451.8 30.1 451.8 0 443.2 0 421.7 0" />
      <rect class="d" x="391.6" y="361.4" width="30.1" height="30.1" />
      <rect class="d" x="451.8" y="30.1" width="30.1" height="30.1" />
      <polygon class="d"
        points="421.7 321.2 421.7 331.3 421.7 351.3 421.7 361.4 451.8 361.4 451.8 351.3 451.8 331.3 451.8 321.2 451.8 301.2 421.7 301.2 421.7 321.2" />
      <polygon class="d"
        points="481.9 60.2 481.9 82.1 481.9 90.3 481.9 109.9 481.9 112.2 481.9 120.4 481.9 120.5 481.9 140 481.9 150.6 481.9 170.1 481.9 180.7 481.9 198.3 481.9 200.2 481.9 210.8 481.9 228.4 481.9 240.9 451.8 240.9 451.8 259 451.8 271 451.8 289.1 451.8 301.1 481.9 301.1 481.9 289.1 481.9 271 481.9 259 481.9 240.9 512 240.9 512 228.4 512 210.8 512 200.2 512 198.3 512 180.7 512 170.1 512 150.6 512 140 512 120.5 512 120.4 512 112.2 512 109.9 512 90.3 512 82.1 512 60.2 481.9 60.2" />
    </g>
  </g>
</svg>