<svg width="512" height="512" fill="none" xmlns="http://www.w3.org/2000/svg" xmlns:xlink="http://www.w3.org/1999/xlink">
  <defs>
    <path d="M255.6 107S288.9 3.20015 397.4 3.20015c88.7.8 174.3 152.19985 45.9 319.49985-130.7 152.1-187.7 186.2-187.7 186.2s-55.5-26.2-183.8-185.5C-58.1 170.4 17.9 1.50015 124.1 3.10015 230.2 3.90015 255.6 107 255.6 107Z" fill="#fff" id="reuse-0"/>
  </defs>
  <use xlink:href="#reuse-0"/>
  <mask id="a" style="mask-type:alpha" maskUnits="userSpaceOnUse" x="3" y="3" width="506" height="506">
    <use xlink:href="#reuse-0"/>
  </mask>
  <g mask="url(#a)">
    <path d="M750-73h-988v658h988V-73Z" fill="#F93"/>
    <path d="M750 146.333h-988v219.334h988V146.333Z" fill="#fff"/>
    <path d="M750 365.667h-988V585h988V365.667Z" fill="#128807"/>
    <path d="M256.001 168.267c-11.533-.001-22.953 2.269-33.609 6.678-10.655 4.409-20.337 10.871-28.492 19.018-8.155 8.147-14.624 17.819-19.037 28.463a87.6547 87.6547 0 0 0-6.685 33.575c0 11.521 2.272 22.93 6.685 33.574 4.414 10.644 10.883 20.316 19.038 28.463 8.155 8.146 17.837 14.609 28.492 19.017 10.655 4.409 22.075 6.678 33.608 6.678 23.292 0 45.629-9.243 62.099-25.696 16.469-16.453 25.722-38.768 25.722-62.036 0-11.521-2.271-22.93-6.684-33.574-4.414-10.645-10.882-20.316-19.037-28.463-8.155-8.147-17.837-14.61-28.492-19.019-10.655-4.409-22.075-6.678-33.608-6.678Zm0 10.967c2.073 0 4.145.084 6.211.251-.106.996.182 1.993.802 2.779.62.786 1.522 1.3 2.515 1.431.994.13 1.999-.132 2.801-.731.802-.6 1.339-1.488 1.495-2.477 2.039.373 4.061.827 6.063 1.363 2.002.535 3.982 1.152 5.934 1.847-.361.935-.341 1.974.054 2.895.396.921 1.136 1.65 2.063 2.033.926.382 1.964.388 2.894.016.93-.372 1.678-1.091 2.085-2.006 1.873.887 3.709 1.85 5.505 2.886 1.795 1.035 3.547 2.142 5.253 3.318-.59.81-.841 1.817-.698 2.808.143.991.668 1.887 1.462 2.497.796.61 1.798.885 2.793.767.996-.119 1.905-.621 2.535-1.4 1.58 1.341 3.105 2.744 4.571 4.208 1.464 1.464 2.869 2.987 4.211 4.565-.779.629-1.281 1.538-1.399 2.532-.119.994.156 1.994.766 2.789.61.794 1.507 1.319 2.499 1.462.992.143 2.001-.107 2.811-.696 1.178 1.704 2.286 3.454 3.322 5.248v.002c1.037 1.792 2 3.625 2.889 5.495-.917.406-1.639 1.154-2.011 2.084-.372.93-.366 1.968.018 2.894.385.923 1.115 1.661 2.036 2.055.92.393 1.958.412 2.893.053.696 1.951 1.313 3.929 1.849 5.93h.003c.536 2.001.991 4.022 1.363 6.059-.989.156-1.879.692-2.479 1.494-.599.801-.862 1.805-.732 2.798.132.992.646 1.893 1.433 2.513.787.619 1.785.906 2.781.801.168 2.064.252 4.133.252 6.204 0 2.071-.084 4.141-.252 6.205-.144-.016-.288-.024-.433-.023-.927.007-1.821.348-2.515.962-.695.613-1.144 1.456-1.266 2.375-.13.992.133 1.996.732 2.797.6.802 1.49 1.338 2.479 1.494-.372 2.037-.827 4.058-1.363 6.059-.537 2-1.154 3.978-1.85 5.928-.469-.181-.97-.268-1.473-.256-.743.017-1.466.25-2.08.67-.614.421-1.093 1.01-1.378 1.696-.383.925-.389 1.963-.018 2.893.372.929 1.093 1.677 2.008 2.083-.888 1.871-1.852 3.706-2.888 5.5-1.036 1.793-2.145 3.544-3.322 5.247-.649-.472-1.429-.73-2.231-.736-.594-.005-1.181.128-1.715.389-.534.26-1 .64-1.362 1.111-.611.794-.886 1.795-.768 2.79.117.994.62 1.903 1.399 2.533a76.989 76.989 0 0 1-4.212 4.563c-1.465 1.464-2.989 2.869-4.568 4.21-.363-.45-.823-.811-1.346-1.058-.523-.247-1.095-.373-1.674-.368-.834.007-1.643.286-2.305.793-.796.609-1.321 1.505-1.465 2.496-.144.991.106 1.999.696 2.809a77.1619 77.1619 0 0 1-5.251 3.318 77.19989 77.19989 0 0 1-5.505 2.884c-.308-.693-.815-1.279-1.456-1.684-.64-.405-1.387-.612-2.145-.594-.474.01-.942.109-1.38.29-.926.383-1.665 1.112-2.06 2.032-.395.92-.415 1.957-.055 2.891-1.952.696-3.932 1.312-5.934 1.848v.002c-2.002.536-4.024.99-6.063 1.363-.022-.142-.051-.282-.089-.42-.221-.806-.701-1.517-1.364-2.026-.663-.509-1.475-.788-2.312-.794-.177-.001-.355.009-.531.032a3.84 3.84 0 0 0-2.515 1.431c-.62.786-.908 1.783-.802 2.778-2.066.168-4.138.252-6.211.252h-.002c-2.073 0-4.145-.084-6.211-.252.054-.497.01-1-.129-1.48-.209-.714-.621-1.353-1.187-1.837-.566-.485-1.26-.795-1.999-.892-.176-.024-.353-.035-.531-.034-.91.007-1.788.337-2.478.93-.689.594-1.145 1.413-1.287 2.311-2.039-.372-4.062-.826-6.065-1.362-2.002-.536-3.982-1.152-5.934-1.848.288-.746.336-1.564.136-2.339-.149-.576-.43-1.109-.82-1.558-.391-.449-.881-.801-1.431-1.029-.494-.204-1.026-.303-1.561-.29-.727.018-1.435.241-2.04.644-.606.403-1.084.97-1.38 1.634a76.5039 76.5039 0 0 1-5.502-2.883c-1.795-1.036-3.548-2.144-5.253-3.321.34-.466.57-1.003.674-1.571.103-.567.078-1.151-.075-1.707-.223-.805-.703-1.516-1.366-2.024-.664-.509-1.476-.788-2.313-.794-.577-.003-1.148.123-1.669.37-.522.247-.981.608-1.344 1.056-1.58-1.34-3.104-2.744-4.57-4.207a76.41313 76.41313 0 0 1-4.214-4.565c.59-.477 1.025-1.116 1.252-1.839.226-.723.234-1.497.021-2.224-.133-.456-.349-.883-.638-1.26-.362-.471-.829-.852-1.364-1.113-.534-.26-1.122-.393-1.717-.388-.802.008-1.581.265-2.228.737-1.178-1.703-2.286-3.453-3.323-5.246-1.036-1.793-2-3.628-2.888-5.499.832-.369 1.505-1.022 1.9-1.841s.487-1.751.258-2.631c-.044-.173-.101-.342-.168-.506-.297-.716-.804-1.325-1.454-1.748-.65-.423-1.413-.639-2.188-.621-.441.011-.876.098-1.287.256-.696-1.949-1.313-3.926-1.849-5.925-.537-2.001-.993-4.022-1.366-6.06.99-.155 1.88-.691 2.48-1.492.6-.802.863-1.806.733-2.799-.024-.174-.059-.345-.107-.514-.221-.806-.7-1.518-1.363-2.027-.663-.509-1.474-.789-2.31-.796-.146 0-.291.007-.436.023-.168-2.064-.252-4.134-.252-6.204 0-2.071.084-4.141.252-6.205.997.106 1.996-.181 2.784-.801.787-.619 1.301-1.522 1.432-2.515.069-.528.027-1.065-.123-1.575-.204-.699-.603-1.325-1.151-1.805-.547-.481-1.219-.796-1.939-.909.745-4.076 1.82-8.085 3.213-11.987.935.36 1.974.34 2.896-.054.921-.395 1.651-1.134 2.035-2.059.32-.77.381-1.623.172-2.43-.145-.56-.415-1.079-.789-1.52-.375-.441-.844-.791-1.373-1.026.887-1.87 1.85-3.704 2.886-5.497 1.036-1.793 2.145-3.544 3.322-5.248.81.59 1.819.84 2.811.697.992-.142 1.889-.666 2.499-1.46.363-.471.611-1.02.725-1.603.114-.583.091-1.184-.067-1.757-.214-.773-.666-1.46-1.291-1.963 1.342-1.578 2.748-3.101 4.214-4.566 1.465-1.464 2.989-2.868 4.568-4.209.63.779 1.539 1.281 2.535 1.399.995.118 1.997-.157 2.793-.767.615-.471 1.073-1.117 1.314-1.853.241-.735.253-1.527.036-2.27-.125-.424-.322-.824-.583-1.181 1.704-1.177 3.456-2.284 5.25-3.319 1.796-1.036 3.632-1.998 5.505-2.886.406.917 1.155 1.638 2.086 2.01.931.372 1.971.366 2.898-.017.856-.355 1.555-1.007 1.967-1.836.413-.829.512-1.779.279-2.675v-.002c-.037-.14-.082-.278-.134-.413 1.952-.696 3.932-1.313 5.934-1.85 2.003-.535 4.026-.99 6.065-1.362.156.988.692 1.877 1.494 2.477.802.599 1.806.862 2.8.733.993-.131 1.896-.645 2.516-1.432.62-.787.907-1.784.801-2.78 2.067-.168 4.14-.252 6.213-.252v.001Zm0 0-2.634 46.06 1.847 15.374c-.816.042-1.627.149-2.426.32l-2.199-15.329-14.477-43.809 9.387 45.171 5.769 14.375c-.777.25-1.533.563-2.26.934l-6.093-14.239-25.338-38.573 20.775 41.205 9.292 12.393c-.685.444-1.333.941-1.938 1.487l-9.576-12.177-34.466-30.707 30.74 34.429 12.188 9.566c-.547.606-1.045 1.254-1.489 1.938l-12.405-9.285-41.247-20.749 38.612 25.308 14.253 6.091c-.371.726-.684 1.481-.935 2.258l-14.389-5.765-45.215-9.378 43.851 14.463 15.345 2.198c-.171.798-.278 1.607-.32 2.421l-15.39-1.845-46.107 2.632 46.107 2.632 15.39-1.845c.042.815.149 1.625.32 2.423l-15.345 2.197-43.851 14.462 45.215-9.378 14.389-5.762c.251.774.562 1.528.933 2.253l-14.251 6.091-38.61 25.312 41.245-20.753 12.405-9.285c.444.684.942 1.332 1.489 1.938l-12.188 9.566-30.74 34.431 34.466-30.709 9.576-12.175c.605.546 1.252 1.043 1.936 1.487l-9.29 12.391-20.772 41.204 25.335-38.573 6.093-14.235c.727.37 1.483.683 2.26.933l-5.766 14.372-9.39 45.172 14.479-43.809 2.199-15.327c.798.171 1.607.278 2.422.32l-1.845 15.374 2.632 46.058 2.637-46.058-1.85-15.374c.816-.041 1.627-.147 2.426-.317l2.199 15.326 14.477 43.805-9.387-45.167-5.769-14.375c.777-.25 1.533-.563 2.26-.933l6.098 14.238 25.333 38.57-20.77-41.202-9.295-12.393c.684-.444 1.331-.941 1.936-1.487l9.578 12.175 34.464 30.707-30.738-34.429-12.187-9.566c.546-.606 1.044-1.254 1.488-1.938l12.403 9.285 41.245 20.751-38.61-25.31-14.251-6.091c.371-.725.684-1.479.935-2.253l14.389 5.76 45.215 9.38-43.851-14.465-15.344-2.196c.17-.798.276-1.609.318-2.424l15.391 1.848 46.105-2.632-46.105-2.632-15.391 1.843c-.042-.813-.148-1.622-.318-2.419l15.344-2.196 43.849-14.465-45.213 9.38-14.389 5.76c-.251-.775-.563-1.529-.935-2.255l14.251-6.091 38.612-25.305-41.247 20.746-12.403 9.285c-.444-.684-.942-1.331-1.488-1.936l12.187-9.568 30.741-34.429-34.467 30.707-9.576 12.177c-.606-.546-1.255-1.043-1.94-1.487l9.295-12.393 20.772-41.202-25.336 38.57-6.095 14.239c-.726-.371-1.481-.683-2.257-.934l5.768-14.375 9.385-45.171-14.475 43.809-2.201 15.329c-.798-.171-1.608-.278-2.423-.32l1.847-15.374-2.635-46.06Z" fill="#008"/>
    <path opacity=".41" d="M520.2-27.7999C520.2 260.8 400.6 276.6 252.4 276.6c-148.2 0-267.7-15.8-267.7-304.3999C-15.3-195.9 104.3-332.2 252.5-332.2c148.2 0 267.7 136.3 267.7 304.4001Z" fill="url(#b)"/>
  </g>
  <path opacity=".25" d="M254 212.4s.8-189.4999 143.4-189.4999c86.4 0 137.8 162.4999 30.1 287.7999C296 464.5 254 486.7 254 486.7s-50.7-28.5-167.2-175.2C-22.5 174.4 24.3 22.1001 125.7 23.7001 255.6 25.3001 254 212.4 254 212.4Z" fill="#fff"/>
  <defs>
    <linearGradient id="b" x1="252.45" y1="-11.5" x2="252.45" y2="276.6" gradientUnits="userSpaceOnUse">
      <stop stop-color="#fff"/>
      <stop offset="1" stop-color="#fff" stop-opacity="0"/>
    </linearGradient>
  </defs>
</svg>
