<svg width="512" height="512" viewBox="0 0 512 512" fill="none" xmlns="http://www.w3.org/2000/svg">
<path d="M255.6 107C255.6 107 288.9 3.20015 397.4 3.20015C486.1 4.00015 571.7 155.4 443.3 322.7C312.6 474.8 255.6 508.9 255.6 508.9C255.6 508.9 200.1 482.7 71.8 323.4C-58.1 170.4 17.9 1.50015 124.1 3.10015C230.2 3.90015 255.6 107 255.6 107Z" fill="white"/>
<mask id="mask0_408:1545" style="mask-type:alpha" maskUnits="userSpaceOnUse" x="3" y="3" width="506" height="506">
<path d="M255.6 107C255.6 107 288.9 3.20015 397.4 3.20015C486.1 4.00015 571.7 155.4 443.3 322.7C312.6 474.8 255.6 508.9 255.6 508.9C255.6 508.9 200.1 482.7 71.8 323.4C-58.1 170.4 17.9 1.50015 124.1 3.10015C230.2 3.90015 255.6 107 255.6 107Z" fill="white"/>
</mask>
<g mask="url(#mask0_408:1545)">
<path d="M750 -74H-238V584H750V-74Z" fill="#FF9933"/>
<path d="M750 145.333H-238V364.667H750V145.333Z" fill="white"/>
<path d="M750 364.667H-238V584H750V364.667Z" fill="#128807"/>
<path d="M256.001 167.267C244.468 167.266 233.048 169.536 222.392 173.945C211.737 178.354 202.055 184.816 193.9 192.963C185.745 201.11 179.276 210.782 174.863 221.426C170.45 232.07 168.178 243.479 168.178 255.001C168.178 266.522 170.45 277.931 174.863 288.575C179.277 299.219 185.746 308.891 193.901 317.038C202.056 325.184 211.738 331.647 222.393 336.055C233.048 340.464 244.468 342.733 256.001 342.733C279.293 342.733 301.63 333.49 318.1 317.037C334.569 300.584 343.822 278.269 343.822 255.001C343.822 243.48 341.551 232.071 337.138 221.427C332.724 210.782 326.256 201.111 318.101 192.964C309.946 184.817 300.264 178.354 289.609 173.945C278.954 169.536 267.534 167.267 256.001 167.267V167.267ZM256.001 178.234C258.074 178.234 260.146 178.318 262.212 178.485C262.106 179.481 262.394 180.478 263.014 181.264C263.634 182.05 264.536 182.564 265.529 182.695C266.523 182.825 267.528 182.563 268.33 181.964C269.132 181.364 269.669 180.476 269.825 179.487C271.864 179.86 273.886 180.314 275.888 180.85C277.89 181.385 279.87 182.002 281.822 182.697C281.461 183.632 281.481 184.671 281.876 185.592C282.272 186.513 283.012 187.242 283.939 187.625C284.865 188.007 285.903 188.013 286.833 187.641C287.763 187.269 288.511 186.55 288.918 185.635C290.791 186.522 292.627 187.485 294.423 188.521C296.218 189.556 297.97 190.663 299.676 191.839C299.086 192.649 298.835 193.656 298.978 194.647C299.121 195.638 299.646 196.534 300.44 197.144C301.236 197.754 302.238 198.029 303.233 197.911C304.229 197.792 305.138 197.29 305.768 196.511C307.348 197.852 308.873 199.255 310.339 200.719C311.803 202.183 313.208 203.706 314.55 205.284C313.771 205.913 313.269 206.822 313.151 207.816C313.032 208.81 313.307 209.81 313.917 210.605C314.527 211.399 315.424 211.924 316.416 212.067C317.408 212.21 318.417 211.96 319.227 211.371C320.405 213.075 321.513 214.825 322.549 216.619V216.621C323.586 218.413 324.549 220.246 325.438 222.116C324.521 222.522 323.799 223.27 323.427 224.2C323.055 225.13 323.061 226.168 323.445 227.094C323.83 228.017 324.56 228.755 325.481 229.149C326.401 229.542 327.439 229.561 328.374 229.202C329.07 231.153 329.687 233.131 330.223 235.132H330.226C330.762 237.133 331.217 239.154 331.589 241.191C330.6 241.347 329.71 241.883 329.11 242.685C328.511 243.486 328.248 244.49 328.378 245.483C328.51 246.475 329.024 247.376 329.811 247.996C330.598 248.615 331.596 248.902 332.592 248.797C332.76 250.861 332.844 252.93 332.844 255.001C332.844 257.072 332.76 259.142 332.592 261.206C332.448 261.19 332.304 261.182 332.159 261.183C331.232 261.19 330.338 261.531 329.644 262.145C328.949 262.758 328.5 263.601 328.378 264.52C328.248 265.512 328.511 266.516 329.11 267.317C329.71 268.119 330.6 268.655 331.589 268.811C331.217 270.848 330.762 272.869 330.226 274.87C329.689 276.87 329.072 278.848 328.376 280.798C327.907 280.617 327.406 280.53 326.903 280.542C326.16 280.559 325.437 280.792 324.823 281.212C324.209 281.633 323.73 282.222 323.445 282.908C323.062 283.833 323.056 284.871 323.427 285.801C323.799 286.73 324.52 287.478 325.435 287.884C324.547 289.755 323.583 291.59 322.547 293.384C321.511 295.177 320.402 296.928 319.225 298.631C318.576 298.159 317.796 297.901 316.994 297.895C316.4 297.89 315.813 298.023 315.279 298.284C314.745 298.544 314.279 298.924 313.917 299.395C313.306 300.189 313.031 301.19 313.149 302.185C313.266 303.179 313.769 304.088 314.548 304.718C313.206 306.295 311.801 307.817 310.336 309.281C308.871 310.745 307.347 312.15 305.768 313.491C305.405 313.041 304.945 312.68 304.422 312.433C303.899 312.186 303.327 312.06 302.748 312.065C301.914 312.072 301.105 312.351 300.443 312.858C299.647 313.467 299.122 314.363 298.978 315.354C298.834 316.345 299.084 317.353 299.674 318.163C297.969 319.339 296.217 320.446 294.423 321.481C292.627 322.516 290.791 323.478 288.918 324.365C288.61 323.672 288.103 323.086 287.462 322.681C286.822 322.276 286.075 322.069 285.317 322.087C284.843 322.097 284.375 322.196 283.937 322.377C283.011 322.76 282.272 323.489 281.877 324.409C281.482 325.329 281.462 326.366 281.822 327.3C279.87 327.996 277.89 328.612 275.888 329.148V329.15C273.886 329.686 271.864 330.14 269.825 330.513C269.803 330.371 269.774 330.231 269.736 330.093C269.515 329.287 269.035 328.576 268.372 328.067C267.709 327.558 266.897 327.279 266.06 327.273C265.883 327.272 265.705 327.282 265.529 327.305C264.536 327.436 263.634 327.949 263.014 328.736C262.394 329.522 262.106 330.519 262.212 331.514C260.146 331.682 258.074 331.766 256.001 331.766H255.999C253.926 331.766 251.854 331.682 249.788 331.514C249.842 331.017 249.798 330.514 249.659 330.034C249.45 329.32 249.038 328.681 248.472 328.197C247.906 327.712 247.212 327.402 246.473 327.305C246.297 327.281 246.12 327.27 245.942 327.271C245.032 327.278 244.154 327.608 243.464 328.201C242.775 328.795 242.319 329.614 242.177 330.512C240.138 330.14 238.115 329.686 236.112 329.15C234.11 328.614 232.13 327.998 230.178 327.302C230.466 326.556 230.514 325.738 230.314 324.963C230.165 324.387 229.884 323.854 229.494 323.405C229.103 322.956 228.613 322.604 228.063 322.376C227.569 322.172 227.037 322.073 226.502 322.086C225.775 322.104 225.067 322.327 224.462 322.73C223.856 323.133 223.378 323.7 223.082 324.364C221.21 323.478 219.374 322.516 217.58 321.481C215.785 320.445 214.032 319.337 212.327 318.16C212.667 317.694 212.897 317.157 213.001 316.589C213.104 316.022 213.079 315.438 212.926 314.882C212.703 314.077 212.223 313.366 211.56 312.858C210.896 312.349 210.084 312.07 209.247 312.064C208.67 312.061 208.099 312.187 207.578 312.434C207.056 312.681 206.597 313.042 206.234 313.49C204.654 312.15 203.13 310.746 201.664 309.283C200.198 307.819 198.792 306.296 197.45 304.718C198.04 304.241 198.475 303.602 198.702 302.879C198.928 302.156 198.936 301.382 198.723 300.655C198.59 300.199 198.374 299.772 198.085 299.395C197.723 298.924 197.256 298.543 196.721 298.282C196.187 298.022 195.599 297.889 195.004 297.894C194.202 297.902 193.423 298.159 192.776 298.631C191.598 296.928 190.49 295.178 189.453 293.385C188.417 291.592 187.453 289.757 186.565 287.886C187.397 287.517 188.07 286.864 188.465 286.045C188.86 285.226 188.952 284.294 188.723 283.414C188.679 283.241 188.622 283.072 188.555 282.908C188.258 282.192 187.751 281.583 187.101 281.16C186.451 280.737 185.688 280.521 184.913 280.539C184.472 280.55 184.037 280.637 183.626 280.795C182.93 278.846 182.313 276.869 181.777 274.87C181.24 272.869 180.784 270.848 180.411 268.81C181.401 268.655 182.291 268.119 182.891 267.318C183.491 266.516 183.754 265.512 183.624 264.519C183.6 264.345 183.565 264.174 183.517 264.005C183.296 263.199 182.817 262.487 182.154 261.978C181.491 261.469 180.68 261.189 179.844 261.182C179.698 261.182 179.553 261.189 179.408 261.205C179.24 259.141 179.156 257.071 179.156 255.001C179.156 252.93 179.24 250.86 179.408 248.796C180.405 248.902 181.404 248.615 182.192 247.995C182.979 247.376 183.493 246.473 183.624 245.48C183.693 244.952 183.651 244.415 183.501 243.905C183.297 243.206 182.898 242.58 182.35 242.1C181.803 241.619 181.131 241.304 180.411 241.191C181.156 237.115 182.231 233.106 183.624 229.204C184.559 229.564 185.598 229.544 186.52 229.15C187.441 228.755 188.171 228.016 188.555 227.091C188.875 226.321 188.936 225.468 188.727 224.661C188.582 224.101 188.312 223.582 187.938 223.141C187.563 222.7 187.094 222.35 186.565 222.115C187.452 220.245 188.415 218.411 189.451 216.618C190.487 214.825 191.596 213.074 192.773 211.37C193.583 211.96 194.592 212.21 195.584 212.067C196.576 211.925 197.473 211.401 198.083 210.607C198.446 210.136 198.694 209.587 198.808 209.004C198.922 208.421 198.899 207.82 198.741 207.247C198.527 206.474 198.075 205.787 197.45 205.284C198.792 203.706 200.198 202.183 201.664 200.718C203.129 199.254 204.653 197.85 206.232 196.509C206.862 197.288 207.771 197.79 208.767 197.908C209.762 198.026 210.764 197.751 211.56 197.141C212.175 196.67 212.633 196.024 212.874 195.288C213.115 194.553 213.127 193.761 212.91 193.018C212.785 192.594 212.588 192.194 212.327 191.837C214.031 190.66 215.783 189.553 217.577 188.518C219.373 187.482 221.209 186.52 223.082 185.632C223.488 186.549 224.237 187.27 225.168 187.642C226.099 188.014 227.139 188.008 228.066 187.625C228.922 187.27 229.621 186.618 230.033 185.789C230.446 184.96 230.545 184.01 230.312 183.114V183.112C230.275 182.972 230.23 182.834 230.178 182.699C232.13 182.003 234.11 181.386 236.112 180.849C238.115 180.314 240.138 179.859 242.177 179.487C242.333 180.475 242.869 181.364 243.671 181.964C244.473 182.563 245.477 182.826 246.471 182.697C247.464 182.566 248.367 182.052 248.987 181.265C249.607 180.478 249.894 179.481 249.788 178.485C251.855 178.317 253.928 178.233 256.001 178.233V178.234V178.234ZM256.001 178.234L253.367 224.294L255.214 239.668C254.398 239.71 253.587 239.817 252.788 239.988L250.589 224.659L236.112 180.85L245.499 226.021L251.268 240.396C250.491 240.646 249.735 240.959 249.008 241.33L242.915 227.091L217.577 188.518L238.352 229.723L247.644 242.116C246.959 242.56 246.311 243.057 245.706 243.603L236.13 231.426L201.664 200.719L232.404 235.148L244.592 244.714C244.045 245.32 243.547 245.968 243.103 246.652L230.698 237.367L189.451 216.618L228.063 241.926L242.316 248.017C241.945 248.743 241.632 249.498 241.381 250.275L226.992 244.51L181.777 235.132L225.628 249.595L240.973 251.793C240.802 252.591 240.695 253.4 240.653 254.214L225.263 252.369L179.156 255.001L225.263 257.633L240.653 255.788C240.695 256.603 240.802 257.413 240.973 258.211L225.628 260.408L181.777 274.87L226.992 265.492L241.381 259.73C241.632 260.504 241.943 261.258 242.314 261.983L228.063 268.074L189.453 293.386L230.698 272.633L243.103 263.348C243.547 264.032 244.045 264.68 244.592 265.286L232.404 274.852L201.664 309.283L236.13 278.574L245.706 266.399C246.311 266.945 246.958 267.442 247.642 267.886L238.352 280.277L217.58 321.481L242.915 282.908L249.008 268.673C249.735 269.043 250.491 269.356 251.268 269.606L245.502 283.978L236.112 329.15L250.591 285.341L252.79 270.014C253.588 270.185 254.397 270.292 255.212 270.334L253.367 285.708L255.999 331.766L258.636 285.708L256.786 270.334C257.602 270.293 258.413 270.187 259.212 270.017L261.411 285.343L275.888 329.148L266.501 283.981L260.732 269.606C261.509 269.356 262.265 269.043 262.992 268.673L269.09 282.911L294.423 321.481L273.653 280.279L264.358 267.886C265.042 267.442 265.689 266.945 266.294 266.399L275.872 278.574L310.336 309.281L279.598 274.852L267.411 265.286C267.957 264.68 268.455 264.032 268.899 263.348L281.302 272.633L322.547 293.384L283.937 268.074L269.686 261.983C270.057 261.258 270.37 260.504 270.621 259.73L285.01 265.49L330.225 274.87L286.374 260.405L271.03 258.209C271.2 257.411 271.306 256.6 271.348 255.785L286.739 257.633L332.844 255.001L286.739 252.369L271.348 254.212C271.306 253.399 271.2 252.59 271.03 251.793L286.374 249.597L330.223 235.132L285.01 244.512L270.621 250.272C270.37 249.497 270.058 248.743 269.686 248.017L283.937 241.926L322.549 216.621L281.302 237.367L268.899 246.652C268.455 245.968 267.957 245.321 267.411 244.716L279.598 235.148L310.339 200.719L275.872 231.426L266.296 243.603C265.69 243.057 265.041 242.56 264.356 242.116L273.651 229.723L294.423 188.521L269.087 227.091L262.992 241.33C262.266 240.959 261.511 240.647 260.735 240.396L266.503 226.021L275.888 180.85L261.413 224.659L259.212 239.988C258.414 239.817 257.604 239.71 256.789 239.668L258.636 224.294L256.001 178.234V178.234Z" fill="#000088"/>
<path opacity="0.41" d="M520.2 -27.7999C520.2 260.8 400.6 276.6 252.4 276.6C104.2 276.6 -15.3 260.8 -15.3 -27.7999C-15.3 -195.9 104.3 -332.2 252.5 -332.2C400.7 -332.2 520.2 -195.9 520.2 -27.7999Z" fill="white"/>
</g>
<path opacity="0.25" d="M254 212.4C254 212.4 254.8 22.9001 397.4 22.9001C483.8 22.9001 535.2 185.4 427.5 310.7C296 464.5 254 486.7 254 486.7C254 486.7 203.3 458.2 86.7999 311.5C-22.5001 174.4 24.2999 22.1001 125.7 23.7001C255.6 25.3001 254 212.4 254 212.4Z" fill="white"/>
</svg>
