<?xml version="1.0" encoding="UTF-8" standalone="no"?>
<svg
   xmlns:dc="http://purl.org/dc/elements/1.1/"
   xmlns:cc="http://creativecommons.org/ns#"
   xmlns:rdf="http://www.w3.org/1999/02/22-rdf-syntax-ns#"
   xmlns:svg="http://www.w3.org/2000/svg"
   xmlns="http://www.w3.org/2000/svg"
   xmlns:xlink="http://www.w3.org/1999/xlink"
   xmlns:sodipodi="http://sodipodi.sourceforge.net/DTD/sodipodi-0.dtd"
   xmlns:inkscape="http://www.inkscape.org/namespaces/inkscape"
   sodipodi:docname="india_heart.svg"
   xml:space="preserve"
   style="enable-background:new 0 0 512 512;"
   viewBox="0 0 512 512"
   y="0px"
   x="0px"
   id="Heart"
   version="1.1"
   inkscape:version="1.0.2 (e86c870879, 2021-01-15, custom)"><metadata
   id="metadata3973"><rdf:RDF><cc:Work
       rdf:about=""><dc:format>image/svg+xml</dc:format><dc:type
         rdf:resource="http://purl.org/dc/dcmitype/StillImage" /><dc:title></dc:title></cc:Work></rdf:RDF></metadata><defs
   id="defs3971" /><sodipodi:namedview
   pagecolor="#ffffff"
   bordercolor="#666666"
   borderopacity="1"
   objecttolerance="10"
   gridtolerance="10"
   guidetolerance="10"
   inkscape:pageopacity="0"
   inkscape:pageshadow="2"
   inkscape:window-width="1366"
   inkscape:window-height="715"
   id="namedview3969"
   showgrid="false"
   inkscape:zoom="1.0269724"
   inkscape:cx="256"
   inkscape:cy="256"
   inkscape:window-x="-8"
   inkscape:window-y="-8"
   inkscape:window-maximized="1"
   inkscape:current-layer="g4556" />
<style
   type="text/css"
   id="style3745">
	.st0{clip-path:url(#SVGID_2_);}
	.st1{fill:#FFFFFF;}
	.st2{fill:#B22234;}
	.st3{stroke:#E6E6E6;stroke-width:40;}
	.st4{fill:#3C3B6E;}
	.st5{fill:#E6E6E6;}
	.st6{opacity:0.25;fill:#FFFFFF;enable-background:new    ;}
	.st7{opacity:0.41;}
	.st8{clip-path:url(#SVGID_4_);fill:#FFFFFF;}
</style>
<g
   id="Heart_1_">
	<g
   id="g3965">
		<g
   id="g3963">
			<g
   id="g3961">
				<g
   id="g3959">
					<defs
   id="defs3748">
						<path
   id="SVGID_1_"
   d="m 255.6,107 c 0,0 33.3,-103.8 141.8,-103.8 88.7,0.8 174.3,152.2 45.9,319.5 -130.7,152.1 -187.7,186.2 -187.7,186.2 0,0 -55.5,-26.2 -183.8,-185.5 C -58.1,170.4 17.9,1.5 124.1,3.1 230.2,3.9 255.6,107 255.6,107 Z" />
					</defs>
					<clipPath
   id="SVGID_2_">
						<use
   xlink:href="#SVGID_1_"
   style="overflow:visible"
   id="use3750"
   x="0"
   y="0"
   width="100%"
   height="100%" />
					</clipPath>
					<g
   id="HeartContents"
   class="st0"
   clip-path="url(#SVGID_2_)"
   style="display:inline">
						<path
   id="Background"
   class="st1"
   d="m 255.6,107 c 0,0 33.3,-103.8 141.8,-103.8 88.7,0.8 174.3,152.2 45.9,319.5 -130.7,152.1 -187.7,186.2 -187.7,186.2 0,0 -55.5,-26.2 -183.8,-185.5 C -58.1,170.4 17.9,1.5 124.1,3.1 230.2,3.9 255.6,107 255.6,107 Z"
   style="display:inline" />
						<g
   style="display:inline;fill:none"
   id="g4556"
   transform="translate(-238,-73)"><path
     d="M 988,0 H 0 v 658 h 988 z"
     fill="#ff9933"
     id="path4536" /><path
     d="M 988,219.333 H 0 v 219.334 h 988 z"
     fill="#ffffff"
     id="path4538"
     style="display:inline;fill:#fcfcfc;stroke:none;stroke-opacity:1;fill-opacity:1" /><path
     d="M 988,438.667 H 0 V 658 h 988 z"
     fill="#128807"
     id="path4540"
     style="display:inline" /><path
     d="m 493.823,241.267 c -11.533,-0.001 -22.953,2.269 -33.608,6.678 -10.656,4.409 -20.337,10.871 -28.493,19.018 -8.155,8.147 -14.624,17.819 -19.037,28.463 -4.414,10.645 -6.685,22.054 -6.685,33.575 0,11.521 2.272,22.93 6.685,33.574 4.414,10.644 10.883,20.316 19.038,28.463 8.155,8.146 17.837,14.609 28.492,19.017 10.655,4.409 22.075,6.678 33.608,6.678 23.292,0 45.629,-9.243 62.099,-25.696 16.47,-16.453 25.722,-38.768 25.722,-62.036 10e-4,-11.521 -2.271,-22.93 -6.684,-33.574 -4.413,-10.645 -10.882,-20.316 -19.037,-28.463 -8.155,-8.147 -17.837,-14.61 -28.492,-19.019 -10.655,-4.409 -22.075,-6.678 -33.608,-6.678 z m 0,10.967 c 2.073,0 4.145,0.084 6.211,0.251 -0.105,0.996 0.182,1.993 0.802,2.779 0.62,0.786 1.522,1.3 2.516,1.431 0.993,0.13 1.998,-0.132 2.8,-0.731 0.803,-0.6 1.339,-1.488 1.495,-2.477 2.039,0.373 4.061,0.827 6.063,1.363 2.002,0.535 3.982,1.152 5.934,1.847 -0.361,0.935 -0.341,1.974 0.054,2.895 0.396,0.921 1.136,1.651 2.063,2.033 0.926,0.382 1.965,0.388 2.895,0.016 0.93,-0.372 1.677,-1.091 2.084,-2.006 1.873,0.887 3.71,1.85 5.505,2.886 1.795,1.035 3.547,2.142 5.253,3.318 -0.59,0.81 -0.841,1.817 -0.698,2.808 0.143,0.991 0.668,1.887 1.463,2.497 0.795,0.61 1.797,0.885 2.792,0.767 0.996,-0.119 1.906,-0.621 2.536,-1.4 1.579,1.341 3.104,2.744 4.57,4.208 1.465,1.464 2.87,2.987 4.211,4.565 -0.779,0.629 -1.281,1.538 -1.399,2.532 -0.118,0.994 0.157,1.994 0.766,2.789 0.61,0.794 1.507,1.319 2.499,1.462 0.992,0.143 2.001,-0.107 2.811,-0.696 1.178,1.704 2.286,3.454 3.322,5.248 0,0 0,10e-4 0,0.002 1.037,1.792 2,3.625 2.889,5.495 -0.917,0.406 -1.638,1.154 -2.011,2.084 -0.372,0.93 -0.365,1.968 0.018,2.894 0.385,0.923 1.115,1.661 2.036,2.055 0.92,0.393 1.958,0.412 2.893,0.053 0.696,1.951 1.313,3.929 1.849,5.93 h 0.003 c 0.536,2.001 0.991,4.022 1.363,6.059 -0.989,0.156 -1.879,0.692 -2.478,1.494 -0.6,0.801 -0.863,1.805 -0.732,2.798 0.131,0.992 0.645,1.893 1.432,2.513 0.787,0.619 1.785,0.906 2.781,0.801 0.168,2.064 0.252,4.133 0.252,6.204 0,2.071 -0.084,4.141 -0.252,6.205 -0.143,-0.016 -0.288,-0.024 -0.433,-0.023 -0.927,0.007 -1.82,0.348 -2.515,0.962 -0.695,0.613 -1.144,1.456 -1.265,2.375 -0.131,0.992 0.132,1.996 0.732,2.797 0.599,0.802 1.489,1.338 2.478,1.494 -0.372,2.037 -0.827,4.058 -1.363,6.059 -0.536,2 -1.153,3.978 -1.85,5.928 -0.469,-0.181 -0.969,-0.268 -1.472,-0.256 -0.744,0.017 -1.467,0.25 -2.081,0.67 -0.614,0.421 -1.092,1.01 -1.378,1.696 -0.383,0.925 -0.389,1.963 -0.017,2.893 0.371,0.929 1.092,1.677 2.007,2.083 -0.888,1.871 -1.851,3.706 -2.888,5.5 -1.036,1.793 -2.144,3.544 -3.322,5.247 -0.649,-0.472 -1.429,-0.73 -2.231,-0.736 -0.594,-0.005 -1.181,0.128 -1.715,0.389 -0.534,0.26 -1,0.64 -1.362,1.111 -0.61,0.794 -0.886,1.795 -0.768,2.79 0.118,0.994 0.62,1.903 1.399,2.533 -1.342,1.577 -2.747,3.099 -4.212,4.563 -1.465,1.464 -2.989,2.869 -4.567,4.21 -0.364,-0.45 -0.824,-0.811 -1.347,-1.058 -0.523,-0.247 -1.095,-0.373 -1.674,-0.368 -0.834,0.007 -1.643,0.286 -2.305,0.793 -0.796,0.609 -1.321,1.505 -1.465,2.496 -0.144,0.991 0.106,1.999 0.696,2.809 -1.705,1.176 -3.457,2.283 -5.251,3.318 -1.795,1.035 -3.632,1.997 -5.505,2.884 -0.308,-0.693 -0.815,-1.279 -1.455,-1.684 -0.641,-0.405 -1.388,-0.612 -2.146,-0.594 -0.474,0.01 -0.942,0.109 -1.38,0.29 -0.925,0.383 -1.665,1.112 -2.06,2.032 -0.395,0.92 -0.414,1.957 -0.055,2.891 -1.952,0.696 -3.932,1.312 -5.934,1.848 v 0.002 c -2.002,0.536 -4.024,0.99 -6.063,1.363 -0.022,-0.142 -0.051,-0.282 -0.088,-0.42 -0.222,-0.806 -0.701,-1.517 -1.365,-2.026 -0.663,-0.509 -1.475,-0.788 -2.311,-0.794 -0.178,-0.002 -0.355,0.009 -0.531,0.032 -0.994,0.131 -1.896,0.644 -2.516,1.431 -0.62,0.786 -0.907,1.783 -0.802,2.778 -2.066,0.168 -4.138,0.252 -6.211,0.252 0,0 -10e-4,0 -0.002,0 -2.073,0 -4.145,-0.084 -6.211,-0.252 0.054,-0.497 0.01,-1 -0.129,-1.48 -0.209,-0.714 -0.621,-1.353 -1.187,-1.837 -0.566,-0.485 -1.26,-0.795 -1.999,-0.892 -0.176,-0.024 -0.353,-0.035 -0.531,-0.034 -0.91,0.007 -1.788,0.337 -2.477,0.93 -0.69,0.594 -1.146,1.413 -1.287,2.311 -2.04,-0.372 -4.063,-0.826 -6.066,-1.362 -2.002,-0.536 -3.982,-1.152 -5.934,-1.848 0.289,-0.746 0.336,-1.564 0.136,-2.339 -0.149,-0.576 -0.429,-1.109 -0.82,-1.558 -0.391,-0.449 -0.88,-0.801 -1.431,-1.029 -0.494,-0.204 -1.026,-0.303 -1.561,-0.29 -0.727,0.018 -1.435,0.241 -2.04,0.644 -0.606,0.403 -1.084,0.97 -1.379,1.634 -1.873,-0.886 -3.709,-1.848 -5.503,-2.883 -1.795,-1.036 -3.548,-2.144 -5.253,-3.321 0.34,-0.466 0.57,-1.003 0.674,-1.571 0.104,-0.567 0.078,-1.151 -0.075,-1.707 -0.223,-0.805 -0.702,-1.516 -1.366,-2.024 -0.664,-0.509 -1.476,-0.788 -2.312,-0.794 -0.578,-0.003 -1.148,0.123 -1.67,0.37 -0.522,0.247 -0.981,0.608 -1.344,1.056 -1.579,-1.34 -3.104,-2.744 -4.57,-4.207 -1.466,-1.464 -2.871,-2.987 -4.214,-4.565 0.59,-0.477 1.025,-1.116 1.252,-1.839 0.226,-0.723 0.234,-1.497 0.021,-2.224 -0.133,-0.456 -0.349,-0.883 -0.637,-1.26 -0.363,-0.471 -0.83,-0.852 -1.364,-1.113 -0.535,-0.26 -1.123,-0.393 -1.718,-0.388 -0.802,0.008 -1.581,0.265 -2.228,0.737 -1.178,-1.703 -2.286,-3.453 -3.322,-5.246 -1.037,-1.793 -2.001,-3.628 -2.889,-5.499 0.832,-0.369 1.505,-1.022 1.9,-1.841 0.396,-0.819 0.487,-1.751 0.258,-2.631 -0.044,-0.173 -0.1,-0.342 -0.168,-0.506 -0.297,-0.716 -0.803,-1.325 -1.453,-1.748 -0.651,-0.423 -1.413,-0.639 -2.189,-0.621 -0.44,0.011 -0.876,0.098 -1.287,0.256 -0.696,-1.949 -1.313,-3.926 -1.849,-5.925 -0.537,-2.001 -0.993,-4.022 -1.366,-6.06 0.99,-0.155 1.88,-0.691 2.48,-1.492 0.601,-0.802 0.864,-1.806 0.733,-2.799 -0.024,-0.174 -0.059,-0.345 -0.106,-0.514 -0.222,-0.806 -0.7,-1.518 -1.363,-2.027 -0.664,-0.509 -1.475,-0.789 -2.311,-0.796 -0.146,0 -0.291,0.007 -0.436,0.023 -0.168,-2.064 -0.252,-4.134 -0.252,-6.204 0,-2.071 0.084,-4.141 0.252,-6.205 0.997,0.106 1.996,-0.181 2.784,-0.801 0.787,-0.619 1.301,-1.522 1.432,-2.515 0.069,-0.528 0.027,-1.065 -0.122,-1.575 -0.205,-0.699 -0.604,-1.325 -1.151,-1.805 -0.548,-0.481 -1.22,-0.796 -1.94,-0.909 0.746,-4.076 1.82,-8.085 3.213,-11.987 0.936,0.36 1.975,0.34 2.896,-0.054 0.921,-0.395 1.651,-1.134 2.035,-2.059 0.32,-0.77 0.381,-1.623 0.173,-2.43 -0.146,-0.56 -0.416,-1.079 -0.79,-1.52 -0.375,-0.441 -0.844,-0.791 -1.373,-1.026 0.888,-1.87 1.85,-3.704 2.886,-5.497 1.036,-1.793 2.145,-3.544 3.322,-5.248 0.81,0.59 1.819,0.84 2.811,0.697 0.992,-0.142 1.889,-0.666 2.499,-1.46 0.363,-0.471 0.611,-1.02 0.725,-1.603 0.114,-0.583 0.091,-1.184 -0.067,-1.757 -0.214,-0.773 -0.666,-1.46 -1.291,-1.963 1.343,-1.578 2.748,-3.101 4.214,-4.566 1.465,-1.464 2.989,-2.868 4.568,-4.209 0.63,0.779 1.54,1.281 2.535,1.399 0.995,0.118 1.998,-0.157 2.793,-0.767 0.615,-0.471 1.073,-1.117 1.314,-1.853 0.241,-0.735 0.253,-1.527 0.036,-2.27 -0.125,-0.424 -0.322,-0.824 -0.583,-1.181 1.705,-1.177 3.456,-2.284 5.251,-3.319 1.795,-1.036 3.631,-1.998 5.505,-2.886 0.406,0.917 1.154,1.638 2.085,2.01 0.931,0.372 1.971,0.366 2.898,-0.017 0.856,-0.355 1.555,-1.007 1.968,-1.836 0.412,-0.829 0.511,-1.779 0.278,-2.675 0,-10e-4 0,-0.002 0,-0.002 -0.037,-0.14 -0.081,-0.278 -0.134,-0.413 1.952,-0.696 3.932,-1.313 5.934,-1.85 2.003,-0.535 4.026,-0.99 6.066,-1.362 0.155,0.988 0.691,1.877 1.493,2.477 0.802,0.599 1.807,0.862 2.8,0.733 0.993,-0.131 1.897,-0.645 2.516,-1.432 0.62,-0.787 0.908,-1.784 0.801,-2.78 2.067,-0.168 4.14,-0.252 6.213,-0.252 z m 0,0 -2.634,46.06 1.847,15.374 c -0.816,0.042 -1.627,0.149 -2.426,0.32 l -2.199,-15.329 -14.477,-43.809 9.388,45.171 5.768,14.375 c -0.777,0.25 -1.533,0.563 -2.26,0.934 l -6.093,-14.239 -25.337,-38.573 20.774,41.205 9.292,12.393 c -0.684,0.444 -1.332,0.941 -1.938,1.487 l -9.576,-12.177 -34.466,-30.707 30.74,34.429 12.188,9.566 c -0.547,0.606 -1.045,1.254 -1.489,1.938 l -12.405,-9.285 -41.247,-20.749 38.612,25.308 14.253,6.091 c -0.371,0.726 -0.684,1.481 -0.935,2.258 l -14.389,-5.765 -45.215,-9.378 43.852,14.463 15.344,2.198 c -0.171,0.798 -0.278,1.607 -0.32,2.421 l -15.39,-1.845 -46.107,2.632 46.107,2.632 15.39,-1.845 c 0.042,0.815 0.149,1.625 0.32,2.423 l -15.344,2.197 -43.852,14.462 45.215,-9.378 14.389,-5.762 c 0.251,0.774 0.563,1.528 0.933,2.253 l -14.251,6.091 -38.609,25.312 41.244,-20.753 12.405,-9.285 c 0.444,0.684 0.942,1.332 1.489,1.938 l -12.188,9.566 -30.74,34.431 34.466,-30.709 9.576,-12.175 c 0.605,0.546 1.252,1.043 1.936,1.487 l -9.29,12.391 -20.772,41.204 25.335,-38.573 6.093,-14.235 c 0.727,0.37 1.483,0.683 2.26,0.933 l -5.766,14.372 -9.39,45.172 14.48,-43.809 2.198,-15.327 c 0.798,0.171 1.607,0.278 2.422,0.32 l -1.845,15.374 2.632,46.058 2.637,-46.058 -1.85,-15.374 c 0.816,-0.041 1.627,-0.147 2.426,-0.317 l 2.199,15.326 14.477,43.805 -9.387,-45.167 -5.768,-14.375 c 0.777,-0.25 1.532,-0.563 2.26,-0.933 l 6.097,14.238 25.333,38.57 -20.77,-41.202 -9.294,-12.393 c 0.683,-0.444 1.331,-0.941 1.935,-1.487 l 9.578,12.175 34.464,30.707 -30.738,-34.429 -12.187,-9.566 c 0.547,-0.606 1.044,-1.254 1.488,-1.938 l 12.403,9.285 41.245,20.751 -38.61,-25.31 -14.25,-6.091 c 0.371,-0.725 0.683,-1.479 0.935,-2.253 l 14.388,5.76 45.216,9.38 -43.852,-14.465 -15.344,-2.196 c 0.17,-0.798 0.276,-1.609 0.318,-2.424 l 15.391,1.848 46.105,-2.632 -46.105,-2.632 -15.391,1.843 c -0.042,-0.813 -0.148,-1.622 -0.318,-2.419 l 15.344,-2.196 43.849,-14.465 -45.213,9.38 -14.388,5.76 c -0.252,-0.775 -0.564,-1.529 -0.935,-2.255 l 14.25,-6.091 38.612,-25.305 -41.247,20.746 -12.403,9.285 c -0.444,-0.684 -0.941,-1.331 -1.488,-1.936 l 12.187,-9.568 30.741,-34.429 -34.467,30.707 -9.575,12.177 c -0.607,-0.546 -1.255,-1.043 -1.941,-1.487 l 9.295,-12.393 20.772,-41.202 -25.335,38.57 -6.095,14.239 c -0.727,-0.371 -1.482,-0.683 -2.258,-0.934 l 5.768,-14.375 9.385,-45.171 -14.475,43.809 -2.201,15.329 c -0.798,-0.171 -1.608,-0.278 -2.423,-0.32 l 1.847,-15.374 z"
     fill="#000088"
     id="path4542" /></g>
						<path
   id="Shade"
   class="st6"
   d="m 254,212.4 c 0,0 0.8,-189.5 143.4,-189.5 86.4,0 137.8,162.5 30.1,287.8 C 296,464.5 254,486.7 254,486.7 254,486.7 203.3,458.2 86.8,311.5 -22.5,174.4 24.3,22.1 125.7,23.7 255.6,25.3 254,212.4 254,212.4 Z" />
						<g
   id="Shine"
   class="st7">
							<g
   id="g3955">
								<g
   id="g3953">
									<g
   id="g3951">
										<g
   id="g3949">
											<g
   id="g3947">
												<g
   id="g3945">
													<defs
   id="defs3938">
														<path
   id="SVGID_3_"
   d="m 254,212.4 c 0,0 0.8,-189.5 143.4,-189.5 86.4,0 137.8,162.5 30.1,287.8 C 296,464.5 254,486.7 254,486.7 254,486.7 203.3,458.2 86.8,311.5 -22.5,174.4 24.3,22.1 125.7,23.7 255.6,25.3 254,212.4 254,212.4 Z" />
													</defs>
													<clipPath
   id="SVGID_4_">
														<use
   xlink:href="#SVGID_3_"
   style="overflow:visible"
   id="use3940"
   x="0"
   y="0"
   width="100%"
   height="100%" />
													</clipPath>
													<path
   class="st8"
   d="m 520.2,-27.8 c 0,288.6 -119.6,304.4 -267.8,304.4 -148.2,0 -267.7,-15.8 -267.7,-304.4 0,-168.1 119.6,-304.4 267.8,-304.4 148.2,0 267.7,136.3 267.7,304.4 z"
   clip-path="url(#SVGID_4_)"
   id="path3943" />
												</g>
											</g>
										</g>
									</g>
								</g>
							</g>
						</g>
					</g>
				</g>
			</g>
		</g>
	</g>
</g>
</svg>
