<?xml version="1.0" encoding="utf-8"?>
<!-- Generator: Adobe Illustrator 23.1.1, SVG Export Plug-In . SVG Version: 6.00 Build 0)  -->
<svg version="1.1" id="Heart" xmlns="http://www.w3.org/2000/svg" xmlns:xlink="http://www.w3.org/1999/xlink" x="0px" y="0px"
	 viewBox="0 0 512 512" style="enable-background:new 0 0 512 512;" xml:space="preserve">
<style type="text/css">
	.st0{clip-path:url(#Background_1_);fill:#CD2B37;}
	.st1{clip-path:url(#Background_1_);fill:#DFDFDF;}
	.st2{clip-path:url(#Background_1_);fill:#009145;}
	.st3{opacity:0.25;fill:#FFFFFF;enable-background:new    ;}
	.st4{opacity:0.41;}
	.st5{clip-path:url(#SVGID_2_);fill:#FFFFFF;}
</style>
<g>
	<defs>
		<path id="Background" d="M255.6,107c0,0,33.3-103.8,141.8-103.8c88.7,0.8,174.3,152.2,45.9,319.5
			C312.6,474.8,255.6,508.9,255.6,508.9s-55.5-26.2-183.8-185.5C-58.1,170.4,17.9,1.5,124.1,3.1C230.2,3.9,255.6,107,255.6,107z"/>
	</defs>
	<clipPath id="Background_1_">
		<use xlink:href="#Background"  style="overflow:visible;"/>
	</clipPath>
	<path class="st0" d="M169.7,537.8c0-0.1,0-0.2,0-0.3c0.8,0,1.6-0.1,2.4-0.1c56.3,0,112.6,0,169,0c3,0,2.6,0.5,2.6-4.2
		c0-185.8,0-371.6,0-557.4c0-1.2,0-2.5,0-3.7c0.7-0.1,1.4-0.2,2-0.2c55.5,0,111,0,166.5,0c2.6,0,2.6,0,2.6,4.3
		c0,185.7,0,371.5,0,557.2c0,3.4-0.5,4.2-2.6,4.2c-54.8-0.1-109.7-0.1-164.5-0.1c-58.9,0-117.7,0.1-176.6,0.2
		C170.8,537.7,170.2,537.8,169.7,537.8z"/>
	<path class="st1" d="M169.5-28c3.9,0,7.9-0.1,11.8-0.1c53.3,0,106.6,0,160,0c0.8,0,1.6,0.1,2.4,0.1c0.6,1,0.6,2.2,0.6,3.5
		c0,1.3,0,2.7,0,4c0,183.3,0,366.5,0,549.8c0,1.8,0,3.6-0.1,5.4c-0.1,1.9-0.6,2.9-1.8,2.7c-0.3-0.1-0.5,0-0.8,0
		c-56.9,0-113.9,0-170.8,0c-0.4,0-0.8,0-1.2,0c-0.9-0.5-0.9-1.8-1-3c-0.1-1.2-0.1-2.5-0.1-3.7c0-184,0-367.9,0-551.9
		C168.5-23.5,168-26.2,169.5-28z"/>
	<path class="st2" d="M169.5-28c-0.1,1.3-0.2,2.7-0.2,4c0,185.8,0,371.6,0,557.3c0,1.4-0.3,2.9,0.4,4.2l0,0.3c-1-0.1-2-0.2-3.1-0.2
		c-55.5,0-111,0-166.5,0c-2.7,0-2.7,0-2.7-4.3c0-185.7,0-371.5,0-557.2c0-4.3,0-4.3,2.7-4.3c55.9,0,111.7,0,167.6,0
		C168.3-28.2,168.9-28.1,169.5-28z"/>
</g>
<path id="Shade" class="st3" d="M254,212.4c0,0,0.8-189.5,143.4-189.5c86.4,0,137.8,162.5,30.1,287.8C296,464.5,254,486.7,254,486.7
	s-50.7-28.5-167.2-175.2C-22.5,174.4,24.3,22.1,125.7,23.7C255.6,25.3,254,212.4,254,212.4z"/>
<g id="Shine" class="st4">
	<g>
		<g>
			<g>
				<defs>
					<path id="SVGID_1_" d="M254,212.4c0,0,0.8-189.5,143.4-189.5c86.4,0,137.8,162.5,30.1,287.8C296,464.5,254,486.7,254,486.7
						s-50.7-28.5-167.2-175.2C-22.5,174.4,24.3,22.1,125.7,23.7C255.6,25.3,254,212.4,254,212.4z"/>
				</defs>
				<clipPath id="SVGID_2_">
					<use xlink:href="#SVGID_1_"  style="overflow:visible;"/>
				</clipPath>
				<path class="st5" d="M520.2-27.8c0,288.6-119.6,304.4-267.8,304.4S-15.3,260.8-15.3-27.8c0-168.1,119.6-304.4,267.8-304.4
					S520.2-195.9,520.2-27.8z"/>
			</g>
		</g>
	</g>
</g>
</svg>
