<?xml version="1.0" encoding="UTF-8"?>
<svg width="506px" height="506px" viewBox="0 0 506 506" version="1.1" xmlns="http://www.w3.org/2000/svg" xmlns:xlink="http://www.w3.org/1999/xlink">
    <title>javascript_heart</title>
    <defs>
        <path d="M270.9,439.2 C270.9,439.2 304.2,335.4 412.7,335.4 C501.4,336.2 587,487.6 458.6,654.9 C327.9,807 270.9,841.1 270.9,841.1 C270.9,841.1 215.4,814.9 87.1,655.6 C-42.8,502.6 33.2,333.7 139.4,335.3 C245.5,336.1 270.9,439.2 270.9,439.2 Z" id="path-1"></path>
    </defs>
    <g id="Page-1" stroke="none" stroke-width="1" fill="none" fill-rule="evenodd">
        <g id="javascript_heart" transform="translate(-18.300000, -335.200000)">
            <path d="M270.9,439.2 C270.9,439.2 304.2,335.4 412.7,335.4 C501.4,336.2 587,487.6 458.6,654.9 C327.9,807 270.9,841.1 270.9,841.1 C270.9,841.1 215.4,814.9 87.1,655.6 C-42.8,502.6 33.2,333.7 139.4,335.3 C245.5,336.1 270.9,439.2 270.9,439.2 Z" id="Background" fill="#F7DF1E" fill-rule="nonzero"></path>
            <path d="M269.3,544.6 C269.3,544.6 270.1,355.1 412.7,355.1 C499.1,355.1 550.5,517.6 442.8,642.9 C311.3,796.7 269.3,818.9 269.3,818.9 C269.3,818.9 218.6,790.4 102.1,643.7 C-7.2,506.6 39.6,354.3 141,355.9 C270.9,357.5 269.3,544.6 269.3,544.6 Z" id="Shade" fill="#FFFFFF" fill-rule="nonzero" opacity="0.25"></path>
            <path d="M301.649881,622.768717 C309.153606,634.998711 318.916135,643.988229 336.182389,643.988229 C350.687224,643.988229 359.953053,636.751755 359.953053,626.752909 C359.953053,614.77082 350.432961,610.526917 334.467589,603.556057 L325.716201,599.807965 C300.455435,589.065402 283.674056,575.607687 283.674056,547.157604 C283.674056,520.950473 303.678075,501 334.940637,501 C357.197548,501 373.198398,508.732284 384.728944,528.977883 L357.469551,546.449303 C351.467754,535.70674 344.992908,531.474643 334.940637,531.474643 C324.687321,531.474643 318.188824,537.967401 318.188824,546.449303 C318.188824,556.932155 324.693234,561.176058 339.71251,567.668815 L348.463898,571.411004 C378.206794,584.142712 395,597.122324 395,626.304318 C395,657.76468 370.241848,675 336.992483,675 C304.482256,675 283.478923,659.535432 273.201954,639.266223 L301.649881,622.768717 Z M177.545439,625.957232 C183.054312,635.67742 188.065609,643.895398 200.114047,643.895398 C211.635292,643.895398 218.90345,639.412329 218.90345,621.980792 L218.90345,503.394495 L253.970684,503.394495 L253.970684,622.452073 C253.970684,658.564045 232.681556,675 201.606774,675 C173.529293,675 157.269233,660.54932 149,643.144292 L177.545439,625.957232 Z" id="JS" fill="#000000" fill-rule="nonzero"></path>
            <g id="Shine" opacity="0.41">
                <g id="Group">
                    <mask id="mask-2" fill="white">
                        <use xlink:href="#path-1"></use>
                    </mask>
                    <use id="Background" fill="#F7DF1E" fill-rule="nonzero" xlink:href="#path-1"></use>
                    <path d="M535.5,304.4 C535.5,593 415.9,608.8 267.7,608.8 C119.5,608.8 1.0658141e-14,593 1.0658141e-14,304.4 C1.0658141e-14,136.3 119.6,0 267.8,0 C416,0 535.5,136.3 535.5,304.4 Z" id="Path" fill="#FFFFFF" fill-rule="nonzero" opacity="0.628013974" mask="url(#mask-2)"></path>
                </g>
            </g>
        </g>
    </g>
</svg>