<svg role="img" aria-label="Javascript Heart" viewBox="0 0 506 506" xmlns="http://www.w3.org/2000/svg" xmlns:xlink="http://www.w3.org/1999/xlink"><defs><path d="M270.9 439.2s33.3-103.8 141.8-103.8c88.7.8 174.3 152.2 45.9 319.5C327.9 807 270.9 841.1 270.9 841.1s-55.5-26.2-183.8-185.5c-129.9-153-53.9-321.9 52.3-320.3 106.1.8 131.5 103.9 131.5 103.9Z" id="a"/></defs><g fill="none" fill-rule="evenodd"><path d="M252.6 104S285.9.2 394.4.2c88.7.8 174.3 152.2 45.9 319.5-130.7 152.1-187.7 186.2-187.7 186.2s-55.5-26.2-183.8-185.5C-61.1 167.4 14.9-1.5 121.1.1 227.2.9 252.6 104 252.6 104Z" fill="#F7DF1E" fill-rule="nonzero"/><path d="M251 209.4s.8-189.5 143.4-189.5c86.4 0 137.8 162.5 30.1 287.8C293 461.5 251 483.7 251 483.7s-50.7-28.5-167.2-175.2C-25.5 171.4 21.3 19.1 122.7 20.7 252.6 22.3 251 209.4 251 209.4Z" fill="#FFF" fill-rule="nonzero" opacity=".25"/><path d="M283.349881 287.568717c7.503725 12.229994 17.266254 21.219512 34.532508 21.219512 14.504835 0 23.770664-7.236474 23.770664-17.23532 0-11.982089-9.520092-16.225992-25.485464-23.196852l-8.751388-3.748092c-25.260766-10.742563-42.042145-24.200278-42.042145-52.650361 0-26.207131 20.004019-46.157604 51.266581-46.157604 22.256911 0 38.257761 7.732284 49.788307 27.977883l-27.259393 17.47142c-6.001797-10.742563-12.476643-14.97466-22.528914-14.97466-10.253316 0-16.751813 6.492758-16.751813 14.97466 0 10.482852 6.50441 14.726755 21.523686 21.219512l8.751388 3.742189C359.906794 248.942712 376.7 261.922324 376.7 291.104318 376.7 322.56468 351.941848 339.8 318.692483 339.8c-32.510227 0-53.51356-15.464568-63.790529-35.733777l28.447927-16.497506Zm-124.104442 3.188515c5.508873 9.720188 10.52017 17.938166 22.568608 17.938166 11.521245 0 18.789403-4.483069 18.789403-21.914606V168.194495h35.067234v119.057578c0 36.111972-21.289128 52.547927-52.36391 52.547927-28.077481 0-44.337541-14.45068-52.606774-31.855708l28.545439-17.18706Z" fill="#000" fill-rule="nonzero"/><g transform="translate(-18.3 -335.2)" opacity=".41"><mask id="b" fill="#fff"><use xlink:href="#a"/></mask><use fill="#F7DF1E" fill-rule="nonzero" xlink:href="#a"/><path d="M535.5 304.4c0 288.6-119.6 304.4-267.8 304.4C119.5 608.8 0 593 0 304.4 0 136.3 119.6 0 267.8 0 416 0 535.5 136.3 535.5 304.4Z" fill="#FFF" fill-rule="nonzero" opacity=".62801397" mask="url(#b)"/></g></g></svg>
