<svg xmlns="http://www.w3.org/2000/svg" viewBox="0 0 512 512">
  <defs>
    <style>
      .a {
        fill: #ed2124;
        stroke: #ed2124;
      }

      .a, .b, .c {
        stroke-miterlimit: 10;
      }

      .b {
        fill: #ff666e;
        stroke: #ff666e;
      }

      .c {
        fill: #b21d2b;
        stroke: #b21d2b;
      }

      .d {
        fill: #020202;
      }
    </style>
  </defs>
  <title>Asset 10</title>
  <g>
    <g>
      <rect class="a" x="90.4" y="240.9" width="30.1" height="30.1"/>
      <rect class="a" x="120.5" y="301.2" width="30.1" height="30.1"/>
      <rect class="a" x="120.5" y="271" width="30.1" height="30.1"/>
      <rect class="a" x="120.5" y="240.9" width="30.1" height="30.1"/>
      <rect class="a" x="150.6" y="331.3" width="30.1" height="30.1"/>
      <rect class="a" x="150.6" y="301.2" width="30.1" height="30.1"/>
      <rect class="a" x="150.6" y="271" width="30.1" height="30.1"/>
      <rect class="a" x="180.7" y="361.4" width="30.1" height="30.1"/>
      <rect class="a" x="180.7" y="331.3" width="30.1" height="30.1"/>
      <rect class="a" x="180.7" y="301.2" width="30.1" height="30.1"/>
      <rect class="a" x="180.7" y="271" width="30.1" height="30.1"/>
      <rect class="a" x="210.9" y="391.5" width="30.1" height="30.1"/>
      <rect class="a" x="210.9" y="361.4" width="30.1" height="30.1"/>
      <rect class="a" x="210.9" y="331.3" width="30.1" height="30.1"/>
      <rect class="a" x="210.9" y="301.2" width="30.1" height="30.1"/>
      <rect class="a" x="241" y="421.6" width="30.1" height="30.1"/>
      <rect class="a" x="241" y="391.5" width="30.1" height="30.1"/>
      <rect class="a" x="241" y="361.4" width="30.1" height="30.1"/>
      <rect class="a" x="241" y="331.3" width="30.1" height="30.1"/>
      <rect class="a" x="241" y="301.2" width="30.1" height="30.1"/>
      <rect class="a" x="271.1" y="391.5" width="30.1" height="30.1"/>
      <rect class="a" x="271.1" y="361.4" width="30.1" height="30.1"/>
      <rect class="a" x="271.1" y="331.3" width="30.1" height="30.1"/>
      <rect class="a" x="271.1" y="301.2" width="30.1" height="30.1"/>
      <rect class="a" x="301.2" y="361.4" width="30.1" height="30.1"/>
      <rect class="a" x="301.2" y="331.3" width="30.1" height="30.1"/>
      <rect class="a" x="301.2" y="301.2" width="30.1" height="30.1"/>
      <rect class="a" x="301.2" y="271" width="30.1" height="30.1"/>
      <rect class="a" x="331.3" y="331.3" width="30.1" height="30.1"/>
      <rect class="a" x="331.3" y="301.2" width="30.1" height="30.1"/>
      <rect class="a" x="331.3" y="271" width="30.1" height="30.1"/>
      <rect class="a" x="361.5" y="301.2" width="30.1" height="30.1"/>
      <rect class="a" x="361.5" y="271" width="30.1" height="30.1"/>
      <rect class="a" x="361.5" y="240.9" width="30.1" height="30.1"/>
      <rect class="a" x="391.6" y="240.9" width="30.1" height="30.1"/>
    </g>
    <g>
      <rect class="b" x="60.3" y="90.3" width="30.1" height="30.1"/>
      <rect class="b" x="60.3" y="180.7" width="30.1" height="30.1"/>
      <rect class="b" x="60.3" y="150.6" width="30.1" height="30.1"/>
      <rect class="b" x="60.3" y="120.5" width="30.1" height="30.1"/>
      <rect class="b" x="90.4" y="210.8" width="30.1" height="30.1"/>
      <rect class="b" x="90.4" y="180.7" width="30.1" height="30.1"/>
      <rect class="b" x="90.4" y="150.6" width="30.1" height="30.1"/>
      <rect class="b" x="90.4" y="120.5" width="30.1" height="30.1"/>
      <rect class="b" x="90.4" y="90.3" width="30.1" height="30.1"/>
      <rect class="b" x="90.4" y="60.2" width="30.1" height="30.1"/>
      <rect class="b" x="120.5" y="210.8" width="30.1" height="30.1"/>
      <rect class="b" x="120.5" y="180.7" width="30.1" height="30.1"/>
      <rect class="b" x="120.5" y="150.6" width="30.1" height="30.1"/>
      <rect class="b" x="120.5" y="120.5" width="30.1" height="30.1"/>
      <rect class="b" x="120.5" y="90.3" width="30.1" height="30.1"/>
      <rect class="b" x="120.5" y="60.2" width="30.1" height="30.1"/>
      <rect class="b" x="150.6" y="240.9" width="30.1" height="30.1"/>
      <rect class="b" x="150.6" y="210.8" width="30.1" height="30.1"/>
      <rect class="b" x="150.6" y="180.7" width="30.1" height="30.1"/>
      <rect class="b" x="150.6" y="150.6" width="30.1" height="30.1"/>
      <rect class="b" x="150.6" y="120.5" width="30.1" height="30.1"/>
      <rect class="b" x="150.6" y="90.3" width="30.1" height="30.1"/>
      <rect class="b" x="180.7" y="240.9" width="30.1" height="30.1"/>
      <rect class="b" x="180.7" y="210.8" width="30.1" height="30.1"/>
      <rect class="b" x="180.7" y="180.7" width="30.1" height="30.1"/>
      <rect class="b" x="180.7" y="150.6" width="30.1" height="30.1"/>
      <rect class="b" x="180.7" y="120.5" width="30.1" height="30.1"/>
      <rect class="b" x="210.9" y="271" width="30.1" height="30.1"/>
      <rect class="b" x="210.9" y="240.9" width="30.1" height="30.1"/>
      <rect class="b" x="210.9" y="210.8" width="30.1" height="30.1"/>
      <rect class="b" x="210.9" y="180.7" width="30.1" height="30.1"/>
      <rect class="b" x="210.9" y="150.6" width="30.1" height="30.1"/>
      <rect class="b" x="241" y="271" width="30.1" height="30.1"/>
      <rect class="b" x="241" y="240.9" width="30.1" height="30.1"/>
      <rect class="b" x="241" y="210.8" width="30.1" height="30.1"/>
      <rect class="b" x="241" y="180.7" width="30.1" height="30.1"/>
      <rect class="b" x="271.1" y="271" width="30.1" height="30.1"/>
      <rect class="b" x="271.1" y="240.9" width="30.1" height="30.1"/>
      <rect class="b" x="271.1" y="210.8" width="30.1" height="30.1"/>
      <rect class="b" x="271.1" y="180.7" width="30.1" height="30.1"/>
      <rect class="b" x="271.1" y="150.6" width="30.1" height="30.1"/>
      <rect class="b" x="301.2" y="240.9" width="30.1" height="30.1"/>
      <rect class="b" x="301.2" y="210.8" width="30.1" height="30.1"/>
      <rect class="b" x="301.2" y="180.7" width="30.1" height="30.1"/>
      <rect class="b" x="301.2" y="150.6" width="30.1" height="30.1"/>
      <rect class="b" x="301.2" y="120.5" width="30.1" height="30.1"/>
      <rect class="b" x="331.3" y="240.9" width="30.1" height="30.1"/>
      <rect class="b" x="331.3" y="210.8" width="30.1" height="30.1"/>
      <rect class="b" x="331.3" y="180.7" width="30.1" height="30.1"/>
      <rect class="b" x="331.3" y="150.6" width="30.1" height="30.1"/>
      <rect class="b" x="331.3" y="120.5" width="30.1" height="30.1"/>
      <rect class="b" x="331.3" y="90.3" width="30.1" height="30.1"/>
      <rect class="b" x="361.5" y="210.8" width="30.1" height="30.1"/>
      <rect class="b" x="361.5" y="180.7" width="30.1" height="30.1"/>
      <rect class="b" x="361.5" y="150.6" width="30.1" height="30.1"/>
      <rect class="b" x="361.5" y="120.5" width="30.1" height="30.1"/>
      <rect class="b" x="361.5" y="90.3" width="30.1" height="30.1"/>
      <rect class="b" x="361.5" y="60.2" width="30.1" height="30.1"/>
      <rect class="b" x="391.6" y="210.8" width="30.1" height="30.1"/>
      <rect class="b" x="391.6" y="180.7" width="30.1" height="30.1"/>
      <rect class="b" x="391.6" y="150.6" width="30.1" height="30.1"/>
      <rect class="b" x="391.6" y="120.5" width="30.1" height="30.1"/>
      <rect class="b" x="391.6" y="90.3" width="30.1" height="30.1"/>
      <rect class="b" x="391.6" y="60.2" width="30.1" height="30.1"/>
      <rect class="b" x="421.7" y="180.7" width="30.1" height="30.1"/>
      <rect class="b" x="421.7" y="150.6" width="30.1" height="30.1"/>
      <rect class="b" x="421.7" y="120.5" width="30.1" height="30.1"/>
      <rect class="b" x="421.7" y="90.3" width="30.1" height="30.1"/>
    </g>
    <g>
      <rect class="c" x="30.2" y="60.2" width="30.1" height="30.1"/>
      <rect class="c" x="60.3" y="60.2" width="30.1" height="30.1"/>
      <rect class="c" x="60.3" y="30.1" width="30.1" height="30.1"/>
      <rect class="c" x="30.2" y="210.8" width="30.1" height="30.1"/>
      <rect class="c" x="30.2" y="180.7" width="30.1" height="30.1"/>
      <rect class="c" x="30.2" y="150.6" width="30.1" height="30.1"/>
      <rect class="c" x="30.2" y="120.5" width="30.1" height="30.1"/>
      <rect class="c" x="30.2" y="90.3" width="30.1" height="30.1"/>
      <rect class="c" x="60.3" y="271" width="30.1" height="30.1"/>
      <rect class="c" x="60.3" y="240.9" width="30.1" height="30.1"/>
      <rect class="c" x="60.3" y="210.8" width="30.1" height="30.1"/>
      <rect class="c" x="90.4" y="30.1" width="30.1" height="30.1"/>
      <rect class="c" x="90.4" y="331.3" width="30.1" height="30.1"/>
      <rect class="c" x="90.4" y="301.2" width="30.1" height="30.1"/>
      <rect class="c" x="90.4" y="271" width="30.1" height="30.1"/>
      <rect class="c" x="120.5" y="30.1" width="30.1" height="30.1"/>
      <rect class="c" x="120.5" y="361.4" width="30.1" height="30.1"/>
      <rect class="c" x="120.5" y="331.3" width="30.1" height="30.1"/>
      <rect class="c" x="150.6" y="60.2" width="30.1" height="30.1"/>
      <rect class="c" x="150.6" y="30.1" width="30.1" height="30.1"/>
      <rect class="c" x="150.6" y="391.5" width="30.1" height="30.1"/>
      <rect class="c" x="150.6" y="361.4" width="30.1" height="30.1"/>
      <rect class="c" x="180.7" y="90.3" width="30.1" height="30.1"/>
      <rect class="c" x="180.7" y="60.2" width="30.1" height="30.1"/>
      <rect class="c" x="180.7" y="421.6" width="30.1" height="30.1"/>
      <rect class="c" x="180.7" y="391.5" width="30.1" height="30.1"/>
      <rect class="c" x="210.9" y="120.5" width="30.1" height="30.1"/>
      <rect class="c" x="210.9" y="90.3" width="30.1" height="30.1"/>
      <rect class="c" x="210.9" y="451.8" width="30.1" height="30.1"/>
      <rect class="c" x="210.9" y="421.6" width="30.1" height="30.1"/>
      <rect class="c" x="241" y="150.6" width="30.1" height="30.1"/>
      <rect class="c" x="241" y="120.5" width="30.1" height="30.1"/>
      <rect class="c" x="241" y="451.8" width="30.1" height="30.1"/>
      <rect class="c" x="271.1" y="120.5" width="30.1" height="30.1"/>
      <rect class="c" x="271.1" y="90.3" width="30.1" height="30.1"/>
      <rect class="c" x="271.1" y="451.8" width="30.1" height="30.1"/>
      <rect class="c" x="271.1" y="421.6" width="30.1" height="30.1"/>
      <rect class="c" x="301.2" y="90.3" width="30.1" height="30.1"/>
      <rect class="c" x="301.2" y="60.2" width="30.1" height="30.1"/>
      <rect class="c" x="301.2" y="421.6" width="30.1" height="30.1"/>
      <rect class="c" x="301.2" y="391.5" width="30.1" height="30.1"/>
      <rect class="c" x="331.3" y="60.2" width="30.1" height="30.1"/>
      <rect class="c" x="331.3" y="30.1" width="30.1" height="30.1"/>
      <rect class="c" x="331.3" y="391.5" width="30.1" height="30.1"/>
      <rect class="c" x="331.3" y="361.4" width="30.1" height="30.1"/>
      <rect class="c" x="361.5" y="30.1" width="30.1" height="30.1"/>
      <rect class="c" x="361.5" y="361.4" width="30.1" height="30.1"/>
      <rect class="c" x="361.5" y="331.3" width="30.1" height="30.1"/>
      <rect class="c" x="391.6" y="30.1" width="30.1" height="30.1"/>
      <rect class="c" x="391.6" y="331.3" width="30.1" height="30.1"/>
      <rect class="c" x="391.6" y="301.2" width="30.1" height="30.1"/>
      <rect class="c" x="391.6" y="271" width="30.1" height="30.1"/>
      <rect class="c" x="421.7" y="60.2" width="30.1" height="30.1"/>
      <rect class="c" x="421.7" y="30.1" width="30.1" height="30.1"/>
      <rect class="c" x="421.7" y="271" width="30.1" height="30.1"/>
      <rect class="c" x="421.7" y="240.9" width="30.1" height="30.1"/>
      <rect class="c" x="421.7" y="210.8" width="30.1" height="30.1"/>
      <rect class="c" x="451.8" y="210.8" width="30.1" height="30.1"/>
      <rect class="c" x="451.8" y="180.7" width="30.1" height="30.1"/>
      <rect class="c" x="451.8" y="150.6" width="30.1" height="30.1"/>
      <rect class="c" x="451.8" y="120.5" width="30.1" height="30.1"/>
      <rect class="c" x="451.8" y="90.3" width="30.1" height="30.1"/>
      <rect class="c" x="451.8" y="60.2" width="30.1" height="30.1"/>
    </g>
    <g>
      <rect class="d" y="60.2" width="30.1" height="30.1"/>
      <rect class="d" x="30.2" y="30.1" width="30.1" height="30.1"/>
      <rect class="d" y="210.8" width="30.1" height="30.1"/>
      <rect class="d" y="198.32" width="30.1" height="30.1"/>
      <rect class="d" y="180.7" width="30.1" height="30.1"/>
      <rect class="d" y="168.22" width="30.1" height="30.1"/>
      <rect class="d" y="150.6" width="30.1" height="30.1"/>
      <rect class="d" y="138.12" width="30.1" height="30.1"/>
      <rect class="d" y="120.5" width="30.1" height="30.1"/>
      <rect class="d" y="110.42" width="30.1" height="30.1"/>
      <rect class="d" y="90.3" width="30.1" height="30.1"/>
      <rect class="d" y="80.32" width="30.1" height="30.1"/>
      <rect class="d" x="60.3" width="30.1" height="30.1"/>
      <rect class="d" x="79.5" width="30.1" height="30.1"/>
      <rect class="d" x="30.2" y="271" width="30.1" height="30.1"/>
      <rect class="d" x="30.2" y="259" width="30.1" height="30.1"/>
      <rect class="d" x="30.2" y="240.9" width="30.1" height="30.1"/>
      <rect class="d" x="90.4" width="30.1" height="30.1"/>
      <rect class="d" x="105.45" width="30.1" height="30.1"/>
      <rect class="d" x="60.3" y="331.3" width="30.1" height="30.1"/>
      <rect class="d" x="60.3" y="316.25" width="30.1" height="30.1"/>
      <rect class="d" x="60.3" y="301.2" width="30.1" height="30.1"/>
      <rect class="d" x="120.5" width="30.1" height="30.1"/>
      <rect class="d" x="135.55" width="30.1" height="30.1"/>
      <rect class="d" x="90.4" y="361.4" width="30.1" height="30.1"/>
      <rect class="d" x="150.6" width="30.1" height="30.1"/>
      <rect class="d" x="120.5" y="391.5" width="30.1" height="30.1"/>
      <rect class="d" x="180.7" y="30.1" width="30.1" height="30.1"/>
      <rect class="d" x="150.6" y="421.6" width="30.1" height="30.1"/>
      <rect class="d" x="210.9" y="60.2" width="30.1" height="30.1"/>
      <rect class="d" x="180.7" y="451.8" width="30.1" height="30.1"/>
      <rect class="d" x="241" y="90.3" width="30.1" height="30.1"/>
      <rect class="d" x="210.9" y="481.9" width="30.1" height="30.1"/>
      <rect class="d" x="271.1" y="60.2" width="30.1" height="30.1"/>
      <rect class="d" x="241" y="481.9" width="30.1" height="30.1"/>
      <rect class="d" x="253.96" y="481.9" width="30.1" height="30.1"/>
      <rect class="d" x="229" y="481.9" width="30.1" height="30.1"/>
      <rect class="d" x="301.2" y="30.1" width="30.1" height="30.1"/>
      <rect class="d" x="271.1" y="481.9" width="30.1" height="30.1"/>
      <rect class="d" x="331.3" width="30.1" height="30.1"/>
      <rect class="d" x="301.2" y="451.8" width="30.1" height="30.1"/>
      <rect class="d" x="361.5" width="30.1" height="30.1"/>
      <rect class="d" x="350.46" width="30.1" height="30.1"/>
      <rect class="d" x="331.3" y="421.6" width="30.1" height="30.1"/>
      <rect class="d" x="391.6" width="30.1" height="30.1"/>
      <rect class="d" x="380.56" width="30.1" height="30.1"/>
      <rect class="d" x="361.5" y="391.5" width="30.1" height="30.1"/>
      <rect class="d" x="421.7" width="30.1" height="30.1"/>
      <rect class="d" x="413.06" width="30.1" height="30.1"/>
      <rect class="d" x="391.6" y="361.4" width="30.1" height="30.1"/>
      <rect class="d" x="451.8" y="30.1" width="30.1" height="30.1"/>
      <rect class="d" x="421.7" y="331.3" width="30.1" height="30.1"/>
      <rect class="d" x="421.7" y="321.22" width="30.1" height="30.1"/>
      <rect class="d" x="421.7" y="301.2" width="30.1" height="30.1"/>
      <rect class="d" x="481.9" y="210.8" width="30.1" height="30.1"/>
      <rect class="d" x="481.9" y="198.32" width="30.1" height="30.1"/>
      <rect class="d" x="481.9" y="180.7" width="30.1" height="30.1"/>
      <rect class="d" x="481.9" y="170.14" width="30.1" height="30.1"/>
      <rect class="d" x="481.9" y="150.6" width="30.1" height="30.1"/>
      <rect class="d" x="481.9" y="140.04" width="30.1" height="30.1"/>
      <rect class="d" x="481.9" y="120.5" width="30.1" height="30.1"/>
      <rect class="d" x="481.9" y="109.94" width="30.1" height="30.1"/>
      <rect class="d" x="481.9" y="90.3" width="30.1" height="30.1"/>
      <rect class="d" x="481.9" y="82.14" width="30.1" height="30.1"/>
      <rect class="d" x="481.9" y="60.2" width="30.1" height="30.1"/>
      <rect class="d" x="451.8" y="271" width="30.1" height="30.1"/>
      <rect class="d" x="451.8" y="259" width="30.1" height="30.1"/>
      <rect class="d" x="451.8" y="240.9" width="30.1" height="30.1"/>
    </g>
  </g>
</svg>
