<svg xmlns="http://www.w3.org/2000/svg" viewBox="0 0 513 513"><defs><style>.a{fill:#020202;stroke:#000;}.a,.b,.c,.d{stroke-miterlimit:10;}.b{fill:#b21d2b;stroke:#b21d2b;}.c{fill:#ff666e;stroke:#ff666e;}.d{fill:#ed2124;stroke:#ed2124;}</style></defs><title>pixel_heart</title><rect class="a" x="482.38" y="211.33" width="30.12" height="30.12"/><rect class="a" x="482.38" y="181.21" width="30.12" height="30.12"/><rect class="a" x="482.38" y="151.09" width="30.12" height="30.12"/><rect class="a" x="482.38" y="120.97" width="30.12" height="30.12"/><rect class="a" x="482.38" y="90.86" width="30.12" height="30.11"/><rect class="a" x="482.38" y="60.74" width="30.12" height="30.12"/><rect class="a" x="452.27" y="271.56" width="30.11" height="30.12"/><rect class="a" x="452.27" y="241.45" width="30.11" height="30.11"/><rect class="b" x="452.27" y="211.33" width="30.11" height="30.12"/><rect class="b" x="452.27" y="181.21" width="30.11" height="30.12"/><rect class="b" x="452.27" y="151.09" width="30.11" height="30.12"/><rect class="b" x="452.27" y="120.97" width="30.11" height="30.12"/><rect class="b" x="452.27" y="90.86" width="30.11" height="30.11"/><rect class="b" x="452.27" y="60.74" width="30.11" height="30.12"/><rect class="a" x="452.27" y="30.62" width="30.11" height="30.12"/><rect class="a" x="422.15" y="331.8" width="30.12" height="30.12"/><rect class="a" x="422.15" y="301.68" width="30.12" height="30.12"/><rect class="b" x="422.15" y="271.56" width="30.12" height="30.12"/><rect class="b" x="422.15" y="241.45" width="30.12" height="30.11"/><rect class="b" x="422.15" y="211.33" width="30.12" height="30.12"/><rect class="c" x="422.15" y="181.21" width="30.12" height="30.12"/><rect class="c" x="422.15" y="151.09" width="30.12" height="30.12"/><rect class="c" x="422.15" y="120.97" width="30.12" height="30.12"/><rect class="c" x="422.15" y="90.86" width="30.12" height="30.11"/><rect class="b" x="422.15" y="60.74" width="30.12" height="30.12"/><rect class="b" x="422.15" y="30.62" width="30.12" height="30.12"/><rect class="a" x="422.15" y="0.5" width="30.12" height="30.12"/><rect class="a" x="392.03" y="361.92" width="30.12" height="30.11"/><rect class="b" x="392.03" y="331.8" width="30.12" height="30.12"/><rect class="b" x="392.03" y="301.68" width="30.12" height="30.12"/><rect class="b" x="392.03" y="271.56" width="30.12" height="30.12"/><rect class="d" x="392.03" y="241.45" width="30.12" height="30.11"/><rect class="c" x="392.03" y="211.33" width="30.12" height="30.12"/><rect class="c" x="392.03" y="181.21" width="30.12" height="30.12"/><rect class="c" x="392.03" y="151.09" width="30.12" height="30.12"/><rect class="c" x="392.03" y="120.97" width="30.12" height="30.12"/><rect class="c" x="392.03" y="90.86" width="30.12" height="30.11"/><rect class="c" x="392.03" y="60.74" width="30.12" height="30.12"/><rect class="b" x="392.03" y="30.62" width="30.12" height="30.12"/><rect class="a" x="392.03" y="0.5" width="30.12" height="30.12"/><rect class="a" x="361.91" y="392.03" width="30.12" height="30.12"/><rect class="b" x="361.91" y="361.92" width="30.12" height="30.11"/><rect class="b" x="361.91" y="331.8" width="30.12" height="30.12"/><rect class="d" x="361.91" y="301.68" width="30.12" height="30.12"/><rect class="d" x="361.91" y="271.56" width="30.12" height="30.12"/><rect class="d" x="361.91" y="241.45" width="30.12" height="30.11"/><rect class="c" x="361.91" y="211.33" width="30.12" height="30.12"/><rect class="c" x="361.91" y="181.21" width="30.12" height="30.12"/><rect class="c" x="361.91" y="151.09" width="30.12" height="30.12"/><rect class="c" x="361.91" y="120.97" width="30.12" height="30.12"/><rect class="c" x="361.91" y="90.86" width="30.12" height="30.11"/><rect class="c" x="361.91" y="60.74" width="30.12" height="30.12"/><rect class="b" x="361.91" y="30.62" width="30.12" height="30.12"/><rect class="a" x="361.91" y="0.5" width="30.12" height="30.12"/><rect class="a" x="331.8" y="422.15" width="30.11" height="30.12"/><rect class="b" x="331.8" y="392.03" width="30.11" height="30.12"/><rect class="b" x="331.8" y="361.92" width="30.11" height="30.11"/><rect class="d" x="331.8" y="331.8" width="30.11" height="30.12"/><rect class="d" x="331.8" y="301.68" width="30.11" height="30.12"/><rect class="d" x="331.8" y="271.56" width="30.11" height="30.12"/><rect class="c" x="331.8" y="241.45" width="30.11" height="30.11"/><rect class="c" x="331.8" y="211.33" width="30.11" height="30.12"/><rect class="c" x="331.8" y="181.21" width="30.11" height="30.12"/><rect class="c" x="331.8" y="151.09" width="30.11" height="30.12"/><rect class="c" x="331.8" y="120.97" width="30.11" height="30.12"/><rect class="c" x="331.8" y="90.86" width="30.11" height="30.11"/><rect class="b" x="331.8" y="60.74" width="30.11" height="30.12"/><rect class="b" x="331.8" y="30.62" width="30.11" height="30.12"/><rect class="a" x="331.8" y="0.5" width="30.11" height="30.12"/><rect class="a" x="301.68" y="452.27" width="30.12" height="30.12"/><rect class="b" x="301.68" y="422.15" width="30.12" height="30.12"/><rect class="b" x="301.68" y="392.03" width="30.12" height="30.12"/><rect class="d" x="301.68" y="361.92" width="30.12" height="30.11"/><rect class="d" x="301.68" y="331.8" width="30.12" height="30.12"/><rect class="d" x="301.68" y="301.68" width="30.12" height="30.12"/><rect class="d" x="301.68" y="271.56" width="30.12" height="30.12"/><rect class="c" x="301.68" y="241.45" width="30.12" height="30.11"/><rect class="c" x="301.68" y="211.33" width="30.12" height="30.12"/><rect class="c" x="301.68" y="181.21" width="30.12" height="30.12"/><rect class="c" x="301.68" y="151.09" width="30.12" height="30.12"/><rect class="c" x="301.68" y="120.97" width="30.12" height="30.12"/><rect class="b" x="301.68" y="90.86" width="30.12" height="30.11"/><rect class="b" x="301.68" y="60.74" width="30.12" height="30.12"/><rect class="a" x="301.68" y="30.62" width="30.12" height="30.12"/><rect class="a" x="271.56" y="482.39" width="30.12" height="30.11"/><rect class="b" x="271.56" y="452.27" width="30.12" height="30.12"/><rect class="b" x="271.56" y="422.15" width="30.12" height="30.12"/><rect class="d" x="271.56" y="392.03" width="30.12" height="30.12"/><rect class="d" x="271.56" y="361.92" width="30.12" height="30.11"/><rect class="d" x="271.56" y="331.8" width="30.12" height="30.12"/><rect class="d" x="271.56" y="301.68" width="30.12" height="30.12"/><rect class="c" x="271.56" y="271.56" width="30.12" height="30.12"/><rect class="c" x="271.56" y="241.45" width="30.12" height="30.11"/><rect class="c" x="271.56" y="211.33" width="30.12" height="30.12"/><rect class="c" x="271.56" y="181.21" width="30.12" height="30.12"/><rect class="c" x="271.56" y="151.09" width="30.12" height="30.12"/><rect class="b" x="271.56" y="120.97" width="30.12" height="30.12"/><rect class="b" x="271.56" y="90.86" width="30.12" height="30.11"/><rect class="a" x="271.56" y="60.74" width="30.12" height="30.12"/><rect class="a" x="241.44" y="482.39" width="30.12" height="30.11"/><rect class="b" x="241.44" y="452.27" width="30.12" height="30.12"/><rect class="d" x="241.44" y="422.15" width="30.12" height="30.12"/><rect class="d" x="241.44" y="392.03" width="30.12" height="30.12"/><rect class="d" x="241.44" y="361.92" width="30.12" height="30.11"/><rect class="d" x="241.44" y="331.8" width="30.12" height="30.12"/><rect class="d" x="241.44" y="301.68" width="30.12" height="30.12"/><rect class="c" x="241.44" y="272.28" width="30.12" height="30.12"/><rect class="c" x="241.44" y="242.17" width="30.12" height="30.11"/><rect class="c" x="241.44" y="211.33" width="30.12" height="30.12"/><rect class="c" x="241.44" y="181.21" width="30.12" height="30.12"/><rect class="b" x="241.44" y="151.09" width="30.12" height="30.12"/><rect class="b" x="241.44" y="120.97" width="30.12" height="30.12"/><rect class="a" x="241.44" y="90.86" width="30.12" height="30.11"/><rect class="a" x="211.33" y="482.39" width="30.11" height="30.11"/><rect class="b" x="211.33" y="452.27" width="30.11" height="30.12"/><rect class="b" x="211.33" y="422.15" width="30.11" height="30.12"/><rect class="d" x="211.33" y="392.03" width="30.11" height="30.12"/><rect class="d" x="211.33" y="361.92" width="30.11" height="30.11"/><rect class="d" x="211.33" y="331.8" width="30.11" height="30.12"/><rect class="d" x="211.33" y="301.68" width="30.11" height="30.12"/><rect class="c" x="211.33" y="272.28" width="30.11" height="30.12"/><rect class="c" x="211.33" y="242.17" width="30.11" height="30.11"/><rect class="c" x="211.33" y="212.05" width="30.11" height="30.12"/><rect class="c" x="211.33" y="181.93" width="30.11" height="30.12"/><rect class="c" x="211.33" y="151.81" width="30.11" height="30.12"/><rect class="b" x="211.33" y="120.97" width="30.11" height="30.12"/><rect class="b" x="211.33" y="90.86" width="30.11" height="30.11"/><rect class="a" x="211.33" y="60.74" width="30.11" height="30.12"/><rect class="a" x="181.21" y="452.27" width="30.12" height="30.12"/><rect class="b" x="181.21" y="422.15" width="30.12" height="30.12"/><rect class="b" x="181.21" y="392.03" width="30.12" height="30.12"/><rect class="d" x="181.21" y="361.92" width="30.12" height="30.11"/><rect class="d" x="181.21" y="331.8" width="30.12" height="30.12"/><rect class="d" x="181.21" y="301.68" width="30.12" height="30.12"/><rect class="d" x="181.21" y="272.28" width="30.12" height="30.12"/><rect class="c" x="181.21" y="242.17" width="30.12" height="30.11"/><rect class="c" x="181.21" y="212.05" width="30.12" height="30.12"/><rect class="c" x="181.21" y="181.21" width="30.12" height="30.12"/><rect class="c" x="181.21" y="151.09" width="30.12" height="30.12"/><rect class="c" x="181.21" y="120.97" width="30.12" height="30.12"/><rect class="b" x="181.21" y="90.86" width="30.12" height="30.11"/><rect class="b" x="181.21" y="60.74" width="30.12" height="30.12"/><rect class="a" x="181.21" y="30.62" width="30.12" height="30.12"/><rect class="a" x="151.09" y="422.15" width="30.12" height="30.12"/><rect class="b" x="151.09" y="392.03" width="30.12" height="30.12"/><rect class="b" x="151.09" y="361.92" width="30.12" height="30.11"/><rect class="d" x="151.09" y="331.8" width="30.12" height="30.12"/><rect class="d" x="151.09" y="302.4" width="30.12" height="30.12"/><rect class="d" x="151.09" y="272.28" width="30.12" height="30.12"/><rect class="c" x="151.09" y="242.17" width="30.12" height="30.11"/><rect class="c" x="151.09" y="212.05" width="30.12" height="30.12"/><rect class="c" x="151.09" y="181.21" width="30.12" height="30.12"/><rect class="c" x="151.09" y="151.09" width="30.12" height="30.12"/><rect class="c" x="151.09" y="120.97" width="30.12" height="30.12"/><rect class="c" x="151.09" y="90.86" width="30.12" height="30.11"/><rect class="b" x="151.09" y="60.74" width="30.12" height="30.12"/><rect class="b" x="151.09" y="30.62" width="30.12" height="30.12"/><rect class="a" x="151.09" y="0.5" width="30.12" height="30.12"/><rect class="a" x="120.97" y="392.03" width="30.12" height="30.12"/><rect class="b" x="120.97" y="361.92" width="30.12" height="30.11"/><rect class="b" x="120.97" y="331.8" width="30.12" height="30.12"/><rect class="d" x="120.97" y="302.4" width="30.12" height="30.12"/><rect class="d" x="120.97" y="272.28" width="30.12" height="30.12"/><rect class="d" x="120.97" y="242.16" width="30.12" height="30.11"/><rect class="c" x="120.97" y="212.05" width="30.12" height="30.12"/><rect class="c" x="120.97" y="181.21" width="30.12" height="30.12"/><rect class="c" x="120.97" y="151.09" width="30.12" height="30.12"/><rect class="c" x="120.97" y="120.97" width="30.12" height="30.12"/><rect class="c" x="120.97" y="90.86" width="30.12" height="30.11"/><rect class="c" x="120.97" y="60.74" width="30.12" height="30.12"/><rect class="b" x="120.97" y="30.62" width="30.12" height="30.12"/><rect class="a" x="120.97" y="0.5" width="30.12" height="30.12"/><rect class="a" x="90.86" y="361.92" width="30.11" height="30.11"/><rect class="b" x="90.86" y="331.8" width="30.11" height="30.12"/><rect class="b" x="90.86" y="301.68" width="30.11" height="30.12"/><rect class="b" x="90.86" y="271.56" width="30.11" height="30.12"/><rect class="d" x="90.86" y="242.16" width="30.11" height="30.11"/><rect class="c" x="90.86" y="212.05" width="30.11" height="30.12"/><rect class="c" x="90.86" y="181.21" width="30.11" height="30.12"/><rect class="c" x="90.86" y="151.09" width="30.11" height="30.12"/><rect class="c" x="90.86" y="120.97" width="30.11" height="30.12"/><rect class="c" x="90.86" y="90.86" width="30.11" height="30.11"/><rect class="c" x="90.86" y="60.74" width="30.11" height="30.12"/><rect class="b" x="90.86" y="30.62" width="30.11" height="30.12"/><rect class="a" x="90.86" y="0.5" width="30.11" height="30.12"/><rect class="a" x="60.74" y="331.8" width="30.12" height="30.12"/><rect class="a" x="60.74" y="301.68" width="30.12" height="30.12"/><rect class="b" x="60.74" y="271.56" width="30.12" height="30.12"/><rect class="b" x="60.74" y="241.45" width="30.12" height="30.11"/><rect class="b" x="60.74" y="211.33" width="30.12" height="30.12"/><rect class="c" x="60.74" y="181.21" width="30.12" height="30.12"/><rect class="c" x="60.74" y="151.09" width="30.12" height="30.12"/><rect class="c" x="60.74" y="120.97" width="30.12" height="30.12"/><rect class="c" x="60.74" y="90.86" width="30.12" height="30.11"/><rect class="b" x="60.74" y="60.74" width="30.12" height="30.12"/><rect class="b" x="60.74" y="30.62" width="30.12" height="30.12"/><rect class="a" x="60.74" y="0.5" width="30.12" height="30.12"/><rect class="a" x="30.62" y="271.56" width="30.12" height="30.12"/><rect class="a" x="30.62" y="241.45" width="30.12" height="30.11"/><rect class="b" x="30.62" y="211.33" width="30.12" height="30.12"/><rect class="b" x="30.62" y="181.21" width="30.12" height="30.12"/><rect class="b" x="30.62" y="151.09" width="30.12" height="30.12"/><rect class="b" x="30.62" y="120.97" width="30.12" height="30.12"/><rect class="b" x="30.62" y="90.86" width="30.12" height="30.11"/><rect class="b" x="30.62" y="60.74" width="30.12" height="30.12"/><rect class="a" x="30.62" y="30.62" width="30.12" height="30.12"/><rect class="a" x="0.5" y="211.33" width="30.12" height="30.12"/><rect class="a" x="0.5" y="181.21" width="30.12" height="30.12"/><rect class="a" x="0.5" y="151.09" width="30.12" height="30.12"/><rect class="a" x="0.5" y="120.97" width="30.12" height="30.12"/><rect class="a" x="0.5" y="90.86" width="30.12" height="30.11"/><rect class="a" x="0.5" y="60.74" width="30.12" height="30.12"/></svg>