<?xml version="1.0" encoding="utf-8"?>
<!-- Generator: Adobe Illustrator 24.3.0, SVG Export Plug-In . SVG Version: 6.00 Build 0)  -->
<svg version="1.1" id="Heart" xmlns="http://www.w3.org/2000/svg" xmlns:xlink="http://www.w3.org/1999/xlink" x="0px" y="0px"
	 viewBox="0 0 512 512" style="enable-background:new 0 0 512 512;" xml:space="preserve">
<style type="text/css">
	.st0{clip-path:url(#SVGID_2_);}
	.st1{fill:#CA83A7;}
	.st2{clip-path:url(#SVGID_4_);}
	.st3{fill:#012169;}
	.st4{stroke:#dfdfdf;stroke-width:120;stroke-miterlimit:80;}
	.st5{clip-path:url(#SVGID_6_);stroke:#C8102E;stroke-width:60;stroke-miterlimit:80;}
	.st6{stroke:#efefef;stroke-width:170;stroke-miterlimit:80;}
	.st7{stroke:#C8102E;stroke-width:100;stroke-miterlimit:80;}
	.st8{opacity:0.25;fill:#FFFFFF;enable-background:new    ;}
	.st9{opacity:0.41;}
	.st10{clip-path:url(#SVGID_8_);fill:#FFFFFF;}
</style>
<g id="Heart_1_">
	<g>
		<g>
			<defs>
				<path id="SVGID_1_" d="M255.6,107c0,0,33.3-103.8,141.8-103.8c88.7,0.8,174.3,152.2,45.9,319.5
					C312.6,474.8,255.6,508.9,255.6,508.9s-55.5-26.2-183.8-185.5C-58.1,170.4,17.9,1.5,124.1,3.1C230.2,3.9,255.6,107,255.6,107z"
					/>
			</defs>
			<clipPath id="SVGID_2_">
				<use xlink:href="#SVGID_1_"  style="overflow:visible;"/>
			</clipPath>
			<g id="HeartContents" class="st0">
				<path id="Background" class="st1" d="M255.6,107c0,0,33.3-103.8,141.8-103.8c88.7,0.8,174.3,152.2,45.9,319.5
					C312.6,474.8,255.6,508.9,255.6,508.9s-55.5-26.2-183.8-185.5C-58.1,170.4,17.9,1.5,124.1,3.1C230.2,3.9,255.6,107,255.6,107z"
					/>
				<g>
					<g>
						<defs>
							<rect id="SVGID_3_" width="512" height="512"/>
						</defs>
						<clipPath id="SVGID_4_">
							<use xlink:href="#SVGID_3_"  style="overflow:visible;"/>
						</clipPath>
						<g class="st2">
							<path class="st3" d="M0,0v512h512V0H0z"/>
							<path class="st4" d="M0,0l512,512 M512,0L0,512"/>
							<g>
								<g>
									<defs>
										<polygon id="SVGID_5_" points="256,256 512,256 512,512 256,512 0,512 0,256 0,0 256,0 512,0 										"/>
									</defs>
									<clipPath id="SVGID_6_">
										<use xlink:href="#SVGID_5_"  style="overflow:visible;"/>
									</clipPath>
									<path class="st5" d="M0,0l512,512 M512,0L0,512"/>
								</g>
							</g>
							<path class="st6" d="M256,0v512 M0,256h512"/>
							<path class="st7" d="M256,0v512 M0,256h512"/>
						</g>
					</g>
				</g>
				<path id="Shade" class="st8" d="M254,212.4c0,0,0.8-189.5,143.4-189.5c86.4,0,137.8,162.5,30.1,287.8
					C296,464.5,254,486.7,254,486.7s-50.7-28.5-167.2-175.2C-22.5,174.4,24.3,22.1,125.7,23.7C255.6,25.3,254,212.4,254,212.4z"/>
				<g id="Shine" class="st9">
					<g>
						<g>
							<g>
								<g>
									<defs>
										<path id="SVGID_7_" d="M254,212.4c0,0,0.8-189.5,143.4-189.5c86.4,0,137.8,162.5,30.1,287.8
											C296,464.5,254,486.7,254,486.7s-50.7-28.5-167.2-175.2C-22.5,174.4,24.3,22.1,125.7,23.7C255.6,25.3,254,212.4,254,212.4
											z"/>
									</defs>
									<clipPath id="SVGID_8_">
										<use xlink:href="#SVGID_7_"  style="overflow:visible;"/>
									</clipPath>
									<path class="st10" d="M520.2-27.8c0,288.6-119.6,304.4-267.8,304.4S-15.3,260.8-15.3-27.8c0-168.1,119.6-304.4,267.8-304.4
										S520.2-195.9,520.2-27.8z"/>
								</g>
							</g>
						</g>
					</g>
				</g>
			</g>
		</g>
	</g>
</g>
</svg>
