<?xml version="1.0" encoding="utf-8"?>
<!-- Generator: Adobe Illustrator 25.0.0, SVG Export Plug-In . SVG Version: 6.00 Build 0)  -->
<svg version="1.1" id="Heart" xmlns="http://www.w3.org/2000/svg" xmlns:xlink="http://www.w3.org/1999/xlink" x="0px" y="0px"
	 viewBox="0 0 512 512" style="enable-background:new 0 0 512 512;" xml:space="preserve">
<style type="text/css">
	.st0{clip-path:url(#SVGID_2_);}
	.st1{fill:#FFFFFF;}
	.st2{fill:#B22234;}
	.st3{stroke:#E6E6E6;stroke-width:40;}
	.st4{fill:#3C3B6E;}
	.st5{fill:#E6E6E6;}
	.st6{opacity:0.25;fill:#FFFFFF;enable-background:new    ;}
	.st7{opacity:0.41;}
	.st8{clip-path:url(#SVGID_4_);fill:#FFFFFF;}
</style>
<g id="Heart_1_">
	<g>
		<g>
			<g>
				<g>
					<defs>
						<path id="SVGID_1_" d="M255.6,107c0,0,33.3-103.8,141.8-103.8c88.7,0.8,174.3,152.2,45.9,319.5
							C312.6,474.8,255.6,508.9,255.6,508.9s-55.5-26.2-183.8-185.5C-58.1,170.4,17.9,1.5,124.1,3.1C230.2,3.9,255.6,107,255.6,107z
							"/>
					</defs>
					<clipPath id="SVGID_2_">
						<use xlink:href="#SVGID_1_"  style="overflow:visible;"/>
					</clipPath>
					<g id="HeartContents" class="st0">
						<path id="Background" class="st1" d="M255.6,107c0,0,33.3-103.8,141.8-103.8c88.7,0.8,174.3,152.2,45.9,319.5
							C312.6,474.8,255.6,508.9,255.6,508.9s-55.5-26.2-183.8-185.5C-58.1,170.4,17.9,1.5,124.1,3.1C230.2,3.9,255.6,107,255.6,107z
							"/>
						<g>
							<rect x="-138" class="st2" width="972.8" height="512"/>
							<path class="st3" d="M-138,59.1h972.8 M834.8,137.8H-138 M-138,216.6h972.8 M834.8,295.4H-138 M-138,374.2h972.8
								 M834.8,452.9H-138"/>
							<rect x="-138" class="st4" width="389.1" height="275.7"/>
							<g>
								<g id="s18">
									<g id="s9">
										<g id="s5">
											<g id="s4">
												<path id="s" class="st5" d="M-105.6,11.8l9.3,28.5l-24.2-17.6h30l-24.2,17.6L-105.6,11.8z"/>
												<g>
													<path id="s_1_" class="st5" d="M-105.6,67l9.3,28.5l-24.2-17.6h30l-24.2,17.6L-105.6,67z"/>
												</g>
												<g>
													<path id="s_2_" class="st5" d="M-105.6,122.1l9.3,28.5l-24.2-17.6h30l-24.2,17.6L-105.6,122.1z"/>
												</g>
												<g>
													<path id="s_3_" class="st5" d="M-105.6,177.2l9.3,28.5l-24.2-17.6h30l-24.2,17.6L-105.6,177.2z"/>
												</g>
											</g>
											<g>
												<path id="s_4_" class="st5" d="M-105.6,232.4l9.3,28.5l-24.2-17.6h30l-24.2,17.6L-105.6,232.4z"/>
											</g>
										</g>
										<g>
											<g id="s4_1_">
												<path id="s_5_" class="st5" d="M-73.1,39.4l9.3,28.5l-24.2-17.6h30l-24.2,17.6L-73.1,39.4z"/>
												<g>
													<path id="s_6_" class="st5" d="M-73.1,94.5l9.3,28.5l-24.2-17.6h30L-82.4,123L-73.1,94.5z"/>
												</g>
												<g>
													<path id="s_7_" class="st5" d="M-73.1,149.7l9.3,28.5l-24.2-17.6h30l-24.2,17.6L-73.1,149.7z"/>
												</g>
												<g>
													<path id="s_8_" class="st5" d="M-73.1,204.8l9.3,28.5l-24.2-17.6h30l-24.2,17.6L-73.1,204.8z"/>
												</g>
											</g>
										</g>
									</g>
									<g>
										<g id="s9_1_">
											<g id="s5_1_">
												<g id="s4_2_">
													<path id="s_9_" class="st5" d="M-40.7,11.8l9.3,28.5l-24.2-17.6h30L-50,40.3L-40.7,11.8z"/>
													<g>
														<path id="s_10_" class="st5" d="M-40.7,67l9.3,28.5l-24.2-17.6h30L-50,95.5L-40.7,67z"/>
													</g>
													<g>
														<path id="s_11_" class="st5" d="M-40.7,122.1l9.3,28.5L-55.7,133h30L-50,150.6L-40.7,122.1z"/>
													</g>
													<g>
														<path id="s_12_" class="st5" d="M-40.7,177.2l9.3,28.5l-24.2-17.6h30L-50,205.7L-40.7,177.2z"/>
													</g>
												</g>
												<g>
													<path id="s_13_" class="st5" d="M-40.7,232.4l9.3,28.5l-24.2-17.6h30L-50,260.9L-40.7,232.4z"/>
												</g>
											</g>
											<g>
												<g id="s4_3_">
													<path id="s_14_" class="st5" d="M-8.3,39.4L1,67.9l-24.2-17.6h30l-24.2,17.6L-8.3,39.4z"/>
													<g>
														<path id="s_15_" class="st5" d="M-8.3,94.5L1,123l-24.2-17.6h30L-17.6,123L-8.3,94.5z"/>
													</g>
													<g>
														<path id="s_16_" class="st5" d="M-8.3,149.7L1,178.2l-24.2-17.6h30l-24.2,17.6L-8.3,149.7z"/>
													</g>
													<g>
														<path id="s_17_" class="st5" d="M-8.3,204.8L1,233.3l-24.2-17.6h30l-24.2,17.6L-8.3,204.8z"/>
													</g>
												</g>
											</g>
										</g>
									</g>
								</g>
								<g>
									<g id="s18_1_">
										<g id="s9_2_">
											<g id="s5_2_">
												<g id="s4_4_">
													<path id="s_18_" class="st5" d="M24.1,11.8l9.3,28.5L9.2,22.7h30L14.9,40.3L24.1,11.8z"/>
													<g>
														<path id="s_19_" class="st5" d="M24.1,67l9.3,28.5L9.2,77.8h30L14.9,95.5L24.1,67z"/>
													</g>
													<g>
														<path id="s_20_" class="st5" d="M24.1,122.1l9.3,28.5L9.2,133h30l-24.2,17.6L24.1,122.1z"/>
													</g>
													<g>
														<path id="s_21_" class="st5" d="M24.1,177.2l9.3,28.5L9.2,188.1h30l-24.2,17.6L24.1,177.2z"/>
													</g>
												</g>
												<g>
													<path id="s_22_" class="st5" d="M24.1,232.4l9.3,28.5L9.2,243.3h30l-24.2,17.6L24.1,232.4z"/>
												</g>
											</g>
											<g>
												<g id="s4_5_">
													<path id="s_23_" class="st5" d="M56.6,39.4l9.3,28.5L41.6,50.3h30L47.3,67.9L56.6,39.4z"/>
													<g>
														<path id="s_24_" class="st5" d="M56.6,94.5l9.3,28.5l-24.2-17.6h30L47.3,123L56.6,94.5z"/>
													</g>
													<g>
														<path id="s_25_" class="st5" d="M56.6,149.7l9.3,28.5l-24.2-17.6h30l-24.2,17.6L56.6,149.7z"/>
													</g>
													<g>
														<path id="s_26_" class="st5" d="M56.6,204.8l9.3,28.5l-24.2-17.6h30l-24.2,17.6L56.6,204.8z"/>
													</g>
												</g>
											</g>
										</g>
										<g>
											<g id="s9_3_">
												<g id="s5_3_">
													<g id="s4_6_">
														<path id="s_27_" class="st5" d="M89,11.8l9.3,28.5L74,22.7h30L79.7,40.3L89,11.8z"/>
														<g>
															<path id="s_28_" class="st5" d="M89,67l9.3,28.5L74,77.8h30L79.7,95.5L89,67z"/>
														</g>
														<g>
															<path id="s_29_" class="st5" d="M89,122.1l9.3,28.5L74,133h30l-24.2,17.6L89,122.1z"/>
														</g>
														<g>
															<path id="s_30_" class="st5" d="M89,177.2l9.3,28.5L74,188.1h30l-24.2,17.6L89,177.2z"/>
														</g>
													</g>
													<g>
														<path id="s_31_" class="st5" d="M89,232.4l9.3,28.5L74,243.3h30l-24.2,17.6L89,232.4z"/>
													</g>
												</g>
												<g>
													<g id="s4_7_">
														<path id="s_32_" class="st5" d="M121.4,39.4l9.3,28.5l-24.2-17.6h30l-24.2,17.6L121.4,39.4z"/>
														<g>
															<path id="s_33_" class="st5" d="M121.4,94.5l9.3,28.5l-24.2-17.6h30L112.2,123L121.4,94.5z"/>
														</g>
														<g>
															<path id="s_34_" class="st5" d="M121.4,149.7l9.3,28.5l-24.2-17.6h30l-24.2,17.6L121.4,149.7z"/>
														</g>
														<g>
															<path id="s_35_" class="st5" d="M121.4,204.8l9.3,28.5l-24.2-17.6h30l-24.2,17.6L121.4,204.8z"/>
														</g>
													</g>
												</g>
											</g>
										</g>
									</g>
								</g>
								<g>
									<g id="s9_4_">
										<g id="s5_4_">
											<g id="s4_8_">
												<path id="s_36_" class="st5" d="M153.8,11.8l9.3,28.5l-24.2-17.6h30l-24.2,17.6L153.8,11.8z"/>
												<g>
													<path id="s_37_" class="st5" d="M153.8,67l9.3,28.5l-24.2-17.6h30l-24.2,17.6L153.8,67z"/>
												</g>
												<g>
													<path id="s_38_" class="st5" d="M153.8,122.1l9.3,28.5L138.9,133h30l-24.2,17.6L153.8,122.1z"/>
												</g>
												<g>
													<path id="s_39_" class="st5" d="M153.8,177.2l9.3,28.5l-24.2-17.6h30l-24.2,17.6L153.8,177.2z"/>
												</g>
											</g>
											<g>
												<path id="s_40_" class="st5" d="M153.8,232.4l9.3,28.5l-24.2-17.6h30l-24.2,17.6L153.8,232.4z"/>
											</g>
										</g>
										<g>
											<g id="s4_9_">
												<path id="s_41_" class="st5" d="M186.3,39.4l9.3,28.5l-24.2-17.6h30L177,67.9L186.3,39.4z"/>
												<g>
													<path id="s_42_" class="st5" d="M186.3,94.5l9.3,28.5l-24.2-17.6h30L177,123L186.3,94.5z"/>
												</g>
												<g>
													<path id="s_43_" class="st5" d="M186.3,149.7l9.3,28.5l-24.2-17.6h30L177,178.2L186.3,149.7z"/>
												</g>
												<g>
													<path id="s_44_" class="st5" d="M186.3,204.8l9.3,28.5l-24.2-17.6h30L177,233.3L186.3,204.8z"/>
												</g>
											</g>
										</g>
									</g>
								</g>
								<g>
									<g id="s5_5_">
										<g id="s4_10_">
											<path id="s_45_" class="st5" d="M218.7,11.8l9.3,28.5l-24.2-17.6h30l-24.2,17.6L218.7,11.8z"/>
											<g>
												<path id="s_46_" class="st5" d="M218.7,67l9.3,28.5l-24.2-17.6h30l-24.2,17.6L218.7,67z"/>
											</g>
											<g>
												<path id="s_47_" class="st5" d="M218.7,122.1l9.3,28.5L203.7,133h30l-24.2,17.6L218.7,122.1z"/>
											</g>
											<g>
												<path id="s_48_" class="st5" d="M218.7,177.2l9.3,28.5l-24.2-17.6h30l-24.2,17.6L218.7,177.2z"/>
											</g>
										</g>
										<g>
											<path id="s_49_" class="st5" d="M218.7,232.4l9.3,28.5l-24.2-17.6h30l-24.2,17.6L218.7,232.4z"/>
										</g>
									</g>
								</g>
							</g>
						</g>
						<path id="Shade" class="st6" d="M254,212.4c0,0,0.8-189.5,143.4-189.5c86.4,0,137.8,162.5,30.1,287.8
							C296,464.5,254,486.7,254,486.7s-50.7-28.5-167.2-175.2C-22.5,174.4,24.3,22.1,125.7,23.7C255.6,25.3,254,212.4,254,212.4z"/>
						<g id="Shine" class="st7">
							<g>
								<g>
									<g>
										<g>
											<g>
												<g>
													<defs>
														<path id="SVGID_3_" d="M254,212.4c0,0,0.8-189.5,143.4-189.5c86.4,0,137.8,162.5,30.1,287.8
															C296,464.5,254,486.7,254,486.7s-50.7-28.5-167.2-175.2C-22.5,174.4,24.3,22.1,125.7,23.7
															C255.6,25.3,254,212.4,254,212.4z"/>
													</defs>
													<clipPath id="SVGID_4_">
														<use xlink:href="#SVGID_3_"  style="overflow:visible;"/>
													</clipPath>
													<path class="st8" d="M520.2-27.8c0,288.6-119.6,304.4-267.8,304.4S-15.3,260.8-15.3-27.8
														c0-168.1,119.6-304.4,267.8-304.4S520.2-195.9,520.2-27.8z"/>
												</g>
											</g>
										</g>
									</g>
								</g>
							</g>
						</g>
					</g>
				</g>
			</g>
		</g>
	</g>
</g>
</svg>
