<?xml version="1.0" encoding="utf-8"?>
<!-- Generator: Adobe Illustrator 24.3.0, SVG Export Plug-In . SVG Version: 6.00 Build 0)  -->
<svg version="1.1" id="Heart" xmlns="http://www.w3.org/2000/svg" xmlns:xlink="http://www.w3.org/1999/xlink" x="0px" y="0px"
	 viewBox="0 0 512 512" style="enable-background:new 0 0 512 512;" xml:space="preserve">
<style type="text/css">
	.st0{clip-path:url(#SVGID_2_);}
	.st1{fill:#CA83A7;}
	.st2{fill:#F1F1F1;}
	.st3{fill:#00AB39;}
	.st4{fill:#D21034;}
	.st5{opacity:0.25;fill:#FFFFFF;enable-background:new    ;}
	.st6{opacity:0.41;}
	.st7{clip-path:url(#SVGID_4_);fill:#FFFFFF;}
</style>
<g id="Heart_1_">
	<g>
		<g>
			<g>
				<defs>
					<path id="SVGID_1_" d="M255.6,107c0,0,33.3-103.8,141.8-103.8c88.7,0.8,174.3,152.2,45.9,319.5
						C312.6,474.8,255.6,508.9,255.6,508.9s-55.5-26.2-183.8-185.5C-58.1,170.4,17.9,1.5,124.1,3.1C230.2,3.9,255.6,107,255.6,107z"
						/>
				</defs>
				<clipPath id="SVGID_2_">
					<use xlink:href="#SVGID_1_"  style="overflow:visible;"/>
				</clipPath>
				<g id="HeartContents" class="st0">
					<path id="Background" class="st1" d="M255.6,107c0,0,33.3-103.8,141.8-103.8c88.7,0.8,174.3,152.2,45.9,319.5
						C312.6,474.8,255.6,508.9,255.6,508.9s-55.5-26.2-183.8-185.5C-58.1,170.4,17.9,1.5,124.1,3.1C230.2,3.9,255.6,107,255.6,107z"
						/>
					<g>
						<rect x="-240.1" y="-97.9" class="st2" width="973.2" height="648.8"/>
						<rect x="-240.1" y="226.5" class="st3" width="973.2" height="324.4"/>
						<g id="dragon" transform="translate(-59.512 8.2826)">
							<path d="M414.5,87.7c-1.4-0.2-2.7,0.1-4.2,0.7c-3,1.4-6.6,4.4-12.9,9.1c-14.1,10.8-30.2,12.2-49.2,12.6
								c-39.6,0.9-57.9,10.6-66.6,23c-8.7,12.4-7.6,27.3-8.6,38.4c-0.7,7.6-2.1,14-7.6,21.1c1.5-3.7,2-6.4,1.6-8.4
								c-0.4-2.1-1.6-3.5-3-4.7c-1.4-1.1-3-2.1-4.2-3.4c-0.9-1-1.6-2.3-1.9-4c1.6-1,3.5-1,5-0.1c1.9,1.1,3.2,3.7,2.2,7.6
								c0,0.2,0.1,0.3,0.2,0.4c0,0.1,0,0.1,0,0.2c0.2,0.1,0.4,0.1,0.5,0l0.1-0.1c0,0,0,0,0,0c3.8-4.1,5.5-7.4,5.8-10.3
								c0.3-2.9-0.8-5.2-2.4-7.3c-1.5-2-3.5-3.8-4.8-5.5c-1.3-1.6-2.1-3.2-1.8-5c0.6-0.6,1.2-1.1,1.7-1.3c1.1-0.5,2.1-0.2,2.9,0.6
								c0.8,0.8,1.5,2,1.9,3.4c0.4,1.4,0.5,2.8,0.4,3.9c0,0,0,0,0,0.1c-0.1,0.2,0,0.4,0.2,0.5c0.2,0.1,0.4,0.1,0.5-0.1
								c0,0,0-0.1,0.1-0.1c0,0,0,0,0-0.1c2.5-3.9,3.6-7.2,3.6-10.1c0-2.9-0.9-5.4-2.3-7.4c-1.4-2.1-3.2-3.8-4.8-5.3
								c-1.6-1.4-2.9-2.6-3.6-3.7c0-0.3,0-0.7,0-1c1.2-0.9,2.8-1.3,4.3-1c1.6,0.3,3.1,1.5,3.7,4.1c0,0,0,0,0.1,0
								c0,0.2,0.2,0.4,0.4,0.4c0.2,0,0.4-0.2,0.4-0.4v0c0.2-5.3-0.8-9.5-2.8-12.7c-1.8-2.9-4.5-4.9-7.7-6c0.1-0.2,0.3-0.4,0.4-0.6
								c1.1-1.4,2.6-3.1,4-5c2.9-3.9,5.7-8.7,5.1-14.8c0-0.1-0.1-0.1-0.1-0.1c0-0.1,0-0.1-0.1-0.2c-0.1-0.1-0.2-0.1-0.3-0.1
								c-0.1,0-0.1,0.1-0.1,0.1c-0.1,0-0.1,0-0.2,0.1c-2.7,3.5-7.6,4.5-12.7,5.2c0.6-1.1,1.3-2.5,2-4.2c0.7-1.9,1.3-3.9,1.1-5.4v0
								c0,0,0-0.1,0-0.1c0-0.1-0.1-0.2-0.2-0.3c-0.1-0.1-0.2-0.1-0.3-0.1c0,0,0,0.1-0.1,0.1c-0.1,0-0.1,0.1-0.2,0.1
								c-3.1,3.4-9,5.4-14.2,6.9c-2.6,0.7-5,1.3-6.8,1.8c-0.9,0.3-1.7,0.6-2.2,0.9c-0.4,0.2-0.7,0.4-0.9,0.7c-3.6-0.8-7-1.3-10-1.5
								c-5.5-0.3-9.9,0.4-12.9,1.6c-1.5,0.6-2.7,1.4-3.4,2.3c-0.7,0.9-1.1,2-0.8,3c0.2,1,1.1,2,2.2,3c-7.8-3.2-14.5-4.5-20-4.5
								c-2.3,0-4.3,0.2-6.2,0.5c-3.7,0.7-6.7,1.8-8.8,3c-1.7,0.9-2.7,1.8-3.4,2.6c-0.1,0.1-0.2,0.1-0.3,0.2c0,0,0,0-0.1,0
								c0,0,0,0.1,0,0.1c0,0-0.1,0.1-0.2,0.2c0,0,0,0-0.1,0v0c0,0-0.1,0.1-0.1,0.1c-0.1,0.2-0.1,0.4,0,0.5c0.1,0.1,0.4,0.2,0.5,0.1
								c1-0.6,2.1-1.1,3.3-1.5c0.1,0,0.1,0,0.2,0c1,0,2,0.2,2.9,0.6c1,0.4,2,0.9,2.7,1.4c0.7,0.5,1.2,0.9,1.3,0.9c0,0,0,0,0.1,0.1
								c0.5,0.3,1.2,0.7,1.9,1c-1.5,3.1-2,7.1-2,13c-0.3,0.1-0.5,0.1-0.8,0.2c-1.6,0.2-3.7,0.4-6,0.2c-3.2-0.2-6.9-1-10.2-2.7
								c0.5,0.1,1.1,0.3,1.6,0.3c2.4,0.1,4.6-0.4,6.2-1.2c0.2-0.1,0.5-0.1,0.7-0.1c0.2-0.1,0.3-0.2,0.3-0.4c0-0.1-0.1-0.2-0.2-0.3
								c0,0,0-0.1-0.1-0.1c-2.4-0.9-15-6.7-25.6-20.2c0,0,0,0,0,0c0,0,0,0,0,0c-0.1-0.1-0.3-0.2-0.4-0.2c-0.2,0-0.4,0.2-0.3,0.5
								c0,0.1,0,0.1,0,0.2c0.5,6.4,2.5,22.1,15.5,34.6c0.1,0.1,0.3,0.2,0.5,0.1s0.2-0.3,0.2-0.5c-0.3-1.7-0.5-2.8-0.8-4.5
								c0,0,0,0-0.1-0.1c0-2.2-0.1-3.7-0.4-4.9c3.9,3.6,8,5.2,11.8,5.7c4.9,0.6,9.3-0.4,12.2-0.8c0.1,0,0.3-0.1,0.5-0.1
								c0,2.8-1,6.3-2.8,9.2c-1,1.7-2.1,3.1-3.4,4.1c-1.2,1-2.5,1.5-3.7,1.4h0c-0.2,0-0.3,0.2-0.3,0.4c-0.1,0.1-0.2,0.1-0.2,0.2
								c0,0.2,0.2,0.4,0.4,0.4c5.3,0,9.7,0.1,14.5-0.2h0c0.6-0.1,0.9,0,0.9,0c0,0,0,0.1-0.1,0.2c-0.3,0.5-1.3,1.5-2.5,2.7
								c-0.1,0.1-0.2,0.3-0.1,0.5c0.1,0.2,0.2,0.3,0.4,0.3c0,0,0.1,0,0.1,0c0.1,0.1,0.2,0.1,0.4,0.1c0.1,0,0.1,0,0.1-0.1
								c0.2,0,0.3-0.1,0.5-0.2c3.1-0.3,7-1,9.9-3.1c-0.1,0.3-0.2,0.8-0.3,1c-0.1,0.3-0.3,0.5-0.7,0.9c0,0-0.2,0.1-0.2,0.2
								c-0.5,0.4-0.9,0.7-1.5,1.2c0,0,0,0-0.1,0.1c-0.1,0.1-0.2,0.3-0.2,0.5c0,0.2,0.2,0.3,0.3,0.3c0,0,0.1,0,0.1,0h0.1
								c0,0,0.1,0,0.1,0c3.3-0.3,9-2.9,13.1-7.2c2.1,0.3,3.5,1.3,4.4,2.4c0.5,0.6,0.9,1.1,1.3,1.5c0.2,0.1,0.4,0.2,0.6,0.3
								c0,0.2-0.2,0.4-0.1,0.6c0.1,0.4,0.4,0.7,0.7,0.9c-1.5,2.8-2,4.8-1.8,6.1c0.1,0.7,0.5,1.2,0.8,1.6c-2.1,1.5-3.8,3.1-4.6,4.6
								c-0.5,0.8-0.7,1.6-0.5,2.3c0.1,0.2,0.2,0.3,0.3,0.5c-0.2,0-0.3,0-0.5,0h0c-2,1-4,3-5.1,4.9c-0.5,1-0.8,1.9-0.8,2.8
								c0,0.4,0.2,0.7,0.4,1c-2.6,1.3-5,4.3-6.3,6.9c-0.7,1.3-1.1,2.6-1,3.6c0.1,0.5,0.3,1,0.7,1.2c-0.1,0.1-0.1,0.2-0.2,0.3
								c0,0-0.1,0.1-0.1,0.1c-2.6,1.3-4.3,4.5-5.1,7.2c-0.4,1.4-0.5,2.7-0.3,3.7c0.1,0.4,0.3,0.6,0.5,0.9c-0.1,0.1-0.3,0.2-0.4,0.3
								c-0.8,0.7-1.3,1.5-1.5,1.8l0,0c-1.5,1.9-2.2,5.1-2.1,7.7c0.1,1.3,0.3,2.5,0.8,3.4c0.2,0.3,0.4,0.5,0.7,0.7
								c0,0-0.1,0.1-0.2,0.1l0,0c-1.5,1.9-2.2,5.1-2.1,7.7c0.1,1.3,0.3,2.5,0.8,3.4c0.2,0.4,0.6,0.8,1,1c0.2,0.1,0.5,0,0.7,0.1
								c-0.1,0.1-0.2,0.3-0.3,0.3c0,0,0,0,0,0.1c-0.2,0.2-0.4,0.5-0.5,0.9c-0.1,0.2-0.1,0.5-0.2,0.7c-0.9,1.9-1.7,0.9-2.2,0.1
								c-4-8.4-7.9-13.3-11.8-32.4c-0.7-3.3-8.1-8.5-10.2-22c-0.4-3.1,4.2-9.6-2.1-11.6c0,0,0,0-0.1,0c-4.3-8.2-13.2-5.1-14.6-2.4
								c-0.1,0.1-0.1,0.4,0,0.5c0.1,0.2,0.3,0.2,0.5,0.2c1.1-0.3,4.6,0.9,4.6,3c-1.9,4.5,0.5,8.2-0.8,7.8c-0.2-7-7.8-6.9-8.1-6.8
								c0,0,0,0,0,0l-3.4-0.4c-11.4,0.1-8.2,8.4-7.5,10c0.1,0.1,0.4,0.2,0.6,0.2c0.3,0,0.4-0.1,0.5-0.3c-0.5-3.1,2-3.3,4.6-2.1
								c1.7,6.3,5.2,6.6,5.6,6.6v0h0.1c4.7,1,6.2,4.1,6.3,6c-1.5-0.6-3.3-0.9-5.9-0.4c-1.7-1.7-5-2.4-6.1-2.6
								c-0.5-0.1-4.1,0.3-5.5,2.4l-0.5-0.1c-7.1,2.3-4.2,10.2-1.7,11.2c0.1,0.1,0.3,0.2,0.4,0.1c0.1-0.1,0.2-0.2,0.2-0.4
								c-1.1-2.4,0.4-3.8,2.3-3c2.7,3,6.1,4.2,12.8,0.4c0.1,0.1,2.4,1.1,4.8,2c-0.1,2.9,2.9,7.8,5.1,11.6c-0.7,2.9-1.8,5.8-2.5,6.9
								c0,0,0,0-0.1,0.1c-2.7,2.1-5.1,7.2-4,11.7c-0.9,2.2-4,3.4-4-0.9c-0.1-0.1-0.3-0.1-0.5-0.1c-0.2,0.1-0.2,0.3-0.2,0.5
								c-1,2.8,3.7,11.4,11,6.9l1.5-1.7c2.4,0,5-3.2,5.9-5.9c3.6,22.3,12.2,44.8,15.8,52.1c-2.7,8.2-10.4,7.9-12.9,5.2
								c0,0,0,0-0.1-0.1c-0.2-0.2-0.4-0.1-0.6,0.1c-0.1,0.2-0.1,0.4,0.1,0.6c4.7,4.8,7.3,6.3,12,6.3c10.2,0,13.8-6.4,14.6-9.1
								c8.6-1.8,15.2-7.5,17.7-7.9c0.4,0.3,0.9,1,1.3,1.2c2,1.6,3.8,2.5,5.3,2.7c0.7,0.1,1.4,0,2-0.3c0.6,1.2,1.5,2.2,2.6,3
								c-0.4,3-0.8,9.2-3,17.1c-2.3,8.1-6.5,17.8-14.7,27c-3.2,1.4-5.8-0.8-7.5-2.1c-1.4-1.1-5.1-5.1-5.7-7.1
								c-0.8-2.4-1.6-4.1-2.9-5.3c-1.3-1.2-3.4-1.7-5-1.8c0,0,0.6,0.1-0.1,0c-0.6,0.1-1,0-1.4,0.1c-5-4-9.9,2.7-9.3,6.8
								c0,0.2,0.1,0.3,0.3,0.4c0.2,0.1,0.4,0,0.5-0.2c0.7-1.6,2.7-1.1,3.7,0.2c-0.2,1.5-0.1,3.2,1.6,5.1c-1.6,0.1-3.6,0.6-5.7,3
								c-8.5,1-7,10.7-4.4,12.3c0.1,0.2,0.3,0.3,0.4,0.2c0.2,0,0.3-0.2,0.3-0.3c-2.8-3.6,1.2-5.2,3.1-3.5c0.5,1.6,2.8,3.1,4.7,4
								c-0.1,0.5-0.7,2.4-0.5,2.9c-9.2,5-0.7,13.8,1.5,13.2c0.2-0.1,0.3-0.1,0.5-0.2c0.1-0.1,0.2-0.3,0.2-0.5
								c-1.3-2.1-1.4-4.6,0.9-3.9c1.2,0.8,3.4,1.1,4.6,1.1c2.9,0,4.5-1.8,8.2-5.4c2.2-2.1,3.8-1.1,5.2-0.4c0.1,0.6,0.4,1.3,1.1,1.6
								c1.1,0.4,3.4,0.7,4.7,0.6c7.5-0.2,11.7-1.9,15.1-3.1c3.4-1.2,6.5-1.8,9.4-1.9c2.7-0.1,4.4,0.5,7.4,1.5c1.5,0.5,3.8,1.7,5,1.7
								c1.9-0.1,2.7-1,3.2-1.7c2.8-0.5,3.5,0.7,1.9,3.9c-0.1,0.2,0,0.4,0.2,0.5c0.2,0.1,0.3,0.1,0.5,0c2.9-1.2,11.6-9.5-0.1-14.3
								c-1.8-1.6-4.1-2.9-5.9-2.9c-1.8,0-3.6,0.7-5.5,1.1c-1.9,0.4-3.7,0.8-4.3,0.8c-2.4,0-2.5-1.4-2.8-4.1
								c-0.2-2.7,5.4-12,7.8-15.3c4.9-6.5,11.5-13.9,16.2-18.8c14.1-0.6,8.4,7.7,6,9.3c-0.2,0.1-0.3,0.3-0.2,0.5
								c0.1,0.2,0.3,0.3,0.5,0.2c0.1,0,0.1,0,0.1-0.1c5.1-1.3,9.9-4.8,11.5-8.1c0,0,3.7-6.4,0.5-11.8c-0.1-0.3-0.3-0.7-0.5-1.1
								c1.8-0.8,3.9-3.8,4-4.2c2.3,0.7,11.4,0.2,12.2-4.9c4.2,0.4,11.6-2.4,11.9-6.9c0.5,0.5,1.5,0.5,2.7,0.3
								c0.5,3.8,6.2,7.4,7.6,6.6c0.6,6.3,8.5,9.3,10.9,8.2c-0.4,1.5,5.5,4.4,7.8,4.3c-4.5,12.2-12.6,26.1-23.7,31.6
								c-3-0.3-7.2-2.3-9.1-3.6c-1.5-1-3.4-2.3-4.6-4.2s-1.1-1.9-2.4-3.1c-1.3-1.2-3.8-2.2-4.6-2.1c-0.6,0.1-1.6,0.5-2.4,1.1
								c-11-2-9.9,5.9-8.9,8.7c0,0.2,0.1,0.3,0.3,0.4c0.2,0.1,0.4,0,0.5-0.2c0-4.1,2.4-4.1,3.6-2.2c0,0.1,0,0.1,0,0.2
								c0.7,1.4,0.4,2.2,0.1,2.7c-1.2,0.1-2.4,0.4-3.9,1.5c-9.6-1.1-8.8,9.6-5.7,10.8c0.1,0.2,0.3,0.3,0.4,0.2
								c0.2,0,0.3-0.2,0.3-0.3c-1.7-2.5,2.6-6.4,3.6-1.8v0c-0.1,0.1-0.1,0.3-0.1,0.5c0.2,1.5,2,3,3.5,3.7c-0.3,0.5-0.9,0.9-1,1.7
								c-10.1,3.6-4.5,12.3-1.5,13.5c0.1,0.1,0.4,0.1,0.5,0c0.2-0.1,0.2-0.3,0.2-0.5c-0.9-1.3-0.6-4.3,3.6-3.7
								c0.4,1.2,2.2,1.8,3.6,1.8c2.9,0,8.2-3.9,11-5.4c2.6-1.4,6.9-0.9,8-0.8c0.6,0.5,1.4,0.9,3.4,0.9c10.2-0.1,12-5.6,22.2-5.5
								c4.6,0.1,15.5,5.5,19,0.5c1.6-0.6,2.4,0.8,0.5,2.7c-0.1,0.1,0,0.4,0.2,0.5c0.2,0.1,0.3-0.1,0.5,0c3,0.4,12.1-9.5,0.1-12.8
								c-0.1-0.1,0-0.2-0.2-0.3c-0.3-0.2-1.8-1.8-5.4-1.8c-3.7,0-6.3,1.7-7.6,2.1c-2.7,0.8-1.7-1.4-1.5-2.1
								c3-7.4,17.5-21.1,24.1-26.6c0.7-0.3,1.5-0.7,2.4-1.3c6.6-2.4,8.4,4.1,1.9,6.4c-0.3,0.3-0.3,0.7-0.1,1
								c0.2,0.3,0.6,0.5,0.9,0.4c15.3-4.1,13-12.4,13-12.6c0.6-8.7-9.8-12.3-11.4-13.1c-2.8-3.1-3.5-5-3.3-7.2
								c0.1-1.1,1-2.9,2.4-2.1c2.5,2,5.4,3.1,6.3,1.5c-1.8,2,10.4,9.3,11.6,6.3c1.2,5.2,9.9,4.9,11.6,3.5c2.6,4.9,11.5,3.6,11.5,2.8
								c-0.4,1.8,7.8,4.5,11.5,1.7l0.2,0.4c3,3.6,4.8,8.5,6.8,16.9c2,8.5,1.7,15.2-1.1,22c-0.1,0.2-0.9,0.3-1.7,0.2
								c-2.2-0.9-3.5-1.5-4.9-2.7c-1.4-1.1-3.1-2.7-4.3-4.5c-1.1-2-1.9-3.7-3.2-4.9c-1.3-1.2-3.4-1.8-5.1-1.9h-0.1
								c-0.7,0.1-1.3,0.3-1.9,0.7c-8.2-2.5-12.1,6.1-11.2,9c0,0.2,0.2,0.3,0.4,0.4s0.4,0,0.5-0.2c0.8-2.1,4.6-3.2,6-1.2
								c0.2,0.9,0.1,1.5-0.1,1.9c-1.7,0.2-3.7,0.7-5.7,3.1c-9.6,0.6-6.3,10-4.4,12.4c0.1,0.2,0.3,0.3,0.4,0.2c0.2,0,0.3-0.2,0.4-0.4
								c-0.2-2.7,2.5-6,4.5-3.5c0.9,1.4,2.8,2.4,4.1,2.7c-11,5-3.1,12.3-0.1,13.6c0.1,0.1,0.3,0.1,0.5,0c0.1-0.1,0.2-0.3,0.2-0.5
								c-1.3-2.1-0.6-5.4,2-4.5c-0.1,1.8,3.6,3,5.3,3c2.9,0,6-2.4,8.8-3.9c2.7-1.5,8.9-1.5,10.2-1.5c4.2,4,12.2,3,16.7,1.6
								c4.8-1.5,8.4-4.2,12.2-4.3c5.1,0,9,6.2,13.5,0.9c2.9-1.4,3.8,2.2,2.4,4.4c-0.1,0.2,0,0.4,0.2,0.5c0.1,0.1,0.4,0.1,0.5,0
								c3-1.2,10.6-8.3,0.1-13.4c0.5-1.4-4.1-5.3-7.9-5.3c-4.7,0-11.8,7.2-14.6-7.1c-0.7-3.4-2.6-28.3-2.8-30.7
								c0.9-0.6,2.1-1.3,3-1.3c1.1-0.1,2.1-0.1,3.2,1.5c1,1.7,1.8,4.1-0.8,7.5c0,0.1,0,0.1,0,0.2c0,0.1-0.1,0.1-0.1,0.2
								c0,0.1,0.1,0.1,0.1,0.1c0,0,0,0.1,0,0.1c0,0,0.1,0,0.1,0c0,0,0,0.1,0.1,0.1c0.2,0,0.3,0,0.4-0.1c6.5-6.5,8.1-13.4,6.4-18.1
								c-1.7-4.7-6.5-8.2-10.3-8.3c-4.6-0.1-9.8-2.8-14.2-6.9c-4.4-4.1-7.1-8.7-8.9-13.1c-0.3-0.8-0.7-1.6-1.1-2.3
								c28.4-9.8,36.5-32.4,36.5-46.3c0-9.6-4-17.8-9.6-23.8c-0.1-2.3,0.5-5.3,1.4-7.8c0.5-1.5,1.1-2.8,1.6-3.7
								c0.2-0.4,0.4-0.7,0.5-0.9c0.1,0.6,0.3,1.1,0.6,1.9c0.5,1.2,1.1,2.6,1.8,4c1.4,2.8,3.2,5.7,4.6,7c0.1,0.1,0.3,0.1,0.4,0.1
								c0.1-0.1,0.3-0.2,0.3-0.4c1.1-14,6-34.5,21.5-53.3c0,0,0,0,0,0c0,0,0,0,0,0c0.1,0,0.1-0.1,0.2-0.1c0.2-0.1,0.3-0.3,0.2-0.5
								c-0.1-0.2-0.3-0.3-0.5-0.3c0,0-0.1,0-0.1,0c0,0,0,0,0,0c-3.6,1.7-6.8,3.3-9.7,4.9c-25.3,13.5-29.9,22.6-43.9,33.5
								c-0.2,0.1-0.2,0.3-0.2,0.5c0.1,0.2,0.3,0.3,0.5,0.3c6.9-0.3,12.9-1.9,18.3-4.6c-1.4,2.2-3,5-4.5,7.4
								c-0.9,1.4-1.8,2.7-2.5,3.5c-0.4,0.4-0.7,0.7-0.9,0.9c-0.1,0.1-0.1,0-0.2,0.1c-3.7-1.8-7.7-2.8-11.4-2.8
								c-14,0-23.6,9.3-23.7,20.5c-0.1,12,9.3,21,18.5,20.5c3.2-0.2,7.5-1,11.3-3.5c2.8-1.8,5.2-4.6,6.6-8.6c0,0.3,0.1,0.6,0.1,1
								c0,6.4-2.5,10.9-6.5,13.9c-4,3-9.7,4.5-16.1,4.7c-6.2,0.1-12.6-3.3-21.7-6.9c-9.1-3.6-20.7-7.4-37.4-7.7
								c-5-0.1-9.7,0.4-13.7,2.5c-0.3,0.1-0.5,0.3-0.7,0.5c2.1-2.6,4.7-4.8,7.8-6.5c7.3-4,16.5-5,24.7-1.7c0.9,0.4,1.9,1,2.7,1.3
								c0.6,0.3,1,0.3,1.5,0.4c0.1,1,0.1,1.8,0,2.2c-0.1,0.2-0.2,0.3-0.4,0.4c-0.1,0-0.2,0.1-0.3,0.1c-0.2,0-0.4,0.1-0.6,0
								c-0.1,0-0.3,0-0.4,0.1c-0.1,0.1-0.1,0.3-0.1,0.4c0,0.2,0.1,0.4,0.2,0.5c0.1,0.1,0.2,0,0.3,0.1c0.7,0.6,1.4,1,2.1,0.8
								c0.9-0.2,1.6-0.9,2.1-1.7c0.6-0.8,1-1.7,1.2-2.6c0-0.1,0-0.2,0-0.3c0.7-0.8,1.2-1.9,1-3.2c-0.2-1.4-1.4-2.8-3.5-4
								c0,0,0-0.1-0.1-0.1c-0.1-0.1-0.5-0.5-0.9-1.3c-0.4-0.8-0.7-1.8-1-3c-0.5-2.4-0.7-5.6,0-8.7c1.4-6.2,5.9-12.4,18.5-13.6
								c0.1,0,0.1-0.1,0.1-0.1c2.4,0.5,4.6,0.8,6.2,0.8c0.3,0,0.5-0.1,0.7-0.1c0.1,0.1,0.2,0.2,0.3,0.4c0.2,0.3,0.3,0.7,0.2,1.1
								c-0.1,0.4-0.4,0.8-0.7,1.3c0,0,0,0-0.1,0c-0.1,0-0.3,0.1-0.3,0.3c-0.1,0.1,0,0.3,0.1,0.4v0v0h0v0c0,0.2,0.2,0.3,0.3,0.3
								c0.2,0,0.3,0,0.5-0.1c0.7,0.2,1.5,0.2,2.2-0.2c0.9-0.6,1.6-1.6,2-2.7c0.4-1.1,0.6-2.4,0.2-3.4c-0.3-0.7-0.9-1.2-1.7-1.5
								c-9.9-10.3-9.5-22.8-5.6-33.4c1.9-5.3,4.8-10,7.6-13.6c2.8-3.6,6-6.1,7.5-6.7c0.1,0-0.1,0.1,0,0c0.6,0,1.3,0.1,1.8-0.1
								c0.9-0.3,1.7-0.7,2.4-1.2c0,0,0,0.1,0.1,0.1c0.2,0.1,0.4,0,0.5-0.2l0,0c0.1,0,0.2-0.1,0.4-0.2c0.3-0.1,0.7-0.2,1-0.1
								c0.1,0,0.2,0.1,0.3,0.1c0.1,0,0.1,0.1,0.1,0.2c0,0.2-0.1,0.8-0.6,1.6c0,0,0,0,0,0v0v0c-0.1,0.1-0.1,0.2,0,0.4c0,0,0,0,0,0v0
								c0,0,0,0,0,0c0,0,0,0,0,0.1c0,0,0,0,0,0c0,0,0,0,0,0c0,0,0.1,0,0.1,0.1c0,0,0,0,0.1,0c0,0,0,0,0.1,0c0,0,0,0,0.1,0
								c0,0,0,0,0.1,0c0,0,0.1,0,0.1,0c0,0,0.1,0,0.1-0.1c0,0,0,0,0,0c0.8-0.1,1.6-0.6,2.2-1.3c0.8-0.8,1.4-1.8,1.7-2.9
								c0.3-1,0.3-2.2-0.5-3c-0.6-0.7-1.8-0.9-3.3-0.9c-0.3-0.6-0.8-1.1-1.4-1.4c-0.6-0.3-1.5-0.3-2.4-0.3l-0.6-0.2
								C417.2,88.5,415.8,87.9,414.5,87.7L414.5,87.7z M197.7,132.4c2.9,0,5.8,0.5,8.5,1.7c-0.6,0.5-1.3,0.8-2.2,1
								c-1.7,0.4-3.8,0.3-5.8-0.1c-2-0.4-3.9-1.1-5.2-1.7c-0.4-0.2-0.6-0.4-0.8-0.6C194,132.5,195.8,132.3,197.7,132.4L197.7,132.4z
								 M424.8,175.9c1.1,0,2.2,0.3,3.4,0.7c0.9,0.3,1.8,0.9,2.6,1.4c-0.1,0.1-0.2,0.3-0.3,0.5c-1.6,5.5-4.4,7.1-6.8,7.1
								c-2.3,0-4.3-1.8-4.3-4.1c0-2.9,1-4.3,2.5-5C422.8,176.1,423.7,175.9,424.8,175.9L424.8,175.9z M261.9,190.6
								c0.6-0.1,1.1,0,1.6,0.4c0.4,0.3,0.8,0.9,0.9,2c0,0.1,0.1,0.1,0.1,0.1c0,0.1,0,0.3,0.2,0.4c0.1,0,0.1,0,0.1,0
								c-0.8,0.9-1.5,1.9-2.4,2.8c-1.4-0.5-2.7-1.5-3.7-3.1C259.5,191.8,260.8,190.8,261.9,190.6L261.9,190.6z"/>
							<path class="st4" d="M414.6,89.2c-5.3,5.3-10.5,9-18,13.6c-13,8-28.3,10-47.3,11c-38.5,2-55.6,9.5-63.5,20.4
								c-7.9,10.8-6.6,24.7-8.6,39.3c-0.6,4.6-2,10-4.5,14.6c-2.1,3.9-5,7.1-8.8,8.9c10.7-9.7,10.8-19.2,11.7-24.7
								c1.6-10-0.2-24.1,7.5-36.2c7.7-12.1,25-22.2,65.2-23.7c16.6-0.6,26.7-2.2,33.7-4.3c7-2.1,10.9-4.7,15-7.1
								c4.2-2.6,7.6-6.4,11-9c1.7-1.3,3.3-2.3,5-2.6C413.6,89.1,414.1,89.2,414.6,89.2z M419.3,91.4c0.7,0,1.3,0,1.7,0.2
								c0.4,0.2,0.5,0.4,0.6,0.6c0.2,0.5-0.1,1.6-0.8,2.6c-0.7,1-1.9,1.9-3.1,2.3c-1.2,0.3-3.3-0.6-3.6-0.9
								c-0.1-0.2-0.4-0.1-0.6-0.1c-0.2-0.2-0.4-0.5-0.6-0.7c-0.1-0.1-0.2-0.2-0.4-0.2c-0.1,0-0.2,0-0.2,0.1
								c-19,17.4-35.2,20.7-61.9,22.5c-9.1,0.6-23.4,2.4-35.7,5.5c-6.2,1.5-11.8,3.4-16.2,5.7c-4.3,2.3-7.3,4.9-8,8.1
								c0,0.1,0,0.3,0.1,0.4c0.1,0.1,0.2,0.2,0.4,0.1c0.1,0,0.1,0,0.2,0c0.2,0.3,0.5,0.4,0.8,0.4c2.3-0.2,8.8-0.2,17.6,0.1
								c8.8,0.3,20,1,31.8,2.1c22.7,2.2,47.5,6.1,62.3,12.4c0.3,0.3,0.5,0.7,0.9,1.1c0,0,0,0,0,0c-0.4,0.2-1.3,0.3-2.6,0.2
								c-2.7-0.2-6.9-1.2-11.9-2.5c-10.2-2.6-23.9-6.5-36.5-7.8c-21.5-2.3-34.4-5.2-63.8-5.3c0,0-0.1,0-0.1,0c0,0-0.1,0-0.1,0
								c-0.1,0.1-0.2,0.1-0.3,0.2c-0.1,0.1-0.2,0.2-0.4,0.4c-0.3,0.3-0.6,0.7-0.9,1.2c-0.6,1-1.1,2.5-0.9,4.3c0,0.1,0.1,0.3,0.2,0.3
								c0.1,0,0.2,0,0.2,0.1c0.1,0.1,0.1,0.3,0.2,0.3c2.5,0.4,8.3,2.2,15.7,4.9c7.4,2.6,16.5,6.2,25.9,10.1
								c18.4,7.6,38,16.7,49.1,23.9c0.8,0.6,1.9,1.5,2.4,2.2c0.1,0.2,0.3,0.4,0.3,0.5c0,0.1,0,0.2,0,0.3c-0.1,0.1-0.5,0.3-1,0.4
								c-4.4-0.9-11.3-4.7-19.2-9.3c-8.7-5-18.7-11-28-14.8c-16.4-6.8-36.2-15.6-45.6-17.6c0,0-0.1,0-0.1,0c-0.1,0-0.2,0.2-0.2,0.3
								c-0.1,0-0.1,0-0.2,0c-0.1,0-0.1,0.1-0.1,0.1c-0.7,0.4-1.1,0.9-1.3,1.5c-0.2,0.6-0.1,1.2,0.1,1.8c0.6,1.3,1.9,2.7,3.9,4.7
								c4,4.1,10.8,10.5,19.4,21.6c14.9,19.3,21.8,28.6,24.8,33.2c1.5,2.3,2,3.5,2,3.9c0,0.2,0,0.3-0.1,0.4
								c-0.1,0.1-0.2,0.2-0.4,0.3c-1.2,0-1.9-0.3-2.6-0.9c-0.7-0.7-1.5-1.9-2.6-3.9c-2.3-3.9-6.1-10.8-15-22.5
								c-5.4-7.1-12-14.7-17.5-21c-5.5-6.3-9.9-11.2-11.3-13.1c0-0.1-0.1-0.2-0.1-0.3c0-0.1-0.1-0.2-0.2-0.2
								c-0.3-0.1-0.6-0.1-0.8,0.1c-0.2,0.1-0.3,0.3-0.5,0.6c-0.3,0.5-0.5,1.1-0.7,1.9c-0.4,1.6-0.8,3.8-1.1,6.1
								c-0.3,2.3-0.5,4.7-0.7,6.7c-0.1,1.9-0.2,3.3-0.2,4v0v0v0.1c0,0.1,0,0.1,0.1,0.2c0.4,3.3,1.8,6.1,3.7,10.1
								c1.9,4.1,4.3,9.3,6.5,17.6c1.8,7,3.6,14.3,4.5,19.9c0.4,2.8,0.6,5.1,0.5,6.8c-0.1,0.8-0.2,1.5-0.4,1.9s-0.4,0.6-0.8,0.6h0
								c-0.5,0.1-0.7,0.1-0.9-0.1c-0.2-0.2-0.4-0.7-0.5-1.5c-0.3-1.6-0.4-4.4-0.8-8.4c-0.9-8.1-3.1-21.4-10.9-41.6
								c0-0.1,0-0.1-0.1-0.2c0,0-0.1,0-0.1-0.1c-0.1-0.1-0.1-0.2-0.1-0.2c-0.1,0-0.1,0-0.1,0c0,0,0-0.1-0.1-0.1c0,0,0,0.1-0.1,0.1
								c-0.1,0-0.1,0-0.2,0c-0.1,0.1-0.2,0.2-0.2,0.2c-0.1,0.2-0.3,0.4-0.4,0.7c-0.3,0.6-0.6,1.5-1.1,2.6c-0.8,2.2-1.8,5.4-2.7,9.1
								c-1.2,4.9-2.3,10.8-2.9,16.8c-0.1-0.9-0.1-1.5-0.1-2.4c-0.1-2.1-0.1-4.2,0.1-6c0.1-0.9,0.2-1.6,0.4-2.3
								c0.1-0.3,0.2-0.5,0.3-0.7c0.1-0.3,0.3-0.7,0.4-0.9c0,0,0,0,0-0.1c0,0,0,0,0-0.1c0.1-0.1,0.1-0.3,0-0.5c0,0-0.1,0-0.1,0
								c-0.1-0.1-0.2-0.2-0.3-0.2c-0.1,0-0.2,0-0.2,0.1c-3.4,3.3-5.7,5.7-7.4,9.3c-0.8,1.8-1.5,3.9-2.1,6.5c0.1-1.8,0.2-3.4,0.3-4.7
								c0.1-1.3,0.3-2.3,0.4-2.7c0.1-0.2,0-0.4-0.1-0.5c-0.1-0.1-0.3-0.2-0.5-0.1c-0.1,0-0.1,0.1-0.1,0.1c0,0-0.1,0-0.1,0
								c0,0-0.1,0-0.1,0c-2.2,1-5.3,3.2-8,6c-1.3,1.3-2.4,2.8-3.2,4.3c0.7-2.8,1.3-3.9,1.9-5c0.2-0.2,0.3-0.4,0.5-0.7
								c0.1-0.1,0.1-0.3,0-0.4c0-0.1-0.1-0.1-0.2-0.1c0,0,0,0,0,0c-0.1,0-0.1-0.1-0.1-0.1c0,0-0.1,0-0.1,0c-0.1,0-0.1-0.1-0.2-0.1
								c-0.1,0-0.1,0.1-0.1,0.1c-11.9,1.1-19.2,5.5-23.4,10.6c-2.8,3.4-4.2,6.9-4.9,9.9c0.5-7.7,5.1-14.8,11.7-17.5
								c3.8-1.5,8.9-2.2,13.4-3c4.4-0.8,8.4-1.7,10.3-3.9c5.4-1.9,9.4-7,12.1-12.4c2.8-5.5,4.3-11.2,4.9-14.2
								c2.4-13,0-26.8,7.2-37.5c3.6-5.4,9.6-10.1,19.8-13.6c10.2-3.5,24.7-5.9,45.2-6.6c16.6-0.6,26.6-2.7,33.6-5.3
								c6.9-2.6,10.7-5.6,14.8-8c2.3-1.3,6.2-4.7,10.3-7.5c2.1-1.4,4.2-2.7,6.1-3.5C417.8,91.8,418.6,91.6,419.3,91.4L419.3,91.4z
								 M259.2,93.5c-0.6,1.6-1.5,3.1-2.5,4.4c-0.7,1-1.4,1.9-2,2.4c-0.3,0.3-0.5,0.5-0.6,0.7c0,0,0,0.1-0.1,0.1c0,0,0,0,0,0
								c0,0,0,0-0.1,0c0,0,0,0,0,0c0,0-0.1,0.1-0.1,0.1c-2.9,0.4-5.8,0.8-8.2,1.8c-0.3,0.1-0.5,0.4-0.8,0.5c-1.8-0.6-3.3-1-5-1.4
								c0,0,0,0,0,0c0.1-0.2,0.3-0.4,0.8-0.7c0.5-0.3,1.2-0.5,2-0.8c1.7-0.5,3.9-1,6.2-1.7C252.7,98,256.7,96.4,259.2,93.5
								L259.2,93.5z M424.2,93.5c0.4,0.1,0.7,0.2,0.9,0.4c0.4,0.3,0.6,0.8,0.5,1.4c-0.1,0.5-0.4,1.1-0.8,1.7c0.1-0.4,0.2-0.9,0-1.2
								c-0.4-0.7-1.1-1-2-1.2c0.1-0.3,0.3-0.6,0.4-1C423.6,93.6,424,93.5,424.2,93.5L424.2,93.5z M270,97.4
								c-1.5,7.7-5.6,12.6-9.7,15.7c-2.2,1.7-4.3,2.8-5.9,3.7c-0.8,0.4-1.5,0.8-2,1.2c-0.2,0.2-0.4,0.4-0.6,0.5
								c-0.2,0.2-0.3,0.4-0.3,0.7c0,0.2,0.2,0.4,0.4,0.4c0.7,0,2.4,0,4.1-0.1c0.6,0,0.9,0,1.5,0c2,4.2,2.8,10,2.6,16.8
								c-0.2,7.2-1.3,15.3-2.9,23.1c-1.6,7.8-3.5,16.5-3.5,24c0,3.8,0.5,7.2,1.8,10.1c1.1,2.4,2.7,4.4,4.9,5.8
								c-0.4,0.6-1.1,1.2-2.3,1.7c-1.4,0.5-3.1,0.9-5.1,1.2c-3.9,0.6-8.4,1-11.8,2c-2.2,0.7-7.1,3.2-10.9,7.7
								c-3.2,3.8-5.3,9.1-4.3,15.6c-0.1,0.1-0.1,0.3-0.1,0.4c0.1,0.2,0.2,0.4,0.2,0.6c0.2,1,0.2,1.9,0.6,3v0
								c0.1,0.2,0.3,0.4,0.5,0.3c0.2-0.1,0.4-0.3,0.3-0.5c0,0,0,0,0-0.1c0-0.1,0-0.1,0-0.2c-0.1-0.3-0.1-0.7-0.1-1
								c0.8,0.4,1.8,0.6,3.1,0.7c-1.6,3.6-2.7,7.7-3.4,12.1c-0.8-1.2-2-2.4-3.6-3.4c0.1-0.5,0.2-1,0.2-1.5c0-2.5-1.7-5.4-5.4-8.8
								c0.3-0.4,0.5-0.8,0.7-1.3c0.7-2.2,0.2-5.1-1.9-8.8c1.4-2.2,1.4-5.6-0.6-10.7c0,0-0.1,0-0.1-0.1c0.2-0.2,0.4-0.3,0.6-0.5
								c1.7-2,2.1-5.1,0.7-9.9c0,0,0,0,0,0c0.3-0.3,0.7-0.5,1-0.9c1.6-1.9,2.2-4.8,1.5-9.4c0.6-0.3,1.1-0.6,1.6-1.2
								c1.5-1.6,2.1-4.4,1.7-8.9c1.1-0.4,2-0.9,2.8-1.7c1.5-1.5,2.1-4,1.6-7.6c0.7-0.3,1.4-0.7,2-1.4c1.3-1.5,2-3.9,1.7-7.5
								c0.5-0.2,1-0.4,1.3-0.8c0.9-0.9,1.1-2.3,1.1-4.3c0-1.7-0.2-4.2-0.4-7c0.6-1,1.1-2.1,1.3-3.5c0.3-2.2,0-4.9-0.9-8.4
								c1.1-2.7,1.7-5.7,1.5-9.4c0.8,0.3,1.7,0.4,2.8,0.2c1.3-0.2,2.9-1,4.8-2.4c0,0,0.1,0,0.1-0.1c0,0,0.1,0,0.1-0.1
								c0.2-0.1,0.2-0.4,0.1-0.6c-0.1-0.2-0.4-0.3-0.6-0.2c0,0,0,0-0.1,0.1c-0.5,0.2-0.9,0.6-1.3,0.8c-0.4,0.2-0.6,0.3-0.8,0.2
								c-1.9-0.7-2.4,0.1-7.8-4.4c-0.1-0.1-0.2-0.1-0.3-0.1c-0.1,0-0.3,0.1-0.3,0.2c-0.1,0.1-0.1,0.3,0,0.4c0,0.1,0.1,0.1,0.1,0.2
								c0,0,0,0,0,0c0.5,1.1,1.5,2.1,2.5,3c0.4,0.3,0.6,0.4,1,0.7c-1.2-0.3-2.2-0.7-3-1.1c-0.2-0.1-0.4,0-0.5,0.1
								c-0.1,0.1-0.1,0.3-0.1,0.5c2.3,5.5,0.6,12-3.4,16.4c-4,4.3-10.2,6.3-17.1,3c-0.1-0.2-0.3-0.3-0.5-0.2c-0.1,0-0.2,0.1-0.2,0.2
								c0,0,0,0-0.1,0c-0.9,1.6-1.7,3-3.4,4.6c-1,1-2.6,2-4.6,3.1c0.8-0.8,1.4-1.6,1.8-2.3c0.8-1.6,0.8-3.1,0.7-5.1
								c0-0.2-0.1-0.4-0.3-0.4c-0.2,0-0.4,0-0.5,0.2c-1.2,2.3-5,5.6-11.2,7.9c2.6-2.2,4.3-4.5,4.4-6.8c0-0.2-0.1-0.4-0.2-0.4
								c-0.2-0.1-0.4,0-0.5,0.1c-3.4,3-9.4,4-15.1,4.3c1.3-0.6,2.5-1.5,3.6-2.7c2.2-2.4,4-6.1,5.1-10.9c4,2.4,7.7,3.1,10.8,2.9
								c3.6-0.2,6.4-1.6,8.4-2.8c-0.1,0.9-0.1,1.6-0.1,2.7c0,0.2,0.1,0.4,0.4,0.4c0.2,0,0.4-0.1,0.5-0.3c1.9-4.5,2.8-7.4,2.6-9.7
								c-0.3-2.4-1.8-4.2-4.4-6.5c-0.1-0.1-0.2-0.1-0.4-0.1c-0.2,0-0.3,0.2-0.3,0.4c-0.1,0.6-0.1,1.1-0.2,1.7
								c-5.3-0.3-11-5.3-22.5,3.4c-0.3-5,0-8.3,1.4-11.1c0.5,0.1,1.1,0.1,1.6,0c1.1-0.2,2.1-0.8,2.9-2c0.7-1.1,1.1-2.7,1.3-4.8
								c6.9,0.3,14.7,1.6,23.3,4c0,0,0.1,0,0.1,0c0.2,0,0.4-0.1,0.5-0.3c0,0,0-0.1,0-0.1c0,0,0,0,0.1,0c0.1-0.2,0-0.4-0.2-0.5
								c0,0,0,0-0.1,0c0,0,0,0-0.1,0c-1.4-0.6-2.5-1.2-3.4-1.8c-0.6-0.5-1.1-1.1-1.3-1.7c-0.4-1.4,0.2-2.8,2.1-4
								c3.8-2.4,13-3.2,27.7,1.7c-0.6,0.7-1.1,1.5-1.4,2.5c-0.1,0.2,0,0.4,0.2,0.5c0.2,0.1,0.4,0.1,0.5-0.1
								c4.2-4.2,10.1-4.8,15.8-5.7C261.9,102.6,266.7,101.5,270,97.4L270,97.4z M265.8,104.1c-0.1,0-0.2,0-0.2,0.1
								c-3.7,2.9-6.9,3.8-10.5,4.5c-3,0.5-4.3,1.6-5.1,2.1c-0.2,0.1-0.3,0.2-0.5,0.2c-0.1,0-0.2,0-0.3,0c-0.2-0.1-0.7-0.4-1.3-1.2
								c-0.1-0.1-0.3-0.2-0.5-0.1c-0.2,0.1-0.3,0.3-0.2,0.4c0,0.1,0.1,0.2,0.1,0.2c0,0,0,0,0,0c0.2,0.7,0.6,1.7,1.2,2.7
								c0.3,0.5,0.6,1.1,0.9,1.5c0.3,0.4,0.5,0.8,0.9,0.9c0.1,0.1,0.2,0.1,0.3,0.1c0.1,0,0.2-0.1,0.3-0.2c1.2-2.5,2.2-3.9,3-4.7
								c0.8-0.8,1.4-0.9,2-0.8c0.5,0.1,1,0.5,1.5,0.8c0.2,0.2,0.4,0.4,0.7,0.5c0.2,0.1,0.5,0.3,0.8,0.2c0.1,0,0.2-0.1,0.3-0.2
								c1.3-1.9,3.9-3.9,7.1-6.4c0.2-0.1,0.2-0.3,0.2-0.5C266.2,104.2,266,104.1,265.8,104.1L265.8,104.1z M149.2,105.3
								c5.1,7.1,11.7,13.8,21.2,18.8c-3.9,0.4-6.9-0.4-9.3-2c-3.2-2-5.6-5.4-7.9-9c0,0,0,0,0-0.1c-0.1-0.2-0.3-0.2-0.5-0.2
								c-0.1,0-0.2,0.1-0.3,0.2c-0.1,0.1-0.1,0.3,0,0.4c0,0,0,0,0,0c3.2,6.8,5.7,9.8,7.3,12.1c1.4,2,2,3.4,1.7,6.4
								c-3.8-2.9-6.8-7.8-8.8-13C150.7,113.7,149.6,108.6,149.2,105.3L149.2,105.3z M405.5,105.8c-2.5,3.5-5,7.6-6.7,12.4
								c-3.6,9.7-4.3,21.4,2.5,31.6c-15.3-5.8-38.5-9.3-59.9-11.3c-11.8-1.1-23-1.8-31.9-2.1c-7.9-0.3-13-0.3-16-0.1
								c1.3-2.4,4.7-4.7,9.3-6.6c5.2-2.1,11.8-3.9,18.4-5.3c13.3-2.8,26.9-4.2,29.8-4.3c21.2-0.7,36-5,46.2-9.7
								C400.6,108.8,403.2,107.3,405.5,105.8L405.5,105.8z M216.3,107.4c-0.7-0.1-1.5,0-2.5,0.2c-0.2,0.1-0.3,0.2-0.3,0.5
								c0.1,0.7,0.4,1.2,0.8,1.5c0.4,0.4,0.9,0.6,1.4,0.9c1,0.6,2.2,1.5,3.1,3.9c0.1,0.2,0.2,0.3,0.4,0.3c0.2,0,0.3-0.1,0.4-0.2
								c0.2-0.4,0.2-0.7,0.3-0.8c0,0,0.1,0,0.1-0.1c0.1,0.2,0.3,0.3,0.5,0.5c0.2,0.2,0.4,0.4,0.7,0.5c0.3,0.1,0.6,0.1,1-0.1
								c3.4-1.1,5.8-1.6,7.4-1.7c1.6-0.1,2.5,0.2,3.2,0.8c0.2,0.1,0.4,0.1,0.5,0c0.1-0.1,0.2-0.4,0.1-0.5c0,0-0.1,0-0.1-0.1
								c-1.7-2.5-3.4-3.3-5.2-3.6c-1.8-0.2-3.6,0.1-5.6-0.2c-2.1-0.3-3.2-0.9-4.4-1.3C217.6,107.6,217,107.4,216.3,107.4
								L216.3,107.4z M216.8,108.7c0.9,0.1,3.1,0.9,3.9,0.9c-0.5,1.8,0.5,2.6,1.4,3.1C219.3,113,216.9,108.9,216.8,108.7
								L216.8,108.7z M190,108.7c0.1,0.9,0.1,2.2-0.3,3.3c-0.2,0.7-0.6,1.2-1.2,1.4c-0.6,0.2-1.4,0.2-2.7-0.4c0,0,0,0,0,0
								c-0.9-0.5-3.4-1.7-6.1-2.4c-0.6-0.2-1.3-0.2-1.9-0.2C181.3,109.2,185.3,108.7,190,108.7L190,108.7z M226.4,110
								c1.3-0.1,2.5,0.7,1.2,1.4c-1.3,0.7-3.5,1.7-4.8,1.3c1.3-0.1,1.7-1.5,1.1-2.5C223.4,110,225,110.1,226.4,110z M232.5,114.4
								c-2.3-0.1-3.8,0-4.9,0.4c-1.1,0.3-1.8,0.8-2.7,1.4c-0.1,0.1-0.2,0.3-0.2,0.5c0,0.2,0.2,0.3,0.3,0.3c0.8,0.2,1.3,0.3,1.5,0.4
								c0.1,0,0.1,0.1,0.2,0.2c0.1,0.1,0.1,0.2,0.2,0.4c0.1,0.2,0.2,0.3,0.4,0.3c0.2,0,0.3-0.1,0.4-0.2c0.6-1.2,1.1-1.8,1.8-2.2
								c0.6-0.3,1.6-0.4,2.8-0.5c0.1,0,0.1,0,0.2,0v0c0,0,0,0,0,0c0.2-0.1,0.3-0.2,0.3-0.4S232.7,114.5,232.5,114.4
								C232.5,114.4,232.5,114.4,232.5,114.4C232.5,114.4,232.5,114.4,232.5,114.4L232.5,114.4z M477.8,117.7
								c-16.5,18.9-20.3,39.3-21.4,45.5c-2.2-3.7-4.8-7.9-3.2-13.1v0c4-9.5,5.3-11,15.7-24.6c0,0,0,0,0,0c0.1-0.2,0.1-0.4-0.1-0.6
								c-0.2-0.1-0.4-0.1-0.6,0c0,0,0,0,0,0c0,0,0,0,0,0c0,0-0.1,0.1-0.1,0.1c0,0,0,0,0,0c-11.2,9.4-16.3,15.8-20.8,20
								c-4.1,4-7.7,6.1-15.2,7.2C445.9,140.7,452.2,130.2,477.8,117.7L477.8,117.7z M261.7,119.3c0.1,0,0.1,0,0.2,0.1
								c1.1,0.4,2.5,1.1,3.8,2.2c2.2,1.8,4.3,4.8,5.1,9.7c-0.8-1.2-1.8-2.1-3-2.5c-1.9-0.7-3.8-0.7-5-0.7c-0.1-1-0.2-2.1-0.3-3.1
								c1.5-0.1,3-0.1,4.5,1.5c0.2,0.2,0.4,0.2,0.6,0c0.2-0.1,0.2-0.4,0.1-0.6c0,0,0,0,0,0c-1.9-2.5-3.8-3.8-5.6-3.9
								C262,121.1,261.9,120.2,261.7,119.3L261.7,119.3z M160.7,123.7c0.3,0.2,0.7,0.3,1,0.4c4.9,3.6,9.1,5.7,13.1,6.3
								c4.2,0.7,8.3,0,12.8-1.7h0c1-0.4,2.8-0.9,5.1-1.2c2.2-0.3,4.9-0.6,7.5-0.6c2.6,0,5.1,0.2,7.2,0.7c1.4,0.4,2.4,0.9,3.2,1.5
								c-4-0.8-7.9-1.1-12.6-0.9c-0.1,0-0.2,0.1-0.3,0.1c-0.1,0.1-0.3,0.3-0.3,0.6c0,0.2,0.2,0.3,0.3,0.4c0.1,0.1,0.2,0.1,0.3,0.1
								c0.3,0,0.7,0,1.3-0.1c1.1-0.1,2.7-0.3,4.3-0.2c1.6,0.1,2.4,0.2,6.1,1.4c0.3,0.3,0.4,0.6,0.5,1c-0.1,0-0.3-0.1-0.5-0.2
								c-0.4-0.1-1-0.3-1.7-0.4c-1.4-0.3-3.4-0.6-5.7-0.9c-4.5-0.5-10-0.6-14.4,0.7h0c-3.8,1.6-8.8,2.3-13.7,1.5
								c-4.6-0.8-9.1-3-12.6-7.3C161.3,124.6,161,124.1,160.7,123.7L160.7,123.7z M462.7,131.5c-8.8,10.6-13.5,19.7-15.9,26
								c-1.5,3.8-2.2,6.6-2.8,8.2c-0.3,0.7-0.5,1-0.6,1.2c-1.1-0.9-2.3-1.8-3.5-2.6c0-0.4,0-0.8,0.3-1.5c0.3-0.9,0.8-2.1,1.5-3.5
								c1.4-2.7,3.5-6.2,6.1-9.9C451.7,143.8,456.9,137.4,462.7,131.5L462.7,131.5z M263.2,137.1c2.8,1.9,5.5,4.1,7,7.3
								c1.2,2.6,1.6,5.9,0.7,10.1c-0.3-2.1-1.1-3.8-2.5-4.9c-1.1-0.9-2.5-1.4-3.9-1.5c-0.9,0-1.9,0.3-2.8,0.8
								c0.3-1.7,0.5-3.2,0.7-4.7c0.4-0.1,0.9-0.1,1.6,0.1c0.8,0.3,1.7,0.8,2.5,1.4c0.8,0.6,1.6,1.3,2.1,2c0.5,0.7,0.9,1.3,0.9,1.8
								c0,0.2,0.2,0.4,0.4,0.4c0.2,0,0.4-0.2,0.4-0.4c0-0.6-0.3-1.3-0.8-1.9c-0.1-0.2-0.1-0.5-0.3-0.7c-0.6-0.9-1.4-1.8-2.3-2.7
								c-0.9-0.9-1.8-1.6-2.6-2.2c-0.6-0.4-1.2-0.7-1.7-0.8C263,139.8,263.2,138.4,263.2,137.1L263.2,137.1z M232.5,138.7
								c0.9,2.2,1.1,4.1,0.8,5.5c-0.4,1.5-1.3,2.7-2.7,3.6c-2.3,1.6-5.8,2.3-9,2.8c-0.3-0.1-0.9-0.2-1.1-0.3
								c-0.2-0.1-0.2-0.2-0.2-0.3c0-0.1,0-0.1,0-0.2c0,0,0.1-0.1,0.1-0.1c0.1-0.2,0.2-0.3,0.5-0.5c0.5-0.4,1.2-0.9,2-1.4
								c1.6-1.1,3.7-2.5,5.7-4.3C230.1,142.1,231.4,140.5,232.5,138.7L232.5,138.7z M290,140.4c32.6,1.3,41.3,3.5,62.8,6
								c14.9,1.7,28.5,5.7,38.4,8.2c0.1,0,0.1,0,0.2,0.1c-9.6,2.4-14,8.4-15.4,14.4c-0.8,3.5-0.6,6.9,0,9.6c0.2,0.9,0.5,1.6,0.8,2.4
								c-11.5-7-29.7-15.4-47-22.6c-9.5-3.9-18.6-7.4-26-10.1c-6.4-2.3-11.1-3.8-14.2-4.5C289.4,142.7,289.4,141.4,290,140.4z
								 M287.5,148.3c0.4,0.1,0.9,0.2,1.7,0.4c1,0.3,2.4,0.8,3.9,1.4c3.1,1.1,7.1,2.7,11.6,4.5c8.8,3.6,19.3,8,27.5,11.4
								c8.9,3.7,21.5,11.1,31.7,16.8c0.5,0.3,0.9,0.5,1.4,0.8c-0.5,0-0.9-0.1-1.4-0.1c-3.4,0.1-7.5,0.8-11.6,2.3
								c-7.8,2.9-15.4,8.9-18.1,19.9c-0.3-0.4-0.5-0.8-0.8-1.2c-4.5-6.3-12.6-15.9-23.5-29.9c-6.8-8.7-13.5-15-17.8-19.4
								c-2.2-2.2-3.7-4.1-4.4-5.4C287.5,149.1,287.4,148.7,287.5,148.3L287.5,148.3z M231.9,149.2c0.5,2.7,0.5,4.7,0.2,6
								c-0.4,1.4-1.1,2.2-2.3,2.7c-1.7,0.8-4.4,0.9-7.5,1c-1.1-0.2-1.8-0.6-2.2-1.1c-0.4-0.5-0.5-1.3-0.4-2.1
								c0.2-1.6,1.3-3.3,2.2-4.2h0.1c0.3,0,0.4,0,0.9,0c0.1,0,0.1-0.1,0.2-0.1C226.6,151.2,229.8,150.7,231.9,149.2L231.9,149.2z
								 M406.9,155.1c0.1,0.1,0.1,0.1,0.2,0.2c0.3,0.5,0.2,1.1,0,1.8c-0.3,0.7-0.8,1.4-1.4,1.8c0,0-0.1,0-0.1,0
								c0.3-0.4,0.6-0.9,0.6-1.4c0.1-0.6,0-1.2-0.2-1.7c0.1-0.1,0.2-0.1,0.3-0.2C406.6,155.6,406.7,155.3,406.9,155.1z M286.2,155.8
								c0.2,0.1,0.3,0.1,0.6,0.3c1.3,1.1,3.3,3.2,5.5,6c4.5,5.5,10.5,13.6,16.3,20.8c6,7.5,10.8,16.1,15,22.6c0.7,1,1.3,1.9,2,2.8
								c-2-0.6-4.3-1.1-6.8-1.1c-1.3,0-2.8,0.1-4.2,0.3c-5.4,0.9-11.1,4-15.4,10.7c-0.9-5.4-2.8-12.2-5.2-20
								c-3.4-11.3-5.4-15.6-6.8-18.4c-1.4-2.7-2.2-3.9-3.2-9c0,0,0,0,0-0.1c-0.2-2.2,0.2-6.4,0.8-9.9c0.3-1.8,0.7-3.3,1-4.4
								C286,156.2,286.1,156.1,286.2,155.8L286.2,155.8z M260.5,157.3c0.6,0.8,1.3,1.6,2.3,2.4c1.4,1.2,3.1,2.5,4.3,4.1
								c1.3,1.6,2.2,3.5,2.1,6.1c-0.1,1.9-1,4.4-2.5,7.2c0.2-1.3,0.1-2.5-0.3-3.5c-0.7-1.7-2.1-2.9-3.6-3.7c-1.5-0.9-3-1.4-4-1.8
								c-0.2-0.1-0.3-0.1-0.5-0.2c0.3-1.1,0.7-1.9,1.2-2.3c0.7-0.5,1.6-0.5,2.5-0.1c0.9,0.3,1.9,0.9,2.7,1.6
								c0.8,0.7,1.4,1.4,1.5,1.8c0.1,0.2,0.3,0.3,0.5,0.2c0.2-0.1,0.3-0.3,0.3-0.5c0,0,0,0,0,0c0,0,0,0,0-0.1
								c-1.2-3.3-3.6-4.2-5.1-5.3c-0.8-0.5-1.3-1.1-1.6-2C260,160.3,260.1,159,260.5,157.3L260.5,157.3z M157,158.3
								c3.2-0.1,5.5,1.2,6.8,3.4c-0.4,0.3-0.7,0.3-1.3,0.4c-0.3-1.2-2.3-2.6-4.1-2.8c-0.1-0.1-0.3-0.1-0.5,0
								c-0.1,0.1-0.2,0.2-0.2,0.4c0,0.2,0.1,0.3,0.3,0.4c1.3,0.6,2.7,1.1,2.1,2.3c-0.6,0-1,0-1.6,0c0-1.2-2.6-2.4-5-3.3
								C154.9,158.5,156,158.3,157,158.3L157,158.3z M229.6,159.8c0.2,3.2-0.4,5.1-1.5,6.1c-1.1,1.1-2.8,1.4-4.7,1.3
								c-1.8,0-3.8-0.4-5.5-0.6c-0.1-0.1-0.1-0.2-0.2-0.2h-0.1c-0.5,0-0.9-0.2-1.1-0.3c-0.2-0.2-0.3-0.4-0.3-0.7
								c0-0.6,0.4-1.5,1-2.4c0.6-0.9,1.5-1.8,2.3-2.4c0.7-0.5,1.4-0.7,1.8-0.7c2.9,0,5.7,0.1,7.4-0.1
								C229,159.9,229.3,159.8,229.6,159.8L229.6,159.8z M425,162.2c12.7,0,28.8,13,28.8,31.6c0,12.9-7.5,34.5-35,43.9
								c-7.7-15.2-22.4-28.8-41.4-35.3c-0.1,0-0.2-0.1-0.3,0c-0.2,0-0.3,0.2-0.3,0.4c0,0.2,0.1,0.4,0.3,0.4
								c20.7,7.1,34.5,23.2,41.3,40.1c1.8,4.5,6.3,10.7,10.8,14.8c4.5,4.2,9.6,6.9,14.6,7c3.4,0.1,7.2,2,8.8,6.4
								c1.3,3.5,1.2,7.9-2,12.8c0.5-2.1,0.1-3.9-0.6-5.1c-1.2-2-3.8-2.8-5.5-2.7c-3,0.1-4.7,1.5-8.7,3.6c-0.2,0.1-0.3,0.4-0.2,0.6
								c0.1,0.1,1.5,0.3,3,0.3c0.2,2.4,3.8,27.1,4.3,30.6c2.7,17.2,14.6,8.8,16.6,9.2c3.9,0.6,4.7,1.7,6,2.9
								c-1.3,0.1-2.4,4.1-1.7,6.7c-4.8,3.5-9.6-1.8-13.2-1.8c-4.1,0.1-8.5,2.9-13.2,4.4c-4.3,1.3-6.4,2.4-11.8-0.1
								c0.8-0.2,1.8-0.5,1.9-0.5c0.1,0,0.2,0,0.3,0c0.1,0,0.1,0,0.2,0c0.2,0,0.3-0.1,0.4-0.3c0.1-0.2,0-0.3-0.1-0.5
								c-0.1-0.1-0.3-0.2-0.5-0.1c0.1,0,0,0-0.1,0h-0.3c-0.2,0-0.5,0-0.9,0c-0.7,0-1.7,0-2.7,0c-2,0-4.2,0-5.1,0
								c-2.3,0-5.6,0.7-8.4,2.2c-2.8,1.5-4.9,3.4-7.4,3.3c-1.5,0-3-0.3-4.2-1.3c0.7-2.3,0.5-5.4-1.2-8l-0.4,0c3-0.4,4-1.9,6-2
								c2.3-0.1,2.3,4.7,14.4-3.1c0.1-0.1,0.2-0.2,0.2-0.4c0-0.2-0.1-0.3-0.2-0.4c-0.1-0.1-0.3,0-0.5,0.1
								c-10.7,4.8-7.3,1.2-12.8,1.4c-5.2,0.2-5.4,2-8.5,1.9c-1.6,0-3.5-0.8-3.9-1.6c1.2-0.3,1.7-4.3,1.1-6.4c0-0.1,0.1-0.2,0.1-0.2
								c0.1-0.2,0-0.4-0.2-0.5c0.7-0.8,2.6-1.2,4.2-1.2c1.5,0,3.6,1.4,5.9,2.4c2.4,1,4.5-0.8,7.4,1.1c0.2,0.1,0.5,0,0.6-0.2
								s0-0.5-0.2-0.6c-1-0.6-3.2-2.8-5.5-3.9c-1.5-0.6-3.3-1-4.9-1.3c-1.1-1.1-3.1-2.9-2.9-3.1c0.6-0.4,1.1-0.8,1.6-1.4
								c0.5-0.6,0.9-1.3,1.1-2.1c0.1-0.5,0-0.7-0.2-1c0-0.2,0.1-0.3,0.2-0.5c0.6-0.7,1-1,1.9-1.1c1.4,0.1,2.2,0.6,3.4,1.8
								c1.2,1.1,2.4,2.8,3.5,4.9c1.7,3,3.9,4.7,6.2,6.2c-0.7,0.6-1.6,1.3-1.7,1.3c-0.1,0-0.2-0.1-0.4,0.1c-0.2,0.1-0.3,0.3-0.2,0.6
								c0.1,0.2,0.3,0.3,0.6,0.2c0.1,0,0.1,0,0.3,0c0.2,0,0.6,0.1,1,0.2c0.8,0.2,1.9,0.4,3,0.6c1.1,0.2,2.3,0.2,3.3,0s2-0.7,2.6-1.6
								c3.6-6.5,3.2-16.1,1.2-24.7c-2.1-8.5-8.2-20.2-8.4-20.3c-0.2-2.8-7.3-11.5-8.8-9.5c0-0.3,0.1-0.6,0-1
								c-0.2-0.5-0.5-1.2-0.9-1.8c-0.8-1.2-1.9-2.5-3.2-3.6c-1.2-1.1-2.5-1.9-3.7-2.1c-0.6-0.1-1.2,0-1.7,0.3
								c-0.1,0.1-0.2,0.3-0.3,0.4c-0.2-0.6-0.5-1.2-1-1.9c-0.9-1.2-2.1-2.4-3.4-3.4c-1.3-1-2.7-1.7-3.8-2c-0.6-0.1-1.2-0.1-1.7,0.2
								c0,0,0,0.1-0.1,0.1c-0.2-0.5-0.4-0.9-0.8-1.5c-0.8-1.2-2.1-2.5-3.6-3.4c-1.4-1-3-1.7-4.5-1.6c-0.8,0-1.6,0.4-2.2,1
								c0-0.9-0.3-1.9-0.8-2.8c-0.9-1.6-2.4-3.2-4-4.2c-1.6-1.1-3.4-1.8-4.8-1.7c-0.7,0-1.4,0.3-2,0.8l0,0c-0.2-1-0.5-1.9-1.2-2.7
								c-1.1-1.4-2.9-2.3-4.6-2.9c-1.7-0.6-3.5-0.8-5-0.5c-0.7,0.1-1.3,0.4-1.8,0.8c-0.1,0.1-0.2,0.3-0.3,0.4
								c-0.1-0.1,0-0.2-0.1-0.3c-0.4-0.5-1-1-1.7-1.4c-1.4-0.8-3.2-1.5-5-1.7c-0.9-0.1-1.8-0.2-2.7-0.1c-0.9,0.1-1.6,0.3-2.3,0.6
								c-0.9,0.4-1.4,1.3-1.7,2.2c-0.5-0.8-1.1-1.4-2-1.7c-1.5-0.5-3.4-0.5-5.2-0.2c-1.8,0.3-3.5,1-4.6,1.9
								c-0.3,0.3-0.5,0.6-0.7,0.9c-0.2-0.2-0.4-0.5-0.7-0.6c-1.3-0.6-3.1-0.8-4.9-0.6c-1.8,0.1-3.6,0.6-4.8,1.5
								c-0.6,0.5-1.1,1.1-1.3,1.8c0,0.1,0,0.1,0,0.2c-0.4-0.2-0.8-0.5-1.3-0.6c-1.6-0.3-3.7-0.1-5.7,0.4c-2,0.5-3.8,1.4-4.7,2.7
								c-0.4,0.6-0.6,1.3-0.6,2c-0.3-0.1-0.6-0.3-0.9-0.4c-1.7-0.2-3.7,0.2-5.5,0.8c-1.8,0.7-3.4,1.6-4.3,2.8
								c-0.3,0.4-0.4,0.9-0.5,1.4c-0.5-0.2-1.1-0.5-1.7-0.5c-1.7-0.1-3.7,0.4-5.4,1.2c-1.7,0.8-3.2,2-3.8,3.3
								c-0.2,0.3-0.3,0.7-0.3,1c-0.6-0.1-1.3-0.1-1.9-0.1c-0.5,0.1,0.5-1.9,1.5-3.7c0.7-0.9,1.3-1.8,2.1-2.7
								c0.2-0.1,0.4-0.3,0.3-0.5c-0.1-0.2-0.3-0.4-0.5-0.3c-0.1,0-0.1,0-0.2,0.1c-4.2,2-7.7,7.1-10.1,13c-2.5,5.9-3.9,12.5-3.9,17.7
								v0.1c0.6,5,2.4,7.4,3.6,9.8c1.1,2.3,1.6,4.5-0.4,9.5c0,0,0,0,0,0c-1.3,2.5-1.4,3.2-4.9,4.9c3.9-8-8.3-12.7-21.8-5.2
								c-0.2,0.1-0.3,0.2-0.3,0.4c0,0.2,0.1,0.3,0.2,0.4c0.1,0.1,0.3,0.1,0.5,0c1-0.2,1.6-0.2,2.4-0.4c1.7,3.2-5.5,10.1-9.9,16.6
								c-2.4,3.4-8.7,12.1-8.7,16.3s1,6.1,4.2,6c0.8,0,2.4,0.1,4.3-0.3c1.9-0.4,4.6-1.4,6.3-1.4c1.6,0,2.7,0.1,4.3,1.5
								c-0.5,0.2-3.8,6.1-1.7,8.5c-0.2,0.4-1.7,0.6-2.2,0.6c-0.9,0-3.5-1.1-4.9-1.5c-2.9-0.9-4.2-1.7-7.1-1.7
								c-3.1,0.1-7.8,1.3-11.2,2.5c-3.4,1.2-6.3,2-13.8,2.3c-0.9,0-2-0.2-2.9-0.4c1.2-1.9,2-2.5,2-2.5c0.1,0,0.1,0,0.2,0
								c0.2,0,0.3-0.1,0.4-0.3c0.1-0.2,0-0.3-0.1-0.5c-0.1-0.1-0.3-0.2-0.5-0.1c0.1,0,0,0-0.1,0c-0.1,0-0.2,0-0.3,0
								c-0.2,0-0.5,0-0.9,0c-0.7,0-7.7,1.3-10.5,2.8c-2.8,1.5-4.3,5.1-6.9,5c-1.5,0-2,0-3.3-0.9c1.2-5.8-2.9-7.5-1.1-9
								c1.9,0.3,9.2,1.2,16-3.1c0.1-0.1,0.3-0.2,0.2-0.4c0-0.2-0.1-0.3-0.2-0.4c-0.1-0.1-0.3,0-0.5,0.1c-3.8,2.4-6.6-2-9.6-1.8
								c-5.2,0.4-4,1.4-7.1,1.3c-1.6,0-3.5-0.8-3.9-1.6c1.1-2.3,2.9-5.5,1.9-7.2c0.7-0.9,1.6-1,3.3-1c1.5,0,2.2,1.4,4.6,2.4
								c8.4,4.3,5.9,0.9,12.3,3.3c0.2,0.1,0.5,0,0.6-0.2c0.1-0.2,0.2-1.1-0.6-1.2c-7.2-1.1-9.2-4-10.9-5.6c-0.5-0.5-1.7-0.9-3-1.1
								c-3.5-3.2-3.5-6.1-3.2-6.3c0.6-0.3,2.5-2.9,2.1-3.5c0.8-0.9,1.3-0.6,2.3-0.7c3.5,0.1,7.3,5.5,6.2,7.5c-0.1,0.1,3.1,3,5,5.3
								c1.5,1.8,4.7,5.6,8.8,4.9c0.1,0.1,0.1,0.2,0.2,0.2c0.1,0,0.3,0,0.4-0.1c7.8-7.1,13.5-18.5,17.3-28.7
								c1.9-5.1,3.3-9.8,4.2-13.6c0.9-3.7,1.4-6.4,1.4-7.5c0-5.7-1.3-14.8-1.2-23.6c0.1-8.1,1.5-15.8,6.1-20.6
								c1.1-0.2,2.3-0.5,3.4-0.9c2.9-1.1,5.8-2.9,8-5.4c0.1,0.7,0.2,1.4,0.4,2.1c0.5,1.7,1.3,3.6,2.4,5.4c2.3,3.6,5.7,6.8,10.3,7.5
								h0c0,0,0.1,0,0.1,0c0.2,0.1,0.5-0.1,0.5-0.3c0,0-0.1-0.1-0.1-0.1c0,0,0,0,0,0c0-0.2,0-0.4-0.2-0.4c0,0-0.1,0-0.1-0.1
								c-0.6-0.1-1-0.3-1.2-0.7c-0.3-0.4-0.4-0.9-0.4-1.6c0-1.4,0.4-3.2,1.1-5.1c0.5-1.5,1.2-2.8,1.9-4.2c1.3,2.8,3.3,5.9,6.4,7.9
								c3.7,2.3,8.7,3,15.3,0.1c0,0,0,0,0.1,0c0.1,0,0.1,0,0.1-0.1c0.1-0.1,0.1-0.2,0.1-0.2c0.1-0.1,0.1,0,0.2-0.1
								c0-0.1-0.1-0.1-0.1-0.2c0,0,0,0,0,0c0-0.1,0-0.3-0.1-0.4c-4.9-2.3-6.2-5.2-6.4-8c-0.1-1.5,0.2-2.9,0.6-4.3
								c2.6,2.9,5.7,5.3,8.5,6.3c1.5,0.6,3,0.8,4.1,0.6c0.6-0.1,1-0.4,1.4-0.8c0.2,0.6,0.4,1.1,0.7,1.5c0.3,0.4,0.7,0.7,1.2,0.8
								c0.1,0.9-0.1,1.7-0.5,2.1c-0.5,0.5-1.3,0.7-2,0.6h0h0h0h-0.1l-0.1,0h0c0,0,0,0-0.1,0c0,0-0.1,0.1-0.1,0.1c0,0,0,0-0.1,0.1
								l0,0.1c0,0.1-0.1,0.2,0,0.3v0c0,0,0,0,0,0.1v0l0,0.1c0.1,0.1,0.2,0.1,0.2,0.2c0,0,0,0,0,0.1c0.3,0.4,0.7,0.6,1.1,0.8
								c0.1,0.1,0.3,0.1,0.5,0.1c0.2,0,0.3,0.1,0.5,0.1c0.1,0,0.2-0.1,0.4-0.1c0.3,0,0.5,0.1,0.7,0.1c1.3-0.2,2.7-0.9,3.8-1.8
								c1.2-0.9,2.1-2.1,2.6-3.4c0.5-1.3,0.5-2.7-0.3-3.8c0-0.1-0.1,0-0.2-0.1c0.1-1,0.2-2.1,0.1-3.3c0.4-1.3,1.4-3,3-4.6
								c1.8-1.8,4.2-3.7,7-5c5.4-2.6,12.2-3.3,19.5,0.5c0.1,0.1,0.2,0.3,0.3,0.4c0.6,0.5,1.2,0.8,1.8,1.1c0.2,1.1-0.1,1.8-0.5,2.1
								c-0.5,0.4-1.3,0.5-2.1,0.4c0,0-0.1,0-0.1,0c0,0-0.1,0-0.1,0c-0.1,0-0.2,0-0.2,0.1c0,0-0.1,0.1-0.1,0.2v0c0,0.1,0,0.2,0,0.3v0
								l0,0v0h0c0.1,0.1,0.1,0.1,0.2,0.2c0.3,0.4,0.7,0.7,1.1,0.9c0.2,0.1,0.3,0.1,0.5,0.2c0.2,0.1,0.4,0.1,0.7,0.2
								c0.2,0,0.5,0.2,0.7,0.2c1.2,0.1,2.5-0.3,3.6-1c1.1-0.6,2-1.5,2.4-2.6c0.3-0.7,0.2-1.4,0.1-2.1c0.2-0.6,0.2-1.2,0.1-1.9
								c-0.2-0.6-0.6-1.3-1-2.1c0-0.9,0.1-1.8,0.2-2.7c1.5-4.5,3.8-7.1,6.9-8.7c3.4-1.7,7.7-2.2,12.5-2.2
								c16.3,0.3,27.5,3.9,36.5,7.5s15.5,7.3,22.7,7.1c6.8-0.1,13-1.7,17.6-5.2c4.6-3.4,7.5-8.8,7.5-15.9c0-2.7-0.9-4.9-2-7.1
								c-2.1-4-5.7-6.9-9.4-8.3c-1.4-0.5-2.9-0.8-4.3-0.8c-1.4,0-2.7,0.2-3.9,0.8c-2.4,1.2-4,3.8-4,7.4c0,3.8,3.2,6.6,6.8,6.7
								c3.6,0.1,7.3-2.7,9.2-8.7c1.3,1.2,2.5,2.6,3.4,4.2c-0.8,5.7-3.4,9.1-6.6,11.2c-3.2,2.2-7.1,2.9-10,3.1
								c-7.5,0.4-15.9-7.3-15.8-17.9C404,170.3,412.2,162.2,425,162.2L425,162.2z M165.7,163c4,3.6,0.1,6.3,0.7,10.5
								c2.8,17,10,19.1,11.2,26.4c4,24.6,14.9,36.3,15.7,37.1c0.4,0.6,0.8,1.1,1.4,1.3c-0.3,1.9,0.2,5,1.3,7.8
								c1,2.7,2.5,5.1,4.6,6.2v0c0.1,2.2,0.9,4.9,2.2,7.2c1.3,2.3,3.1,4.2,5.3,4.7c0.8,0.9,1.3,1.2,2,1.9c1.8,4-10.3,8.4-15.5,10
								c-1.9,5.3-8,9.6-12.7,9.5c-3.4-0.1-3.7-0.7-5.8-1.8c7.5-1.4,10.3-1.1,10-18.5c0-0.4,0-0.7,0-0.9c0-0.1,0-0.2,0-0.3
								c0,0,0-0.1,0-0.1c0,0,0,0-0.1-0.1c-0.1-0.2-0.2-0.3-0.4-0.3c-0.1,0-0.2,0.1-0.3,0.2c-0.1,0.1-0.1,0.3-0.1,0.4v0v0
								c-3.6,10.7-13.6-30.7-15.7-45.8c-0.5-3.6,3.3-11.2,2.9-15.3c0.1-0.1-0.9-0.2-0.9-0.2c-0.3,1.8-1.1,3.9-1.9,5.9c0,0,0,0,0,0
								c-0.2,0.2-0.5,0.3-0.9,0.6c-0.6,0.5-1.4,1.4-2.1,2.4c-1.4,2.2-3,3.4-1.1,8.6c0.7,1.9-2.7,5.4-4,6.2c0.1-3.1-5-4-5.9-3.6
								c-0.5-3.4,1-7.7,3.3-9.7c2.6-2.6,4.7-11.2,3.1-15.1c-0.1-0.4-0.6-0.7-1-0.6c-0.2,0-0.5,0.2-0.6,0.4c-0.1,0.2-0.1,0.5-0.1,0.7
								c0.3,0.5,0.4,1.3,0.5,2.1c0,0,0,0,0,0c-1.2,1-4-4.5-1.6-6.2c0.4,0.1,1,0.2,1.3,0.2c0.5-0.1,0.8-0.6,0.7-1
								c-0.1-0.5-0.6-0.8-1-0.7c-1.6,0.3-6.4-1.3-9.3-3.2c-8.6,2.9-10.2,2.5-12.6-0.4c1.5-1.9,0.2-5,0.2-5.3
								c1.7-1.4,3.2-1.6,4.9-1.2c0.9,0.2,3.5,0.9,5.1,2.4c3-1.1,8,1.3,8.7,3.5c0.1,0.3,0.3,0.5,0.6,0.6c0,0,0.1,0.2,0.1,0.2
								c0.3,0.1,0.7,0,0.9-0.3c0.2-0.3,0.3-0.6,0.1-0.9c-0.6-2.1-3.1-12.3-10.6-12.4h0c0,0-3.8-0.8-4-5c1.4-0.5,4.6-2.9,4.3-5.5
								c0.1,0,0.1,0,0.1,0c3.7,1.1,5.5,5,5.5,6.8c1.5,1,6.7,2.5,8.1,16.1c0,0.3,0.2,0.7,0.5,0.8c0.3,0.2,0.7,0.1,0.9-0.1
								c0.3-0.2,0.4-0.6,0.3-0.9c-0.3-3.3-0.9-6-1.6-8.2c0.1-3.8-0.7-6.4-3.3-9.8c0-0.1,0-0.1-0.1-0.2c-1.3-2.3-1.6-4.7,0.1-6.5
								C161.6,164.4,165.5,163.1,165.7,163L165.7,163z M143.3,165.5c1,0,2.1,0.1,3,0.3c0.1,0.3,0.1,1.3,0,2
								c-0.1,0.1-0.3,0.3-0.4,0.4c-1.8-0.3-5.3-1.9-6.7-0.2c-0.2,0.1-0.3,0.2-0.3,0.3c0,0.1,0.2,0.3,0.4,0.3c0.2,0,0.5,0,0.6-0.1
								c1.5-0.4,3.8,0.1,4.3,1c-0.2,0.1-0.5,0.3-0.7,0.4c-1.6-0.4-4-0.7-6.4,0.7C137.2,166.8,140.2,165.6,143.3,165.5L143.3,165.5z
								 M214.7,168.2c1,0,2.3,0.1,3.9,0.4c1.9,0.3,4.1,0.6,6.1,0.5c0.4,0,0.7-0.2,1.1-0.2c0.6,3.3,0.2,5.2-1,6.3
								c-1.2,1.1-3.3,1.4-5.6,1.3c-2.3-0.1-4.8-0.6-6.9-0.8c-0.4,0-0.6,0-1-0.1c-0.3-0.1-0.7-0.1-0.9-0.2c-0.3-0.2-0.4-0.4-0.5-0.6
								c-0.1-0.5,0-1.3,0.5-2.2C211.5,170.7,213.3,169,214.7,168.2L214.7,168.2z M209.3,177c1.1,0,2.2,0.1,3.8,0.4
								c2.2,0.3,4.8,0.7,7.3,0.6c0.4,0,0.7-0.1,1.1-0.2c0.6,4.1-0.1,6.2-1.5,7.3c-1.3,1.1-3.4,1.3-5.8,1.1c-2.4-0.2-5.1-0.7-7.4-0.7
								c-0.6,0-1,0.1-1.6,0.2c-0.1,0-0.1,0-0.2-0.1c-0.1,0-0.3,0-0.4,0c-0.2-0.1-0.4-0.3-0.4-0.5c-0.2-0.6,0-1.7,0.6-2.8
								C205.7,180.2,207.6,178.2,209.3,177L209.3,177z M256.7,179c2.9,0.6,5.6,2.1,7.1,4.3c1.5,2.1,2,4.9,1.1,8.1
								c-0.3-0.9-0.6-1.6-1.1-2.1c-0.8-0.7-1.8-0.9-2.8-0.8c-1.6,0.1-2.9,0.7-3.8,1.1c-0.1-0.4-0.2-0.7-0.3-1.1
								c-0.1-0.8-0.2-1.8-0.2-2.7c0.5-0.2,1.2-0.2,2-0.2c1.8,0.1,4,0.8,5,1.7c0.2,0.1,0.4,0.1,0.6-0.1c0.1-0.2,0.1-0.4,0-0.6
								c-2.5-2.2-4.4-2.7-5.7-3c-0.7-0.2-1.2-0.3-1.6-0.6c-0.2-0.1-0.3-0.5-0.5-0.7C256.5,181.2,256.6,180.1,256.7,179L256.7,179z
								 M281.3,182.6c0.2,0,0.5,0.2,0.9,0.6c0.4,0.4,0.7,1.1,1.2,1.9c0.8,1.7,1.6,4,2.4,6.4c1.5,4.9,2.7,10.6,3.2,13.4
								c1.5,9.6,1.6,15.9,2,19.7c0,0.4,0.1,0.7,0.2,1c-0.6,0.4-1.4,0.6-2.4,0.4c-1.2-0.2-2.6-0.8-4-1.7c-2.7-1.7-5.3-4.3-6.4-6.4
								c0-0.1,0-0.2-0.1-0.2c-0.1-0.1-0.2-0.2-0.4-0.2h0c0,0,0,0-0.1,0c-0.2,0-0.4,0.1-0.4,0.3c0,0.1,0,0.1-0.1,0.2
								c-2,2.3-3,4.5-3.3,6.4c-0.2,2,0.4,3.8,1.4,5.2c1,1.4,2.4,2.5,3.8,3.3c0.7,0.4,1.3,0.5,2,0.7c-2.6,0.4-5.8,0.8-9-0.1
								c-3.7-1.1-7.1-4-8.7-11.6c0,0,0,0-0.1,0c0-0.1,0.1-0.2,0.1-0.3c-0.1-0.2-0.3-0.2-0.5-0.2c-0.1,0-0.2,0.1-0.2,0.1
								c0,0,0,0-0.1,0.1c-3.3,2.5-5.4,6.5-6.1,10c-0.3,1.8-0.4,3.4,0.1,4.7c0,0.1,0.1,0.1,0.2,0.2c-3.3-1.9-5.4-4.3-6.5-7.1
								c-1.4-3.3-1.4-7-0.9-10.9c0.1-0.1,0.2-0.2,0.2-0.3c0,0,0.1-0.1,0.1-0.1c0-0.1,0.1-0.1,0.1-0.1c0,0,0,0,0,0c0,0,0.1,0,0.1-0.1
								c0,0,0,0,0.1-0.1c0,0,0-0.1,0-0.1v-0.1l-0.1-0.2l-0.2-0.1l-0.2-0.1l-0.1,0c0,0-0.1,0-0.1,0.1c-0.1,0.1-0.1,0-0.1,0.1
								c0,0,0,0-0.1,0c-0.1,0-0.3,0.1-0.3,0.2c-1.3,2.2-4.6,5.7-8.8,8.1c-3.7,2.1-8,3.2-12.1,1.9c2.5-8.3,7-13.5,11.9-16.4
								c4.7-2.8,9.5-3.4,13.1-3.1c0,0,0,0,0,0.1c-0.6,2-0.9,4.8-0.9,7.8v0v0.1c0,0.2,0.2,0.4,0.4,0.5c0.2,0,0.4-0.2,0.5-0.4v-0.1
								c0,0,0.1,0,0.1-0.1c0.5-2.5,2.4-5.7,4.7-8c1.1-1.1,2.4-2,3.6-2.6c0.9-0.4,1.7-0.4,2.5-0.3c-0.1,0.8-0.2,1.4-0.2,2.3
								c-0.2,3.6-0.1,7.9-0.1,11v0.1c0,0.2,0.1,0.4,0.4,0.4h0c0,0,0,0,0,0c0.1,0,0.1-0.1,0.2-0.2c0.1-0.1,0.2-0.1,0.2-0.1
								c0,0,0,0,0-0.1c0,0,0,0,0,0c0,0,0-0.1,0-0.1c1.5-6.3,3-11.8,4.5-15.2c0.7-1.7,1.5-3,2.1-3.5c0.3-0.3,0.6-0.4,0.8-0.4
								c0.2,0,0.4,0.1,0.6,0.3c0,0,0,0.1,0,0.1c0.1,0.3,0.2,0.7,0.3,1.2c0.2,1,0.4,2.5,0.5,4.1c0.3,3.3,0.5,7.2,0.7,9.8
								c0,0,0,0,0,0.1c0,0.2,0.2,0.4,0.4,0.4c0.2,0,0.4-0.2,0.4-0.4c0,0,0,0,0-0.1c0.3-8.5,2-17.3,3.7-23.9c0.8-3.3,1.7-6.1,2.4-8
								C281.1,183.1,281.2,182.9,281.3,182.6L281.3,182.6z M137.2,185c0.2,0.5,0.2,0.6,0.4,1.3c-1,0.1-2.3,0.4-3.3,1.5
								c-0.1,0.1-0.1,0.2-0.1,0.4c0,0.1,0.1,0.3,0.3,0.3c0.1,0,0.3,0,0.4-0.2c0.7-0.9,1.9-0.8,2.8-0.7c0,0.7-0.2,1.3-0.5,2
								c-1-0.2-2.5-0.3-3.7,1.5C132.4,186.9,135.4,185.4,137.2,185L137.2,185z M204.7,187.4c1.1-0.1,2.4-0.1,3.6,0.1
								c2.5,0.2,5.2,0.8,7.6,0.8c0.8,0,1.5-0.1,2.2-0.2c0.5,4.3-0.3,6.7-1.8,8c-1.5,1.4-3.9,1.8-6.6,1.8c-2.7,0-5.6-0.3-8.1-0.2
								c-1.2,0-2.3,0.2-3.3,0.5c-0.3-0.1-0.5-0.3-0.6-0.7c-0.2-0.9,0.3-2.6,1.2-4.3c0.9-1.7,2.2-3.5,3.5-4.7c0.3-0.3,0.7-0.5,1-0.7
								C204,187.6,204.3,187.4,204.7,187.4L204.7,187.4z M379.8,190.3c0.3,0.1,0.7,0.2,0.9,0.2c-0.1,0.5-0.3,1-0.7,1.4
								c-0.1,0.1-0.2,0.1-0.2,0.2c0.1-0.4,0.2-0.7,0.2-1.1C379.9,190.7,379.9,190.5,379.8,190.3z M215.8,198.9
								c1.1,4,0.7,6.3-0.7,7.8c-1.5,1.5-4.1,2.1-7,2.5c-2.9,0.4-6.1,0.5-8.9,1.1c-1.1,0.3-2.1,0.7-3,1.2c-0.2-0.1-0.4-0.2-0.5-0.5
								c-0.4-0.9-0.5-2.5-0.3-4.2c0.2-1.7,0.7-3.5,1.3-4.9c0.3-0.7,0.6-1.3,0.9-1.7c0.1-0.2,0.2-0.2,0.4-0.3
								c1.6-0.4,3.5-0.6,5.5-0.6c2.8,0.1,5.9,0.3,8.6,0.1C213.4,199.5,214.7,199.3,215.8,198.9L215.8,198.9z M214,210
								c1.1,1.9,1.7,3.5,1.9,4.7c0.2,1.3,0,2.2-0.6,3c-1.1,1.5-3.5,2.2-6.5,2.7c-3,0.5-6.4,0.8-9.3,1.5c-1.5,0.4-3,1-4.1,1.8
								c-0.2-0.1-0.4-0.2-0.6-0.5c-0.4-0.8-0.5-2.2-0.3-3.8c0.2-1.6,0.7-3.2,1.3-4.5c0.3-0.6,0.6-1.2,0.9-1.6
								c0.2-0.2,0.3-0.3,0.5-0.4c1-0.4,2.1-0.7,3.3-0.9c2.9-0.5,6.2-0.6,9.2-1.1C211.3,210.8,212.7,210.5,214,210L214,210z
								 M335,215.2c0,1.4-0.9,2.4-2.1,2.9c-0.6,0.2-1.3,0.3-1.9,0.2c-0.1,0-0.2-0.1-0.3-0.1c-0.2-0.1-0.3-0.2-0.5-0.3
								c1.2,0,2.3-0.3,2.9-1c0.4-0.5,0.7-1,0.9-1.4c0,0,0-0.1,0-0.1C334.4,215.3,334.7,215.2,335,215.2L335,215.2z M214.9,221.2
								c1.1,1.3,1.7,2.4,2,3.4c0.3,1,0.2,1.9-0.2,2.7c-0.8,1.6-2.8,2.9-5.4,4.1s-5.7,2.2-8.6,3.2c-1.6,0.6-3,1.2-4.3,1.8
								c-1.5-0.3-2.5-1.1-3.1-2.3c-0.7-1.2-0.9-2.8-0.8-4.3c0.1-1.5,0.5-3,1-4c0.1-0.1,0.1-0.2,0.2-0.3c1.4-0.9,3.2-1.4,5.2-1.7
								c3-0.5,6.4-0.6,9.4-1.1C211.9,222.5,213.6,222,214.9,221.2z M156.2,225.4c0.5,0.2,1,0.4,1.5,0.6c-0.6,0.9-1.4,2.2-2.8,2.2
								c-0.2,0-0.3,0.1-0.4,0.2c-0.1,0.1-0.1,0.3,0,0.5c0.1,0.1,0.3,0.2,0.4,0.2c1.7,0,3.1-1.4,4.1-2.4c0.6,0.3,1.1,0.7,1.5,1
								c-1.6,1.4-5.2,3.8-8.8,0.4C154,228.4,155.4,226.6,156.2,225.4L156.2,225.4z M297,229.5c0,1.5-0.9,2.8-2.2,3.5
								c-0.6,0.3-1.7,0.4-1.5,0.4c0.7-0.3,1.3-0.8,1.6-1.3c0.4-0.5,0.6-1.1,0.8-1.7c0.1-0.2,0-0.3,0.1-0.5
								C296.2,229.8,296.6,229.6,297,229.5L297,229.5z M345.1,229.8c2.9-0.1,5.7,1.3,6.5,3.3c0,0.1,0,0.2,0,0.4c0,0.5-0.1,1.2-0.1,2
								c-0.1,1.7-0.3,3.9-0.4,6c-0.3,3.9-0.5,7.1-0.5,7.8c-3.8,2.8-7,0.1-8.1-2.1c-0.1-0.7-0.7-3.7-1.4-7.4
								c-0.4-2.1-0.8-4.2-1.1-5.8c-0.1-0.6-0.2-1.1-0.3-1.6C341.1,230.7,343.1,229.9,345.1,229.8L345.1,229.8z M333.2,230.6
								c1.6,0,3.1,0.7,4.2,2.1c0.1,0.5,0.2,1,0.3,1.8c0.3,1.6,0.7,3.7,1.1,5.8c0.7,3.8,1.3,7,1.4,7.6c-1.1,1.9-6.8,3.2-8.9,0.4
								c0-0.1,0-0.1,0-0.2l-3.8-15.3C328.4,231.7,330.8,230.6,333.2,230.6L333.2,230.6z M216.1,231.4c2.1,1.3,3.5,2.5,4.4,3.6
								c0.9,1.1,1.2,2.1,1.2,3c-0.1,1.8-1.8,3.5-4.3,5.2c-2.5,1.6-5.7,3.1-8.8,4.5c-1.5,0.7-2.8,1.4-4.1,2.1
								c-1.5,0.3-2.8-0.1-3.8-0.9c-1.2-0.9-2.1-2.4-2.8-3.9c-0.6-1.5-1-3.2-0.9-4.6c0-0.9,0.3-1.6,0.6-2.1
								c5.3-2.3,11.7-3.4,16.3-5.4C214.8,232.3,215.4,231.8,216.1,231.4L216.1,231.4z M321,232.1c1.5-0.1,3,0.3,4.5,1.4l3.7,14.7
								c-1.1,2.7-5.6,3.6-7.5,2.6l-5.6-15.2C316,234.1,318.2,232.3,321,232.1z M356.1,232.3c3.1,0.1,7.6,3.3,7.6,6l-3.8,14.9
								c-0.7,1.9-6.2,1.1-7.3-2.8c0,0,0,0,0,0c0,0,0.3-4.3,0.6-8.7c0.1-2.2,0.3-4.4,0.4-6.1c0.1-0.8,0.1-1.5,0.1-2
								c0-0.1,0-0.2,0-0.3C354.2,232.6,355.1,232.3,356.1,232.3L356.1,232.3z M312,235.2c0.8,0,1.4,0.2,2,0.6l5.7,15.8
								c-0.6,2-7.4,5.6-9.2,3.6l-5.7-15.8C305,237.3,309,235.2,312,235.2z M368.1,238.4c3.1,0,6.8,2.8,6.7,7.1l-6,14.9
								c-2.1,0.9-7.2-1.2-7.3-5.2l4-15.9C366.4,238.7,367.2,238.4,368.1,238.4L368.1,238.4z M300.2,239.3c0.9,0,1.8,0.3,2.7,0.9
								l5.6,15.4c-0.7,2.9-6.4,6.4-8.7,3.8l-6.5-15c0-0.1,0.1-0.3,0.1-0.2C293.4,243.1,296.8,239.5,300.2,239.3z M222.4,241.9
								c3.2,2,4.3,4,4.2,6.1c-0.1,2.1-1.6,4.4-3.7,6.5c-3.3,3.3-7.9,5.9-11.7,7.6c-0.9,0-1.9-0.3-2.9-1.1c-1.2-0.8-2.3-2.1-3.2-3.4
								c-0.9-1.3-1.5-2.7-1.7-3.8c-0.1-0.6-0.1-1.1,0-1.4c0.1-0.3,0.3-0.5,0.5-0.7c5.3-2.4,11.9-4.5,16.1-7.4
								C221,243.5,221.8,242.7,222.4,241.9L222.4,241.9z M289.2,244.6c0.9-0.1,1.6,0,2.3,0.3l6.8,15.5c0.1,4.1-7.9,7.8-9.8,6.1
								l-6.1-17C282.3,247.9,286,245.1,289.2,244.6z M379.1,246c3,0.1,7,2,6.9,4.7l-5.8,15.7c-3,2.3-9.2-3-9.4-5.1l5.9-14.7
								C377.3,246.2,378.1,246,379.1,246L379.1,246z M277.5,249.1c1-0.3,2.1,0,3.3,1.1l6.1,17c-0.2,1.8-6.9,6.5-10.4,4.4
								c-0.8-1.9-3.8-8.9-4.5-13.4c0.4-1.5,0.8-2.9,1.3-4.2c0.5-1.3,1.1-2.1,1.6-3.1C275.5,250.3,276.4,249.4,277.5,249.1
								L277.5,249.1z M341.5,251.3c0,0,0,0.1,0.1,0.1c0.2,1.3,7.7,2.7,8.6,2.6c-0.6,1.6,4.3,4.8,6.9,5.8c0.7,0.9,0.7,2.9,0.6,4
								c-0.2,2.7,0.6,6.2,4.5,8.7c2.5,1.6,11,4.6,11.1,11.4c0,4.9-3.9,7-5.7,8.1c1.5-2.9-0.1-5.9-3.4-6.5c-2.3-0.3-8.1-0.7-13-0.2
								c-0.5,0-0.8,0.5-0.8,0.9c0,0.5,0.5,0.8,0.9,0.8c2.2,0.5,3.3,0.3,2.9,2.2c0,0.1,0.1,0.1,0.1,0.1c-7.9,6.2-24.9,22.2-25.4,28.3
								c-0.1,1.7,1.6,3.6,4,3.4c0.1,0,8.3-4,11.8-0.9c-1.9,1.9-0.5,6.3-0.5,6.5c-4.4,3.2-9.5-1.3-17.9-1.4
								c-8.4-0.1-15.3,5.4-20.8,5.6c-0.7,0-1.1-0.1-1.5-0.2c0.5-0.7,0.9-1.3,0.9-1.3c0.1,0,0.5-0.3,0.6-0.3c0.2,0,0.3-0.1,0.4-0.3
								c0.1-0.2,0-0.3-0.1-0.5c-0.1-0.1-0.3-0.2-0.5-0.1c0.1,0,0,0-0.1,0c-0.1,0-0.2,0-0.3,0c-0.2,0-3.8,0.9-4.8,0.9
								c-2,0-6.4,1.5-9.2,3c-1.9,0.8-5.5,4.9-11,3.6c0.7-2.4-0.2-5.4-2-7.9c0.3,0,0.9-0.8,1.2-1.4c8.2-1.4,7.4,2.8,9.3-0.2
								c1.2-2,1.9,3.3,12.1-5.2c0.1-0.1,0.2-0.2,0.2-0.4c0-0.2-0.1-0.3-0.2-0.4c-0.1-0.1-0.3-0.1-0.4,0c-12.2,5-8.6,1.5-14.1,1.8
								c-5.2,0.2-3.8,1.4-6.9,1.4c-1.6,0-3.4-1.5-3.8-2.2c1.3-0.3,1.4-4.5,0.4-6.2c0.7-0.9,2.6-1.2,4.3-1.2c4.6,0,6.4,4.2,11.4,4.7
								c3.5,0,6.7-2.9,9.6-1c0.2,0.1,0.5,0.1,0.6-0.2c0.1-0.2,0-0.4-0.1-0.5c21.2,0.7,37-45.8,33.6-50.8c0-0.1-0.1-0.3-0.2-0.4
								c0,0-0.1,0-0.1,0c-0.4-1.4-1.3-3.3-3.5-4c0,0,0-0.2,0-0.2c-0.6-0.7-1.6-4.8-6-5.4c0.2-1.1,0.4-1.8,0.4-2.4
								c2.2-0.5,4.6-1.3,5.1-2C331.9,253.1,341.8,252.9,341.5,251.3L341.5,251.3z M389.3,252.1c2.8,0,6.7,2.4,7,4.7l-4.8,12.5
								c-2.2,2.6-7.6,0.7-8.4,0c-0.5-0.5-0.8-1.5-0.8-2.4l5.1-14.1C387.9,252.4,388.5,252.1,389.3,252.1z M226.1,253.5
								c0,0.6-0.1,1.3-0.2,1.9c-0.2,3.8-0.3,7.2-0.3,10.4c0,0,0,0,0,0v0c-0.6,2.3-1.6,3.7-2.7,4.4c-1.1,0.7-2.3,0.8-3.7,0.4
								c-2.5-0.8-5.3-3.6-7.3-7.4c5.2-1.8,10.5-5.1,13.7-9C225.8,254,225.9,253.8,226.1,253.5z M322.6,254.4
								c-0.4,5.7-9.6,12.5-13.1,12.4c0,0,0,0,0,0c-0.7-0.5-1.5-0.9-2-1.6C306.1,262.9,319.7,255.2,322.6,254.4L322.6,254.4z
								 M359.6,257.9c0,0.1,0.1,0.1,0.1,0.2c-0.1,0-0.1,0.1-0.2,0.1C359.5,258.1,359.5,258,359.6,257.9z M325.4,258.3
								c3.6,0.3,4.9,4.6,3.7,5.2c0.2,0.2-3.3,8.1-7.2,10.1c-1.3,0.7-3.1,0.3-4.2,0.2c-2-0.8-4.2-2.8-4.9-4.9
								c1-1.8,6.3-3.6,10.8-10.4C324.3,258.3,324.8,258.2,325.4,258.3L325.4,258.3z M398.1,258.4c2.5-0.6,7.5,2.2,7.8,6l-2.9,7.8
								c-1.7,1.3-9.6,1.4-9.7-1.6l4.5-12C398,258.5,398,258.4,398.1,258.4z M271.1,264.6c1.5-0.9,3.1,5.5,3.8,7.5l0,0
								c0,0.4-2.7,7.8-4.6-2.8c0.1-0.6,0.3-2.6,0.5-4.3C270.9,264.9,271,264.6,271.1,264.6z M331.3,265.2c0.4,0.6,1.6,0.7,2,2.5
								c-0.5,3-1.3,6.7-2.6,10.7c-1.8,0.7-5.1-0.4-7-1.5c-0.4-0.5-0.6-1-0.3-1.7c4.2-2.8,6.3-7.8,7-9.7
								C330.8,265.2,331.1,265,331.3,265.2z M407.2,266.5c1.6-0.2,6.2,3.1,6.7,7.4l0.1,0.3c-0.8,2.6-7.2,2-9-1.2L407.2,266.5z
								 M225.5,269.7c0,1.8-0.1,3.1-0.2,4.3c-0.5-0.5-0.9-1-1.1-1.7c0,0,0.1-0.1,0.1-0.1C224.7,271.5,225.1,270.7,225.5,269.7
								L225.5,269.7z M285.4,302.4c1.2,0,1.6,0.3,2.8,1.4c1.2,1.1,2,3.1,4.1,5.2c1.9,1.9,7.2,4.7,10.3,5.6c-1.1,0.4-2.2,0.6-3.3,0.8
								c-2.9-0.9-6.4,1.3-11.3-2.9c-0.7-0.6-2.5-1-4.3-1.3c-1-0.8-3.7-2.9-3.4-3.1c1.3-2.1,2.8-4.2,2.4-4.8
								C283.3,302.6,284.2,302.4,285.4,302.4L285.4,302.4z M277.7,302.9c1.3-0.3,2.6,0.1,3.7,0.7c-0.1,0.3-0.3,0.5-0.4,0.8
								c-0.8-0.5-1.9-0.9-3.8-0.5c-0.2,0-0.3,0.1-0.4,0.3c-0.1,0.1,0,0.3,0.1,0.4c0.1,0.1,0.3,0.1,0.5,0.1c1.5-0.4,2.3,0.3,3,0.9
								c-0.1,0.3-0.3,0.6-0.5,0.8c-0.9-0.7-4.3-2.9-5.2,0.6C274.9,304.4,276.2,303.3,277.7,302.9z M396,304.6c1.4,0.1,2.4,0.7,3,1.1
								c0.1,0.2,0.2,0.5,0.2,0.7c0,0.1-0.1,0.2-0.1,0.2c-1.1-0.7-3-1.5-5.1-0.9c-0.2,0-0.3,0.1-0.4,0.3c-0.1,0.1,0,0.3,0.1,0.4
								c0.1,0.1,0.3,0.1,0.5,0.1c1.9-0.4,3,1,3.9,1.8c-0.4,0.4-0.8,0.8-1.2,1c-0.6-0.6-4.1-3.5-6.9,0.4
								C391.7,305.4,394,304.4,396,304.6L396,304.6z M180.4,305.1c1.3-0.3,2.3,0.8,2.9,1.5c0,0.1-0.1,0.3-0.1,0.3
								c0.1,0.1,0,0.3-0.1,0.5c-0.8-0.4-1.9-0.6-3.8-0.2c-0.2,0-0.3,0.1-0.4,0.3c-0.1,0.1,0,0.3,0.1,0.4c0.1,0.1,0.3,0.1,0.5,0.1
								c1.6-0.4,2.1,0.2,2.8,0.8c-0.3,0.5-0.6,0.7-0.9,1c-1.1-0.7-3.7-2.1-4.9,0C178,306.5,179.3,305.3,180.4,305.1L180.4,305.1z
								 M278.8,307.7C278.8,307.7,278.8,307.8,278.8,307.7C278.8,307.8,278.7,307.8,278.8,307.7
								C278.7,307.8,278.7,307.7,278.8,307.7z M272.8,314.4c0.1,0,0.1,0,0.2,0c0.2,0.1,0.6,0.3,0.8,0.4c0.2,0.2,0.3,0.5,0.4,0.8
								c-1.2-0.1-2.7,0-4,1c-0.1,0.1-0.2,0.2-0.2,0.4c0,0.2,0.1,0.3,0.3,0.4c0.2,0.1,0.3,0,0.4-0.1c1.3-1.1,2.8-0.2,3.8,0.2
								c0,0.5-0.1,0.8-0.2,1.3c-1-0.9-3.6-2.3-5.7,0.2C268.3,314.8,271.2,314.3,272.8,314.4L272.8,314.4z M390.9,318.1
								c0.3,0,0.4,0.1,0.6,0.1c0.1,0.5,0.1,1.1,0.1,1.7c-1.2-0.2-2.9-0.1-4.3,1c-0.1,0.1-0.2,0.3-0.2,0.4c0,0.2,0.1,0.3,0.3,0.3
								c0.2,0.1,0.3,0,0.5-0.1c1.1-0.9,2.2-0.4,3.2,0c-0.1,0.3-0.2,0.6-0.3,0.8c-1.2-0.5-4.6-1.4-5.1,3.2
								C383.2,318.8,388.1,318,390.9,318.1L390.9,318.1z M346.4,321c0,0,0,0.1,0,0.1c3.1,0.1,8.9,4.1,1.8,8.5c2.4-3-2-4.1-2.5-4.2
								c0-0.1,0-0.2,0-0.3c1,0,2.1-0.5,4,1.4c0.1,0.1,0.2,0.3,0.3,0.3c0.2,0,0.3-0.1,0.4-0.2c0.1-0.1,0.1-0.3,0-0.5
								c-0.9-1.9-3.4-2.9-4.7-3.2C345.9,322.4,346.1,321.8,346.4,321L346.4,321z M177,321.7c0.1,0.5,0.1,1-0.1,1.6
								c-1.2-0.2-2.9-0.2-4.4,1c-0.1,0.1-0.2,0.2-0.2,0.4c0,0.2,0.1,0.3,0.3,0.4c0.2,0.1,0.3,0,0.5-0.1c1.1-0.9,2.2-0.4,3.3,0
								c-0.3,0.6-0.5,1.1-0.7,1.5c-1.1-0.5-3.2-1.2-5,0.6C171.4,322,175,321.5,177,321.7L177,321.7z M465.6,325.1
								c1.4,0.4,9.1,3.4,2.7,9.3c1.6-4.7-2.9-5.1-3.7-5.2c0-0.2,0-0.4,0-0.7c1.2,0.1,2.7,0.1,3.3,1.6c0,0.2,0.2,0.3,0.3,0.3
								c0.2,0,0.3,0,0.4-0.2c0.1-0.1,0.1-0.3,0-0.5c-0.8-1.9-2.6-2.8-3.8-3.1C465.1,326.1,465.3,325.5,465.6,325.1L465.6,325.1z
								 M396.5,329.2c0.3,0.5,0.5,1,0.6,1.7c-1.2,0.3-3.2,1.1-4.1,3.2c-0.1,0.1-0.1,0.3,0,0.5c0.1,0.1,0.3,0.2,0.4,0.2
								c0.2,0,0.3-0.1,0.4-0.3c0.7-1.6,2.5-1.5,3.6-1.6c0,0.2,0,0.5,0.1,0.7c-1,0.1-5.6,0.6-4,5.2
								C386.8,332.4,395.8,329.4,396.5,329.2L396.5,329.2z M277.3,329.6c0.2,0.3,0.4,0.6,0.5,1c-1.2,0.4-2.8,1.2-3.6,3
								c-0.1,0.1-0.1,0.3,0,0.5c0.1,0.1,0.3,0.2,0.4,0.2c0.2,0,0.3-0.1,0.4-0.3c0.7-1.5,2.2-1.5,3.4-1.6c0.1,0.7,0.2,1.3,0.2,1.9
								c-1.4-0.3-4.6,0.1-5.6,2.8C270.3,334.1,273.9,330.4,277.3,329.6z M247.6,330.7c3.2,0.6,9,3.3,2.5,9.3
								c2.2-3.3-2.3-4.2-3.5-4.4c-0.1-0.3-0.1-0.7-0.1-1.1c1.3,0.1,3.3,0.1,4,1.6c0.1,0.2,0.2,0.3,0.3,0.3c0.2,0,0.3-0.1,0.4-0.2
								c0.1-0.1,0.1-0.3,0-0.5c-0.8-1.9-3.2-3-4.5-3.3C247,331.7,247.3,331.1,247.6,330.7L247.6,330.7z M180.4,337.3L180.4,337.3
								c0.3,0.5,0.6,0.8,0.9,1.4c-1.1,0.5-2.4,1.2-3.1,2.8c-0.1,0.1-0.1,0.3,0,0.5c0.1,0.1,0.2,0.2,0.4,0.2c0.2,0,0.3-0.1,0.3-0.3
								c0.5-1.2,1.7-1.4,2.8-1.5c0.1,0.7,0.1,1.3,0.1,1.8c-1.5-0.1-4.1,0.2-2.8,4C175,341.1,178.2,337.4,180.4,337.3L180.4,337.3z"
								/>
						</g>
					</g>
					<path id="Shade" class="st5" d="M254,212.4c0,0,0.8-189.5,143.4-189.5c86.4,0,137.8,162.5,30.1,287.8
						C296,464.5,254,486.7,254,486.7s-50.7-28.5-167.2-175.2C-22.5,174.4,24.3,22.1,125.7,23.7C255.6,25.3,254,212.4,254,212.4z"/>
					<g id="Shine" class="st6">
						<g>
							<g>
								<g>
									<g>
										<g>
											<defs>
												<path id="SVGID_3_" d="M254,212.4c0,0,0.8-189.5,143.4-189.5c86.4,0,137.8,162.5,30.1,287.8
													C296,464.5,254,486.7,254,486.7s-50.7-28.5-167.2-175.2C-22.5,174.4,24.3,22.1,125.7,23.7
													C255.6,25.3,254,212.4,254,212.4z"/>
											</defs>
											<clipPath id="SVGID_4_">
												<use xlink:href="#SVGID_3_"  style="overflow:visible;"/>
											</clipPath>
											<path class="st7" d="M520.2-27.8c0,288.6-119.6,304.4-267.8,304.4S-15.3,260.8-15.3-27.8
												c0-168.1,119.6-304.4,267.8-304.4S520.2-195.9,520.2-27.8z"/>
										</g>
									</g>
								</g>
							</g>
						</g>
					</g>
				</g>
			</g>
		</g>
	</g>
</g>
</svg>
