<?xml version="1.0" encoding="utf-8"?>
<!-- Generator: Adobe Illustrator 24.3.0, SVG Export Plug-In . SVG Version: 6.00 Build 0)  -->
<svg version="1.1" id="Heart" xmlns="http://www.w3.org/2000/svg" xmlns:xlink="http://www.w3.org/1999/xlink" x="0px" y="0px"
	 viewBox="0 0 512 512" style="enable-background:new 0 0 512 512;" xml:space="preserve">
<style type="text/css">
	.st0{fill:#072540;}
	.st1{opacity:0.25;fill:#FFFFFF;enable-background:new    ;}
	.st2{opacity:0.41;}
	.st3{clip-path:url(#SVGID_2_);fill:#FFFFFF;}
	.st4{fill:#93C2DB;}
	.st5{fill:#9C4668;}
</style>
<path id="Background" class="st0" d="M255.6,107c0,0,33.3-103.8,141.8-103.8c88.7,0.8,174.3,152.2,45.9,319.5
	C312.6,474.8,255.6,508.9,255.6,508.9s-55.5-26.2-183.8-185.5C-58.1,170.4,17.9,1.5,124.1,3.1C230.2,3.9,255.6,107,255.6,107z"/>
<path id="Shade" class="st1" d="M254,212.4c0,0,0.8-189.5,143.4-189.5c86.4,0,137.8,162.5,30.1,287.8C296,464.5,254,486.7,254,486.7
	s-50.7-28.5-167.2-175.2C-22.5,174.4,24.3,22.1,125.7,23.7C255.6,25.3,254,212.4,254,212.4z"/>
<g id="Shine" class="st2">
	<g>
		<g>
			<g>
				<defs>
					<path id="SVGID_1_" d="M254,212.4c0,0,0.8-189.5,143.4-189.5c86.4,0,137.8,162.5,30.1,287.8C296,464.5,254,486.7,254,486.7
						s-50.7-28.5-167.2-175.2C-22.5,174.4,24.3,22.1,125.7,23.7C255.6,25.3,254,212.4,254,212.4z"/>
				</defs>
				<clipPath id="SVGID_2_">
					<use xlink:href="#SVGID_1_"  style="overflow:visible;"/>
				</clipPath>
				<path class="st3" d="M520.2-27.8c0,288.6-119.6,304.4-267.8,304.4S-15.3,260.8-15.3-27.8c0-168.1,119.6-304.4,267.8-304.4
					S520.2-195.9,520.2-27.8z"/>
			</g>
		</g>
	</g>
</g>
<path class="st4" d="M364.9,156.6c0,0,59.6-46.1,31.9-128.7c0,0-34.1,11.9-28.4,47.6C375,115.7,375.3,140.4,364.9,156.6z"/>
<path class="st4" d="M95.8,391c0,0-25,47.9-79.8,25.4C16,416.5,38,363.5,95.8,391z"/>
<path class="st4" d="M119.8,408.4c0,0,39,43.9,0,83.8C119.8,492.1,78.3,448.1,119.8,408.4z"/>
<path class="st4" d="M466.9,213.2v-36.7h-36.7v36.7H466.9z"/>
<path class="st5" d="M430.2,250v-36.7h-36.7V250H430.2z"/>
</svg>
