<?xml version="1.0" encoding="utf-8"?>
<!-- Generator: Adobe Illustrator 24.3.0, SVG Export Plug-In . SVG Version: 6.00 Build 0)  -->
<svg version="1.1" id="Heart" xmlns="http://www.w3.org/2000/svg" xmlns:xlink="http://www.w3.org/1999/xlink" x="0px" y="0px"
	 viewBox="0 0 512 512" style="enable-background:new 0 0 512 512;" xml:space="preserve">
<style type="text/css">
	.st1{fill:url(#Background2_1_);}
	.st5{opacity:0.25;fill:#FFFFFF;enable-background:new    ;}
	.st6{opacity:0.41;}
	.st7{clip-path:url(#SVGID_2_);fill:#FFFFFF;}
</style>

<linearGradient spreadMethod="pad" id="Background2_1_" x1="0%" y1="0%" x2="100%" y2="0%">
<stop offset="0%" style="stop-color:rgb(0, 0, 0);stop-opacity:1;" />
	<stop offset="12.5%" style="stop-color:rgb(0, 0, 0);stop-opacity:1;" />
	<stop offset="12.5%" style="stop-color:rgb(120, 79, 22);stop-opacity:1;" />
	<stop offset="25%" style="stop-color:rgb(120, 79, 22);stop-opacity:1;" />
	<stop offset="25%" style="stop-color:rgb(228, 3, 3);stop-opacity:1;" />
	<stop offset="37.5%" style="stop-color:rgb(229, 4, 4);stop-opacity:1;" />
	<stop offset="37.5%" style="stop-color:rgb(254, 140, 1);stop-opacity:1;" />
	<stop offset="50%" style="stop-color:rgb(254, 140, 1);stop-opacity:1;" />
	<stop offset="50%" style="stop-color:rgb(255, 237, 0);stop-opacity:1;" />
	<stop offset="62.5%" style="stop-color:rgb(255, 237, 0);stop-opacity:1;" />
	<stop offset="62.5%" style="stop-color:rgb(1, 128, 37);stop-opacity:1;" />
	<stop offset="75%" style="stop-color:rgb(2, 129, 38);stop-opacity:1;" />
	<stop offset="75%" style="stop-color:rgb(3, 78, 255);stop-opacity:1;" />
	<stop offset="87.5%" style="stop-color:rgb(3, 78, 255);stop-opacity:1;" />
	<stop offset="87.5%" style="stop-color:rgb(117, 7, 135);stop-opacity:1;" />
	<stop offset="100" style="stop-color:rgb(118, 8, 136);stop-opacity:1;" />
</linearGradient>

<path id="Background2" class="st1" d="M255.6,107c0,0,33.3-103.8,141.8-103.8c88.7,0.8,174.3,152.2,45.9,319.5
	C312.6,474.8,255.6,508.9,255.6,508.9s-55.5-26.2-183.8-185.5C-58.1,170.4,17.9,1.5,124.1,3.1C230.2,3.9,255.6,107,255.6,107z"/>
<path id="Shade" class="st5" d="M254,212.4c0,0,0.8-189.5,143.4-189.5c86.4,0,137.8,162.5,30.1,287.8C296,464.5,254,486.7,254,486.7
	s-50.7-28.5-167.2-175.2C-22.5,174.4,24.3,22.1,125.7,23.7C255.6,25.3,254,212.4,254,212.4z"/>
<g id="Shine" class="st6">
	<g>
		<g>
			<defs>
				<path id="SVGID_1_" d="M254,212.4c0,0,0.8-189.5,143.4-189.5c86.4,0,137.8,162.5,30.1,287.8C296,464.5,254,486.7,254,486.7
					s-50.7-28.5-167.2-175.2C-22.5,174.4,24.3,22.1,125.7,23.7C255.6,25.3,254,212.4,254,212.4z"/>
			</defs>
			<clipPath id="SVGID_2_">
				<use xlink:href="#SVGID_1_"  style="overflow:visible;"/>
			</clipPath>
			<path class="st7" d="M520.2-27.8c0,288.6-119.6,304.4-267.8,304.4S-15.3,260.8-15.3-27.8c0-168.1,119.6-304.4,267.8-304.4
				S520.2-195.9,520.2-27.8z"/>
		</g>
	</g>
</g>
</svg>
